<svg width="39" height="32" viewBox="0 0 39 32" fill="none" xmlns="http://www.w3.org/2000/svg">
<path d="M7.06093 31.954C6.57216 31.954 6.12652 31.8072 5.72401 31.5134C5.3215 31.2185 5.04836 30.8328 4.90461 30.3563L0.0744584 13.3702C-0.069296 12.9778 -0.00489396 12.6134 0.267665 12.2771C0.541373 11.9407 0.908234 11.7725 1.36825 11.7725H10.0798L17.67 0.756806C17.8138 0.532567 18.015 0.350373 18.2738 0.210224C18.5325 0.0700746 18.8057 0 19.0932 0C19.3807 0 19.6538 0.0700746 19.9126 0.210224C20.1713 0.350373 20.3726 0.532567 20.5163 0.756806L28.1066 11.7725H36.9044C37.3644 11.7725 37.7312 11.9407 38.0049 12.2771C38.2775 12.6134 38.3419 12.9778 38.1981 13.3702L33.368 30.3563C33.2242 30.8328 32.9511 31.2185 32.5486 31.5134C32.1461 31.8072 31.7004 31.954 31.2117 31.954H7.06093ZM14.263 11.7725H23.9664L19.0932 4.70901L14.263 11.7725ZM19.1363 25.2269C20.0851 25.2269 20.8976 24.8978 21.5738 24.2397C22.2489 23.5804 22.5864 22.7883 22.5864 21.8633C22.5864 20.9383 22.2489 20.1462 21.5738 19.4869C20.8976 18.8288 20.0851 18.4997 19.1363 18.4997C18.1875 18.4997 17.3756 18.8288 16.7005 19.4869C16.0243 20.1462 15.6862 20.9383 15.6862 21.8633C15.6862 22.7883 16.0243 23.5804 16.7005 24.2397C17.3756 24.8978 18.1875 25.2269 19.1363 25.2269Z" fill="#161A24"/>
</svg>
