<svg width="88" height="76" viewBox="0 0 88 76" fill="none" xmlns="http://www.w3.org/2000/svg">
<g clip-path="url(#clip0_502_2128)">
<path d="M16.6086 37.3257C16.5548 37.6934 16.1106 38.6528 16.4113 39.0598C17.3359 40.3206 18.5509 41.3726 19.6533 42.5062C19.9809 41.9113 20.295 41.3088 20.6432 40.722C20.8112 40.4441 21.0075 40.1606 21.259 39.9603C26.0805 36.1228 30.7734 31.9291 37.2089 31.1777C42.5719 30.5492 47.9826 30.1504 53.3801 30.0096C57.4441 29.9014 60.0397 27.5464 62.5466 24.9457C63.1039 24.3698 63.2222 23.086 63.1039 22.1885C62.5808 18.2777 59.9778 16.2767 56.0643 16.6549C54.6766 16.7895 53.2555 16.8944 51.9379 17.2983C38.8479 21.2996 27.4463 28.3001 16.6086 37.3257ZM58.6995 46.1862C51.2209 54.1232 42.1643 59.5668 31.9571 63.2486C25.6495 65.5272 19.8597 64.5257 14.023 61.4382C9.55787 59.0753 8.61213 55.2267 8.62139 50.9554C8.63626 44.8702 11.5617 39.7637 14.9856 34.9592C21.5513 25.7375 30.7135 19.733 40.5928 14.7444C43.2518 13.403 46.3292 12.6286 49.3007 12.2157C55.0532 11.4221 60.526 12.9491 65.6657 15.4482C68.0805 16.6216 70.36 24.1816 69.5594 27.2514C67.2985 35.8949 65.4325 39.1544 58.7032 46.1828L58.6995 46.1862Z" fill="#364259"/>
</g>
<g clip-path="url(#clip1_502_2128)">
<path d="M53.6968 52.5296C53.536 52.6919 52.9663 53.004 52.9663 53.3155C52.9629 54.2776 53.1791 55.2426 53.31 56.2069C53.689 56.0324 54.0641 55.8492 54.4503 55.6862C54.6348 55.6102 54.8353 55.5417 55.0326 55.5346C58.8156 55.3998 62.6651 55.0417 66.119 57.0244C68.9981 58.6755 71.8169 60.4578 74.535 62.3628C76.5824 63.7961 78.7245 63.5805 80.9124 63.2108C81.398 63.1298 81.9251 62.5378 82.1943 62.0504C83.3635 59.924 82.8079 57.9815 80.7363 56.7369C80.0016 56.2958 79.2612 55.8278 78.4628 55.5456C70.5348 52.7363 62.3461 52.0288 53.6968 52.5296ZM71.2579 72.3132C64.6656 73.5044 58.2039 72.8844 51.8168 70.9718C47.8687 69.7916 45.3737 67.1777 43.6171 63.5146C42.2736 60.7118 43.2113 58.4615 44.7751 56.3515C47.0039 53.3459 50.3133 51.8895 53.7588 50.7649C60.3691 48.604 67.0877 48.9851 73.7898 50.1311C75.5932 50.4403 77.3963 51.183 79.0152 52.0658C82.147 53.7777 84.2934 56.5356 85.9205 59.6526C86.6852 61.1167 85.0517 65.6914 83.5355 66.9174C79.2632 70.3671 77.1514 71.2972 71.2609 72.3129L71.2579 72.3132Z" fill="#364259"/>
</g>
<defs>
<clipPath id="clip0_502_2128">
<rect width="70" height="39" fill="white" transform="translate(0 46.8887) rotate(-42.0546)"/>
</clipPath>
<clipPath id="clip1_502_2128">
<rect width="43" height="24" fill="white" transform="translate(42 51.1851) rotate(-5.58515)"/>
</clipPath>
</defs>
</svg>
