<svg width="40" height="46" viewBox="0 0 40 46" fill="none" xmlns="http://www.w3.org/2000/svg">
<g clip-path="url(#clip0_528_3167)">
<path d="M8.75092 22.6265C8.72357 22.8494 8.49783 23.431 8.65066 23.6777C9.12055 24.442 9.738 25.0797 10.2982 25.7669C10.4647 25.4063 10.6243 25.0411 10.8013 24.6854C10.8867 24.5169 10.9865 24.345 11.1142 24.2236C13.5645 21.8973 15.9494 19.3551 19.2199 18.8996C21.9454 18.5186 24.6951 18.2769 27.4381 18.1915C29.5034 18.1259 30.8225 16.6983 32.0965 15.1218C32.3797 14.7726 32.4398 13.9944 32.3797 13.4503C32.1139 11.0796 30.791 9.86655 28.8022 10.0958C28.097 10.1774 27.3748 10.241 26.7052 10.4859C20.0529 12.9115 14.2586 17.1552 8.75092 22.6265ZM30.1414 27.9977C26.3408 32.8092 21.7383 36.1091 16.551 38.341C13.3455 39.7223 10.4031 39.1152 7.43692 37.2436C5.16777 35.8112 4.68715 33.4781 4.69185 30.8889C4.69941 27.2 6.18613 24.1045 7.92612 21.1919C11.2628 15.6017 15.919 11.9618 20.9396 8.93771C22.2909 8.12456 23.8548 7.65509 25.3649 7.4048C28.2884 6.92369 31.0696 7.84939 33.6816 9.36436C34.9088 10.0757 36.0672 14.6586 35.6604 16.5195C34.5114 21.7592 33.5631 23.7351 30.1433 27.9957L30.1414 27.9977Z" fill="#748097"/>
</g>
<defs>
<clipPath id="clip0_528_3167">
<rect width="38.8022" height="22.0092" fill="white" transform="matrix(0.680729 -0.732535 0.603203 0.797588 0.310303 28.4238)"/>
</clipPath>
</defs>
</svg>
