<svg width="40" height="46" viewBox="0 0 40 46" fill="none" xmlns="http://www.w3.org/2000/svg">
<g clip-path="url(#clip0_528_3155)">
<path d="M8.44061 22.6265C8.41327 22.8494 8.18753 23.431 8.34036 23.6777C8.81025 24.442 9.42769 25.0797 9.98794 25.7669C10.1544 25.4063 10.314 25.0411 10.491 24.6854C10.5764 24.5169 10.6762 24.345 10.8039 24.2236C13.2542 21.8973 15.6391 19.3551 18.9096 18.8996C21.6351 18.5186 24.3848 18.2769 27.1278 18.1915C29.1931 18.1259 30.5122 16.6983 31.7862 15.1218C32.0694 14.7726 32.1295 13.9944 32.0694 13.4503C31.8036 11.0796 30.4807 9.86655 28.4919 10.0958C27.7867 10.1774 27.0645 10.241 26.3949 10.4859C19.7426 12.9115 13.9483 17.1552 8.44061 22.6265ZM29.8311 27.9977C26.0305 32.8092 21.428 36.1091 16.2407 38.341C13.0352 39.7223 10.0928 39.1152 7.12662 37.2436C4.85747 35.8112 4.37684 33.4781 4.38155 30.8889C4.3891 27.2 5.87582 24.1045 7.61582 21.1919C10.9525 15.6017 15.6087 11.9618 20.6293 8.93771C21.9806 8.12456 23.5445 7.65509 25.0546 7.4048C27.9781 6.92369 30.7593 7.84939 33.3713 9.36436C34.5985 10.0757 35.7569 14.6586 35.3501 16.5195C34.2011 21.7592 33.2528 23.7351 29.833 27.9957L29.8311 27.9977Z" fill="#161A24"/>
</g>
<defs>
<clipPath id="clip0_528_3155">
<rect width="38.8022" height="22.0092" fill="white" transform="matrix(0.680729 -0.732535 0.603203 0.797588 0 28.4238)"/>
</clipPath>
</defs>
</svg>
