<?xml version="1.0" encoding="UTF-8"?><svg id="Layer_1" xmlns="http://www.w3.org/2000/svg" width="380.22" height="302.84" viewBox="0 0 380.22 302.84"><defs><style>.cls-1{fill:#96b58a;}.cls-2{fill:#dcfeff;}.cls-3{fill:#364259;}.cls-4{fill:#96c38a;}</style></defs><rect class="cls-4" x="154.32" y="24.9" width="3.3" height="4.58"/><rect class="cls-4" x="153.74" y="25.04" width="3.3" height="4.44"/><rect class="cls-4" x="152.56" y="25.42" width="3.3" height="4.44"/><g><path class="cls-2" d="M299.15,61.66l-46.02,82.32,41.76,24.9c3.78-2.98,6.64-6.91,9.5-10.85,13.56-18,21.3-39,39.7-54,3.23-3.34,4.74-7.57,6.83-11.5l-51.77-30.87Zm-3.47,106.37c4.84-7,10.65-14,15.49-21-4.84,7-10.65,14-15.49,21Z"/><polygon class="cls-2" points="293.86 38.88 199.34 110.86 244.05 160.72 338.57 88.74 293.86 38.88"/><rect class="cls-2" x="171.14" y="240.74" width="19.5" height="66.69" transform="translate(276.96 -39.95) rotate(50.43)"/><rect class="cls-2" x="184.19" y="127.22" width="60.07" height="145.76" transform="translate(232.02 -92.51) rotate(50.43)"/><rect class="cls-4" x="219.79" y="130.76" width="22.75" height="15.02" transform="translate(190.51 -128.01) rotate(50.43)"/><rect class="cls-4" x="112.78" y="231.75" width="25.39" height="42.99" transform="translate(52.03 -19.67) rotate(11.3)"/><rect class="cls-4" x="43.85" y="98.39" width="18.64" height="30.74" transform="translate(79.79 -8.96) rotate(37.29)"/><rect class="cls-4" x="44.75" y="115.94" width="120.41" height="111.67" transform="translate(35.68 -17.23) rotate(11.3)"/><rect class="cls-4" x="124.24" y="82.85" width="107.95" height="64.97" transform="translate(26.04 -32.67) rotate(11.3)"/><rect class="cls-4" x="222.49" y="46.32" width="9.12" height="6.51" transform="translate(39.29 186.52) rotate(-48.42)"/><rect class="cls-4" x="145.86" y="26.26" width="8.47" height="30.14"/><rect class="cls-4" x="194.32" y="41.2" width="27.55" height="68.08" transform="translate(18.77 -39.3) rotate(11.3)"/><rect class="cls-4" x="154.55" y="32.75" width="42.18" height="52.63" transform="translate(-7.75 32.46) rotate(-10.33)"/><g id="OOdUFm"><g><path class="cls-1" d="M212.3,29.75c-2.4-2.08-3.29-4.2-3.07-7.32,.49-7.06,.88-14.13,1.27-21.2-18.76-3.14-38.78-.22-55.93,8.16-.66,3.62-1.04,7.42-1.14,11.39,1.71,.84,3.33,1.64,4.95,2.44-.98,1.58-1.71,3.41-3,4.68-3.54,3.49-7.85,6.51-3.75,12.36,.55,.79,.03,2.27,.21,3.4,.28,1.8,.2,3.96,1.19,5.27,3.46,4.58,7.57,8.67,10.98,13.28,6.07,8.23,14.43,11.26,24.18,11.72,2.3,.11,4.69,.15,6.87,.79,4.36,1.28,5.31,3.97,3.2,8.02-.78,1.49-1.58,2.97-2.55,4.79,4.62,1.1,6.64-.79,8.2-3.97,6.19-12.68,12.31-25.41,22.07-35.9,.84-.91,1.49-1.99,2.32-3.11-5.47-5.12-10.57-10.14-15.97-14.81Z"/><path class="cls-1" d="M135.16,277.49c3.35,.02,6.72,.13,10.06,.45,1.64,.16,4.61,.85,4.62,1.34,.06,4.49-.34,9-.72,13.49-.14,1.61-.59,3.19-.91,4.79,1.7-.6,3.83-.76,5.04-1.89,4.36-4.1,8.36-8.58,12.62-12.79,1.32-1.31,3.21-2.04,4.51-3.35,3.95-3.98,7.74-8.12,12.22-12.87-2.43-1.13-5.59-2.53-8.66-4.08-1.03-.52-2.37-1.28-2.69-2.22-.83-2.45-1.16-5.06-1.82-8.18,8.94-.15,14.84,3.95,19.71,11.25,.49-1.75,1.1-2.8,.83-3.13-2.64-3.28-.76-5.7,1.17-8.36,3.98-5.47,7.77-11.07,11.63-16.62-.28-.46-.55-.91-.83-1.37-3.11,5.07-6.26,3.85-9.74,1.07-2.57-2.06-5.5-3.67-7.67-5.09-1.44,4.2-2.56,7.5-3.89,11.39-3.61-7.44-6.6-13.59-9.54-19.65,5.19-2.73,9.58,.73,14.14,3.63,2.95,1.87,5.91,3.76,9.02,5.31,1.01,.5,3.17,.47,3.74-.21,3.82-4.51,7.42-9.21,10.89-13.99,.6-.82,.69-3.17,.27-3.4-3.07-1.62-6.24-3.28-9.57-4.01-1.23-.27-2.97,2.01-4.54,3.03-.97,.63-2.07,1.07-4.49,2.31,1.22-3.57,1.92-5.64,2.71-7.94-1.01-.51-1.97-.8-2.69-1.39-1.32-1.09-2.5-2.35-3.74-3.54,1.75-.03,3.65-.51,5.23-.01,5.97,1.88,11.84,4.07,18.11,6.27,3.11-8.63,7.07-16.31,8.93-25.36-4.15,.84-7.21,1.47-10.27,2.09-.22-.69-.44-1.37-.67-2.06,1.9-.76,3.74-1.97,5.7-2.2,6.78-.82,10.22-4.66,10.99-11.52-1.01,.09-2.04,.18-3.9,.34,.36-2.01,.09-4.27,1.09-5.4,2.91-3.3,6.18-6.35,9.58-9.15,7.12-5.86,7.67-9.08,2.33-16.59-2.51-3.53-5.05-7.03-7.54-10.57q-4.97-7.07-12.97-3.19c-.92-1.41-1.99-3.07-3.18-4.89-7.18,4.03-13.84,7.91-21.48,2.06-.37,2.93-.61,4.81-.77,6.14-3.44,.32-6.67-.18-9.07,1-8.1,3.99-15.33,9.49-23.93,12.82-5.98,2.31-11.15,6.7-17.11,10.43,1.9,5.29,4.05,11.3,6.45,18-2.75,0-4.72-.08-6.68,.02-6.3,.31-7.94,2.45-6.82,8.46,1.28,6.86,2.48,13.73,3.64,20.61,1.06,6.29,2.03,12.6,3.13,19.48-7.98,.9-15.25,1.73-22.71,2.57,3.73,6.01,7.64,12,11.16,18.2,.93,1.63,1.09,4.01,.83,5.94-.78,5.83,1.72,12.06-2.05,17.53-.12,.17,.2,.61,.27,.93,1.01,4.83,2.02,9.67,3.03,14.5,2.44-.16,4.71-.43,6.98-.41Z"/><path class="cls-1" d="M155.82,137.56c6.24-3.33,12.49-6.65,18.79-9.86,3.33-1.7,6.79-3.14,10.7-4.93,.09-.83,.28-2.71,.52-5.1,4.12,1.4,7.54,2.56,11.63,3.94,1.24-10.25,2.45-20.22,3.65-30.2-2.88-.48-5.55-.93-8.58-1.43,.62-2.39,.84-4.24,1.57-5.86,2.81-6.28,2.27-7.51-4.95-7.5-7.95,.01-15.32-1.75-21.55-6.54-3.36-2.58-5.62-6.55-8.71-9.54-5.41-5.23-11.8-9.81-9.77-18.86,.09-.41-.17-1.05-.49-1.37-5.31-5.27,0-8.57,2.38-12.29,.81-1.27,2.29-2.1,3.47-3.13-5.36,.56-10.19,1.98-14.82,3.87-2.55,1.04-4.63,3.73-7.19,4.2-7.45,1.38-11.89,5.99-15.67,12.03-1.89,3.02-4.16,6.55-7.16,8-8.16,3.94-16.69,7.21-25.29,10.13-5.24,1.78-10.36,3.06-14.02,7.83-2.8,3.65-6.62,6.49-9.61,10.01-3.35,3.96-7.27,7.89-9.11,12.56-1.98,5.02-3.95,10.84-.24,16.42,.63,.95,.12,2.62,.29,3.93,.54,4.09,1.04,8.2,1.82,12.25,.2,1.06,1.33,2.76,2.05,2.77,4.38,.04,4.45,3.36,5.02,6.21,.56,2.75,.81,5.56,1.29,9.02,7.86-.62,15.13-1.26,22.41-1.73,4.54-.29,9.43-1.42,13.58-.2,6.13,1.8,11.86,5.17,17.56,8.23,6.43,3.45,12.35,2.52,18.4-.92,7.27-4.12,14.66-8.02,22.03-11.96Z"/><path class="cls-1" d="M295.55,81.52c-1.12,2.19-2.24,4.37-3.88,7.58-.83-2.03-1.63-3.03-1.41-3.64,1.14-3.12,2.7-6.08,3.84-9.19,3.1-8.47,6.12-16.97,9.01-25.51,.38-1.14,.32-3.35-.35-3.77-5.27-3.29-3.15-7.23-1.04-11.27-1.62-.85-3.01-1.59-4.36-2.3-1.44,1.59-2.73,2.99-3.39,3.72-2.8-2.61-5.25-4.9-7.45-6.96-.93-5.09-1.89-10.32-2.97-16.17-7.88,3.62-15.31,6.86-22.58,10.43-4.26,2.09-8.02,3.49-9.94-1.8-8.56,3.47-11.46,11.36-15.91,18.09-5.88,8.9-12.33,17.41-18.46,26.15-6.77,9.66-12.68,19.69-13.71,31.88-.59,7.01-1.52,13.98-2.31,21.06,5.19,.08,9.74-7.06,14.01,.33,1.02-.5,1.89-.71,2.46-1.25,3.38-3.21,5.6-2.52,8.09,1.39,4.1,6.45,8.93,12.43,13.14,18.81,1.34,2.04,1.7,4.73,2.63,7.5,3.9-4.33,8.5-9.08,12.64-14.19,1.82-2.26,2.72-5.26,4.33-8.53,.45,0,2.52,.65,3.57-.11,4.5-3.25,8.7-6.91,13.15-10.54-12.23-4-15.28-5.79-17.05-10.78,3.16,1.98,5.46,3.81,8.06,4.95,4.16,1.82,8.75,4.42,13.02,1.24,3.53-2.62,6.17-6.43,9.45-9.97-4.75-2.43-9.09-4.65-13.44-6.87,.35-.7,.69-1.41,1.04-2.11,3.77,1.65,7.46,3.53,11.34,4.83,1.49,.5,4.51,.25,4.95-.62,1.92-3.79,3.16-7.94,4.64-11.95-.37-.14-.74-.29-1.1-.43Z"/><path class="cls-1" d="M372.68,20.8c-.95-3.97-3.74-4.48-7.21-4.53-4.98-.06-9.97-.34-14.93-.79-8.43-.76-16.29,1.58-24.26,4.04,1.46,1.09,3.1,1.46,4.4,2.35,1.14,.78,1.89,2.13,2.81,3.23-1.46,.27-3.21,1.19-4.33,.69-2.66-1.18-5.01-3.03-7.43-4.57-1.2,3.73-1.1,3.61,2.28,6.24,.97,.76,1.18,2.48,1.95,4.24h-6.17c0,3.84-.94,7.81,.28,10.95,1.06,2.73,4.56,4.52,8.19,7.83-3.78-.92-6.2-1.51-9.34-2.27-.96,5.3-1.88,10.39-2.87,15.85,2.95,3.23,2.26,9.97-1.86,12.97-.68,.5-2.07,.88-2.65,.53-4.88-2.97-5.7,1.08-6.87,4.01-1.28,3.2-1.91,6.67-3.27,9.82-1.84,4.26-4.12,8.33-6.42,12.91-3.5-2.4-6.33,.64-9.27,3.51-3.45,3.37-7.1,6.54-10.46,10-5.5,5.66-10.83,11.49-16.55,17.59,8.18,7.04,17.55,9.87,26.21,7.85,13.35-3.11,25.39-10.18,35.04-20.42,4.38-4.65,10.34-8.04,12-14.97,.25-1.06,1.85-1.79,3.27-3.07-2.95-3.54-1.3-6.37,.79-9.19,1.23-1.65,2.12-2.84,1.07-5.6-1.06-2.81-.79-8.08,1.09-9.66,4.14-3.47,5.4-7.1,5.12-12.1-.12-2.18,.81-4.42,1.38-7.22h-10.09c.72-2.69,1.54-6.35,1.71-6.32,4.97,.89,9.95-5.54,15.04-.23-.64-1.41-1.28-2.81-1.93-4.22,5.07,2.95,7.87-2.02,11.05-2.84,.4-2.32,.74-4.3,1.07-6.29,.83-4.89,4.03-7.79,8.2-9.95,4.62-2.4,3.94-6.31,2.97-10.39Z"/><path class="cls-1" d="M380.05,128.84c.05-.02,.09-.04,.14-.06-.07,0-.14,0-.21,0,.02,.02,.05,.04,.07,.06Z"/><path class="cls-1" d="M338.57,111.82c-6.85,7.22-12.17,15.29-17.32,23.48,5.86-7.87,11.67-15.66,17.32-23.48Z"/><path class="cls-1" d="M367.78,49.97c-5.17,3.49-9.4,7.65-14.47,9.45-6.27,2.22-7.56,6.3-7.43,11.78,.09,4.11-.99,7.53-4.49,9.97-.53,.37-1.33,.97-1.3,1.42,.37,6.31,1.2,12.67-3.45,18.02,2.94,4.8-.76,7.46-3.27,10.61-.88,1.11-1.03,2.77-1.8,4-.97,1.54-2.1,3.03-3.41,4.29-1.17,1.13-2.91,1.71-3.97,2.91-6.62,7.47-13.56,14.47-24.5,17.83,2.72,4.56,5.21,9.1,7.75,13.52,.62-.78,1.25-1.57,1.89-2.36,3.97-5.42,7.96-10.78,11.93-16.11,5.15-8.19,10.47-16.25,17.32-23.48,5.68-7.84,11.2-15.7,16.45-23.66-.41-.9-.78-1.91-.48-2.34,3.12-4.44,5.82-9.56,9.96-12.81,.04-.03,.08-.06,.12-.09,4.94-8.26,9.52-16.68,13.63-25.34-3.45,2.77-6.32,6.08-10.46,2.39Z"/><path class="cls-1" d="M301.14,147.88c-.96-2.23-2.3-4.29-3.55-6.58-14.51,8.95-27.65,4.96-40.76-2.81-3.86,5.57-7.83,11.12-11.61,16.79-4.97,7.46-10.87,14.54-14.48,22.62-9.96,22.32-18.97,45.07-28.24,67.7-1.07,2.62-1.45,5.52-2.17,8.39-.99-.07-2.32-.17-3.66-.26-.14,.3-.27,.61-.41,.91,1.4,1.05,2.8,2.1,4.43,3.33-6.06,6.45-11.69,12.78-17.67,18.75-8.38,8.37-16.87,16.58-24.55,25.54,26.44,2.57,54.9-11.61,70.83-32.85,7-9,15-18,21-28,7-15,15-28,25-41,7.57-11.36,13.96-21.53,20.9-31.5-.05,.04-.1,.08-.15,.12,.05-.04,.1-.08,.15-.12,2.92-4.19,5.94-8.35,9.18-12.55-1.56-2.73-3-5.54-4.26-8.47Z"/><path class="cls-1" d="M122.25,259.4c2.81-3.31,2.55-6.51,1.14-10.12-.33-.86-.38-2.21,.08-2.93,2.29-3.62,.08-6.26-1.66-9.07-4.42-7.14-8.81-14.31-13.22-21.46,8.86,3.09,17.13,1.43,25.55-.42-.06-1.34,0-2.34-.17-3.31-2.1-12.28-4.15-24.58-6.43-36.83-.57-3.08-.14-5.29,2.97-6.34,3.05-1.03,6.17-1.86,9.64-2.89-1.7-4.44-3.45-8.98-5.41-14.1-9.24,6.25-17.35,3.08-25.36-1.3-1.17-.64-2.38-1.2-3.58-1.77-3.59-1.71-7.17-4.78-10.78-4.83-7.79-.1-15.77,.62-23.37,2.33-10.96,2.48-12.11,2.11-13.57-8.87-.24-1.79-1.4-4.91-2.2-4.93-6.04-.15-5.03-4.93-5.65-8.29-1.04-5.65-1.53-11.4-2.4-18.22-3.33,2.16-6.13,3.29-7.92,5.3-2.82,3.17-6.69,6.79-7.03,10.5-.76,8.3-4.51,12.53-13.08,11.83-2.78-.23-5.59-.04-8.39-.04,2.92,.48,6.38-.65,6.46,4.6,.15,9.55,1.34,19.08,1.39,28.63,.03,5.69-.75,11.52-2.1,17.06-2.63,10.8,2.83,18.14,10.22,24.18,7.45,6.08,14.17,12.34,17.35,21.75,1.32,3.9,3.29,7.59,5.2,11.26,.56,1.07,1.88,2.45,2.88,2.47,5.99,.14,8.61,4.03,11.04,8.7,.91,1.75,3.29,2.67,4.75,4.21,2.82,2.96,5.67,5.93,8.09,9.2,1.48,2,1.82,4.87,3.34,6.83,4.13,5.33,8.51,10.5,13.07,15.47,.89,.98,3.43,1.59,4.55,1.04,8.86-4.4,17.56-9.12,26.92-14.06-.6-2.93-1.44-6.62-2.1-10.34-.31-1.76-1.08-4.27-.24-5.25Z"/><path class="cls-1" d="M122.25,259.4c2.81-3.31,2.55-6.51,1.14-10.12-.33-.86-.38-2.21,.08-2.93,2.29-3.62,.08-6.26-1.66-9.07-4.42-7.14-8.81-14.31-13.22-21.46,8.86,3.09,17.13,1.43,25.55-.42-.06-1.34,0-2.34-.17-3.31-2.1-12.28-4.15-24.58-6.43-36.83-.57-3.08-.14-5.29,2.97-6.34,3.05-1.03,6.17-1.86,9.64-2.89-1.7-4.44-3.45-8.98-5.41-14.1-9.24,6.25-17.35,3.08-25.36-1.3-1.17-.64-2.38-1.2-3.58-1.77-3.59-1.71-7.17-4.78-10.78-4.83-7.79-.1-15.77,.62-23.37,2.33-10.96,2.48-12.11,2.11-13.57-8.87-.24-1.79-1.4-4.91-2.2-4.93-6.04-.15-5.03-4.93-5.65-8.29-1.04-5.65-1.53-11.4-2.4-18.22-3.33,2.16-6.13,3.29-7.92,5.3-2.82,3.17-6.69,6.79-7.03,10.5-.76,8.3-4.51,12.53-13.08,11.83-2.78-.23-5.59-.04-8.39-.04,2.92,.48,6.38-.65,6.46,4.6,.15,9.55,1.34,19.08,1.39,28.63,.03,5.69-.75,11.52-2.1,17.06-2.63,10.8,2.83,18.14,10.22,24.18,7.45,6.08,14.17,12.34,17.35,21.75,1.32,3.9,3.29,7.59,5.2,11.26,.56,1.07,1.88,2.45,2.88,2.47,5.99,.14,8.61,4.03,11.04,8.7,.91,1.75,3.29,2.67,4.75,4.21,2.82,2.96,5.67,5.93,8.09,9.2,1.48,2,1.82,4.87,3.34,6.83,4.13,5.33,8.51,10.5,13.07,15.47,.89,.98,3.43,1.59,4.55,1.04,8.86-4.4,17.56-9.12,26.92-14.06-.6-2.93-1.44-6.62-2.1-10.34-.31-1.76-1.08-4.27-.24-5.25Z"/><path class="cls-1" d="M338.57,111.82c-6.85,7.22-12.17,15.29-17.32,23.48,5.86-7.87,11.67-15.66,17.32-23.48Z"/><path class="cls-1" d="M367.78,49.97c-5.17,3.49-9.4,7.65-14.47,9.45-6.27,2.22-7.56,6.3-7.43,11.78,.09,4.11-.99,7.53-4.49,9.97-.53,.37-1.33,.97-1.3,1.42,.37,6.31,1.2,12.67-3.45,18.02,2.94,4.8-.76,7.46-3.27,10.61-.88,1.11-1.03,2.77-1.8,4-.97,1.54-2.1,3.03-3.41,4.29-1.17,1.13-2.91,1.71-3.97,2.91-6.62,7.47-13.56,14.47-24.5,17.83,2.72,4.56,5.21,9.1,7.75,13.52,.62-.78,1.25-1.57,1.89-2.36,3.97-5.42,7.96-10.78,11.93-16.11,5.15-8.19,10.47-16.25,17.32-23.48,5.68-7.84,11.2-15.7,16.45-23.66-.41-.9-.78-1.91-.48-2.34,3.12-4.44,5.82-9.56,9.96-12.81,.04-.03,.08-.06,.12-.09,4.94-8.26,9.52-16.68,13.63-25.34-3.45,2.77-6.32,6.08-10.46,2.39Z"/><path class="cls-1" d="M155.82,137.56c6.24-3.33,12.49-6.65,18.79-9.86,3.33-1.7,6.79-3.14,10.7-4.93,.09-.83,.28-2.71,.52-5.1,4.12,1.4,7.54,2.56,11.63,3.94,1.24-10.25,2.45-20.22,3.65-30.2-2.88-.48-5.55-.93-8.58-1.43,.62-2.39,.84-4.24,1.57-5.86,2.81-6.28,2.27-7.51-4.95-7.5-7.95,.01-15.32-1.75-21.55-6.54-3.36-2.58-5.62-6.55-8.71-9.54-5.41-5.23-11.8-9.81-9.77-18.86,.09-.41-.17-1.05-.49-1.37-5.31-5.27,0-8.57,2.38-12.29,.81-1.27,2.29-2.1,3.47-3.13-5.36,.56-10.19,1.98-14.82,3.87-2.55,1.04-4.63,3.73-7.19,4.2-7.45,1.38-11.89,5.99-15.67,12.03-1.89,3.02-4.16,6.55-7.16,8-8.16,3.94-16.69,7.21-25.29,10.13-5.24,1.78-10.36,3.06-14.02,7.83-2.8,3.65-6.62,6.49-9.61,10.01-3.35,3.96-7.27,7.89-9.11,12.56-1.98,5.02-3.95,10.84-.24,16.42,.63,.95,.12,2.62,.29,3.93,.54,4.09,1.04,8.2,1.82,12.25,.2,1.06,1.33,2.76,2.05,2.77,4.38,.04,4.45,3.36,5.02,6.21,.56,2.75,.81,5.56,1.29,9.02,7.86-.62,15.13-1.26,22.41-1.73,4.54-.29,9.43-1.42,13.58-.2,6.13,1.8,11.86,5.17,17.56,8.23,6.43,3.45,12.35,2.52,18.4-.92,7.27-4.12,14.66-8.02,22.03-11.96Z"/><path class="cls-1" d="M135.16,277.49c3.35,.02,6.72,.13,10.06,.45,1.64,.16,4.61,.85,4.62,1.34,.06,4.49-.34,9-.72,13.49-.14,1.61-.59,3.19-.91,4.79,1.7-.6,3.83-.76,5.04-1.89,4.36-4.1,8.36-8.58,12.62-12.79,1.32-1.31,3.21-2.04,4.51-3.35,3.95-3.98,7.74-8.12,12.22-12.87-2.43-1.13-5.59-2.53-8.66-4.08-1.03-.52-2.37-1.28-2.69-2.22-.83-2.45-1.16-5.06-1.82-8.18,8.94-.15,14.84,3.95,19.71,11.25,.49-1.75,1.1-2.8,.83-3.13-2.64-3.28-.76-5.7,1.17-8.36,3.98-5.47,7.77-11.07,11.63-16.62-.28-.46-.55-.91-.83-1.37-3.11,5.07-6.26,3.85-9.74,1.07-2.57-2.06-5.5-3.67-7.67-5.09-1.44,4.2-2.56,7.5-3.89,11.39-3.61-7.44-6.6-13.59-9.54-19.65,5.19-2.73,9.58,.73,14.14,3.63,2.95,1.87,5.91,3.76,9.02,5.31,1.01,.5,3.17,.47,3.74-.21,3.82-4.51,7.42-9.21,10.89-13.99,.6-.82,.69-3.17,.27-3.4-3.07-1.62-6.24-3.28-9.57-4.01-1.23-.27-2.97,2.01-4.54,3.03-.97,.63-2.07,1.07-4.49,2.31,1.22-3.57,1.92-5.64,2.71-7.94-1.01-.51-1.97-.8-2.69-1.39-1.32-1.09-2.5-2.35-3.74-3.54,1.75-.03,3.65-.51,5.23-.01,5.97,1.88,11.84,4.07,18.11,6.27,3.11-8.63,7.07-16.31,8.93-25.36-4.15,.84-7.21,1.47-10.27,2.09-.22-.69-.44-1.37-.67-2.06,1.9-.76,3.74-1.97,5.7-2.2,6.78-.82,10.22-4.66,10.99-11.52-1.01,.09-2.04,.18-3.9,.34,.36-2.01,.09-4.27,1.09-5.4,2.91-3.3,6.18-6.35,9.58-9.15,7.12-5.86,7.67-9.08,2.33-16.59-2.51-3.53-5.05-7.03-7.54-10.57q-4.97-7.07-12.97-3.19c-.92-1.41-1.99-3.07-3.18-4.89-7.18,4.03-13.84,7.91-21.48,2.06-.37,2.93-.61,4.81-.77,6.14-3.44,.32-6.67-.18-9.07,1-8.1,3.99-15.33,9.49-23.93,12.82-5.98,2.31-11.15,6.7-17.11,10.43,1.9,5.29,4.05,11.3,6.45,18-2.75,0-4.72-.08-6.68,.02-6.3,.31-7.94,2.45-6.82,8.46,1.28,6.86,2.48,13.73,3.64,20.61,1.06,6.29,2.03,12.6,3.13,19.48-7.98,.9-15.25,1.73-22.71,2.57,3.73,6.01,7.64,12,11.16,18.2,.93,1.63,1.09,4.01,.83,5.94-.78,5.83,1.72,12.06-2.05,17.53-.12,.17,.2,.61,.27,.93,1.01,4.83,2.02,9.67,3.03,14.5,2.44-.16,4.71-.43,6.98-.41Z"/><path class="cls-1" d="M295.55,81.52c-1.12,2.19-2.24,4.37-3.88,7.58-.83-2.03-1.63-3.03-1.41-3.64,1.14-3.12,2.7-6.08,3.84-9.19,3.1-8.47,6.12-16.97,9.01-25.51,.38-1.14,.32-3.35-.35-3.77-5.27-3.29-3.15-7.23-1.04-11.27-1.62-.85-3.01-1.59-4.36-2.3-1.44,1.59-2.73,2.99-3.39,3.72-2.8-2.61-5.25-4.9-7.45-6.96-.93-5.09-1.89-10.32-2.97-16.17-7.88,3.62-15.31,6.86-22.58,10.43-4.26,2.09-8.02,3.49-9.94-1.8-8.56,3.47-11.46,11.36-15.91,18.09-5.88,8.9-12.33,17.41-18.46,26.15-6.77,9.66-12.68,19.69-13.71,31.88-.59,7.01-1.52,13.98-2.31,21.06,5.19,.08,9.74-7.06,14.01,.33,1.02-.5,1.89-.71,2.46-1.25,3.38-3.21,5.6-2.52,8.09,1.39,4.1,6.45,8.93,12.43,13.14,18.81,1.34,2.04,1.7,4.73,2.63,7.5,3.9-4.33,8.5-9.08,12.64-14.19,1.82-2.26,2.72-5.26,4.33-8.53,.45,0,2.52,.65,3.57-.11,4.5-3.25,8.7-6.91,13.15-10.54-12.23-4-15.28-5.79-17.05-10.78,3.16,1.98,5.46,3.81,8.06,4.95,4.16,1.82,8.75,4.42,13.02,1.24,3.53-2.62,6.17-6.43,9.45-9.97-4.75-2.43-9.09-4.65-13.44-6.87,.35-.7,.69-1.41,1.04-2.11,3.77,1.65,7.46,3.53,11.34,4.83,1.49,.5,4.51,.25,4.95-.62,1.92-3.79,3.16-7.94,4.64-11.95-.37-.14-.74-.29-1.1-.43Z"/><path class="cls-1" d="M372.68,20.8c-.95-3.97-3.74-4.48-7.21-4.53-4.98-.06-9.97-.34-14.93-.79-8.43-.76-16.29,1.58-24.26,4.04,1.46,1.09,3.1,1.46,4.4,2.35,1.14,.78,1.89,2.13,2.81,3.23-1.46,.27-3.21,1.19-4.33,.69-2.66-1.18-5.01-3.03-7.43-4.57-1.2,3.73-1.1,3.61,2.28,6.24,.97,.76,1.18,2.48,1.95,4.24h-6.17c0,3.84-.94,7.81,.28,10.95,1.06,2.73,4.56,4.52,8.19,7.83-3.78-.92-6.2-1.51-9.34-2.27-.96,5.3-1.88,10.39-2.87,15.85,2.95,3.23,2.26,9.97-1.86,12.97-.68,.5-2.07,.88-2.65,.53-4.88-2.97-5.7,1.08-6.87,4.01-1.28,3.2-1.91,6.67-3.27,9.82-1.84,4.26-4.12,8.33-6.42,12.91-3.5-2.4-6.33,.64-9.27,3.51-3.45,3.37-7.1,6.54-10.46,10-5.5,5.66-10.83,11.49-16.55,17.59,8.18,7.04,17.55,9.87,26.21,7.85,13.35-3.11,25.39-10.18,35.04-20.42,4.38-4.65,10.34-8.04,12-14.97,.25-1.06,1.85-1.79,3.27-3.07-2.95-3.54-1.3-6.37,.79-9.19,1.23-1.65,2.12-2.84,1.07-5.6-1.06-2.81-.79-8.08,1.09-9.66,4.14-3.47,5.4-7.1,5.12-12.1-.12-2.18,.81-4.42,1.38-7.22h-10.09c.72-2.69,1.54-6.35,1.71-6.32,4.97,.89,9.95-5.54,15.04-.23-.64-1.41-1.28-2.81-1.93-4.22,5.07,2.95,7.87-2.02,11.05-2.84,.4-2.32,.74-4.3,1.07-6.29,.83-4.89,4.03-7.79,8.2-9.95,4.62-2.4,3.94-6.31,2.97-10.39Z"/><path class="cls-1" d="M380.05,128.84c.06-.02,.11-.05,.17-.07-.09,0-.17,0-.26,0-.02-.01,.09,.07,.09,.07Z"/></g></g><g id="nErwX3.tif"><path class="cls-3" d="M222.69,141.87c.1,.18,.2,.34,.42,.38,.23,.04,.41-.07,.57-.37,1.42-2.58,2.85-5.15,4.27-7.73,.69-1.26,1.4-2.51,2.07-3.78,.5-.93,.75-1.94,.82-2.99,0-.08,.02-.16,.03-.24v-.41c-.04-.37-.08-.74-.13-1.11-.22-1.38-.8-2.6-1.69-3.66-.93-1.11-2.09-1.91-3.47-2.34-.56-.17-1.15-.25-1.73-.36-.07-.01-.15-.03-.22-.04h-.9c-.49,.09-.99,.15-1.48,.26-1.35,.33-2.51,1.01-3.49,1.99-1.1,1.1-1.81,2.42-2.11,3.94-.36,1.84-.08,3.6,.82,5.24,2.06,3.75,4.14,7.49,6.2,11.23Zm.52-18.83c2.15,.04,3.84,1.77,3.81,3.88-.04,2.14-1.78,3.84-3.89,3.8-2.12-.04-3.82-1.79-3.77-3.89,.04-2.12,1.78-3.83,3.86-3.79Z"/></g><g id="nErwX3.tif-2"><path class="cls-3" d="M38.38,130.73h.9c.07,.01,.15,.02,.22,.04,.58,.12,1.17,.19,1.73,.36,1.38,.43,2.54,1.23,3.47,2.34,.9,1.06,1.47,2.29,1.69,3.66,.06,.37,.09,.74,.13,1.11v.41c-.01,.08-.03,.16-.03,.24-.07,1.05-.32,2.06-.82,2.99-.68,1.27-1.38,2.52-2.07,3.78-1.42,2.58-2.85,5.15-4.27,7.73-.17,.3-.35,.42-.57,.37-.21-.04-.32-.2-.42-.38-2.07-3.74-4.14-7.49-6.2-11.23-.91-1.64-1.18-3.4-.82-5.24,.3-1.53,1.01-2.85,2.11-3.94,.98-.98,2.14-1.66,3.49-1.99,.49-.12,.98-.18,1.48-.26Zm.47,3.84c-2.07-.04-3.81,1.67-3.86,3.79-.04,2.1,1.66,3.85,3.77,3.89,2.11,.04,3.85-1.66,3.89-3.8,.04-2.11-1.66-3.84-3.81-3.88Z"/></g><g><path class="cls-3" d="M182.08,160.72v-10.08h.95v5.22l5.17-5.22h1.08l-3.98,4.02,4.68,6.06h-1.16l-4.2-5.47-1.58,1.58v3.89h-.95Z"/><path class="cls-3" d="M190.44,160.72l3.96-10.08h1.08l3.86,10.08h-.98l-1.16-3.16h-4.59l-1.19,3.16h-.98Zm2.49-3.98h3.95l-1.97-5.29-1.97,5.29Z"/><path class="cls-3" d="M200.61,160.72v-10.08h6.5v.81h-5.54v3.64h5.04v.81h-5.04v4.82h-.95Z"/><path class="cls-3" d="M208.39,160.72v-10.08h6.5v.81h-5.54v3.64h5.04v.81h-5.04v4.82h-.95Z"/><path class="cls-3" d="M216.27,160.72v-10.08h6.71v.81h-5.75v3.64h5.19v.81h-5.19v4h5.89v.81h-6.85Z"/><path class="cls-3" d="M224.83,160.72v-10.08h3.64c.59,0,1.09,.06,1.51,.18,.42,.12,.76,.29,1.03,.52,.27,.22,.46,.49,.58,.8,.12,.31,.18,.66,.18,1.03s-.05,.66-.14,.92c-.09,.26-.21,.47-.36,.64s-.32,.31-.51,.41c-.19,.1-.39,.17-.6,.2v.03c.7,.1,1.22,.38,1.56,.83,.34,.45,.51,1.01,.51,1.68,0,.52-.08,.97-.25,1.33-.16,.36-.39,.66-.68,.88-.29,.22-.64,.38-1.04,.48-.41,.1-.85,.15-1.32,.15h-4.12Zm.95-5.63h2.41c.49,0,.91-.04,1.25-.13s.61-.21,.81-.37,.35-.36,.44-.6c.09-.24,.13-.51,.13-.82s-.05-.59-.15-.81c-.1-.22-.27-.4-.49-.53-.22-.14-.52-.23-.88-.29-.36-.06-.8-.09-1.32-.09h-2.2v3.64Zm0,4.82h2.42c.52,0,.98-.02,1.37-.07,.39-.05,.71-.14,.96-.29s.44-.35,.57-.62,.19-.62,.19-1.06-.07-.76-.21-1.02-.34-.46-.6-.59c-.26-.14-.57-.24-.94-.29-.36-.05-.77-.08-1.22-.08h-2.53v4Z"/><path class="cls-3" d="M233.24,160.72l3.96-10.08h1.08l3.86,10.08h-.98l-1.16-3.16h-4.59l-1.19,3.16h-.98Zm2.49-3.98h3.95l-1.97-5.29-1.97,5.29Z"/><path class="cls-3" d="M244.44,156.14v4.58h-.95v-10.08h3.95c1.11,0,1.96,.21,2.55,.62s.88,1.09,.88,2.02c0,.63-.13,1.14-.38,1.51-.26,.37-.67,.69-1.25,.95,.3,.1,.53,.25,.7,.45,.17,.2,.29,.42,.38,.67,.08,.25,.14,.52,.16,.8,.02,.28,.04,.55,.05,.81,0,.38,.03,.7,.05,.95,.02,.25,.05,.46,.08,.62,.03,.16,.07,.28,.12,.37,.05,.09,.1,.16,.17,.2v.08h-1.05c-.1-.15-.17-.39-.22-.69s-.07-.61-.1-.94c-.02-.33-.04-.64-.06-.95-.01-.31-.04-.56-.08-.76-.06-.27-.15-.49-.27-.65s-.28-.29-.46-.37c-.18-.08-.38-.14-.59-.17-.22-.03-.45-.04-.68-.04h-3Zm2.97-.81c.35,0,.68-.04,.99-.11,.3-.08,.57-.19,.79-.36,.22-.16,.4-.37,.53-.62s.2-.55,.2-.91c0-.37-.07-.68-.2-.92-.13-.24-.32-.43-.55-.57-.23-.14-.49-.24-.78-.29-.29-.06-.6-.08-.92-.08h-3.02v3.88h2.97Z"/></g><g><path class="cls-3" d="M177.01,100.67v-6.48h.61v3.36l3.32-3.36h.69l-2.56,2.58,3.01,3.9h-.75l-2.7-3.52-1.02,1.02v2.5h-.61Z"/><path class="cls-3" d="M188.52,93.95l.35,.32-.78,.9c.17,.19,.33,.48,.46,.88,.13,.39,.19,.86,.19,1.4,0,.47-.06,.91-.19,1.32-.13,.41-.32,.77-.57,1.08-.25,.31-.57,.55-.94,.73-.38,.18-.82,.27-1.31,.27-.41,0-.78-.06-1.11-.18-.32-.12-.61-.3-.86-.53l-.77,.87-.35-.31,.8-.91c-.25-.31-.43-.66-.55-1.06-.12-.4-.18-.83-.18-1.29s.07-.93,.2-1.35c.13-.42,.33-.78,.58-1.08s.57-.55,.94-.72,.79-.27,1.26-.27c.41,0,.79,.06,1.14,.18,.35,.12,.67,.32,.95,.6l.75-.86Zm-1.12,1.29c-.17-.19-.4-.36-.67-.49-.27-.13-.61-.2-1.03-.2s-.77,.08-1.08,.24c-.3,.16-.55,.38-.75,.65-.2,.27-.34,.58-.43,.93-.09,.35-.14,.71-.14,1.08s.04,.7,.12,1.03,.21,.62,.38,.88l3.58-4.11Zm-3.29,4.47c.19,.19,.42,.34,.69,.45,.27,.11,.57,.16,.92,.16,.42,0,.78-.08,1.08-.23s.55-.37,.75-.63c.19-.27,.34-.57,.43-.92,.09-.35,.14-.71,.14-1.09,0-.32-.03-.63-.1-.94-.07-.31-.18-.6-.34-.86l-3.57,4.08Z"/><path class="cls-3" d="M189.98,100.67v-6.48h2.34c.38,0,.7,.04,.97,.12s.49,.19,.66,.33,.3,.32,.37,.52,.12,.42,.12,.66-.03,.42-.09,.59c-.06,.17-.14,.3-.23,.41s-.21,.2-.33,.26c-.12,.06-.25,.11-.38,.13v.02c.45,.07,.78,.24,1,.53,.22,.29,.33,.65,.33,1.08,0,.34-.05,.62-.16,.85-.1,.23-.25,.42-.44,.57-.19,.14-.41,.25-.67,.31-.26,.06-.54,.09-.85,.09h-2.65Zm.61-3.62h1.55c.32,0,.58-.03,.8-.08,.22-.05,.39-.13,.52-.24,.13-.11,.23-.23,.28-.39,.06-.15,.09-.33,.09-.53s-.03-.38-.1-.52c-.07-.14-.17-.25-.32-.34s-.33-.15-.56-.19c-.23-.04-.51-.06-.85-.06h-1.41v2.34Zm0,3.1h1.56c.34,0,.63-.01,.88-.04s.46-.09,.62-.18c.16-.09,.28-.22,.37-.4s.12-.4,.12-.68-.04-.49-.13-.65-.22-.29-.39-.38c-.17-.09-.37-.15-.6-.18s-.5-.05-.78-.05h-1.63v2.57Z"/><path class="cls-3" d="M195.98,100.67v-6.48h4.31v.52h-3.7v2.34h3.34v.52h-3.34v2.57h3.79v.52h-4.4Z"/><path class="cls-3" d="M202.1,95.02h-.02v5.65h-.61v-6.48h.69l3.74,5.66h.02v-5.66h.61v6.48h-.71l-3.73-5.65Z"/><path class="cls-3" d="M207.97,100.67v-6.48h.61v2.78h3.83v-2.78h.61v6.48h-.61v-3.18h-3.83v3.18h-.61Z"/><path class="cls-3" d="M213.89,100.67l2.55-6.48h.69l2.48,6.48h-.63l-.75-2.03h-2.95l-.77,2.03h-.63Zm1.6-2.56h2.54l-1.27-3.4-1.27,3.4Z"/><path class="cls-3" d="M219.92,94.19h.64l1.95,5.76,1.94-5.76h.64l-2.25,6.48h-.67l-2.25-6.48Z"/><path class="cls-3" d="M226.59,95.02h-.02v5.65h-.61v-6.48h.69l3.74,5.66h.02v-5.66h.61v6.48h-.71l-3.73-5.65Z"/></g><g><path class="cls-3" d="M1.04,168.87v-10.08H7.53v.81H1.99v3.64H7.03v.81H1.99v4.82h-.95Z"/><path class="cls-3" d="M7.99,168.87l3.96-10.08h1.08l3.86,10.08h-.98l-1.16-3.16h-4.59l-1.19,3.16h-.98Zm2.49-3.98h3.95l-1.97-5.29-1.97,5.29Z"/><path class="cls-3" d="M18.26,168.87v-10.08h3.64c.59,0,1.09,.06,1.51,.18s.76,.29,1.03,.52c.27,.22,.46,.49,.58,.8,.12,.31,.18,.66,.18,1.03s-.05,.66-.14,.92c-.09,.26-.21,.47-.36,.64s-.32,.31-.51,.41c-.19,.1-.39,.17-.6,.2v.03c.7,.1,1.22,.38,1.56,.83,.34,.45,.51,1.01,.51,1.68,0,.52-.08,.96-.25,1.33s-.39,.66-.68,.88c-.29,.22-.64,.38-1.04,.48-.41,.1-.85,.15-1.32,.15h-4.12Zm.95-5.63h2.41c.49,0,.91-.04,1.25-.12s.61-.21,.81-.37c.21-.16,.35-.36,.44-.6,.09-.24,.13-.51,.13-.82s-.05-.59-.15-.8-.27-.4-.49-.53c-.22-.14-.52-.23-.88-.29-.36-.06-.8-.09-1.32-.09h-2.2v3.64Zm0,4.82h2.42c.52,0,.98-.02,1.37-.07,.39-.05,.71-.14,.96-.29s.44-.35,.57-.62,.19-.62,.19-1.06-.07-.76-.21-1.02-.34-.46-.6-.6c-.26-.14-.57-.23-.94-.29s-.77-.08-1.22-.08h-2.53v4Z"/><path class="cls-3" d="M28.53,164.3v4.58h-.95v-10.08h3.95c1.11,0,1.96,.21,2.55,.62,.59,.42,.88,1.09,.88,2.02,0,.63-.13,1.14-.38,1.51-.26,.37-.67,.69-1.25,.95,.3,.1,.53,.25,.7,.45s.29,.42,.38,.67c.08,.25,.14,.52,.16,.8,.02,.28,.04,.55,.05,.81,0,.38,.03,.7,.05,.95,.02,.25,.05,.46,.08,.62,.03,.16,.07,.28,.12,.37,.05,.09,.1,.16,.17,.2v.08h-1.05c-.1-.15-.17-.39-.22-.69-.04-.3-.07-.61-.1-.94-.02-.33-.04-.64-.06-.95-.01-.31-.04-.56-.08-.76-.06-.27-.15-.49-.27-.65-.13-.16-.28-.29-.46-.37-.18-.08-.38-.14-.59-.17-.22-.03-.45-.04-.68-.04h-3Zm2.97-.81c.35,0,.68-.04,.99-.11,.3-.08,.57-.19,.79-.36,.22-.16,.4-.37,.53-.62s.2-.55,.2-.91c0-.37-.07-.68-.2-.92-.13-.24-.32-.43-.55-.57-.23-.14-.49-.24-.78-.29s-.6-.08-.92-.08h-3.02v3.88h2.97Z"/><path class="cls-3" d="M37.27,168.87v-10.08h.95v10.08h-.95Z"/><path class="cls-3" d="M40.88,168.87v-10.08h.95v5.22l5.17-5.22h1.08l-3.98,4.02,4.68,6.06h-1.16l-4.2-5.47-1.58,1.58v3.89h-.95Z"/><path class="cls-3" d="M50.22,168.87v-10.08h.95v5.22l5.17-5.22h1.08l-3.98,4.02,4.68,6.06h-1.16l-4.2-5.47-1.58,1.58v3.89h-.95Z"/><path class="cls-3" d="M59.5,168.87v-10.08h6.71v.81h-5.75v3.64h5.19v.81h-5.19v4h5.89v.81h-6.85Z"/><path class="cls-3" d="M69,160.08h-.03v8.79h-.95v-10.08h1.08l5.82,8.81h.03v-8.81h.95v10.08h-1.11l-5.8-8.79Z"/></g></g></svg>