<?xml version="1.0" encoding="UTF-8"?><svg id="Layer_1" xmlns="http://www.w3.org/2000/svg" width="629.39" height="516.36" viewBox="0 0 629.39 516.36"><defs><style>.cls-1{fill:#96b58a;}.cls-2{fill:#364259;}</style></defs><g id="OOdUFm"><g><path class="cls-1" d="M342.81,50.77c-4.1-3.55-5.61-7.17-5.24-12.49,.83-12.05,1.5-24.11,2.16-36.18-32.02-5.36-66.18-.37-95.45,13.93-1.12,6.18-1.77,12.66-1.94,19.44,2.92,1.44,5.69,2.8,8.45,4.17-1.68,2.69-2.93,5.82-5.12,7.99-6.05,5.95-13.39,11.12-6.4,21.09,.94,1.35,.05,3.88,.35,5.81,.47,3.06,.34,6.76,2.03,9,5.91,7.81,12.92,14.79,18.73,22.67,10.36,14.04,24.63,19.22,41.26,20,3.93,.18,8,.26,11.73,1.35,7.43,2.19,9.06,6.77,5.47,13.69-1.32,2.55-2.7,5.07-4.36,8.18,7.89,1.87,11.33-1.35,13.99-6.78,10.56-21.64,21.01-43.36,37.66-61.27,1.44-1.55,2.55-3.4,3.96-5.31-9.34-8.73-18.04-17.3-27.26-25.27Z"/><path class="cls-1" d="M211.16,473.57c5.72,.04,11.47,.22,17.16,.77,2.8,.27,7.87,1.46,7.88,2.29,.11,7.67-.58,15.36-1.23,23.02-.23,2.75-1.01,5.45-1.54,8.18,2.91-1.03,6.54-1.29,8.6-3.23,7.45-6.99,14.27-14.64,21.53-21.83,2.25-2.23,5.48-3.47,7.7-5.72,6.74-6.8,13.21-13.86,20.86-21.96-4.15-1.93-9.54-4.31-14.78-6.96-1.76-.89-4.04-2.18-4.58-3.79-1.41-4.18-1.99-8.64-3.1-13.97,15.26-.26,25.33,6.74,33.63,19.19,.84-2.99,1.87-4.77,1.41-5.35-4.51-5.59-1.3-9.72,2-14.26,6.79-9.33,13.26-18.9,19.86-28.37-.47-.78-.94-1.56-1.42-2.34-5.31,8.65-10.69,6.57-16.62,1.82-4.39-3.52-9.39-6.27-13.09-8.69-2.45,7.17-4.37,12.8-6.64,19.43-6.16-12.7-11.26-23.2-16.28-33.54,8.85-4.66,16.34,1.25,24.12,6.2,5.03,3.2,10.08,6.42,15.4,9.07,1.73,.86,5.41,.8,6.39-.36,6.51-7.7,12.66-15.72,18.59-23.87,1.02-1.41,1.18-5.42,.46-5.8-5.23-2.76-10.64-5.61-16.34-6.85-2.1-.46-5.07,3.43-7.75,5.16-1.66,1.07-3.53,1.83-7.67,3.94,2.08-6.1,3.28-9.63,4.62-13.55-1.72-.86-3.37-1.36-4.6-2.37-2.26-1.86-4.27-4.02-6.39-6.05,2.99-.05,6.22-.87,8.93-.02,10.19,3.2,20.21,6.95,30.9,10.7,5.3-14.73,12.07-27.84,15.24-43.27-7.08,1.44-12.3,2.5-17.52,3.57-.38-1.17-.76-2.35-1.14-3.52,3.24-1.3,6.38-3.36,9.73-3.76,11.58-1.4,17.44-7.96,18.75-19.65-1.72,.15-3.48,.3-6.65,.58,.62-3.44,.16-7.28,1.87-9.22,4.97-5.64,10.54-10.84,16.36-15.62,12.15-10.01,13.09-15.49,3.98-28.32-4.28-6.02-8.61-12-12.86-18.04q-8.49-12.06-22.13-5.44c-1.57-2.41-3.4-5.23-5.42-8.35-12.26,6.88-23.62,13.5-36.66,3.52-.63,5-1.03,8.2-1.32,10.47-5.87,.55-11.38-.31-15.48,1.71-13.83,6.81-26.17,16.2-40.84,21.87-10.2,3.94-19.03,11.44-29.2,17.8,3.24,9.03,6.9,19.28,11,30.72-4.69,0-8.05-.14-11.39,.03-10.74,.54-13.55,4.18-11.64,14.45,2.18,11.7,4.23,23.43,6.22,35.17,1.82,10.74,3.47,21.51,5.35,33.25-13.63,1.54-26.02,2.95-38.76,4.39,6.37,10.26,13.04,20.48,19.04,31.07,1.58,2.79,1.86,6.84,1.42,10.14-1.34,9.95,2.93,20.57-3.5,29.92-.2,.29,.34,1.04,.45,1.59,1.73,8.25,3.45,16.5,5.17,24.75,4.17-.26,8.04-.73,11.91-.7Z"/><path class="cls-1" d="M246.42,234.77c10.65-5.69,21.31-11.35,32.07-16.82,5.69-2.89,11.59-5.36,18.26-8.42,.15-1.42,.47-4.62,.89-8.7,7.04,2.38,12.88,4.36,19.85,6.72,2.12-17.49,4.17-34.51,6.23-51.53-4.92-.82-9.47-1.58-14.65-2.45,1.06-4.09,1.44-7.24,2.68-10.01,4.79-10.72,3.87-12.82-8.44-12.79-13.57,.03-26.14-2.99-36.78-11.16-5.73-4.41-9.59-11.17-14.86-16.28-9.23-8.93-20.13-16.74-16.68-32.18,.16-.7-.29-1.8-.83-2.34-9.05-9,0-14.62,4.07-20.98,1.38-2.16,3.91-3.58,5.91-5.34-9.15,.96-17.39,3.38-25.3,6.61-4.36,1.78-7.9,6.36-12.27,7.17-12.72,2.35-20.3,10.23-26.75,20.54-3.23,5.16-7.1,11.18-12.21,13.65-13.93,6.73-28.49,12.31-43.16,17.29-8.95,3.04-17.69,5.23-23.93,13.37-4.77,6.22-11.3,11.07-16.39,17.09-5.72,6.76-12.41,13.47-15.55,21.43-3.38,8.57-6.74,18.51-.41,28.02,1.08,1.62,.2,4.47,.5,6.71,.92,6.99,1.78,14,3.11,20.91,.35,1.81,2.27,4.72,3.5,4.73,7.48,.07,7.59,5.74,8.57,10.59,.95,4.69,1.38,9.49,2.2,15.39,13.42-1.05,25.82-2.15,38.24-2.95,7.75-.5,16.09-2.43,23.18-.34,10.47,3.08,20.23,8.82,29.97,14.04,10.98,5.89,21.07,4.3,31.4-1.56,12.4-7.04,25.03-13.68,37.61-20.4Z"/><path class="cls-1" d="M346.81,205.05c1.74-.85,3.23-1.21,4.19-2.13,5.76-5.48,9.57-4.29,13.81,2.38,7,11,15.24,21.21,22.42,32.11,2.29,3.48,2.9,8.07,4.49,12.8,6.66-7.39,14.5-15.49,21.56-24.23,3.11-3.85,4.64-8.98,7.4-14.56,.77,0,4.3,1.1,6.09-.19,7.68-5.55,14.84-11.8,22.44-17.99-20.87-6.83-26.08-9.88-29.11-18.39,5.4,3.38,9.32,6.5,13.75,8.45,7.09,3.11,14.94,7.54,22.22,2.12,6.02-4.48,10.54-10.97,16.13-17.02-8.1-4.14-15.52-7.93-22.94-11.72,.59-1.2,1.18-2.4,1.77-3.6,6.43,2.82,12.73,6.02,19.35,8.25,2.54,.85,7.69,.42,8.44-1.06,3.28-6.47,5.39-13.54,7.92-20.4-.63-.24-1.26-.49-1.88-.73-1.91,3.73-3.82,7.46-6.62,12.93-1.41-3.47-2.79-5.16-2.41-6.21,1.95-5.32,4.61-10.37,6.56-15.69,5.29-14.45,10.45-28.96,15.38-43.54,.66-1.94,.54-5.72-.6-6.44-9-5.61-5.38-12.34-1.77-19.23-2.76-1.46-5.14-2.71-7.44-3.93-2.47,2.71-4.65,5.11-5.79,6.36-4.78-4.46-8.96-8.37-12.72-11.88-1.6-8.68-3.23-17.6-5.07-27.6-13.44,6.17-26.13,11.71-38.53,17.81-7.27,3.57-13.68,5.96-16.96-3.07-14.62,5.91-19.56,19.38-27.15,30.87-10.03,15.19-21.05,29.72-31.5,44.63-11.56,16.49-21.64,33.61-23.4,54.4-1.01,11.96-2.6,23.87-3.94,35.94,8.86,.14,16.62-12.06,23.9,.56Z"/><path class="cls-1" d="M466.73,244.5c22.79-5.32,43.32-17.37,59.8-34.85,7.48-7.94,17.65-13.72,20.48-25.55,.43-1.8,3.16-3.06,5.57-5.24-5.04-6.04-2.22-10.87,1.34-15.68,2.09-2.82,3.61-4.85,1.83-9.55-1.82-4.8-1.35-13.79,1.85-16.48,7.06-5.93,9.22-12.12,8.74-20.65-.21-3.72,1.38-7.54,2.35-12.32h-17.22c1.23-4.59,2.63-10.83,2.92-10.78,8.49,1.51,16.98-9.46,25.67-.4-1.1-2.4-2.19-4.8-3.29-7.2,8.65,5.04,13.42-3.45,18.85-4.84,.68-3.96,1.26-7.34,1.83-10.73,1.41-8.35,6.88-13.3,13.99-16.99,7.89-4.09,6.73-10.78,5.07-17.73-1.62-6.77-6.38-7.65-12.3-7.72-8.5-.11-17.01-.58-25.48-1.35-14.39-1.3-27.8,2.7-41.41,6.89,2.49,1.85,5.3,2.49,7.51,4.01,1.95,1.33,3.22,3.64,4.79,5.52-2.49,.47-5.47,2.03-7.38,1.18-4.53-2.01-8.56-5.17-12.68-7.8-2.05,6.37-1.88,6.15,3.88,10.65,1.65,1.29,2.01,4.24,3.32,7.24h-10.52c0,6.55-1.6,13.34,.48,18.68,1.82,4.67,7.78,7.72,13.98,13.36-6.45-1.57-10.57-2.57-15.94-3.88-1.64,9.04-3.21,17.73-4.9,27.05,5.03,5.51,3.86,17.02-3.18,22.13-1.17,.85-3.53,1.5-4.53,.9-8.33-5.08-9.72,1.84-11.73,6.84-2.19,5.46-3.25,11.38-5.58,16.77-3.14,7.27-7.03,14.22-10.96,22.03-5.97-4.09-10.8,1.08-15.82,5.99-5.89,5.75-12.12,11.17-17.85,17.07-9.38,9.67-18.48,19.61-28.24,30.02,13.96,12.02,29.95,16.84,44.74,13.39Z"/><path class="cls-1" d="M629.1,219.89c.09-.03,.16-.07,.24-.1-.12,0-.24,0-.36,0,.04,.03,.08,.06,.12,.1Z"/><path class="cls-1" d="M586.37,150.46c-.7-1.54-1.33-3.25-.81-3.99,5.33-7.57,9.94-16.32,17-21.86,.07-.05,.14-.1,.2-.16,8.43-14.09,16.25-28.46,23.27-43.25-5.9,4.73-10.79,10.37-17.86,4.07-8.82,5.96-16.05,13.06-24.7,16.13-10.71,3.8-12.89,10.74-12.68,20.1,.16,7.01-1.7,12.85-7.66,17.01-.9,.63-2.27,1.65-2.22,2.42,.63,10.76,2.04,21.63-5.88,30.75,5.01,8.19-1.3,12.73-5.59,18.11-1.51,1.89-1.76,4.73-3.08,6.83-1.65,2.63-3.59,5.17-5.82,7.32-1.99,1.93-4.97,2.92-6.78,4.97-11.3,12.74-23.14,24.7-41.81,30.42,4.64,7.78,8.89,15.53,13.22,23.07,1.06-1.34,2.13-2.68,3.22-4.02,26.84-36.6,54.06-71.66,77.99-107.93Z"/><path class="cls-1" d="M488.38,241.14c-24.76,15.28-47.19,8.47-69.56-4.8-6.59,9.51-13.36,18.98-19.81,28.66-8.48,12.73-18.56,24.81-24.71,38.61-17,38.1-32.37,76.92-48.2,115.53-1.83,4.47-2.47,9.43-3.7,14.31-1.69-.12-3.96-.29-6.24-.45-.23,.52-.46,1.04-.69,1.56,2.39,1.79,4.78,3.59,7.57,5.69-10.33,11.01-19.95,21.81-30.16,32.01-14.3,14.28-28.79,28.3-41.9,43.59,45.12,4.38,93.7-19.82,120.89-56.07,11.95-15.36,25.6-30.72,35.84-47.79,11.95-25.6,25.6-47.79,42.67-69.97,18.36-27.54,32.62-50.96,51.35-75.19-2.66-4.66-5.12-9.46-7.27-14.46-1.63-3.8-3.93-7.32-6.05-11.23Z"/><path class="cls-1" d="M189.12,442.69c4.8-5.65,4.35-11.11,1.94-17.28-.57-1.46-.64-3.77,.14-5,3.92-6.18,.14-10.68-2.83-15.48-7.55-12.19-15.04-24.42-22.55-36.63,15.13,5.27,29.23,2.43,43.61-.71-.11-2.28-.01-4-.29-5.64-3.59-20.96-7.09-41.94-10.98-62.85-.98-5.26-.24-9.03,5.07-10.82,5.21-1.75,10.53-3.17,16.45-4.93-2.91-7.58-5.88-15.33-9.23-24.07-15.77,10.67-29.6,5.26-43.27-2.22-1.99-1.09-4.06-2.04-6.11-3.02-6.13-2.92-12.23-8.16-18.4-8.24-13.3-.18-26.91,1.05-39.88,3.98-18.71,4.23-20.67,3.6-23.16-15.14-.41-3.05-2.39-8.39-3.75-8.42-10.32-.25-8.58-8.42-9.63-14.14-1.78-9.64-2.62-19.45-4.09-31.09-5.68,3.69-10.46,5.61-13.52,9.05-4.81,5.42-11.42,11.59-11.99,17.93-1.29,14.16-7.7,21.38-22.32,20.2-4.74-.38-9.54-.06-14.32-.06,4.98,.82,10.88-1.11,11.03,7.84,.26,16.29,2.28,32.57,2.37,48.86,.05,9.71-1.28,19.66-3.58,29.11-4.48,18.43,4.83,30.96,17.44,41.27,12.71,10.38,24.18,21.05,29.6,37.12,2.24,6.65,5.62,12.95,8.87,19.21,.95,1.83,3.21,4.17,4.91,4.22,10.22,.25,14.7,6.88,18.85,14.85,1.55,2.98,5.62,4.56,8.11,7.18,4.81,5.05,9.67,10.12,13.81,15.71,2.53,3.42,3.1,8.31,5.7,11.65,7.06,9.1,14.53,17.91,22.31,26.41,1.53,1.66,5.86,2.71,7.76,1.77,15.12-7.51,29.97-15.56,45.94-23.99-1.03-5-2.46-11.29-3.58-17.64-.53-3.01-1.84-7.29-.42-8.97Z"/><path class="cls-1" d="M189.12,442.69c4.8-5.65,4.35-11.11,1.94-17.28-.57-1.46-.64-3.77,.14-5,3.92-6.18,.14-10.68-2.83-15.48-7.55-12.19-15.04-24.42-22.55-36.63,15.13,5.27,29.23,2.43,43.61-.71-.11-2.28-.01-4-.29-5.64-3.59-20.96-7.09-41.94-10.98-62.85-.98-5.26-.24-9.03,5.07-10.82,5.21-1.75,10.53-3.17,16.45-4.93-2.91-7.58-5.88-15.33-9.23-24.07-15.77,10.67-29.6,5.26-43.27-2.22-1.99-1.09-4.06-2.04-6.11-3.02-6.13-2.92-12.23-8.16-18.4-8.24-13.3-.18-26.91,1.05-39.88,3.98-18.71,4.23-20.67,3.6-23.16-15.14-.41-3.05-2.39-8.39-3.75-8.42-10.32-.25-8.58-8.42-9.63-14.14-1.78-9.64-2.62-19.45-4.09-31.09-5.68,3.69-10.46,5.61-13.52,9.05-4.81,5.42-11.42,11.59-11.99,17.93-1.29,14.16-7.7,21.38-22.32,20.2-4.74-.38-9.54-.06-14.32-.06,4.98,.82,10.88-1.11,11.03,7.84,.26,16.29,2.28,32.57,2.37,48.86,.05,9.71-1.28,19.66-3.58,29.11-4.48,18.43,4.83,30.96,17.44,41.27,12.71,10.38,24.18,21.05,29.6,37.12,2.24,6.65,5.62,12.95,8.87,19.21,.95,1.83,3.21,4.17,4.91,4.22,10.22,.25,14.7,6.88,18.85,14.85,1.55,2.98,5.62,4.56,8.11,7.18,4.81,5.05,9.67,10.12,13.81,15.71,2.53,3.42,3.1,8.31,5.7,11.65,7.06,9.1,14.53,17.91,22.31,26.41,1.53,1.66,5.86,2.71,7.76,1.77,15.12-7.51,29.97-15.56,45.94-23.99-1.03-5-2.46-11.29-3.58-17.64-.53-3.01-1.84-7.29-.42-8.97Z"/><path class="cls-1" d="M586.37,150.46c-.7-1.54-1.33-3.25-.81-3.99,5.33-7.57,9.94-16.32,17-21.86,.07-.05,.14-.1,.2-.15,8.43-14.09,16.25-28.46,23.27-43.25-5.9,4.73-10.79,10.37-17.86,4.07-8.82,5.96-16.05,13.06-24.7,16.13-10.71,3.8-12.89,10.74-12.68,20.1,.16,7.01-1.7,12.85-7.66,17.01-.9,.63-2.27,1.65-2.22,2.42,.63,10.76,2.04,21.63-5.88,30.75,5.01,8.19-1.3,12.73-5.59,18.11-1.51,1.89-1.76,4.73-3.08,6.83-1.65,2.63-3.59,5.17-5.82,7.32-1.99,1.93-4.97,2.92-6.78,4.97-11.3,12.74-23.14,24.7-41.81,30.42,4.64,7.78,8.89,15.53,13.22,23.07,1.06-1.34,2.13-2.68,3.22-4.02,26.84-36.6,54.06-71.66,77.99-107.93Z"/><path class="cls-1" d="M246.42,234.77c10.65-5.69,21.31-11.35,32.07-16.82,5.69-2.89,11.59-5.36,18.26-8.42,.15-1.42,.47-4.62,.89-8.7,7.04,2.38,12.88,4.36,19.85,6.72,2.12-17.49,4.17-34.51,6.23-51.53-4.92-.82-9.47-1.58-14.65-2.45,1.06-4.09,1.44-7.24,2.68-10.01,4.79-10.72,3.87-12.82-8.44-12.79-13.57,.03-26.14-2.99-36.78-11.16-5.73-4.41-9.59-11.17-14.86-16.28-9.23-8.93-20.13-16.74-16.68-32.18,.16-.7-.29-1.8-.83-2.34-9.05-9,0-14.62,4.07-20.98,1.38-2.16,3.91-3.58,5.91-5.34-9.15,.96-17.39,3.38-25.3,6.61-4.36,1.78-7.9,6.36-12.27,7.17-12.72,2.35-20.3,10.23-26.75,20.54-3.23,5.16-7.1,11.18-12.21,13.65-13.93,6.73-28.49,12.31-43.16,17.29-8.95,3.04-17.69,5.23-23.93,13.37-4.77,6.22-11.3,11.07-16.39,17.09-5.72,6.76-12.41,13.47-15.55,21.43-3.38,8.57-6.74,18.51-.41,28.02,1.08,1.62,.2,4.47,.5,6.71,.92,6.99,1.78,14,3.11,20.91,.35,1.81,2.27,4.72,3.5,4.73,7.48,.07,7.59,5.74,8.57,10.59,.95,4.69,1.38,9.49,2.2,15.39,13.42-1.05,25.82-2.15,38.24-2.95,7.75-.5,16.09-2.43,23.18-.34,10.47,3.08,20.23,8.82,29.97,14.04,10.98,5.89,21.07,4.3,31.4-1.56,12.4-7.04,25.03-13.68,37.61-20.4Z"/><path class="cls-1" d="M211.16,473.57c5.72,.04,11.47,.22,17.16,.77,2.8,.27,7.87,1.46,7.88,2.29,.11,7.67-.58,15.36-1.23,23.02-.23,2.75-1.01,5.45-1.54,8.18,2.91-1.03,6.54-1.29,8.6-3.23,7.45-6.99,14.27-14.64,21.53-21.83,2.25-2.23,5.48-3.47,7.7-5.72,6.74-6.8,13.21-13.86,20.86-21.96-4.15-1.93-9.54-4.31-14.78-6.96-1.76-.89-4.04-2.18-4.58-3.79-1.41-4.18-1.99-8.64-3.1-13.97,15.26-.26,25.33,6.74,33.63,19.19,.84-2.99,1.87-4.77,1.41-5.35-4.51-5.59-1.3-9.72,2-14.26,6.79-9.33,13.26-18.9,19.86-28.37-.47-.78-.94-1.56-1.42-2.34-5.31,8.65-10.69,6.57-16.62,1.82-4.39-3.52-9.39-6.27-13.09-8.69-2.45,7.17-4.37,12.8-6.64,19.43-6.16-12.7-11.26-23.2-16.28-33.54,8.85-4.66,16.34,1.25,24.12,6.2,5.03,3.2,10.08,6.42,15.4,9.07,1.73,.86,5.41,.8,6.39-.36,6.51-7.7,12.66-15.72,18.59-23.87,1.02-1.41,1.18-5.42,.46-5.8-5.23-2.76-10.64-5.61-16.34-6.85-2.1-.46-5.07,3.43-7.75,5.16-1.66,1.07-3.53,1.83-7.67,3.94,2.08-6.1,3.28-9.63,4.62-13.55-1.72-.86-3.37-1.36-4.6-2.37-2.26-1.86-4.27-4.02-6.39-6.05,2.99-.05,6.22-.87,8.93-.02,10.19,3.2,20.21,6.95,30.9,10.7,5.3-14.73,12.07-27.84,15.24-43.27-7.08,1.44-12.3,2.5-17.52,3.57-.38-1.17-.76-2.35-1.14-3.52,3.24-1.3,6.38-3.36,9.73-3.76,11.58-1.4,17.44-7.96,18.75-19.65-1.72,.15-3.48,.3-6.65,.58,.62-3.44,.16-7.28,1.87-9.22,4.97-5.64,10.54-10.84,16.36-15.62,12.15-10.01,13.09-15.49,3.98-28.32-4.28-6.02-8.61-12-12.86-18.04q-8.49-12.06-22.13-5.44c-1.57-2.41-3.4-5.23-5.42-8.35-12.26,6.88-23.62,13.5-36.66,3.52-.63,5-1.03,8.2-1.32,10.47-5.87,.55-11.38-.31-15.48,1.71-13.83,6.81-26.17,16.2-40.84,21.87-10.2,3.94-19.03,11.44-29.2,17.8,3.24,9.03,6.9,19.28,11,30.72-4.69,0-8.05-.14-11.39,.03-10.74,.54-13.55,4.18-11.64,14.45,2.18,11.7,4.23,23.43,6.22,35.17,1.82,10.74,3.47,21.51,5.35,33.25-13.63,1.54-26.02,2.95-38.76,4.39,6.37,10.26,13.04,20.48,19.04,31.07,1.58,2.79,1.86,6.84,1.42,10.14-1.34,9.95,2.93,20.57-3.5,29.92-.2,.29,.34,1.04,.45,1.59,1.73,8.25,3.45,16.5,5.17,24.75,4.17-.26,8.04-.73,11.91-.7Z"/><path class="cls-1" d="M346.81,205.05c1.74-.85,3.23-1.21,4.19-2.13,5.76-5.48,9.57-4.29,13.81,2.38,7,11,15.24,21.21,22.42,32.11,2.29,3.48,2.9,8.07,4.49,12.8,6.66-7.39,14.5-15.49,21.56-24.23,3.11-3.85,4.64-8.98,7.4-14.56,.77,0,4.3,1.1,6.09-.19,7.68-5.55,14.84-11.8,22.44-17.99-20.87-6.83-26.08-9.88-29.11-18.39,5.4,3.38,9.32,6.5,13.75,8.45,7.09,3.11,14.94,7.54,22.22,2.12,6.02-4.48,10.54-10.97,16.13-17.02-8.1-4.14-15.52-7.93-22.94-11.72,.59-1.2,1.18-2.4,1.77-3.6,6.43,2.82,12.73,6.02,19.35,8.25,2.54,.85,7.69,.42,8.44-1.06,3.28-6.47,5.39-13.54,7.92-20.4-.63-.24-1.26-.49-1.88-.73-1.91,3.73-3.82,7.46-6.62,12.93-1.41-3.47-2.79-5.16-2.41-6.21,1.95-5.32,4.61-10.37,6.56-15.69,5.29-14.45,10.45-28.96,15.38-43.54,.66-1.94,.54-5.72-.6-6.44-9-5.61-5.38-12.34-1.77-19.23-2.76-1.46-5.14-2.71-7.44-3.93-2.47,2.71-4.65,5.11-5.79,6.36-4.78-4.46-8.96-8.37-12.72-11.88-1.6-8.68-3.23-17.6-5.07-27.6-13.44,6.17-26.13,11.71-38.53,17.81-7.27,3.57-13.68,5.96-16.96-3.07-14.62,5.91-19.56,19.38-27.15,30.87-10.03,15.19-21.05,29.72-31.5,44.63-11.56,16.49-21.64,33.61-23.4,54.4-1.01,11.96-2.6,23.87-3.94,35.94,8.86,.14,16.62-12.06,23.9,.56Z"/><path class="cls-1" d="M466.73,244.5c22.79-5.32,43.32-17.37,59.8-34.85,7.48-7.94,17.65-13.72,20.48-25.55,.43-1.8,3.16-3.06,5.57-5.24-5.04-6.04-2.22-10.87,1.34-15.68,2.09-2.82,3.61-4.85,1.83-9.55-1.82-4.8-1.35-13.79,1.85-16.48,7.06-5.93,9.22-12.12,8.74-20.65-.21-3.72,1.38-7.54,2.35-12.32h-17.22c1.23-4.59,2.63-10.83,2.92-10.78,8.49,1.51,16.98-9.46,25.67-.4-1.1-2.4-2.19-4.8-3.29-7.2,8.65,5.04,13.42-3.45,18.85-4.84,.68-3.96,1.26-7.34,1.83-10.73,1.41-8.35,6.88-13.3,13.99-16.99,7.89-4.09,6.73-10.78,5.07-17.73-1.62-6.77-6.38-7.65-12.3-7.72-8.5-.11-17.01-.58-25.48-1.35-14.39-1.3-27.8,2.7-41.41,6.89,2.49,1.85,5.3,2.49,7.51,4.01,1.95,1.33,3.22,3.64,4.79,5.52-2.49,.47-5.47,2.03-7.38,1.18-4.53-2.01-8.56-5.17-12.68-7.8-2.05,6.37-1.88,6.15,3.88,10.65,1.65,1.29,2.01,4.24,3.32,7.24h-10.52c0,6.55-1.6,13.34,.48,18.68,1.82,4.67,7.78,7.72,13.98,13.36-6.45-1.57-10.57-2.57-15.94-3.88-1.64,9.04-3.21,17.73-4.9,27.05,5.03,5.51,3.86,17.02-3.18,22.13-1.17,.85-3.53,1.5-4.53,.9-8.33-5.08-9.72,1.84-11.73,6.84-2.19,5.46-3.25,11.38-5.58,16.77-3.14,7.27-7.03,14.22-10.96,22.03-5.97-4.09-10.8,1.08-15.82,5.99-5.89,5.75-12.12,11.17-17.85,17.07-9.38,9.67-18.48,19.61-28.24,30.02,13.96,12.02,29.95,16.84,44.74,13.39Z"/><path class="cls-1" d="M629.1,219.89c.1-.04,.19-.08,.29-.12-.15,0-.29,0-.45,0-.03-.02,.16,.12,.16,.12Z"/></g></g><g id="ll4dAx"><g><path class="cls-2" d="M390.08,180.05h0Z"/><path class="cls-2" d="M378.45,183.59c0,.34,0,.69,.01,1.03,0,.07,.12,.13,.18,.2,.06-.07,.13-.13,.18-.21,.02-.03,0-.08,0-.13,0-1.78,0-3.55,0-5.33,0-.18-.08-.35-.13-.54,.04,0,.14-.03,.27-.06,0,.06,0,.1,0,.15,0,1.92,0,3.83,0,5.75,0,.28,.08,.38,.37,.37,.49-.02,.99-.02,1.48,0,.25,0,.33-.06,.33-.32-.02-1.9-.02-3.81-.02-5.71,0-.05,.02-.1,.04-.16h.07v6.17h.36v-6.14c.27-.23,.94-.23,1.73,.07-.29,.04-.23,.25-.23,.42,0,1.67,0,3.34,0,5v.67c1.4,.05,2.78,.07,4.17-.01,.01-.1,.02-.15,.02-.2,0-1.76,0-3.53,0-5.29,0-.95-.1-.79,.81-.8,.43,0,.44,.01,.44,.46,0,1.83,0,3.66,0,5.49,0,.23,.03,.37,.31,.36,1.32-.01,2.64,0,3.96,0,.17,0,.22-.07,.22-.23-.01-1.06-.02-2.13-.02-3.2,0-.82,0-1.64,0-2.45,0-.28,.07-.46,.4-.43,.18,.02,.36,0,.55,0l.02-.12c-.05-.03-.11-.09-.16-.09-5.16,0-10.31,0-15.45,0,.05,.27,.11,.45,.11,.63,0,1.55,0,3.1,0,4.65Zm10.54-3.62l.03-.07c.19,.05,.37,.1,.56,.15-.17-.09-.33-.19-.53-.29,.16-.08,.26-.13,.37-.18v-.08c.05-.1,.12-.19,.2-.33,.07,.05,.15,.12,.24,.18-.05-.1-.11-.21-.16-.31l.09-.06c.12,.15,.23,.3,.35,.45l-.24-.53,.07-.05,.2,.2c-.01-.08-.02-.16-.04-.25,.28-.02,.54-.04,.83-.07-.02,.2-.03,.37-.04,.54h.03c.04-.17,.08-.36,.12-.54,.01,.23,.54-.13,.34,.29,.07-.03,.14-.07,.21-.07,.07,0,.13,.04,.23,.08-.05,.09-.1,.19-.15,.29l.24-.19c.08,.08,.15,.14,.25,.24-.08,.08-.17,.18-.27,.28l.36-.17,.05,.05-.15,.23,.21-.06,.05,.09c-.1,.06-.21,.12-.31,.18,.12-.02,.25-.04,.38-.07l.06,.53c-.36-.02-.68-.04-.98-.06,.04-.1,.07-.19,.1-.28l-.14-.09c.05-.05,.09-.11,.14-.16-.22,.02-.28-.08-.19-.27l-.24,.09c0-.11,0-.21,.01-.32-.09,.15-.12,.43-.4,.21-.07-.06-.09-.18-.12-.25-.05,.36-.11,.4-.38,.21l-.19-.02s0,.1,0,.15h-.11c-.02,.05-.04,.12-.06,.19v.15l-.07,.05,.11,.03h0c-.15,0-.3,0-.45,0,.12,.1,.23,.19,.37,.31l-.94,.06-.09-.27h.35c-.12-.07-.21-.13-.3-.18Z"/><polygon class="cls-2" points="359.47 180.12 359.47 180.12 359.47 180.12 359.47 180.12"/><path class="cls-2" d="M356.12,178.52c.38,0,.43,.05,.43,.43,0,1.87,0,3.74-.02,5.62,0,.2,.06,.27,.25,.27,.58,0,1.16,.04,1.74,.03,.72,0,1.44-.03,2.16-.03,.3,0,.34-.14,.34-.4,0-1.71,0-3.42,0-5.13,0-.94-.08-.77,.79-.79,.45,0,.45,0,.45,.45,0,1.84,0,3.68,0,5.52,0,.24,.05,.35,.31,.35,1.14,0,2.28,.02,3.42,.03,.16,0,.31-.04,.47-.06v-.63c0-1.66,0-3.31,0-4.97,0-.14,0-.28,0-.42,.01-.17,.07-.28,.28-.26,.22,.02,.45,0,.67,0,.49,0,.5,.01,.5,.51,0,1.74,0,3.49,0,5.23v.57l.38-.04v-.32c0-1.76,0-3.53,0-5.29,0-.15,0-.3,0-.45,.02-.25,.13-.26,.24-.16-.06,.14-.13,.23-.13,.32-.01,.19,.01,.39,.01,.58,0,1.66,0,3.31-.02,4.97,0,.29,.06,.4,.37,.39,.46-.02,.93-.02,1.39,0,.32,.02,.43-.08,.43-.41-.01-1.85,0-3.7,0-5.55,0-.08,0-.16,0-.15,.26-.1,.46-.18,.66-.25l-.02-.11c-.09-.01-.18-.03-.27-.03-.82,0-1.63-.02-2.45-.02-2.02,0-4.04,0-6.06,0-2.17,0-4.35,0-6.52,0-.12,0-.24,.04-.35,.06,0,.05,0,.1,.01,.16,.17,0,.34,0,.52,0Zm3.93,.6c-.1,.17-.15,.26-.2,.35,.1-.07,.2-.14,.3-.22,.05,.2,.28,.38-.04,.5l.28-.08,.04,.09c-.15,.08-.3,.17-.45,.25,.17-.04,.35-.08,.52-.12l.03,.07-.28,.18h.29c-.05,.29-.05,.29-.29,.28-.22-.01-.45-.04-.7-.06,.13-.11,.25-.22,.36-.32-.15,.03-.3,.06-.46,.08h0s.02-.1,.02-.15c-.2-.14-.16-.56,.09-.7,.11-.06,.24-.08,.46-.15Zm-3.02,.78c.17,0,.35,.02,.52,.03-.13-.12-.25-.24-.38-.36l.08-.11,.36,.19c-.09-.09-.18-.19-.26-.28,.14-.12,.24-.29,.36-.31,.14-.02,.22-.41,.42-.08-.05-.11-.12-.24,.11-.18,.06,.01,.13-.04,.23-.07,.04,.17,.08,.35,.12,.54h.03c0-.17-.02-.34-.03-.54,.28,.02,.54,.04,.84,.07-.06,.23-.1,.47-.19,.7-.04,.09-.18,.14-.27,.21-.05-.09-.13-.17-.15-.27-.02-.15,0-.31-.06-.47,0,.14,.02,.29,0,.43-.02,.1-.11,.18-.17,.26-.07-.06-.16-.1-.21-.17-.06-.09-.08-.2-.12-.3,.02,.09,.04,.19,.05,.28,0,.32-.12,.41-.44,.33,.04,.06,.07,.12,.11,.18l-.16,.07c.03,.05,.07,.11,.08,.16,.01,.04,0,.1,0,.16l-.9,.06c0-.18,.02-.34,.03-.52Z"/><path class="cls-2" d="M370.69,172c.03,.12,0,.26,0,.39v2.32c.8-1.93,2.23-2.79,4.2-2.75,1.86,.04,3.2,.91,3.92,2.67,.01-.02,.03-.03,.03-.05,0-1.04,0-2.09,0-3.13,0-.12-.11-.28-.21-.35-.26-.18-.54-.33-.8-.47,.06-.09,.12-.16,.15-.21,.06,.05,.13,.13,.19,.13,.05,0,.11-.09,.1-.08l.63,.17c-.12-.54-.17-1-.32-1.42-.41-1.15-1.25-1.96-2.24-2.63-.19-.13-.43-.22-.28-.54-.18-.02-.34-.03-.53-.05,0-.13,.02-.25,0-.36-.05-.22-.17-.25-.27-.03-.04,.08,0,.19,.02,.32l.18-.21c.01,.14,.02,.21,.02,.27h-.49c.05-.14,.11-.27,.16-.4l-.08-.03c-.02,.1-.04,.21-.06,.31-.07-.05-.08-.09-.09-.13,0-.05,0-.11-.01-.16-.05-.17-.24-.17-.26,0-.02,.12,.03,.26,.05,.4l-.45,.05c.07-.2-.09-.44,.31-.4l-.06-.11-.45-.02c-.02,.2-.03,.36-.04,.52-.19,.02-.34,.03-.52,.04,.03,.12,.05,.21,.07,.33-.77,.45-1.44,1.01-1.98,1.73-.55,.73-.82,1.54-.85,2.52,.2-.06,.37-.11,.55-.16,0,0,.05,.1,.07,.09,.09-.03,.17-.09,.24-.12l.16,.21c-.09,.04-.17,.09-.26,.12-.57,.22-.92,.56-.78,1.23Zm1.18-1.27c.47-.23,.54-.62,.12-1.02,.11-.06,.2-.13,.3-.15,.6-.15,1.2-.29,1.81-.42,.22-.05,.35,.04,.33,.29-.02,.26,.13,.3,.34,.3,.23,0,.34-.08,.32-.32-.01-.2,.07-.32,.28-.27,.66,.15,1.33,.31,1.99,.47,.05,.01,.1,.07,.12,.09-.08,.15-.17,.27-.2,.41-.07,.32,.06,.5,.38,.63,1.04,.44,1.04,.46,1.03,1.58,0,.52,0,1.04-.03,1.58-.93-1.41-2.25-2.09-3.89-2.09-1.65,0-2.97,.67-3.92,2.16-.01-.18-.03-.29-.03-.39,0-.65,0-1.29,0-1.93,0-.23,.07-.39,.28-.49,.26-.13,.5-.29,.76-.41Z"/><path class="cls-2" d="M368.63,177.11c-.19,.06-.35,.58-.2,.62l.17-.25c0,.15-.01,.24-.02,.35,.52,0,1.01,.02,1.51,0,.38-.02,.52-.26,.42-.72-.14,.18-.25,.32-.42,.52,.08-.24,.14-.41,.21-.6,.25-.03,.58-.07,.91-.11h0c-.26-.02-.52-.05-.73-.07,.02-.1,.07-.2,.07-.3,0-1.68,0-3.36,0-5.03,0-.33-.05-.35-.39-.24,0,.02-.02,.04-.02,.06,0,1.45,0,2.9,0,4.36,0,.1-.05,.19-.07,.29l-.1-.03c0-.07-.02-.15-.02-.22,0-1.22,0-2.43,0-3.65,0-.88,0-.87-.88-.89-.29,0-.36,.09-.36,.37,.01,1.56,0,3.12,0,4.68,0,.16-.03,.36,.04,.47,.07,.1,.27,.1,.42,.15v.03h-1.29v.08h1.03c-.11,.1-.22,.11-.32,.14Zm1.39-.95l.16,.02-.06,.55h-.14c.01-.2,.03-.38,.04-.57Z"/><path class="cls-2" d="M381.79,177.82c.62,.01,1.24,.02,1.86,.02,3.3,0,6.6,0,9.9,0,.12,0,.25-.02,.39-.03v-.7h-12.67c-.03,.43,.18,.7,.52,.71Z"/><path class="cls-2" d="M357.81,177.84c2.34,0,4.69-.02,7.03-.02,.96,0,1.92,.02,2.88,.01,.13,0,.31-.03,.37-.11,.11-.16,.14-.37,.23-.63h-12.71v.71c.13,0,.24,.02,.36,.02,.61,0,1.23,0,1.84,0Z"/><path class="cls-2" d="M379.06,177.8c.32,.02,.65,.04,.99,.05,.3,0,.6,0,.89-.02,.07,0,.16-.1,.18-.17,.02-.08-.04-.17-.09-.32l.06-.2c-.09-.01-.18-.03-.27-.04-.07,0-.14,.01-.21,.02v-.15h1.01v-.11h-1.32v-.05c.15,0,.3-.01,.47-.02,.01-.1,.03-.18,.03-.26,0-1.5,0-2.99,0-4.49,0-.87,0-.86-.88-.85-.27,0-.35,.09-.35,.35,.01,1.17,0,2.34,0,3.52,0,.31,.04,.63,.06,.95-.37-.03-.12-.69-.67-.5,.12,.06,.24,.12,.36,.19l-.07,.09h-.24v.57l.07,.02,.15-.34c.41,.18,.45,.29,.22,.76-.04-.22-.06-.36-.09-.57-.08,.25-.44,.3-.25,.66h-.67v.07c.29,.02,.58,.04,.92,.06-.39,.11-.46,.32-.29,.78Z"/><path class="cls-2" d="M371.19,176.89s.02,0,.02,.01c.05-.04,.11-.09,.1-.08-.09-.14-.2-.23-.22-.34-.05-.24-.02-.47,.22-.48-.05-.1-.16-.22-.15-.32,.03-.22-.01-.55,.48-.43-.15-.11-.22-.17-.32-.25,.12-.22,.23-.44,.34-.65,.13,.04,.23,.07,.39,.11-.12-.13-.18-.21-.24-.28,.29-.49,.33-.51,.56-.39,.06-.14,.09-.31,.19-.41,.14-.15,.32-.31,.49-.13,.08-.11,.13-.25,.22-.29,.2-.09,.42-.33,.64,.02,.02-.41,.32-.32,.53-.35,.12-.01,.25,.09,.34,.12,.13-.04,.27-.12,.4-.12,.19,0,.47-.05,.41,.23,.13-.03,.27-.11,.37-.07,.2,.08,.54,.06,.42,.52,.28-.34,.46-.11,.61,.02,.09,.07,.1,.24,.15,.37,.19-.07,.6,.17,.58,.42l-.2,.24,.35-.1c.38,.55,.39,.57,.09,.88,.12,0,.23,0,.33,0,.1,0,.2,.02,.29,.03,0-.1,.04-.2,0-.29-.42-1.16-1.22-1.97-2.37-2.4-2.59-.97-5.32,.86-5.45,3.63q-.02,.53,.45,.73Z"/><polygon class="cls-2" points="371.21 176.91 371.21 176.91 371.21 176.91 371.21 176.91"/><path class="cls-2" d="M378.57,178.18c1.92,0,3.84,0,5.76,0,3.04,0,6.09,0,9.13,0,.15,0,.44-.1,.44-.13-.03-.29-.27-.15-.42-.15-4.29,0-8.58-.01-12.87,0-.77,0-1.54,0-2.32,.03-.08,0-.16,.08-.24,.13l.07,.11c.15,0,.3,.02,.45,.02Z"/><path class="cls-2" d="M355.97,178.19c1.95,0,3.89,0,5.84,0,2.41,0,4.81,0,7.22,0,.8,0,1.61,0,2.41,0l.05-.13c-.06-.05-.11-.13-.17-.14-.19-.03-.38-.04-.58-.04-1.58,0-3.15,0-4.73,0-3.35,0-6.71,0-10.06,0-.08,0-.15-.01-.22,0-.05,.01-.12,.08-.11,.11,0,.06,.06,.14,.11,.16,.08,.03,.17,.01,.26,.01Z"/><path class="cls-2" d="M370.71,184.59c0,.08,.11,.16,.18,.23,.06-.08,.13-.15,.18-.23,.02-.04,0-.1,0-.16,0-1.6,0-3.2,0-4.8v-.84c-.32-.08-.38,.05-.38,.29,0,.98,0,1.96,0,2.93,0,.86,0,1.72,0,2.58Z"/><path class="cls-2" d="M380.98,176.81c.15-.01,.28-.02,.39-.03v-5.55c-.34-.1-.4,.03-.4,.31,.01,1.59,0,3.18,0,4.77v.5Z"/><path class="cls-2" d="M368.54,176.74s.02-.04,.02-.06c0-1.74,0-3.48,0-5.22,0-.3-.17-.27-.4-.23,0,.08-.01,.14-.01,.21,0,1.69,.01,3.37,0,5.06,0,.35,.03,.38,.38,.25Z"/><path class="cls-2" d="M370.02,170.61c.11,0,.23-.04,.42-.08-.2-.19-.35-.3-.46-.45-.11-.14-.24-.31-.25-.47-.04-.42-.02-.84,0-1.25,0-.26-.1-.42-.36-.42-.25,0-.4,.15-.39,.41,0,.15,0,.3,0,.45,.05,.57,0,1.11-.46,1.53-.07,.06-.11,.14-.17,.21,.11,.02,.22,.07,.33,.07,.45,0,.9,0,1.35,0Zm-.63-2.33c.15,0,.29,0,.29,.2,0,.43,0,.87,0,1.32h-.63c-.01-.27-.02-.54-.03-.81,0-.1,0-.2,0-.31-.03-.35,.01-.39,.38-.4Z"/><path class="cls-2" d="M379.23,170.57c.62,.01,1.24,.02,1.86,.02,.03,0,.11-.13,.09-.16-.06-.11-.14-.24-.24-.3-.32-.19-.4-.47-.39-.82,.01-.33,0-.66,0-1,0-.25-.15-.41-.41-.38-.22,.03-.37,.12-.34,.41,.03,.32,.02,.64,0,.96-.01,.21-.07,.42-.12,.7,.22,.02,.51,.04,.8,.06v.08h-1.11v.1l.27,.09-.52,.09c.05,.08,.08,.14,.1,.14Zm.62-.77c0-.45-.01-.9,.01-1.34,0-.06,.17-.17,.26-.16,.13,0,.37,.09,.37,.15,.03,.44,.02,.89,.02,1.35h-.66Z"/><path class="cls-2" d="M379.35,175.27v-4.05c-.3-.09-.38,.02-.38,.3,.01,1.1,.01,2.19,0,3.29,0,.27,.08,.43,.38,.47Z"/><path class="cls-2" d="M368.31,171.11c.34,.03,.69,.01,1.03,.01h0c.35,0,.71,.02,1.06-.01,.11,0,.21-.15,.32-.23-.11-.07-.22-.21-.33-.21-.7-.02-1.4,0-2.09-.01-.17,0-.33,.05-.3,.23,.02,.09,.2,.21,.31,.22Z"/><path class="cls-2" d="M379.15,171.12c.33,0,.67,0,1,0,.37,0,.73,.02,1.09-.01,.11,0,.27-.13,.29-.22,.03-.18-.12-.24-.3-.24-.7,0-1.4,0-2.09,0-.17,0-.32,.05-.33,.22-.01,.21,.16,.24,.34,.24Z"/><path class="cls-2" d="M374.77,164.06c.24,.12,.43,.2,.62,.3,.04-.35-.15-.55-.64-.71v1.52h.01v-1.11Z"/><path class="cls-2" d="M370.87,177.8c.08,0,.15-.08,.3-.17-.14-.1-.22-.2-.28-.19-.07,.01-.15,.12-.17,.2-.01,.04,.1,.16,.15,.16Z"/><path class="cls-2" d="M378.79,177.05c-.21,.32-.2,.59,0,.72v-.72Z"/><path class="cls-2" d="M378.74,175.43c-.45,0-.27,.41-.47,.53l.08,.06c.12-.18,.24-.36,.39-.58Z"/><path class="cls-2" d="M389.56,179.59l-.15-.11v.08l.15,.03Z"/><path class="cls-2" d="M390,179.97l-.04,.03,.05-.02h0Z"/><path class="cls-2" d="M389.94,180.02l.02-.02h-.02v.02Z"/><path class="cls-2" d="M390.08,180.05h0Z"/><path class="cls-2" d="M359.47,180.12h0Z"/><path class="cls-2" d="M375.37,171.13c.72,.07,1.39,.27,2,.66,.34,.21,.64,.5,.97,.76,.08-.39-.03-.68-.33-.92-.83-.69-1.79-.99-2.85-1.04-.07,0-.2,.11-.2,.17,0,.11,.05,.24,.13,.31,.06,.06,.18,.05,.28,.06Z"/><path class="cls-2" d="M374.31,171.12c.23-.01,.28-.14,.27-.35-.02-.24-.18-.19-.33-.18-.11,.01-.21,.01-.32,.03-.93,.11-1.76,.44-2.48,1.06-.28,.24-.33,.52-.27,.85,.37-.28,.7-.58,1.07-.8,.62-.38,1.32-.57,2.05-.61Z"/><path class="cls-2" d="M370.17,176.18l-.16-.02c-.01,.18-.03,.37-.04,.55h.14l.06-.53Z"/><path class="cls-2" d="M389.78,179.65h-.17l.27,.2-.1-.2Z"/><path class="cls-2" d="M390.01,179.98l-.07-.07s0,.07,0,.11l.07-.03Z"/><path class="cls-2" d="M389.87,179.84l.08,.08-.08-.08Z"/><path class="cls-2" d="M389.55,179.59l.08,.08-.08-.08Z"/><path class="cls-2" d="M359.56,180.03l.03-.13-.11,.07,.07,.05h0Z"/><path class="cls-2" d="M359.59,179.81v.11h.1l-.1-.11Z"/><path class="cls-2" d="M359.56,180.03h0Z"/><path class="cls-2" d="M374.31,171.12c.23-.01,.28-.14,.27-.35-.02-.24-.18-.19-.33-.18-.11,.01-.21,.01-.32,.03-.93,.11-1.76,.44-2.48,1.06-.28,.24-.33,.52-.27,.85,.37-.28,.7-.58,1.07-.8,.62-.38,1.32-.57,2.05-.61Z"/><path class="cls-2" d="M375.37,171.13c.72,.07,1.39,.27,2,.66,.34,.21,.64,.5,.97,.76,.08-.39-.03-.68-.33-.92-.83-.69-1.79-.99-2.85-1.04-.07,0-.2,.11-.2,.17,0,.11,.05,.24,.13,.31,.06,.06,.18,.05,.28,.06Z"/></g></g><g id="nErwX3.tif"><path class="cls-2" d="M360.55,242.12c.17,.3,.34,.57,.71,.64,.39,.07,.7-.13,.98-.64,2.43-4.4,4.86-8.79,7.29-13.19,1.19-2.15,2.38-4.29,3.54-6.46,.85-1.59,1.28-3.31,1.4-5.1,0-.14,.04-.28,.06-.41v-.69c-.08-.63-.13-1.27-.23-1.9-.38-2.35-1.36-4.44-2.88-6.25-1.59-1.89-3.56-3.26-5.92-4-.96-.3-1.97-.42-2.95-.62-.12-.03-.25-.04-.37-.06h-1.54c-.84,.15-1.69,.25-2.52,.45-2.31,.55-4.28,1.73-5.95,3.39-1.88,1.87-3.09,4.12-3.6,6.73-.61,3.15-.14,6.14,1.41,8.94,3.52,6.39,7.06,12.78,10.59,19.17Zm.89-32.13c3.66,.07,6.56,3.03,6.5,6.63-.06,3.65-3.03,6.55-6.64,6.48-3.61-.07-6.52-3.06-6.44-6.64,.08-3.62,3.05-6.54,6.58-6.47Z"/></g><g id="nErwX3.tif-2"><path class="cls-2" d="M45.99,223.11h1.54c.12,.02,.25,.04,.37,.06,.99,.2,2,.32,2.95,.62,2.36,.74,4.33,2.11,5.92,4,1.53,1.82,2.51,3.9,2.88,6.25,.1,.63,.15,1.26,.23,1.9v.69c-.02,.14-.05,.27-.06,.41-.11,1.8-.55,3.51-1.4,5.1-1.16,2.16-2.36,4.31-3.54,6.46-2.43,4.4-4.86,8.8-7.29,13.19-.28,.51-.59,.71-.98,.64-.37-.07-.55-.34-.71-.64-3.53-6.39-7.06-12.78-10.59-19.17-1.55-2.81-2.02-5.8-1.41-8.94,.51-2.61,1.72-4.86,3.6-6.73,1.67-1.67,3.65-2.84,5.95-3.39,.83-.2,1.68-.3,2.52-.45Zm.81,6.56c-3.54-.07-6.51,2.85-6.58,6.47-.08,3.58,2.83,6.58,6.44,6.64,3.61,.07,6.58-2.83,6.64-6.48,.06-3.6-2.84-6.56-6.5-6.63Z"/></g><g id="S8KFdt"><g><path class="cls-2" d="M386.43,118.21c.01,8.14,.01,16.28,.01,24.41v.8h10.8v-.85c0-8.14,0-16.28,.01-24.41,0-.4,.09-.85,.29-1.19,.37-.63,.35-1.26,.27-1.99h-3.68c0-.67,.02-1.28,0-1.88-.05-1.38-1-2.3-2.34-2.28-1.32,.02-2.26,.98-2.27,2.36,0,.58,0,1.17,0,1.8h-3.84c.19,.77,.35,1.4,.5,2.03,.09,.4,.24,.81,.24,1.22Zm3.03,3.52c0,6.87,0,13.74,0,20.61q0,.82-.84,.82c-.34,0-.67,0-1.01,0q-.85,0-.85-.88c0-3.79,0-7.59,0-11.38v-.51c0-3.96,0-7.92,0-11.88,0-.82,0-.82,.84-.82,.36,0,.72,.03,1.07,0,.59-.06,.82,.13,.79,.76-.05,1.09-.01,2.19-.01,3.29Zm4.33,20.93c0,.34-.11,.5-.48,.5-.97-.01-1.94-.01-2.9,0-.38,0-.53-.16-.52-.53,0-.59,0-1.18,0-1.77h.02c0-.57-.03-1.14,0-1.7,.06-.98,.89-1.72,1.9-1.73,1.02,0,1.92,.77,1.95,1.76,.04,1.16,0,2.31,.02,3.47Zm0-7.28c0,.81,0,1.62,0,2.5-1.66-1.34-2.75-.97-3.86,0-.02-.25-.04-.45-.04-.64,0-6.24,0-12.47,0-18.71,0-.84,0-.84,.84-.84,.8,0,1.6,.04,2.4-.01,.62-.04,.67,.27,.67,.76-.01,5.65,0,11.29,0,16.94Zm3.14-4.89c0,3.96-.01,7.92,.01,11.88,0,.59-.13,.86-.76,.79-.62-.07-1.44,.14-1.8-.19-.32-.28-.14-1.14-.14-1.75,0-7.56,0-15.13,0-22.69,0-.84,0-.86,.81-.84,.6,.01,1.39-.14,1.74,.17,.3,.27,.13,1.1,.13,1.69,0,3.65,0,7.29,0,10.94Zm-.41-13.25c-3.12,0-6.24,0-9.36,0-.43,0-.68-.13-.71-.66h10.8c-.05,.52-.3,.66-.73,.66Zm-4.74-6.2c1.12-.02,1.92,.65,2.06,1.77h-3.99c.08-1.04,.88-1.75,1.94-1.77Zm-1.96,2.09h4.04v1.79h-4.04v-1.79Zm-3.68,2.14h11.45v.8h-11.45v-.8Z"/><path class="cls-2" d="M392.27,135.6s.1,0,.12-.02c.12-.12,.31-.25,.32-.38,.03-.5,.05-1.01,0-1.51-.06-.47-.39-.77-.87-.75-.5,.02-.82,.3-.85,.84-.01,.23,0,.46,0,.7,0,1.17,.16,1.32,1.29,1.14Zm-.91-1.74c.11-.19,.31-.33,.47-.49,.15,.16,.36,.3,.43,.49,.08,.22,.01,.49,.03,.74,.02,.37-.08,.59-.52,.58-.45,0-.44-.28-.43-.59,0-.08,0-.17,0-.25h.01c0-.17-.06-.37,.01-.49Z"/><path class="cls-2" d="M391.83,131.83c.15,0,.33,.05,.43-.02,.18-.11,.37-.27,.45-.46,.08-.18,.02-.41,.02-.62,0-.23,.01-.46,0-.69-.04-.55-.36-.84-.89-.89-.45-.04-.83,.37-.85,.9-.02,.32,0,.63,0,.95,0,.83,0,.83,.85,.83Zm-.46-1.71c.06-.21,.31-.36,.48-.54,.15,.19,.31,.37,.43,.58,.05,.1,0,.25,0,.37h.01c0,.19,.04,.41-.04,.56-.08,.14-.31,.27-.47,.27-.15,0-.4-.17-.42-.3-.06-.3-.08-.64,0-.93Z"/><path class="cls-2" d="M392.29,128.05s.1,0,.12-.01c.11-.11,.29-.22,.29-.34,.03-.52,.05-1.05,0-1.57-.06-.47-.4-.74-.88-.72-.48,.02-.78,.29-.83,.78-.02,.23,0,.46,0,.69,0,1.24,.08,1.32,1.31,1.17Zm-.93-1.61c.08-.24,.3-.43,.46-.64,.16,.21,.33,.4,.46,.63,.05,.09,0,.25,0,.37h.01c0,.17,.04,.38-.04,.49-.12,.15-.33,.29-.51,.3-.13,0-.35-.19-.39-.34-.06-.26-.08-.56,0-.81Z"/><path class="cls-2" d="M392.13,124.27c.08,0,.19,.03,.25-.01,.13-.1,.33-.22,.33-.35,.04-.5,.06-1.01,0-1.51-.06-.49-.39-.79-.92-.75-.52,.04-.79,.35-.8,.87,0,.21,0,.42,0,.81,.02,1.07-.2,.93,1.15,.94Zm-.77-1.63c.09-.23,.33-.4,.51-.59,.14,.2,.3,.39,.41,.61,.05,.1,0,.25,0,.37h0c0,.13,0,.25,0,.38,.02,.31-.1,.46-.44,.44-.31-.02-.54-.08-.52-.46,.01-.25-.07-.53,.02-.75Z"/><path class="cls-2" d="M388.89,138.84c0-.19,0-.38-.03-.57-.06-.47-.29-.82-.8-.79-.5,.03-.71,.39-.73,.87,0,.13,0,.25,0,.38l-.1,.04c.11,.29,.14,.72,.36,.85,.66,.4,1.3-.01,1.3-.77Zm-.79-.9c.15,.18,.3,.36,.53,.64-.2,.26-.35,.46-.5,.65-.12-.18-.34-.36-.33-.53,.02-.26,.19-.51,.3-.76Z"/><path class="cls-2" d="M388.89,133.08c0-.17,0-.34-.03-.5-.06-.47-.26-.83-.79-.8-.51,.03-.71,.39-.73,.86,0,.13,0,.25,0,.38l-.12,.04c.13,.3,.17,.77,.4,.88,.75,.39,1.28-.01,1.27-.86Zm-.75-.84c.14,.19,.28,.39,.5,.69-.22,.25-.38,.43-.54,.61-.11-.21-.31-.42-.3-.63,.01-.23,.21-.45,.33-.68Z"/><path class="cls-2" d="M387.68,131.12c.81,.33,1.22,0,1.21-.87,0-.89-.25-1.27-.79-1.27-.54,0-.77,.38-.9,1.34,.16,.28,.25,.71,.48,.8Zm.11-.95c.04-.25,.19-.48,.3-.72,.16,.19,.33,.38,.55,.64-.22,.29-.33,.6-.5,.63-.42,.08-.4-.3-.35-.55Z"/><path class="cls-2" d="M387.67,125.45c.79,.34,1.22,0,1.22-.87,0-.87-.26-1.28-.79-1.29-.52,0-.77,.4-.9,1.34,.15,.28,.24,.72,.47,.82Zm.43-1.69c.15,.2,.31,.39,.53,.68-.22,.27-.37,.44-.51,.61-.12-.2-.33-.4-.33-.59,0-.23,.2-.46,.31-.7Z"/><path class="cls-2" d="M387.98,136.86c.78,.05,.91-.07,.91-.87,0-.23-.03-.46-.06-.68-.06-.41-.3-.63-.72-.63-.46,0-.68,.28-.75,.69-.03,.18,0,.38,0,.56-.01,.84,.02,.89,.63,.94Zm-.19-1.06c.03-.25,.19-.49,.29-.73,.17,.21,.33,.43,.56,.71-.21,.28-.32,.6-.48,.63-.47,.07-.39-.35-.36-.6Z"/><path class="cls-2" d="M388.14,128.33c.87,.06,.65-.53,.68-.95,0-.16,0-.29,0-.41,.03-.49-.17-.85-.68-.87-.54-.02-.77,.34-.8,.85-.01,.19,0,.38,0,.56,0,.78,.04,.77,.81,.82Zm0-1.78c.15,.22,.29,.43,.5,.74-.22,.24-.38,.41-.53,.57-.11-.21-.31-.43-.3-.64,.01-.23,.21-.45,.33-.68Z"/><path class="cls-2" d="M387.61,122.58c.8,.36,1.29,0,1.27-.86,0-.21,.02-.46-.08-.61-.17-.25-.46-.6-.67-.58-.27,.02-.56,.33-.76,.59-.11,.14-.04,.41-.05,.62l-.09,.04c.12,.28,.18,.72,.39,.82Zm.18-.97c.03-.25,.2-.48,.31-.71,.16,.23,.32,.45,.53,.76-.21,.26-.35,.57-.51,.58-.47,.04-.36-.38-.33-.63Z"/><path class="cls-2" d="M395.46,133.97c.81,0,.9-.06,.9-.89,0-.19,0-.38-.02-.57-.06-.44-.26-.76-.76-.76-.49,0-.7,.33-.76,.77-.02,.17,0,.34,0,.41-.03,.57-.08,1.04,.65,1.03Zm-.19-1.11c.02-.23,.18-.45,.28-.67,.17,.21,.33,.42,.56,.72-.23,.27-.36,.58-.52,.59-.48,.04-.35-.39-.32-.64Z"/><path class="cls-2" d="M395.17,136.77c.9,.22,1.19-.01,1.19-1.11,0-.07,0-.33-.08-.56-.17-.52-.75-.69-1.16-.36-.3,.25-.47,1.6-.22,1.9,.06,.07,.17,.12,.27,.14Zm.43-1.74c.11,.23,.29,.47,.3,.7,0,.2-.21,.39-.32,.59-.14-.18-.29-.36-.5-.63,.22-.27,.37-.47,.53-.66Z"/><path class="cls-2" d="M396.36,127.4c0-.9-.25-1.33-.8-1.32-.51,0-.76,.43-.86,1.33,.12,.29,.16,.72,.37,.83,.71,.39,1.28-.02,1.28-.84Zm-1.09-.22c.03-.22,.2-.43,.31-.64,.15,.2,.31,.4,.52,.68-.22,.27-.35,.58-.51,.6-.48,.04-.36-.39-.33-.63Z"/><path class="cls-2" d="M395.57,125.51c.61,.03,.85-.22,.79-.81-.02-.21,0-.42-.02-.63-.05-.46-.26-.81-.78-.79-.52,.02-.71,.37-.75,.84-.01,.15,0,.29,0,.44,0,.87,.05,.91,.77,.95Zm-.3-1.19c.02-.22,.22-.42,.34-.62,.14,.25,.28,.49,.46,.82-.2,.22-.34,.51-.48,.51-.53,0-.34-.45-.32-.71Z"/><path class="cls-2" d="M396.36,130.22c0-.13,0-.25,0-.38-.03-.48-.2-.88-.75-.93-.45-.04-.76,.35-.8,.94,0,.1,0,.21,0,.32l-.1,.04c.11,.29,.15,.73,.36,.84,.72,.39,1.29-.02,1.29-.83Zm-1.09-.52c.02-.13,.18-.24,.27-.35,.12,.12,.32,.22,.35,.36,.06,.28,.02,.57,.02,.94h-.65c0-.34-.03-.65,.01-.95Z"/><path class="cls-2" d="M395.04,122.59c.72,.33,1.32-.05,1.35-.84-.04-.27-.04-.55-.13-.8-.14-.41-.45-.61-.89-.47-.51,.16-.84,1.69-.44,2.06,.03,.03,.07,.04,.11,.06Zm.23-1c.03-.25,.2-.48,.3-.72,.16,.23,.31,.46,.52,.77-.21,.26-.35,.57-.51,.59-.48,.04-.35-.39-.32-.64Z"/><path class="cls-2" d="M395.04,139.55c.72,.33,1.32-.05,1.35-.84-.04-.27-.04-.55-.13-.8-.16-.44-.49-.63-.95-.45-.47,.18-.75,1.7-.38,2.03,.03,.03,.07,.05,.11,.06Zm.53-1.69c.49,.05,.36,.49,.34,.79-.02,.19-.2,.37-.31,.55l-.51-.71c.21-.28,.36-.65,.48-.64Z"/></g></g><g><path d="M307.84,264.37v-14.75h1.39v7.64l7.56-7.64h1.58l-5.82,5.88,6.84,8.87h-1.7l-6.14-8.01-2.31,2.31v5.69h-1.39Z"/><path d="M320.07,264.37l5.8-14.75h1.58l5.65,14.75h-1.43l-1.7-4.63h-6.72l-1.74,4.63h-1.43Zm3.65-5.82h5.78l-2.89-7.74-2.89,7.74Z"/><path d="M334.94,264.37v-14.75h9.5v1.19h-8.11v5.33h7.37v1.19h-7.37v7.04h-1.39Z"/><path d="M346.32,264.37v-14.75h9.5v1.19h-8.11v5.33h7.37v1.19h-7.37v7.04h-1.39Z"/><path d="M357.85,264.37v-14.75h9.81v1.19h-8.42v5.33h7.6v1.19h-7.6v5.86h8.62v1.19h-10.01Z"/><path d="M370.37,264.37v-14.75h5.32c.86,0,1.6,.09,2.21,.27,.61,.18,1.12,.43,1.51,.76,.39,.33,.67,.72,.85,1.18,.18,.46,.27,.96,.27,1.51s-.07,.97-.21,1.34c-.14,.38-.31,.69-.53,.94-.22,.25-.47,.45-.75,.59-.28,.14-.57,.24-.87,.3v.04c1.02,.15,1.79,.55,2.28,1.21,.5,.66,.75,1.47,.75,2.46,0,.76-.12,1.41-.36,1.95-.24,.53-.57,.96-.99,1.29-.42,.33-.93,.56-1.53,.71s-1.24,.21-1.94,.21h-6.02Zm1.39-8.23h3.52c.72,0,1.33-.06,1.82-.18,.49-.12,.89-.3,1.19-.54,.3-.24,.52-.53,.65-.88,.13-.35,.19-.75,.19-1.2s-.08-.86-.23-1.18c-.15-.32-.39-.58-.72-.78s-.75-.34-1.28-.43c-.53-.09-1.17-.13-1.94-.13h-3.22v5.33Zm0,7.04h3.54c.76,0,1.43-.03,2-.1,.57-.07,1.03-.21,1.4-.42s.65-.51,.83-.9c.18-.39,.28-.9,.28-1.55s-.1-1.11-.31-1.49c-.21-.38-.5-.67-.88-.87s-.84-.34-1.37-.42c-.53-.07-1.13-.11-1.78-.11h-3.71v5.86Z"/><path d="M382.67,264.37l5.8-14.75h1.58l5.65,14.75h-1.43l-1.7-4.63h-6.72l-1.74,4.63h-1.43Zm3.65-5.82h5.78l-2.89-7.74-2.89,7.74Z"/><path d="M399.06,257.67v6.7l-1.39-.02v-14.72h5.78c1.62,0,2.87,.3,3.73,.91,.86,.61,1.29,1.59,1.29,2.96,0,.93-.19,1.67-.56,2.21-.38,.55-.99,1.01-1.83,1.39,.44,.15,.78,.37,1.02,.66,.25,.29,.43,.61,.55,.98,.12,.37,.2,.76,.24,1.17,.03,.41,.06,.81,.07,1.19,.01,.56,.04,1.02,.07,1.39,.03,.37,.08,.67,.12,.9,.05,.23,.11,.41,.17,.54s.15,.23,.25,.3v.12l-1.54,.02c-.15-.25-.26-.59-.32-1.02-.06-.44-.11-.89-.14-1.37-.03-.48-.06-.94-.08-1.39-.02-.45-.06-.82-.11-1.11-.08-.4-.22-.71-.4-.95-.18-.24-.41-.42-.67-.54-.26-.12-.55-.21-.87-.25s-.65-.06-.99-.06h-4.38Zm4.34-1.19c.52,0,1-.05,1.44-.16,.44-.11,.83-.28,1.16-.52,.33-.24,.59-.54,.78-.91,.19-.37,.29-.81,.29-1.33,0-.55-.1-1-.3-1.35-.2-.35-.46-.63-.8-.84-.33-.2-.72-.35-1.15-.43s-.88-.12-1.34-.12h-4.42v5.67h4.34Z"/></g><g><path d="M1.52,288.53v-14.75H11.02v1.19H2.91v5.33h7.37v1.19H2.91v7.04H1.52Z"/><path d="M11.69,288.53l5.8-14.75h1.58l5.65,14.75h-1.43l-1.7-4.63h-6.72l-1.74,4.63h-1.43Zm3.65-5.82h5.78l-2.89-7.74-2.89,7.74Z"/><path d="M26.7,288.53v-14.75h5.32c.86,0,1.6,.09,2.21,.27,.61,.18,1.12,.43,1.51,.76,.39,.33,.67,.72,.85,1.18,.18,.46,.27,.96,.27,1.51s-.07,.97-.21,1.34c-.14,.38-.31,.69-.53,.94-.22,.25-.47,.45-.75,.59-.28,.14-.57,.24-.87,.3v.04c1.02,.15,1.79,.55,2.28,1.21,.5,.66,.75,1.47,.75,2.46,0,.76-.12,1.41-.36,1.95-.24,.53-.57,.96-.99,1.29-.42,.33-.93,.56-1.53,.71s-1.24,.21-1.94,.21h-6.02Zm1.39-8.23h3.52c.72,0,1.33-.06,1.82-.18,.49-.12,.89-.3,1.19-.54,.3-.24,.52-.53,.65-.88,.13-.35,.19-.75,.19-1.2s-.08-.86-.23-1.18c-.15-.32-.39-.58-.72-.78s-.75-.34-1.28-.43c-.53-.09-1.17-.13-1.94-.13h-3.22v5.33Zm0,7.04h3.54c.76,0,1.43-.03,2-.1,.57-.07,1.03-.21,1.4-.42s.65-.51,.83-.9c.18-.39,.28-.9,.28-1.55s-.1-1.11-.31-1.49c-.21-.38-.5-.67-.88-.87s-.84-.34-1.37-.42c-.53-.07-1.13-.11-1.78-.11h-3.71v5.86Z"/><path d="M41.74,281.83v6.7l-1.39-.02v-14.72h5.78c1.62,0,2.87,.3,3.73,.91,.86,.61,1.29,1.59,1.29,2.96,0,.93-.19,1.67-.56,2.21-.38,.55-.99,1.01-1.83,1.39,.44,.15,.78,.37,1.02,.66,.25,.29,.43,.61,.55,.98,.12,.37,.2,.76,.24,1.17,.03,.41,.06,.81,.07,1.19,.01,.56,.04,1.02,.07,1.39,.03,.37,.08,.67,.12,.9,.05,.23,.11,.41,.17,.54s.15,.23,.25,.3v.12l-1.54,.02c-.15-.25-.26-.59-.32-1.02-.06-.44-.11-.89-.14-1.37-.03-.48-.06-.94-.08-1.39-.02-.45-.06-.82-.11-1.11-.08-.4-.22-.71-.4-.95-.18-.24-.41-.42-.67-.54-.26-.12-.55-.21-.87-.25s-.65-.06-.99-.06h-4.38Zm4.34-1.19c.52,0,1-.05,1.44-.16,.44-.11,.83-.28,1.16-.52,.33-.24,.59-.54,.78-.91,.19-.37,.29-.81,.29-1.33,0-.55-.1-1-.3-1.35-.2-.35-.46-.63-.8-.84-.33-.2-.72-.35-1.15-.43s-.88-.12-1.34-.12h-4.42v5.67h4.34Z"/><path d="M54.52,288.53v-14.75h1.39v14.75h-1.39Z"/><path d="M59.8,288.53v-14.75h1.39v7.64l7.56-7.64h1.58l-5.82,5.88,6.84,8.87h-1.7l-6.14-8.01-2.31,2.31v5.69h-1.39Z"/><path d="M73.46,288.53v-14.75h1.39v7.64l7.56-7.64h1.58l-5.82,5.88,6.84,8.87h-1.7l-6.14-8.01-2.31,2.31v5.69h-1.39Z"/><path d="M87.04,288.53v-14.75h9.81v1.19h-8.42v5.33h7.6v1.19h-7.6v5.86h8.62v1.19h-10.01Z"/><path d="M100.94,275.67h-.04v12.86h-1.39v-14.75h1.58l8.52,12.88h.04v-12.88h1.39v14.75h-1.62l-8.48-12.86Z"/></g><g><path d="M359.59,187.39h5.37v.59h-2.33v6.78h-.7v-6.78h-2.33v-.59Z"/><path d="M366.19,194.77v-7.37h.7v7.37h-.7Z"/><path d="M368.15,187.39h.73l2.22,6.55,2.21-6.55h.73l-2.56,7.37h-.77l-2.56-7.37Z"/><path d="M374.76,191.09c0-.54,.07-1.04,.22-1.52,.15-.47,.36-.88,.65-1.23s.64-.63,1.06-.83c.42-.21,.91-.31,1.46-.31s1.08,.1,1.51,.3c.43,.2,.8,.48,1.09,.83s.51,.76,.66,1.24,.22,.98,.22,1.52-.07,1.03-.22,1.5-.36,.88-.65,1.23c-.29,.35-.65,.63-1.08,.83-.43,.2-.93,.31-1.5,.31s-1.06-.1-1.5-.31c-.43-.21-.79-.48-1.08-.83s-.5-.76-.65-1.23c-.14-.47-.22-.97-.22-1.5Zm3.44,3.28c.48,0,.89-.09,1.23-.27s.63-.42,.85-.72c.22-.3,.39-.65,.49-1.04,.11-.4,.16-.81,.16-1.24,0-.51-.06-.97-.19-1.38-.13-.41-.31-.75-.55-1.04s-.53-.5-.87-.66c-.34-.15-.72-.23-1.15-.23-.47,0-.88,.09-1.22,.28-.34,.18-.63,.43-.85,.73s-.39,.65-.49,1.05c-.11,.4-.16,.81-.16,1.24s.05,.85,.16,1.25c.11,.4,.27,.74,.49,1.04,.22,.3,.51,.54,.85,.72,.34,.18,.76,.27,1.24,.27Z"/><path d="M383.01,194.77v-7.37h.7v6.78h3.95v.59h-4.65Z"/><path d="M388.95,194.77v-7.37h.7v7.37h-.7Z"/></g><g><path d="M362.36,150.81v3.35h-.7v-7.37h2.89c.81,0,1.43,.15,1.86,.46s.65,.8,.65,1.48c0,.46-.09,.83-.28,1.11-.19,.27-.49,.5-.92,.7,.22,.08,.39,.18,.51,.33,.12,.14,.22,.31,.28,.49,.06,.18,.1,.38,.12,.58s.03,.4,.04,.59c0,.28,.02,.51,.04,.7,.02,.18,.04,.33,.06,.45s.05,.21,.09,.27c.03,.06,.07,.11,.12,.15v.06h-.77c-.08-.11-.13-.28-.16-.5-.03-.22-.05-.45-.07-.69-.02-.24-.03-.47-.04-.7s-.03-.41-.06-.55c-.04-.2-.11-.36-.2-.48-.09-.12-.2-.21-.33-.27-.13-.06-.27-.1-.44-.12-.16-.02-.33-.03-.5-.03h-2.19Zm2.17-.59c.26,0,.5-.03,.72-.08s.41-.14,.58-.26c.16-.12,.29-.27,.39-.46,.1-.18,.14-.41,.14-.67,0-.27-.05-.5-.15-.68-.1-.18-.23-.32-.4-.42-.17-.1-.36-.17-.57-.22-.21-.04-.44-.06-.67-.06h-2.21v2.84h2.17Z"/><path d="M368.51,146.79h.7v4.39c0,.92,.17,1.57,.51,1.98,.34,.4,.89,.6,1.65,.6,.4,0,.73-.05,1.01-.16,.28-.11,.5-.27,.67-.48,.17-.21,.29-.48,.37-.8,.07-.32,.11-.7,.11-1.14v-4.39h.7v4.6c0,.96-.24,1.7-.71,2.21s-1.19,.76-2.15,.76-1.68-.26-2.15-.78c-.47-.52-.71-1.25-.71-2.19v-4.6Z"/><path d="M376.59,147.73h-.02v6.43h-.7v-7.37h.79l4.26,6.44h.02v-6.44h.7v7.37h-.81l-4.24-6.43Z"/><path d="M383.29,154.16v-7.37h2.52c.2,0,.41,0,.6,.02,.2,.01,.39,.03,.58,.07,.19,.04,.38,.09,.56,.17s.36,.17,.53,.3c.25,.18,.45,.39,.6,.65,.16,.26,.28,.53,.37,.81s.16,.57,.19,.86,.06,.56,.06,.8-.02,.5-.05,.75c-.03,.25-.08,.5-.15,.74-.07,.24-.16,.47-.27,.7-.11,.22-.25,.43-.42,.61-.17,.19-.36,.34-.56,.46s-.41,.21-.63,.27c-.22,.07-.45,.11-.69,.13-.24,.02-.48,.04-.73,.04h-2.52Zm.7-.59h1.67c.31,0,.61-.02,.89-.06,.28-.04,.56-.13,.84-.28,.25-.12,.45-.29,.6-.5,.16-.21,.28-.44,.37-.69,.09-.25,.16-.51,.19-.78,.04-.27,.06-.54,.06-.79,0-.27-.02-.54-.05-.81s-.1-.54-.19-.79-.23-.48-.39-.69c-.16-.21-.38-.38-.63-.52-.22-.12-.48-.19-.78-.23s-.6-.05-.91-.05h-1.67v6.18Z"/><path d="M390.68,154.16v-7.37h4.9v.59h-4.21v2.66h3.8v.59h-3.8v2.93h4.31v.59h-5.01Z"/><path d="M396.27,146.79h5.37v.59h-2.33v6.78h-.7v-6.78h-2.33v-.59Z"/><path d="M401.95,154.16l2.9-7.37h.79l2.83,7.37h-.72l-.85-2.31h-3.36l-.87,2.31h-.72Zm1.82-2.91h2.89l-1.44-3.87-1.44,3.87Z"/><path d="M408.78,154.16l2.9-7.37h.79l2.83,7.37h-.72l-.85-2.31h-3.36l-.87,2.31h-.72Zm1.82-2.91h2.89l-1.44-3.87-1.44,3.87Z"/><path d="M416.98,150.81v3.35h-.7v-7.37h2.89c.81,0,1.43,.15,1.86,.46s.65,.8,.65,1.48c0,.46-.09,.83-.28,1.11-.19,.27-.49,.5-.92,.7,.22,.08,.39,.18,.51,.33,.12,.14,.22,.31,.28,.49,.06,.18,.1,.38,.12,.58s.03,.4,.04,.59c0,.28,.02,.51,.04,.7,.02,.18,.04,.33,.06,.45s.05,.21,.09,.27c.03,.06,.07,.11,.12,.15v.06h-.77c-.08-.11-.13-.28-.16-.5-.03-.22-.05-.45-.07-.69-.02-.24-.03-.47-.04-.7s-.03-.41-.06-.55c-.04-.2-.11-.36-.2-.48-.09-.12-.2-.21-.33-.27-.13-.06-.27-.1-.44-.12-.16-.02-.33-.03-.5-.03h-2.19Zm2.17-.59c.26,0,.5-.03,.72-.08s.41-.14,.58-.26c.16-.12,.29-.27,.39-.46,.1-.18,.14-.41,.14-.67,0-.27-.05-.5-.15-.68-.1-.18-.23-.32-.4-.42-.17-.1-.36-.17-.57-.22-.21-.04-.44-.06-.67-.06h-2.21v2.84h2.17Z"/><path d="M423.82,147.73h-.02v6.43h-.7v-7.37h.79l4.26,6.44h.02v-6.44h.7v7.37h-.81l-4.24-6.43Z"/></g><g><path class="cls-2" d="M249.09,209.9c.2,.46,.7,.61,1.12,.34,.28-.18,.55-.36,.88-.58l4.65-2.3c.19-.27,.69-.32,1.06-.45,3.14-1.07,6.36-1.5,9.67-1.25,.49,.04,.77-.18,.8-.57,.03-.4-.24-.68-.74-.68-1.41,0-2.82-.04-4.22,.07-3.48,.27-6.75,1.32-9.83,2.95-.84,.44-1.65,.94-2.49,1.42l-2.54-6.01c11.55-7.88,25.26-6.78,35.17,.45-.87,1.97-1.75,3.95-2.63,5.95-.12-.08-.21-.13-.29-.18-2.33-1.55-4.81-2.77-7.49-3.57-.91-.27-1.84-.47-2.77-.69-.51-.12-.87,.14-.87,.57,0,.35,.21,.57,.67,.66,1.6,.29,3.14,.77,4.65,1.34l5.02,2.64c.32,.22,.58,.4,.84,.58,.42,.29,.94,.15,1.15-.32,1.02-2.3,2.03-4.6,3.05-6.9,.02-.05,.06-.1,.09-.16v-.37c-.17-.17-.33-.37-.53-.5-3.97-2.8-8.32-4.76-13.11-5.67-4.39-.83-8.75-.7-13.08,.38-3.93,.97-7.52,2.67-10.85,4.94-.16,.11-.27,.27-.41,.41v.37c.64,1.51,1.29,3.01,1.93,4.52,.37,.87,.73,1.74,1.11,2.61Z"/><path class="cls-2" d="M275.61,208.14c.37,.19,.7,.41,1.06,.53l-1.06-.53Z"/><path class="cls-2" d="M270.04,204.09c2,.51,3.79-1.27,3.3-3.27-.22-.89-.91-1.63-1.79-1.9-2.07-.65-4.02,1.28-3.4,3.36,.26,.88,.99,1.59,1.89,1.82Zm-.7-3.03c.15-.49,.57-.88,1.08-.99,1.04-.22,1.93,.67,1.73,1.71-.1,.5-.48,.92-.97,1.08-1.12,.35-2.17-.68-1.83-1.8Z"/><path class="cls-2" d="M264.17,203.4c1.77,.47,3.39-.87,3.4-2.58,0-1.49-1.18-2.7-2.66-2.71-1.68-.01-3.01,1.51-2.66,3.26,.2,.97,.96,1.78,1.92,2.03Zm.71-4.04c.8,0,1.43,.63,1.44,1.42,0,.81-.64,1.47-1.45,1.47-.78,0-1.44-.65-1.45-1.43-.01-.8,.64-1.46,1.45-1.46Z"/><path class="cls-2" d="M257.47,200.48c.6-.09,1.19-.2,1.85-.31-.1,.17-.16,.28-.22,.38-.57,.92-1.14,1.84-1.72,2.76-.15,.24-.21,.52,0,.71,.17,.15,.46,.28,.67,.24,1.06-.16,2.12-.37,3.17-.57,.48-.09,.71-.36,.65-.73-.06-.39-.38-.57-.88-.49-.06,0-.12,.03-.18,.04-.53,.09-1.06,.19-1.65,.29,.11-.19,.19-.32,.26-.44,.55-.89,1.11-1.78,1.66-2.67,.15-.24,.17-.49,.01-.73-.22-.32-.57-.33-.97-.18-.79,.3-1.63,.43-2.48,.43-.74,0-1.1,.3-1.03,.76,.06,.38,.35,.57,.84,.49Z"/></g><g><path d="M216.55,220.83v-7.37h4.75v.59h-4.05v2.66h3.69v.59h-3.69v3.52h-.7Z"/><path d="M223,217.49v3.35h-.7v-7.37h2.89c.81,0,1.43,.15,1.86,.46s.65,.8,.65,1.48c0,.46-.09,.83-.28,1.11-.19,.27-.49,.5-.92,.7,.22,.08,.39,.18,.51,.33,.12,.14,.22,.31,.28,.49,.06,.18,.1,.38,.12,.58s.03,.4,.04,.59c0,.28,.02,.51,.04,.7,.02,.18,.04,.33,.06,.45s.05,.21,.09,.27c.03,.06,.07,.11,.12,.15v.06h-.77c-.08-.11-.13-.28-.16-.5-.03-.22-.05-.45-.07-.69-.02-.24-.03-.47-.04-.7s-.03-.41-.06-.55c-.04-.2-.11-.36-.2-.48-.09-.12-.2-.21-.33-.27-.13-.06-.27-.1-.44-.12-.16-.02-.33-.03-.5-.03h-2.19Zm2.17-.59c.26,0,.5-.03,.72-.08s.41-.14,.58-.26c.16-.12,.29-.27,.39-.46,.1-.18,.14-.41,.14-.67,0-.27-.05-.5-.15-.68-.1-.18-.23-.32-.4-.42-.17-.1-.36-.17-.57-.22-.21-.04-.44-.06-.67-.06h-2.21v2.84h2.17Z"/><path d="M229.15,220.83v-7.37h4.9v.59h-4.21v2.66h3.8v.59h-3.8v2.93h4.31v.59h-5.01Z"/><path d="M235.4,220.83v-7.37h2.52c.2,0,.41,0,.6,.02,.2,.01,.39,.03,.58,.07,.19,.04,.38,.09,.56,.17s.36,.17,.53,.3c.25,.18,.45,.39,.6,.65,.16,.26,.28,.53,.37,.81s.16,.57,.19,.86,.06,.56,.06,.8-.02,.5-.05,.75c-.03,.25-.08,.5-.15,.74-.07,.24-.16,.47-.27,.7-.11,.22-.25,.43-.42,.61-.17,.19-.36,.34-.56,.46s-.41,.21-.63,.27c-.22,.07-.45,.11-.69,.13-.24,.02-.48,.04-.73,.04h-2.52Zm.7-.59h1.67c.31,0,.61-.02,.89-.06,.28-.04,.56-.13,.84-.28,.25-.12,.45-.29,.6-.5,.16-.21,.28-.44,.37-.69,.09-.25,.16-.51,.19-.78,.04-.27,.06-.54,.06-.79,0-.27-.02-.54-.05-.81s-.1-.54-.19-.79-.23-.48-.39-.69c-.16-.21-.38-.38-.63-.52-.22-.12-.48-.19-.78-.23s-.6-.05-.91-.05h-1.67v6.18Z"/><path d="M243.48,217.49v3.35h-.7v-7.37h2.89c.81,0,1.43,.15,1.86,.46s.65,.8,.65,1.48c0,.46-.09,.83-.28,1.11-.19,.27-.49,.5-.92,.7,.22,.08,.39,.18,.51,.33,.12,.14,.22,.31,.28,.49,.06,.18,.1,.38,.12,.58s.03,.4,.04,.59c0,.28,.02,.51,.04,.7,.02,.18,.04,.33,.06,.45s.05,.21,.09,.27c.03,.06,.07,.11,.12,.15v.06h-.77c-.08-.11-.13-.28-.16-.5-.03-.22-.05-.45-.07-.69-.02-.24-.03-.47-.04-.7s-.03-.41-.06-.55c-.04-.2-.11-.36-.2-.48-.09-.12-.2-.21-.33-.27-.13-.06-.27-.1-.44-.12-.16-.02-.33-.03-.5-.03h-2.19Zm2.17-.59c.26,0,.5-.03,.72-.08s.41-.14,.58-.26c.16-.12,.29-.27,.39-.46,.1-.18,.14-.41,.14-.67,0-.27-.05-.5-.15-.68-.1-.18-.23-.32-.4-.42-.17-.1-.36-.17-.57-.22-.21-.04-.44-.06-.67-.06h-2.21v2.84h2.17Z"/><path d="M249.87,220.83v-7.37h.7v7.37h-.7Z"/><path d="M252.51,220.83v-7.37h.7v3.82l3.78-3.82h.79l-2.91,2.94,3.42,4.43h-.85l-3.07-4-1.16,1.16v2.85h-.7Z"/><path d="M259.59,218.63c.03,.33,.1,.61,.22,.83,.12,.23,.27,.42,.46,.56,.19,.14,.4,.25,.65,.31,.25,.07,.51,.1,.79,.1,.33,0,.61-.04,.85-.12,.24-.08,.43-.19,.58-.33,.15-.14,.26-.3,.33-.49,.07-.18,.11-.38,.11-.58,0-.29-.06-.52-.19-.7s-.3-.32-.51-.44c-.21-.11-.45-.2-.72-.27s-.55-.13-.83-.2c-.28-.07-.56-.14-.83-.23-.27-.09-.51-.21-.72-.36-.21-.15-.38-.34-.51-.58-.13-.24-.19-.53-.19-.9,0-.25,.05-.5,.16-.74s.26-.45,.47-.63c.21-.18,.47-.33,.78-.44s.68-.16,1.09-.16,.78,.06,1.09,.17c.31,.12,.57,.28,.77,.48s.36,.44,.46,.7c.1,.27,.15,.55,.15,.85h-.67c0-.28-.05-.52-.15-.73s-.23-.37-.4-.5c-.17-.13-.37-.22-.58-.29-.22-.06-.44-.09-.68-.09-.35,0-.65,.05-.9,.15-.24,.1-.44,.23-.58,.38-.14,.16-.24,.33-.3,.52-.05,.19-.06,.38-.03,.57,.04,.24,.14,.43,.29,.57,.15,.14,.33,.26,.55,.35,.22,.09,.46,.17,.72,.23,.26,.06,.53,.12,.8,.18,.27,.06,.54,.14,.79,.23s.48,.21,.68,.36c.2,.15,.36,.34,.48,.58,.12,.24,.18,.53,.18,.89,0,.68-.24,1.21-.71,1.59-.47,.38-1.13,.56-1.99,.56-.38,0-.74-.05-1.06-.15s-.61-.25-.85-.45c-.24-.2-.43-.45-.56-.75-.13-.3-.2-.65-.2-1.05h.68Z"/><path d="M265.56,220.83v-7.37h2.66c.43,0,.8,.04,1.11,.13s.56,.21,.75,.38c.19,.16,.34,.36,.43,.59,.09,.23,.13,.48,.13,.75s-.03,.48-.1,.67c-.07,.19-.16,.34-.27,.47-.11,.13-.23,.23-.37,.3-.14,.07-.29,.12-.44,.15v.02c.51,.08,.89,.28,1.14,.6,.25,.33,.37,.74,.37,1.23,0,.38-.06,.71-.18,.97-.12,.27-.29,.48-.5,.64s-.47,.28-.76,.35-.62,.11-.97,.11h-3.01Zm.7-4.12h1.76c.36,0,.67-.03,.91-.09,.25-.06,.44-.15,.59-.27,.15-.12,.26-.27,.32-.44,.06-.17,.1-.37,.1-.6s-.04-.43-.11-.59c-.08-.16-.19-.29-.36-.39-.16-.1-.38-.17-.64-.21-.26-.04-.59-.07-.97-.07h-1.61v2.66Zm0,3.52h1.77c.38,0,.71-.02,1-.05,.28-.03,.52-.1,.7-.21,.18-.11,.32-.26,.41-.45s.14-.45,.14-.77-.05-.55-.15-.74c-.1-.19-.25-.33-.44-.43-.19-.1-.42-.17-.69-.21-.27-.04-.56-.06-.89-.06h-1.85v2.93Z"/><path d="M272.39,220.83v-7.37h4.9v.59h-4.21v2.66h3.8v.59h-3.8v2.93h4.31v.59h-5.01Z"/><path d="M279.33,217.49v3.35h-.7v-7.37h2.89c.81,0,1.43,.15,1.86,.46s.65,.8,.65,1.48c0,.46-.09,.83-.28,1.11-.19,.27-.49,.5-.92,.7,.22,.08,.39,.18,.51,.33,.12,.14,.22,.31,.28,.49,.06,.18,.1,.38,.12,.58s.03,.4,.04,.59c0,.28,.02,.51,.04,.7,.02,.18,.04,.33,.06,.45s.05,.21,.09,.27c.03,.06,.07,.11,.12,.15v.06h-.77c-.08-.11-.13-.28-.16-.5-.03-.22-.05-.45-.07-.69-.02-.24-.03-.47-.04-.7s-.03-.41-.06-.55c-.04-.2-.11-.36-.2-.48-.09-.12-.2-.21-.33-.27-.13-.06-.27-.1-.44-.12-.16-.02-.33-.03-.5-.03h-2.19Zm2.17-.59c.26,0,.5-.03,.72-.08s.41-.14,.58-.26c.16-.12,.29-.27,.39-.46,.1-.18,.14-.41,.14-.67,0-.27-.05-.5-.15-.68-.1-.18-.23-.32-.4-.42-.17-.1-.36-.17-.57-.22-.21-.04-.44-.06-.67-.06h-2.21v2.84h2.17Z"/><path d="M288.61,217.62v-.59h3.15v3.81h-.59v-1.26c-.13,.22-.28,.42-.45,.6-.17,.18-.36,.33-.58,.46-.22,.13-.47,.22-.76,.29-.29,.07-.61,.1-.97,.1-.46,0-.89-.08-1.29-.25-.4-.16-.74-.41-1.02-.73s-.51-.73-.67-1.22c-.16-.49-.24-1.07-.24-1.72,0-.54,.07-1.04,.21-1.51,.14-.47,.35-.87,.63-1.22,.28-.34,.64-.62,1.06-.81,.43-.2,.93-.3,1.51-.3,.39,0,.75,.05,1.09,.14s.64,.24,.91,.44c.27,.19,.5,.44,.68,.73,.18,.29,.32,.63,.4,1.03h-.72c-.06-.27-.17-.52-.31-.74-.15-.22-.32-.4-.53-.55-.21-.15-.43-.26-.69-.34-.25-.08-.52-.12-.79-.12-.48,0-.9,.09-1.25,.26-.35,.17-.63,.41-.86,.72-.23,.31-.39,.68-.5,1.12-.11,.43-.16,.91-.16,1.43,0,.41,.06,.8,.18,1.17,.12,.37,.29,.69,.52,.97,.23,.28,.51,.5,.84,.67,.33,.16,.71,.25,1.13,.25,.2,0,.4-.02,.61-.07s.42-.12,.61-.22c.2-.1,.38-.24,.55-.4,.17-.16,.32-.37,.44-.6,.12-.23,.2-.47,.24-.73,.04-.25,.07-.52,.08-.8h-2.49Z"/><path d="M295.78,220.83v-.58l4.72-6.19h-4.32v-.59h5.18v.58l-4.72,6.2h4.75v.59h-5.61Z"/><path d="M302.26,217.16c0-.54,.07-1.04,.22-1.52,.15-.47,.36-.88,.65-1.23s.64-.63,1.06-.83c.42-.21,.91-.31,1.46-.31s1.08,.1,1.51,.3c.43,.2,.8,.48,1.09,.83s.51,.76,.66,1.24,.22,.98,.22,1.52-.07,1.03-.22,1.5-.36,.88-.65,1.23c-.29,.35-.65,.63-1.08,.83-.43,.2-.93,.31-1.5,.31s-1.06-.1-1.5-.31c-.43-.21-.79-.48-1.08-.83s-.5-.76-.65-1.23c-.14-.47-.22-.97-.22-1.5Zm3.44,3.28c.48,0,.89-.09,1.23-.27s.63-.42,.85-.72c.22-.3,.39-.65,.49-1.04,.11-.4,.16-.81,.16-1.24,0-.51-.06-.97-.19-1.38-.13-.41-.31-.75-.55-1.04s-.53-.5-.87-.66c-.34-.15-.72-.23-1.15-.23-.47,0-.88,.09-1.22,.28-.34,.18-.63,.43-.85,.73s-.39,.65-.49,1.05c-.11,.4-.16,.81-.16,1.24s.05,.85,.16,1.25c.11,.4,.27,.74,.49,1.04,.22,.3,.51,.54,.85,.72,.34,.18,.76,.27,1.24,.27Z"/><path d="M310.22,217.16c0-.54,.07-1.04,.22-1.52,.15-.47,.36-.88,.65-1.23s.64-.63,1.06-.83c.42-.21,.91-.31,1.46-.31s1.08,.1,1.51,.3c.43,.2,.8,.48,1.09,.83s.51,.76,.66,1.24,.22,.98,.22,1.52-.07,1.03-.22,1.5-.36,.88-.65,1.23c-.29,.35-.65,.63-1.08,.83-.43,.2-.93,.31-1.5,.31s-1.06-.1-1.5-.31c-.43-.21-.79-.48-1.08-.83s-.5-.76-.65-1.23c-.14-.47-.22-.97-.22-1.5Zm3.44,3.28c.48,0,.89-.09,1.23-.27s.63-.42,.85-.72c.22-.3,.39-.65,.49-1.04,.11-.4,.16-.81,.16-1.24,0-.51-.06-.97-.19-1.38-.13-.41-.31-.75-.55-1.04s-.53-.5-.87-.66c-.34-.15-.72-.23-1.15-.23-.47,0-.88,.09-1.22,.28-.34,.18-.63,.43-.85,.73s-.39,.65-.49,1.05c-.11,.4-.16,.81-.16,1.24s.05,.85,.16,1.25c.11,.4,.27,.74,.49,1.04,.22,.3,.51,.54,.85,.72,.34,.18,.76,.27,1.24,.27Z"/></g></svg>