<svg width="34" height="25" viewBox="0 0 34 25" fill="none" xmlns="http://www.w3.org/2000/svg">
<path d="M32.0313 3.26087H1.28125C0.580833 3.26087 0 2.52174 0 1.63043C0 0.73913 0.580833 0 1.28125 0H32.0313C32.7317 0 33.3125 0.73913 33.3125 1.63043C33.3125 2.52174 32.7317 3.26087 32.0313 3.26087Z" fill="#161A24"/>
<path d="M32.0313 14.1304H1.28125C0.580833 14.1304 0 13.3913 0 12.5C0 11.6087 0.580833 10.8695 1.28125 10.8695H32.0313C32.7317 10.8695 33.3125 11.6087 33.3125 12.5C33.3125 13.3913 32.7317 14.1304 32.0313 14.1304Z" fill="#161A24"/>
<path d="M32.0312 25H1.28125C0.580833 25 0 24.2609 0 23.3696C0 22.4783 0.580833 21.7391 1.28125 21.7391H32.0312C32.7317 21.7391 33.3125 22.4783 33.3125 23.3696C33.3125 24.2609 32.7317 25 32.0312 25Z" fill="#161A24"/>
</svg>
