<svg width="83" height="83" viewBox="0 0 83 83" fill="none" xmlns="http://www.w3.org/2000/svg">
<path d="M67.4375 10.375H59.6562V7.78125C59.6562 7.09334 59.383 6.43361 58.8966 5.94719C58.4101 5.46077 57.7504 5.1875 57.0625 5.1875C56.3746 5.1875 55.7149 5.46077 55.2284 5.94719C54.742 6.43361 54.4688 7.09334 54.4688 7.78125V10.375H28.5312V7.78125C28.5312 7.09334 28.258 6.43361 27.7716 5.94719C27.2851 5.46077 26.6254 5.1875 25.9375 5.1875C25.2496 5.1875 24.5899 5.46077 24.1034 5.94719C23.617 6.43361 23.3438 7.09334 23.3438 7.78125V10.375H15.5625C14.1867 10.375 12.8672 10.9215 11.8944 11.8944C10.9215 12.8672 10.375 14.1867 10.375 15.5625V67.4375C10.375 68.8133 10.9215 70.1328 11.8944 71.1056C12.8672 72.0785 14.1867 72.625 15.5625 72.625H67.4375C68.8133 72.625 70.1328 72.0785 71.1056 71.1056C72.0785 70.1328 72.625 68.8133 72.625 67.4375V15.5625C72.625 14.1867 72.0785 12.8672 71.1056 11.8944C70.1328 10.9215 68.8133 10.375 67.4375 10.375ZM54.9551 43.3805L39.8141 57.6461C39.5786 57.8768 39.2999 58.0587 38.9938 58.1811C38.6877 58.3035 38.3605 58.3641 38.0309 58.3594C37.3664 58.3619 36.727 58.1061 36.2477 57.6461L28.0449 49.8648C27.7814 49.635 27.5672 49.3542 27.415 49.0394C27.2628 48.7246 27.1758 48.3822 27.1592 48.033C27.1427 47.6837 27.197 47.3347 27.3188 47.0069C27.4406 46.6791 27.6274 46.3794 27.868 46.1256C28.1086 45.8719 28.398 45.6695 28.7189 45.5304C29.0397 45.3914 29.3854 45.3187 29.735 45.3167C30.0847 45.3146 30.4312 45.3833 30.7536 45.5186C31.076 45.6539 31.3678 45.853 31.6113 46.1039L38.0309 52.1992L51.3887 39.6195C51.6336 39.3816 51.9237 39.1951 52.2418 39.071C52.5599 38.9469 52.8996 38.8876 53.241 38.8966C53.5823 38.9057 53.9184 38.9829 54.2295 39.1238C54.5406 39.2646 54.8203 39.4662 55.0523 39.7168C55.5247 40.2158 55.7798 40.8819 55.7616 41.5688C55.7433 42.2556 55.4533 42.9072 54.9551 43.3805ZM67.4375 25.9375H15.5625V15.5625H23.3438V18.1562C23.3438 18.8442 23.617 19.5039 24.1034 19.9903C24.5899 20.4767 25.2496 20.75 25.9375 20.75C26.6254 20.75 27.2851 20.4767 27.7716 19.9903C28.258 19.5039 28.5312 18.8442 28.5312 18.1562V15.5625H54.4688V18.1562C54.4688 18.8442 54.742 19.5039 55.2284 19.9903C55.7149 20.4767 56.3746 20.75 57.0625 20.75C57.7504 20.75 58.4101 20.4767 58.8966 19.9903C59.383 19.5039 59.6562 18.8442 59.6562 18.1562V15.5625H67.4375V25.9375Z" fill="#364259"/>
</svg>
