<svg width="85" height="85" viewBox="0 0 85 85" fill="none" xmlns="http://www.w3.org/2000/svg">
<path d="M63.75 21.25V14.1666H70.8333V7.08331H21.25C17.3542 7.08331 14.1667 10.2708 14.1667 14.1666V70.8333C14.1667 74.7291 17.3542 77.9166 21.25 77.9166H70.8333V70.8333H56.5604C58.7863 69.2016 60.5969 67.069 61.8459 64.608C63.0949 62.1469 63.7472 59.4265 63.75 56.6666V38.9583H28.3333V56.6666C28.3333 62.475 31.2021 67.6104 35.5229 70.8333H21.25V14.1666H28.3333V21.25C28.3333 23.1979 29.9271 24.7916 31.875 24.7916H60.2083C62.1563 24.7916 63.75 23.1979 63.75 21.25ZM46.0417 28.3333C47.9896 28.3333 49.5833 29.9271 49.5833 31.875C49.5833 33.8229 47.9896 35.4166 46.0417 35.4166C44.0938 35.4166 42.5 33.8229 42.5 31.875C42.5 29.9271 44.0938 28.3333 46.0417 28.3333Z" fill="#364259"/>
</svg>
