<svg width="96" height="93" viewBox="0 0 96 93" fill="none" xmlns="http://www.w3.org/2000/svg">
<g clip-path="url(#clip0_607_2614)">
<path d="M49.4332 -0.000168124C54.1298 0.290812 58.788 0.611345 63.2068 2.32313C65.2694 3.12105 67.3184 4.03264 69.216 5.16246C76.2689 9.36803 82.6056 14.4806 87.3203 21.2891C89.2338 24.0512 90.6141 27.2224 91.9583 30.33C92.9568 32.6373 93.5012 35.1402 94.2603 37.5545C94.4071 38.0205 94.5404 38.5138 94.7957 38.9207C95.2678 39.6709 95.243 40.3597 95.1255 41.2463C95.0035 42.1715 95.5367 43.1808 95.7626 44.1561C95.871 44.6221 96.0427 45.1131 95.9907 45.5701C95.7151 48.0775 95.3153 50.5713 95.0758 53.0833C94.6917 57.0933 93.4854 60.842 91.773 64.4565C91.4861 65.0635 91.267 65.725 91.145 66.3842C90.343 70.7012 88.3098 74.3021 85.1132 77.2869C82.8022 79.4442 80.595 81.7175 78.2885 83.8817C77.4978 84.625 76.5648 85.2206 75.668 85.8413C73.567 87.2939 71.4525 88.7261 69.3312 90.1491C69.0579 90.331 68.7258 90.4537 68.4027 90.5265C65.6986 91.1426 63.0035 91.8291 60.2768 92.3224C55.6999 93.1499 51.1004 93.2158 46.4805 92.5452C44.8585 92.3087 43.1913 92.3906 41.5444 92.3315C41.3569 92.3247 41.1626 92.4065 40.9842 92.3724C36.4276 91.5154 31.5525 91.8382 27.6329 88.6283C26.9462 88.0668 26.0832 87.719 25.2948 87.2848C23.1961 86.1254 21.0929 84.9729 18.9919 83.8158C18.7954 83.7066 18.6101 83.5339 18.4 83.493C16.2968 83.0815 15.3277 81.4175 14.2478 79.8239C13.9338 79.3624 13.2787 79.1442 12.8111 78.7759C12.3141 78.3872 11.8125 77.9871 11.3878 77.5256C11.0896 77.2005 10.927 76.7527 10.6853 76.3753C8.198 72.5039 5.4645 68.7689 3.30933 64.7202C2.00132 62.2605 1.25356 59.3689 0.846926 56.5818C0.26634 52.5899 0.0878719 48.5208 0.00654465 44.4789C-0.0521917 41.5532 0.212122 38.6365 0.799485 35.7063C1.1519 33.9513 2.50058 33.0374 2.94562 31.4507C3.9961 27.7111 5.51646 24.1307 7.66712 20.8777C8.53461 19.566 9.52861 18.302 10.6446 17.2018C13.3013 14.5852 15.9602 11.9505 18.8135 9.55898C22.2541 6.67192 26.2572 4.73963 30.5765 3.50978C33.8274 2.58455 37.0375 1.44337 40.3448 0.813667C43.3178 0.24762 46.3969 0.24762 49.4286 -0.00244141L49.4332 -0.000168124ZM67.0089 47.8252C67.1964 45.5405 65.5721 43.6082 64.481 41.4827C63.7919 40.1369 62.4116 39.7959 61.1556 39.1708C58.3046 37.7522 55.3113 36.7884 52.257 36.0586C49.3112 35.3539 46.2908 34.9652 43.302 34.4492C43.1438 34.4219 42.9609 34.4946 42.7982 34.5469C42.3193 34.6992 41.8539 34.9288 41.3637 35.0129C40.4442 35.1698 39.4367 35.0584 38.6008 35.3971C36.6241 36.1996 34.6452 37.0634 32.8153 38.1546C28.6676 40.6257 27.6849 44.9881 30.0999 49.1914C31.7242 52.0171 34.4034 53.8016 36.5948 56.0681C36.6716 56.1476 36.771 56.2158 36.8726 56.259C38.0925 56.8001 39.2989 57.3752 40.5391 57.8662C46.4941 60.2259 52.449 62.0059 58.8581 59.3143C63.6406 57.3047 67.0044 52.9355 67.0111 47.8297L67.0089 47.8252ZM22.5342 40.4597C22.0462 40.3938 21.4611 40.2438 20.876 40.2528C18.4769 40.2892 16.0777 40.3483 13.6808 40.4483C12.5219 40.4961 11.3494 40.5552 10.2154 40.7757C8.48943 41.1121 8.42391 41.2963 8.74018 42.9808C9.13778 43.1786 9.70256 43.2718 9.82229 43.5537C10.3035 44.6812 11.2387 44.6357 12.104 44.4766C15.3503 43.8742 18.3549 44.6448 21.303 45.9065C21.7119 46.0815 22.1795 46.1134 22.5342 46.1929V40.4597ZM18.7457 57.9935L19.0123 58.3732C22.4416 57.1138 25.8754 55.8657 29.2866 54.5586C29.4583 54.4927 29.5984 53.7948 29.4628 53.5652C28.6766 52.2421 27.8521 50.9327 26.9236 49.7097C26.6864 49.3983 25.9228 49.1755 25.5636 49.321C22.9205 50.3894 20.7021 52.0966 18.8112 54.229C18.4181 54.6723 18.2871 55.0883 18.9038 55.552C19.1343 55.7248 19.1907 56.2681 19.1546 56.625C19.1071 57.091 18.8925 57.5412 18.7502 57.9981L18.7457 57.9935ZM44.235 30.28C44.7049 30.3982 45.238 30.5732 45.7825 30.6528C46.0242 30.6891 46.2953 30.5414 46.5483 30.4595C46.9278 30.3368 47.3028 30.0935 47.6756 30.0958C48.1794 30.1004 48.6809 30.2913 49.2773 30.4232C50.1086 25.0832 47.3571 20.5594 46.6567 15.6468L46.2817 15.6559C45.6063 20.4821 44.9285 25.3083 44.2327 30.2777L44.235 30.28ZM35.0834 21.0959C35.0834 22.3212 34.6768 23.742 35.1693 24.6877C36.1949 26.6609 36.6919 28.5955 36.3892 30.7801C36.3508 31.0551 36.4705 31.4848 36.6738 31.6394C37.4735 32.2509 38.6686 32.0781 39.3802 31.3484C39.5542 31.1688 39.771 31.0301 39.9472 30.8892C40.3155 31.1188 40.6204 31.3098 40.9096 31.4916C42.3916 29.9071 42.4752 29.3184 41.3343 27.5952C40.189 25.8652 38.9284 24.2103 37.826 22.453C37.2476 21.5301 36.5812 20.9891 35.0857 21.0959H35.0834ZM31.9794 57.7889C31.1142 58.5823 30.1066 59.2825 29.3973 60.2123C28.3559 61.5762 27.5177 63.0993 26.6118 64.5656C26.0019 65.5545 25.3874 66.5434 24.8565 67.5754C24.7187 67.8437 24.7662 68.3688 24.9514 68.587C25.0824 68.7416 25.6449 68.6916 25.9115 68.5416C27.1247 67.8641 28.3852 67.2276 29.4628 66.3683C30.4365 65.5909 31.3808 64.6497 31.9885 63.579C32.5081 62.6629 32.8447 61.7195 33.7619 61.0625C34.6158 60.451 34.4351 59.4689 33.554 58.9711C33.0457 58.6824 32.6052 58.2686 31.9794 57.7912V57.7889ZM20.0989 31.4439C20.693 31.894 21.3278 32.3009 21.8655 32.8101C22.166 33.0943 22.4664 33.5376 22.4935 33.9286C22.5703 35.047 23.0854 35.8745 23.9439 36.4951C25.0101 37.2658 26.1035 38.0046 27.2218 38.6956C27.4251 38.8207 27.9311 38.7684 28.087 38.6002C28.6473 37.9977 29.1804 37.3476 29.6006 36.6429C30.0389 35.9041 29.8581 35.2448 28.9861 34.9243C28.0983 34.5992 27.3506 34.1786 27.3122 33.067C27.3054 32.8692 27.1134 32.6646 26.9756 32.4896C25.7737 30.9779 22.2654 30.1913 20.0966 31.4439H20.0989ZM67.1647 38.8752C67.4946 39.2731 67.6663 39.5231 67.8809 39.73C68.3914 40.2256 68.9562 40.6689 69.4374 41.1894C70.3568 42.1897 70.768 42.2238 71.7439 41.2417C72.0082 40.9757 72.2341 40.6689 72.4601 40.3688C73.7839 38.6252 74.7101 36.5224 77.0686 35.7631C77.8389 35.5153 77.9271 34.5651 77.4188 34.2514C76.5016 33.6853 74.3419 33.8354 73.445 34.4219C71.7191 35.5494 69.9412 36.5951 68.2152 37.7204C67.8289 37.9727 67.5691 38.4206 67.1647 38.873V38.8752ZM49.4829 64.6111L49.1756 64.6634C49.0514 65.0475 48.7532 65.4704 48.83 65.8068C49.3993 68.2665 50.0115 70.7171 50.6734 73.1518C51.193 75.0614 52.0063 76.8118 53.8497 78.0121C53.8497 77.7165 53.9016 77.5142 53.8429 77.3551C52.9506 74.9409 53.2894 72.4357 53.2533 69.9533C53.2375 68.8076 53.0567 67.6641 52.9325 66.3365C53.8203 65.9932 53.2849 65.2476 53.0432 64.4292C52.5575 64.6202 52.0853 64.702 51.7442 64.9566C50.8835 65.6045 50.138 65.7318 49.4829 64.6088V64.6111ZM33.5585 32.6373C33.6557 32.5601 33.6986 32.5441 33.7099 32.5146C34.426 30.7505 34.7626 29.016 33.2106 27.4884C32.9034 27.186 32.5487 26.9269 32.1963 26.6791C31.3198 26.063 30.3032 25.5879 29.5803 24.8264C28.4959 23.6852 27.6759 22.2939 26.6231 21.1186C26.0877 20.5185 25.2903 20.1548 24.5945 19.6728C24.0387 20.7026 24.1856 21.3437 24.7707 22.0575C26.1307 23.7215 27.3076 25.5402 28.7128 27.161C30.2987 28.9933 31.2452 31.4052 33.5585 32.6373V32.6373ZM83.507 44.3857C81.9957 42.974 80.3194 42.7535 78.4986 43.1899C77.6582 43.39 76.8178 43.5878 75.9865 43.8151C74.6694 44.1743 73.3592 44.5562 71.9789 43.515C71.7507 44.8381 71.5293 45.9792 71.3825 47.1295C71.3576 47.3296 71.6242 47.7365 71.7936 47.7615C72.4849 47.8547 73.2394 48.0116 73.881 47.8252C76.3999 47.0932 78.8849 46.2407 81.3835 45.4337C81.5619 45.3768 81.7743 45.2609 81.9234 45.3109C82.8067 45.6201 83.1004 44.9676 83.507 44.3857V44.3857ZM67.0992 24.9105C66.5616 26.2858 66.0329 27.6975 65.4591 29.0888C64.9621 30.2959 64.0766 31.0711 62.8702 31.6212C61.9643 32.0349 61.2053 32.7737 60.505 33.2784C61.1714 34.1991 61.7339 34.8311 62.1202 35.5585C62.4274 36.1382 62.5427 36.777 63.4214 36.6497C64.2392 36.5315 64.7249 36.1723 65.0435 35.3335C65.8296 33.2648 66.722 31.2347 67.6301 29.2183C68.0458 28.2931 68.6919 27.4702 69.0714 26.5336C69.3674 25.8039 69.6543 24.9286 68.7958 24.3853C68.152 24.5854 67.603 24.7559 67.0992 24.9127V24.9105ZM64.1895 72.0606C64.1895 71.4082 64.298 70.7353 64.1692 70.1101C63.7016 67.8278 63.1707 65.5568 62.624 63.2903C62.5494 62.9834 62.3032 62.5606 62.0479 62.4833C61.203 62.2264 60.3175 62.1036 59.4274 61.9263C59.2873 62.4378 59.1811 62.8265 59.1472 62.9448C58.5079 63.1812 57.9522 63.2357 57.6879 63.5426C57.532 63.7245 57.7556 64.3542 57.9499 64.6997C58.334 65.384 58.8197 66.0091 59.2579 66.6616C60.1774 68.0324 61.2143 69.344 61.9688 70.8035C62.4274 71.6878 62.8589 72.2288 64.1895 72.0606V72.0606ZM79.0317 65.1908C78.3043 65.0839 77.7373 65.0635 77.2064 64.9111C76.2418 64.6361 75.2433 64.3906 74.3712 63.9177C73.9623 63.6949 73.4879 62.8561 73.6167 62.5128C73.9262 61.6922 73.4721 61.4694 72.9774 61.208C71.9495 60.6624 70.8629 60.2191 69.8711 59.6167C68.6987 58.9006 68.4773 58.9074 67.8809 60.1486C67.7182 60.4873 67.594 60.8442 67.4652 61.1989C67.2235 61.8581 67.3952 62.3742 68.1226 62.4515C69.8937 62.6401 71.0978 63.7631 72.3584 64.8543C72.9119 65.334 73.5896 65.7091 74.2651 66.0046C75.3133 66.4638 76.4089 66.8139 77.482 67.2185C77.8141 67.3436 78.1394 67.4913 78.5844 67.68C78.7426 66.8071 78.8736 66.0796 79.0363 65.1885L79.0317 65.1908ZM45.1273 63.6995C44.0949 63.5267 42.9338 63.2357 41.7635 63.1698C40.9028 63.1221 40.4646 63.9905 40.5685 64.8952C40.7492 66.4638 40.9525 68.0437 40.9209 69.6146C40.9006 70.6762 40.8328 71.3809 42.1476 71.7174C43.3427 72.022 43.4827 72.1606 43.7515 70.8808C44.235 68.5666 44.6461 66.2387 45.1273 63.6972V63.6995ZM57.5252 25.7379C57.0214 26.3154 56.7571 26.6632 56.4454 26.9632C55.5033 27.8748 54.6697 29.0024 53.556 29.6025C52.4377 30.2049 52.2141 30.9369 52.2435 31.9304C53.983 32.2873 55.6841 32.5464 57.3287 33.0079C58.2368 33.2625 58.7451 33.0806 58.6276 32.1895C58.3588 30.1299 57.9386 28.0908 57.5252 25.7379V25.7379ZM74.7304 55.3975C74.7869 55.5248 74.8434 55.6498 74.8999 55.7771C75.3133 55.4429 76.1198 55.0133 76.0678 54.7905C75.9232 54.1767 76.0904 53.2151 74.9338 53.1469C74.3961 53.1151 73.8268 52.7514 73.375 52.4035C72.939 52.0671 72.6385 51.5533 72.2703 51.126C71.5451 50.2871 70.9578 50.2394 70.3907 51.1851C69.8373 52.1057 69.4622 53.1469 69.1121 54.1722C68.9042 54.7791 69.2024 55.1656 69.9163 55.1883C71.5225 55.2361 73.1287 55.3247 74.735 55.3975H74.7304Z" fill="#161A24"/>
<path d="M41.2983 40.0461C41.156 40.1416 40.6952 40.2848 40.65 40.5144C40.5077 41.2214 40.5235 41.9579 40.476 42.6854C40.7787 42.6126 41.0792 42.5331 41.3864 42.4717C41.5333 42.4421 41.6892 42.4217 41.8337 42.4467C44.6169 42.9036 47.4792 43.2082 49.7157 45.1701C51.5772 46.8046 53.3754 48.5277 55.0833 50.3259C56.3687 51.6785 57.9659 51.8354 59.6173 51.8854C59.9833 51.8967 60.4554 51.5398 60.722 51.2216C61.8854 49.8349 61.7657 48.3277 60.4328 47.1092C59.9607 46.6773 59.4885 46.2249 58.9463 45.8998C53.5674 42.6763 47.6916 40.9509 41.2983 40.0461V40.0461ZM51.2315 57.1412C46.2412 57.0457 41.6123 55.6386 37.2252 53.2948C34.5143 51.8467 33.0752 49.5643 32.3275 46.6182C31.7559 44.3653 32.7703 42.8513 34.2229 41.5351C36.2899 39.6574 38.9195 39.0777 41.6033 38.7594C46.7473 38.1479 51.602 39.4164 56.3281 41.2419C57.5999 41.7329 58.8085 42.5444 59.8613 43.431C61.899 45.1474 63.0624 47.4866 63.7966 50.0122C64.14 51.1988 62.2785 54.3132 60.9908 54.9884C57.3672 56.8911 55.6865 57.2617 51.2338 57.1389L51.2315 57.1412Z" fill="#161A24"/>
</g>
<defs>
<clipPath id="clip0_607_2614">
<rect width="96" height="93" fill="white"/>
</clipPath>
</defs>
</svg>
