<svg width="309" height="36" viewBox="0 0 309 36" fill="none" xmlns="http://www.w3.org/2000/svg">
<line x1="19" y1="17" x2="52.9995" y2="16.9998" stroke="#161A24" stroke-width="2"/>
<line x1="69.9995" y1="16.9999" x2="113" y2="16.9999" stroke="#161A24" stroke-width="2"/>
<line x1="131" y1="16.9999" x2="172" y2="16.9999" stroke="#161A24" stroke-width="2"/>
<line x1="190" y1="16.9999" x2="231" y2="16.9999" stroke="#161A24" stroke-width="2"/>
<line x1="250" y1="16.9999" x2="291" y2="16.9999" stroke="#161A24" stroke-width="2"/>
<circle cx="10" cy="18.0001" r="9" stroke="#161A24" stroke-width="2"/>
<path d="M130.375 17.9999C130.375 23.0007 126.456 26.9999 121.688 26.9999C116.919 26.9999 113 23.0007 113 17.9999C113 12.9992 116.919 8.99994 121.688 8.99994C126.456 8.99994 130.375 12.9992 130.375 17.9999Z" stroke="#161A24" stroke-width="2"/>
<path d="M189.375 17.9999C189.375 23.0007 185.456 26.9999 180.688 26.9999C175.919 26.9999 172 23.0007 172 17.9999C172 12.9992 175.919 8.99994 180.688 8.99994C185.456 8.99994 189.375 12.9992 189.375 17.9999Z" stroke="#161A24" stroke-width="2"/>
<circle cx="240" cy="17.9999" r="9" stroke="#161A24" stroke-width="2"/>
<circle cx="299" cy="17.9999" r="9" stroke="#161A24" stroke-width="2"/>
<g clip-path="url(#clip0_664_2260)">
<path d="M52.4087 14.7416C52.3401 14.9197 52.0089 15.3506 52.1136 15.5881C52.4345 16.3229 52.9245 16.9856 53.3489 17.6765C53.5805 17.4152 53.8061 17.1486 54.047 16.8936C54.1627 16.7732 54.2932 16.6531 54.442 16.5809C57.2933 15.1978 60.1205 13.6219 63.4318 13.9648C66.1915 14.2495 68.9491 14.6545 71.6709 15.1872C73.7205 15.5872 75.2883 14.6979 76.8393 13.6755C77.1839 13.4493 77.3884 12.8196 77.4307 12.3568C77.611 10.3397 76.5325 9.04646 74.5278 8.79848C73.8169 8.71079 73.0926 8.60449 72.3864 8.65952C65.3713 9.20054 58.8633 11.4324 52.4087 14.7416ZM72.5071 23.8839C67.8598 27.0233 62.7035 28.7375 57.1698 29.4407C53.7499 29.8769 50.9606 28.7282 48.384 26.5294C46.4129 24.8469 46.3743 22.8136 46.8623 20.6754C47.5583 17.6292 49.6028 15.3986 51.8629 13.3749C56.1979 9.49001 61.4706 7.50673 66.9878 6.11235C68.4726 5.73772 70.103 5.69379 71.6394 5.81912C74.613 6.06459 77.1839 7.4411 79.4777 9.26727C80.5555 10.1249 80.8428 14.1661 80.0941 15.6142C77.9825 19.6906 76.6782 21.1146 72.5093 23.8826L72.5071 23.8839Z" fill="#161A24"/>
</g>
<defs>
<clipPath id="clip0_664_2260">
<rect width="36" height="20" fill="white" transform="translate(43 17.6751) rotate(-29.4047)"/>
</clipPath>
</defs>
</svg>
