<svg width="322" height="36" viewBox="0 0 322 36" fill="none" xmlns="http://www.w3.org/2000/svg">
<line x1="32" y1="20" x2="65.9995" y2="19.9998" stroke="#161A24" stroke-width="2"/>
<line x1="82.9995" y1="19.9999" x2="126" y2="19.9999" stroke="#161A24" stroke-width="2"/>
<line x1="144" y1="19.9999" x2="185" y2="19.9999" stroke="#161A24" stroke-width="2"/>
<line x1="203" y1="19.9999" x2="244" y2="19.9999" stroke="#161A24" stroke-width="2"/>
<line x1="263" y1="19.9999" x2="304" y2="19.9999" stroke="#161A24" stroke-width="2"/>
<circle cx="75" cy="20.9999" r="9" stroke="#161A24" stroke-width="2"/>
<path d="M143.375 20.9999C143.375 26.0006 139.456 29.9999 134.688 29.9999C129.919 29.9999 126 26.0006 126 20.9999C126 15.9992 129.919 11.9999 134.688 11.9999C139.456 11.9999 143.375 15.9992 143.375 20.9999Z" stroke="#161A24" stroke-width="2"/>
<path d="M202.375 20.9999C202.375 26.0006 198.456 29.9999 193.688 29.9999C188.919 29.9999 185 26.0006 185 20.9999C185 15.9992 188.919 11.9999 193.688 11.9999C198.456 11.9999 202.375 15.9992 202.375 20.9999Z" stroke="#161A24" stroke-width="2"/>
<circle cx="253" cy="20.9999" r="9" stroke="#161A24" stroke-width="2"/>
<circle cx="312" cy="20.9999" r="9" stroke="#161A24" stroke-width="2"/>
<g clip-path="url(#clip0_407_4016)">
<path d="M9.40874 14.7416C9.34015 14.9197 9.00891 15.3506 9.11361 15.5881C9.43447 16.3229 9.92452 16.9856 10.3489 17.6765C10.5805 17.4152 10.8061 17.1486 11.047 16.8936C11.1627 16.7732 11.2932 16.6531 11.442 16.5809C14.2933 15.1978 17.1205 13.6219 20.4318 13.9648C23.1915 14.2495 25.9491 14.6545 28.6709 15.1872C30.7205 15.5872 32.2883 14.6979 33.8393 13.6755C34.1839 13.4493 34.3884 12.8196 34.4307 12.3568C34.611 10.3397 33.5325 9.04646 31.5278 8.79848C30.8169 8.71079 30.0926 8.60449 29.3864 8.65952C22.3713 9.20054 15.8633 11.4324 9.40874 14.7416ZM29.5071 23.8839C24.8598 27.0233 19.7035 28.7375 14.1698 29.4407C10.7499 29.8769 7.96064 28.7282 5.38396 26.5294C3.4129 24.8469 3.37429 22.8136 3.86226 20.6754C4.55832 17.6292 6.60276 15.3986 8.8629 13.3749C13.1979 9.49001 18.4706 7.50673 23.9878 6.11235C25.4726 5.73772 27.103 5.69379 28.6394 5.81912C31.613 6.06459 34.1839 7.4411 36.4777 9.26727C37.5555 10.1249 37.8428 14.1661 37.0941 15.6142C34.9825 19.6906 33.6782 21.1146 29.5093 23.8826L29.5071 23.8839Z" fill="#161A24"/>
</g>
<defs>
<clipPath id="clip0_407_4016">
<rect width="36" height="20" fill="white" transform="translate(0 17.6751) rotate(-29.4047)"/>
</clipPath>
</defs>
</svg>
