<svg width="175" height="64" viewBox="0 0 175 64" fill="none" xmlns="http://www.w3.org/2000/svg">
<g clip-path="url(#clip0_607_2636)">
<path d="M34.1664 -0.000147169C37.4125 0.199765 40.6322 0.419981 43.6862 1.59603C45.1118 2.14423 46.528 2.77051 47.8396 3.54674C52.7143 6.43609 57.094 9.94862 60.3526 14.6263C61.6751 16.5239 62.6291 18.7026 63.5582 20.8376C64.2483 22.4228 64.6246 24.1424 65.1492 25.801C65.2507 26.1212 65.3428 26.4601 65.5193 26.7397C65.8456 27.2551 65.8284 27.7283 65.7472 28.3374C65.6629 28.9731 66.0314 29.6665 66.1876 30.3366C66.2625 30.6567 66.3812 30.9941 66.3453 31.308C66.1548 33.0307 65.8784 34.744 65.7129 36.4698C65.4475 39.2248 64.6137 41.8003 63.4301 44.2836C63.2318 44.7006 63.0804 45.1551 62.9961 45.608C62.4418 48.5739 61.0365 51.0478 58.8271 53.0985C57.2298 54.5806 55.7043 56.1424 54.1101 57.6293C53.5637 58.14 52.9188 58.5492 52.2989 58.9756C50.8468 59.9736 49.3853 60.9575 47.9192 61.9352C47.7303 62.0602 47.5007 62.1445 47.2775 62.1945C45.4085 62.6177 43.5457 63.0894 41.6611 63.4283C38.4977 63.9968 35.3187 64.0421 32.1256 63.5814C31.0046 63.4189 29.8523 63.4752 28.714 63.4346C28.5844 63.4299 28.4501 63.4861 28.3268 63.4627C25.1774 62.8739 21.8079 63.0956 19.0989 60.8904C18.6242 60.5046 18.0278 60.2656 17.4829 59.9673C16.0323 59.1708 14.5787 58.379 13.1266 57.584C12.9907 57.509 12.8627 57.3903 12.7175 57.3622C11.2638 57.0795 10.594 55.9363 9.84762 54.8414C9.63058 54.5244 9.17778 54.3745 8.85457 54.1214C8.51106 53.8544 8.16443 53.5795 7.87089 53.2625C7.66478 53.0391 7.55236 52.7314 7.38529 52.4722C5.66619 49.8124 3.7769 47.2463 2.28732 44.4647C1.38327 42.7749 0.866451 40.7882 0.5854 38.8734C0.18412 36.1309 0.0607697 33.3352 0.0045593 30.5583C-0.0360371 28.5483 0.146647 26.5445 0.55261 24.5313C0.796188 23.3256 1.72834 22.6977 2.03594 21.6076C2.76199 19.0384 3.81281 16.5785 5.29926 14.3436C5.89884 13.4424 6.58585 12.574 7.35718 11.8181C9.19339 10.0205 11.0312 8.21032 13.0032 6.56729C15.3812 4.58378 18.148 3.25624 21.1334 2.4113C23.3803 1.77564 25.599 0.991606 27.8849 0.558983C29.9397 0.170091 32.0679 0.170091 34.1633 -0.00170898L34.1664 -0.000147169ZM46.3141 32.8573C46.4437 31.2877 45.321 29.9602 44.5669 28.4999C44.0906 27.5753 43.1366 27.341 42.2685 26.9115C40.298 25.9369 38.2292 25.2747 36.1181 24.7734C34.0821 24.2892 31.9945 24.0221 29.9288 23.6676C29.8195 23.6489 29.693 23.6988 29.5806 23.7348C29.2496 23.8394 28.9279 23.9971 28.5891 24.0549C27.9536 24.1627 27.2572 24.0862 26.6795 24.3189C25.3133 24.8702 23.9455 25.4637 22.6807 26.2134C19.814 27.9111 19.1348 30.9082 20.8039 33.796C21.9266 35.7373 23.7784 36.9633 25.293 38.5205C25.3461 38.5751 25.4148 38.622 25.485 38.6517C26.3282 39.0234 27.162 39.4185 28.0192 39.7559C32.135 41.377 36.2509 42.5999 40.6806 40.7507C43.986 39.3701 46.311 36.3683 46.3156 32.8605L46.3141 32.8573ZM15.5748 27.797C15.2376 27.7518 14.8332 27.6487 14.4288 27.6549C12.7706 27.6799 11.1123 27.7205 9.4557 27.7892C8.65471 27.822 7.84434 27.8626 7.06052 28.0141C5.86761 28.2453 5.82233 28.3718 6.04093 29.5291C6.31573 29.665 6.70608 29.729 6.78884 29.9227C7.12141 30.6973 7.76783 30.6661 8.36585 30.5568C10.6096 30.1429 12.6862 30.6723 14.7239 31.5392C15.0065 31.6594 15.3297 31.6813 15.5748 31.7359V27.797ZM12.9564 39.8433L13.1406 40.1042C15.5108 39.2389 17.8841 38.3815 20.2418 37.4834C20.3605 37.4381 20.4573 36.9587 20.3636 36.8009C19.8203 35.8919 19.2504 34.9923 18.6086 34.1521C18.4447 33.9381 17.9169 33.785 17.6687 33.885C15.8418 34.6191 14.3085 35.792 13.0016 37.257C12.73 37.5615 12.6394 37.8473 13.0657 38.1659C13.2249 38.2846 13.264 38.6579 13.239 38.9031C13.2062 39.2233 13.0579 39.5325 12.9595 39.8465L12.9564 39.8433ZM30.5736 20.8032C30.8984 20.8844 31.2669 21.0047 31.6432 21.0594C31.8102 21.0844 31.9976 20.9828 32.1725 20.9266C32.4348 20.8423 32.694 20.6752 32.9516 20.6767C33.2998 20.6799 33.6465 20.811 34.0587 20.9016C34.6333 17.2329 32.7315 14.1249 32.2474 10.7498L31.9882 10.7561C31.5214 14.0718 31.053 17.3875 30.5721 20.8017L30.5736 20.8032ZM24.2484 14.4935C24.2484 15.3353 23.9673 16.3115 24.3077 16.9612C25.0166 18.3168 25.3601 19.6459 25.1509 21.1468C25.1243 21.3358 25.2071 21.631 25.3476 21.7372C25.9004 22.1573 26.7263 22.0386 27.2182 21.5373C27.3384 21.4139 27.4883 21.3186 27.6101 21.2218C27.8646 21.3795 28.0754 21.5107 28.2752 21.6357C29.2995 20.5471 29.3573 20.1426 28.5688 18.9587C27.7772 17.7702 26.9059 16.6332 26.1439 15.4259C25.7442 14.7918 25.2836 14.4201 24.25 14.4935H24.2484ZM22.103 39.7028C21.505 40.2478 20.8086 40.7289 20.3184 41.3677C19.5985 42.3048 19.0193 43.3512 18.3932 44.3585C17.9716 45.0379 17.5469 45.7173 17.1799 46.4264C17.0847 46.6107 17.1175 46.9715 17.2455 47.1214C17.3361 47.2276 17.7249 47.1932 17.9091 47.0902C18.7476 46.6247 19.6188 46.1874 20.3636 45.5971C21.0366 45.0629 21.6893 44.4163 22.1093 43.6807C22.4684 43.0513 22.701 42.4031 23.335 41.9518C23.9252 41.5317 23.8003 40.857 23.1913 40.5149C22.84 40.3166 22.5355 40.0323 22.103 39.7043V39.7028ZM13.8916 21.6029C14.3023 21.9121 14.741 22.1917 15.1127 22.5415C15.3203 22.7368 15.528 23.0413 15.5467 23.3099C15.5998 24.0784 15.9558 24.6469 16.5491 25.0732C17.2861 25.6027 18.0418 26.1103 18.8147 26.5851C18.9553 26.671 19.305 26.6351 19.4127 26.5195C19.8 26.1056 20.1685 25.6589 20.4589 25.1748C20.7618 24.6672 20.6369 24.2142 20.0342 23.994C19.4205 23.7707 18.9037 23.4818 18.8772 22.718C18.8725 22.5821 18.7398 22.4416 18.6445 22.3213C17.8139 21.2827 15.389 20.7423 13.8901 21.6029H13.8916ZM46.4218 26.7085C46.6498 26.9818 46.7684 27.1536 46.9168 27.2957C47.2697 27.6362 47.66 27.9407 47.9926 28.2984C48.6281 28.9856 48.9122 29.009 49.5868 28.3343C49.7695 28.1516 49.9256 27.9407 50.0817 27.7346C50.9967 26.5367 51.6369 25.092 53.267 24.5703C53.7994 24.4001 53.8603 23.7473 53.509 23.5317C52.8751 23.1428 51.3824 23.2459 50.7625 23.6489C49.5696 24.4235 48.3408 25.142 47.1479 25.9151C46.8809 26.0884 46.7013 26.3961 46.4218 26.7069V26.7085ZM34.2007 44.3898L33.9884 44.4257C33.9025 44.6896 33.6964 44.9801 33.7495 45.2113C34.143 46.9012 34.5661 48.5848 35.0236 50.2575C35.3827 51.5694 35.9448 52.772 37.2189 53.5967C37.2189 53.3936 37.2548 53.2546 37.2142 53.1453C36.5975 51.4867 36.8317 49.7655 36.8067 48.06C36.7958 47.2729 36.6709 46.4873 36.585 45.5752C37.1986 45.3394 36.8286 44.8271 36.6615 44.2648C36.3258 44.396 35.9995 44.4522 35.7637 44.6272C35.1688 45.0723 34.6536 45.1598 34.2007 44.3882V44.3898ZM23.1944 22.4228C23.2616 22.3697 23.2913 22.3588 23.2991 22.3385C23.794 21.1265 24.0267 19.9349 22.954 18.8853C22.7416 18.6776 22.4965 18.4996 22.2529 18.3293C21.6471 17.9061 20.9445 17.5796 20.4448 17.0564C19.6954 16.2724 19.1286 15.3166 18.401 14.5091C18.0309 14.0968 17.4797 13.8469 16.9988 13.5158C16.6147 14.2233 16.7162 14.6637 17.1206 15.1541C18.0606 16.2974 18.8741 17.5469 19.8452 18.6604C20.9414 19.9192 21.5956 21.5763 23.1944 22.4228V22.4228ZM57.717 30.4943C56.6724 29.5244 55.5138 29.3729 54.2554 29.6728C53.6745 29.8102 53.0937 29.9461 52.5191 30.1023C51.6088 30.3491 50.7032 30.6114 49.7492 29.8961C49.5915 30.8051 49.4384 31.5891 49.3369 32.3794C49.3198 32.5169 49.504 32.7964 49.6211 32.8136C50.0989 32.8776 50.6204 32.9854 51.0639 32.8573C52.8048 32.3544 54.5224 31.7687 56.2493 31.2143C56.3726 31.1753 56.5194 31.0956 56.6224 31.13C57.2329 31.3424 57.4359 30.8941 57.717 30.4943V30.4943ZM46.3765 17.1142C46.0049 18.0591 45.6396 19.029 45.243 19.9848C44.8995 20.8142 44.2874 21.3467 43.4536 21.7247C42.8275 22.009 42.3028 22.5165 41.8188 22.8633C42.2794 23.4958 42.6682 23.93 42.9352 24.4298C43.1476 24.828 43.2272 25.2669 43.8346 25.1794C44.3998 25.0982 44.7355 24.8515 44.9557 24.2752C45.499 22.8539 46.1158 21.4592 46.7435 20.0739C47.0308 19.4382 47.4773 18.8728 47.7396 18.2294C47.9442 17.728 48.1425 17.1267 47.5491 16.7534C47.1041 16.8909 46.7247 17.008 46.3765 17.1158V17.1142ZM44.3655 49.5078C44.3655 49.0596 44.4404 48.5973 44.3514 48.1678C44.0282 46.5997 43.6613 45.0395 43.2834 43.4824C43.2319 43.2715 43.0617 42.981 42.8852 42.9279C42.3013 42.7514 41.6892 42.6671 41.074 42.5453C40.9772 42.8967 40.9038 43.1638 40.8804 43.245C40.4385 43.4074 40.0544 43.4449 39.8717 43.6557C39.764 43.7807 39.9186 44.2133 40.0529 44.4507C40.3183 44.9208 40.654 45.3503 40.9569 45.7985C41.5924 46.7403 42.3091 47.6415 42.8306 48.6442C43.1476 49.2517 43.4458 49.6234 44.3655 49.5078V49.5078ZM54.6238 44.788C54.1211 44.7146 53.7292 44.7006 53.3622 44.5959C52.6955 44.407 52.0054 44.2383 51.4027 43.9134C51.1201 43.7604 50.7922 43.1841 50.8812 42.9482C51.0951 42.3844 50.7812 42.2313 50.4393 42.0517C49.7289 41.6769 48.9778 41.3723 48.2924 40.9585C47.482 40.4665 47.329 40.4712 46.9168 41.3239C46.8044 41.5566 46.7185 41.8018 46.6295 42.0455C46.4624 42.4984 46.5811 42.853 47.0838 42.9061C48.308 43.0357 49.1402 43.8072 50.0115 44.5569C50.394 44.8864 50.8624 45.1441 51.3293 45.3472C52.0538 45.6627 52.8111 45.9032 53.5527 46.1812C53.7822 46.2671 54.0071 46.3686 54.3147 46.4982C54.424 45.8985 54.5145 45.3987 54.627 44.7865L54.6238 44.788ZM31.1904 43.7635C30.4768 43.6448 29.6743 43.4449 28.8654 43.3996C28.2706 43.3668 27.9676 43.9634 28.0395 44.585C28.1644 45.6627 28.3049 46.7481 28.283 47.8273C28.269 48.5567 28.2222 49.0409 29.1309 49.272C29.9569 49.4813 30.0537 49.5766 30.2395 48.6973C30.5736 47.1073 30.8578 45.508 31.1904 43.7619V43.7635ZM39.7593 17.6827C39.4111 18.0794 39.2285 18.3184 39.013 18.5245C38.3619 19.1508 37.7857 19.9255 37.0159 20.3378C36.2431 20.7517 36.0885 21.2546 36.1088 21.9371C37.3111 22.1823 38.4868 22.3604 39.6235 22.6774C40.2512 22.8523 40.6025 22.7274 40.5213 22.1152C40.3355 20.7002 40.0451 19.2992 39.7593 17.6827V17.6827ZM51.6509 38.0597C51.69 38.1472 51.729 38.2331 51.768 38.3206C52.0538 38.091 52.6112 37.7958 52.5753 37.6427C52.4754 37.221 52.5909 36.5604 51.7915 36.5135C51.4199 36.4917 51.0264 36.2418 50.7141 36.0028C50.4127 35.7717 50.2051 35.4187 49.9506 35.1251C49.4494 34.5488 49.0434 34.516 48.6515 35.1657C48.2689 35.7982 48.0098 36.5135 47.7677 37.2179C47.6241 37.6349 47.8302 37.9004 48.3236 37.916C49.4338 37.9488 50.5439 38.0098 51.6541 38.0597H51.6509Z" fill="#161A24"/>
<path d="M140.251 20.48C141.794 20.947 142.34 22.1137 142.385 23.4881C142.474 26.2135 142.439 28.9419 142.467 31.6689C142.471 32.0937 142.262 32.1936 141.887 32.1905C140.769 32.178 139.651 32.1608 138.535 32.1983C137.957 32.2186 137.77 32.0328 137.778 31.4455C137.807 29.1856 137.793 26.9256 137.786 24.6657C137.786 24.3033 137.846 23.8801 137.686 23.5943C137.465 23.2038 137.095 22.7009 136.722 22.6353C135.898 22.4916 135.031 22.59 134.08 22.59C134.08 22.9602 134.08 23.2663 134.08 23.5709C134.08 26.1947 134.065 28.8186 134.091 31.4424C134.098 32.0218 133.92 32.2202 133.336 32.1968C132.272 32.1562 131.204 32.1655 130.139 32.1936C129.623 32.2077 129.471 32.0125 129.473 31.5127C129.484 23.7442 129.484 15.9773 129.474 8.20884C129.474 7.73717 129.576 7.49509 130.118 7.50134C132.742 7.53101 135.367 7.52789 137.99 7.54507C138.301 7.54663 138.613 7.58255 138.921 7.62785C141.202 7.9652 142.234 8.93977 142.37 11.2294C142.496 13.3503 142.468 15.4885 142.381 17.6141C142.326 18.9573 141.803 20.113 140.249 20.4769L140.251 20.48ZM134.133 18.8073C135.064 18.8073 135.942 18.8261 136.819 18.8011C137.444 18.7839 137.764 18.4044 137.767 17.7953C137.778 15.982 137.776 14.1687 137.77 12.3555C137.768 11.776 137.462 11.4012 136.883 11.3762C135.984 11.3387 135.083 11.3668 134.132 11.3668V18.8089L134.133 18.8073Z" fill="#161A24"/>
<path d="M79.9375 20.4644C81.8346 21.0126 82.2765 22.3402 82.3077 23.852C82.3608 26.4493 82.328 29.0497 82.3499 31.6486C82.3546 32.1343 82.1016 32.1952 81.7128 32.1921C80.5949 32.1812 79.4769 32.1671 78.359 32.1984C77.8312 32.214 77.6938 32.0016 77.6985 31.5112C77.7157 29.2496 77.7141 26.9897 77.6985 24.7282C77.6954 24.2924 77.7157 23.7849 77.5096 23.4413C77.2878 23.0711 76.8413 22.6791 76.4384 22.6088C75.6843 22.4776 74.8895 22.5713 74.0167 22.5713C73.9995 22.9118 73.9699 23.2117 73.9699 23.5115C73.9667 26.0838 73.9308 28.6577 73.9886 31.23C74.0073 32.0547 73.7403 32.2608 72.9721 32.2046C72.0931 32.1406 71.2015 32.1421 70.3224 32.2046C69.5823 32.2561 69.3528 32.0312 69.3575 31.2675C69.3887 25.5763 69.3747 19.885 69.3747 14.1922V7.58882C69.6604 7.55915 69.8837 7.51698 70.1054 7.51542C72.4444 7.51073 74.7849 7.49199 77.1239 7.52635C77.9499 7.53885 78.7883 7.62475 79.5971 7.7903C81.1242 8.10422 82.0907 9.11628 82.1672 10.6359C82.2937 13.1192 82.2765 15.6166 82.1891 18.103C82.1485 19.2806 81.4412 20.1318 79.9391 20.4629L79.9375 20.4644ZM74.0167 18.8089C74.9598 18.8089 75.8389 18.8292 76.7148 18.8027C77.3425 18.7839 77.6626 18.3747 77.6704 17.7875C77.6938 15.9742 77.6922 14.1609 77.6719 12.3477C77.6657 11.7839 77.3378 11.3965 76.7616 11.3731C75.8638 11.3341 74.9645 11.3622 74.0167 11.3622V18.8089Z" fill="#161A24"/>
<path d="M83.7254 47.6682C83.7254 44.9397 83.7051 42.2097 83.741 39.4827C83.7488 38.8705 83.8956 38.2442 84.0767 37.6554C84.4062 36.5809 85.1635 35.8671 86.2518 35.6172C88.9499 34.9956 91.6683 34.9894 94.3648 35.6172C95.6483 35.9155 96.4305 36.8105 96.6803 38.0896C96.838 38.9002 96.9208 39.7389 96.9239 40.5651C96.9458 45.3224 96.9411 50.0781 96.927 54.8354C96.9255 55.5335 96.8568 56.2363 96.7615 56.9298C96.5445 58.515 95.6701 59.5599 94.0806 59.8832C91.6355 60.3814 89.1606 60.3986 86.7249 59.9081C84.7778 59.5177 83.8863 58.3916 83.7738 56.3207C83.663 54.2731 83.6989 52.2162 83.677 50.164C83.6676 49.3315 83.677 48.5006 83.677 47.6682H83.727H83.7254ZM92.3475 47.7182C92.3475 45.3817 92.3568 43.0437 92.3443 40.7072C92.3381 39.439 91.9899 39.1094 90.708 39.0798C90.5269 39.0751 90.3442 39.0767 90.1631 39.0782C88.6095 39.0891 88.3113 39.3859 88.3097 40.9696C88.305 45.4614 88.305 49.9547 88.3097 54.4465C88.3097 56.0427 88.636 56.3581 90.2286 56.3706C90.3333 56.3706 90.4363 56.3706 90.5409 56.3706C92.0024 56.3456 92.3428 56.0161 92.3475 54.5745C92.3553 52.2896 92.349 50.0047 92.3475 47.7182V47.7182Z" fill="#161A24"/>
<path d="M90.0003 23.8349H94.4925C94.4925 24.7782 94.48 25.7012 94.4972 26.6243C94.5081 27.2334 94.327 28.0986 95.0343 28.2657C95.9009 28.4703 96.8627 28.3516 97.7683 28.2486C97.9619 28.2267 98.218 27.6723 98.232 27.3536C98.2882 26.1354 98.2711 24.9125 98.2523 23.6912C98.2398 22.9056 97.7308 22.4792 97.0563 22.2184C95.6011 21.6577 94.1474 21.0954 92.6844 20.5566C90.895 19.8991 89.9332 18.6153 89.8989 16.7302C89.8645 14.8357 89.8348 12.9287 90.0082 11.0467C90.2205 8.75085 91.2354 7.72318 93.5463 7.54045C95.4777 7.38739 97.4435 7.41862 99.375 7.58105C101.338 7.74661 102.334 8.77428 102.559 10.7266C102.734 12.2431 102.709 13.7846 102.724 15.3152C102.726 15.4854 102.423 15.804 102.251 15.8103C101.057 15.854 99.8606 15.8243 98.6645 15.8384C98.2477 15.8431 98.1259 15.6556 98.1321 15.2699C98.1446 14.3859 98.1477 13.5019 98.1274 12.6195C98.1024 11.5699 97.8011 11.2701 96.7831 11.2092C94.7548 11.0873 94.494 11.3357 94.494 13.391C94.494 13.4425 94.494 13.4956 94.494 13.5472C94.494 15.4214 95.3809 16.6859 97.1547 17.3408C98.1056 17.6907 99.058 18.039 100.023 18.3513C101.742 18.9089 102.793 20.0568 102.843 21.867C102.905 24.1472 102.94 26.4462 102.737 28.714C102.534 30.9849 101.488 31.9813 99.222 32.1593C97.2889 32.3108 95.3231 32.3046 93.3917 32.139C91.251 31.9547 90.2455 30.938 90.0331 28.8061C89.8723 27.1928 90.0019 25.5513 90.0019 23.8364L90.0003 23.8349Z" fill="#161A24"/>
<path d="M82.6808 45.3754C81.121 45.3754 79.7735 45.3957 78.4307 45.3473C78.2776 45.341 78.02 44.9427 78.0138 44.7194C77.9732 43.395 78.0013 42.069 77.9903 40.743C77.9794 39.3967 77.6765 39.1031 76.3275 39.0781C74.193 39.0406 73.9869 39.239 73.9869 41.3412C73.9869 45.6565 73.9869 49.9718 73.9885 54.2871C73.9885 54.6244 73.9854 54.968 74.0447 55.2976C74.2165 56.2456 74.7661 56.4736 76.5273 56.3627C77.5578 56.2987 77.9451 56.0051 77.9685 55.1086C78.0091 53.5234 77.9888 51.9381 77.9935 50.3513C77.9956 49.6756 78.3375 49.3372 79.0193 49.3361C79.9811 49.3361 80.9445 49.3564 81.9048 49.3283C82.3951 49.3143 82.6027 49.458 82.5918 49.9843C82.5528 52.0115 82.6105 54.0419 82.5153 56.0644C82.3935 58.6633 81.3505 59.7987 78.757 60.0674C76.5632 60.2938 74.3476 60.3829 72.1632 59.8612C70.6362 59.4973 69.8305 58.4681 69.5713 56.9843C69.4526 56.2971 69.398 55.5896 69.3964 54.8915C69.3824 50.1077 69.3667 45.3254 69.4073 40.5415C69.4151 39.567 69.5728 38.5737 69.8117 37.6288C70.0787 36.5714 70.861 35.8826 71.9165 35.6312C74.613 34.9862 77.3314 34.9877 80.028 35.6171C81.3801 35.9326 82.2342 36.8931 82.3482 38.2504C82.5434 40.5728 82.5731 42.9093 82.6792 45.3754H82.6808Z" fill="#161A24"/>
<path d="M150.275 7.54677C150.524 7.52959 150.752 7.50148 150.981 7.50148C154.154 7.49835 157.325 7.51241 160.498 7.48742C161.062 7.48273 161.289 7.61861 161.265 8.22147C161.221 9.27882 161.252 10.3393 161.252 11.4732H154.858C154.858 13.4395 154.846 15.3293 154.885 17.2175C154.888 17.3487 155.278 17.5768 155.492 17.5814C156.947 17.6142 158.404 17.622 159.859 17.5892C160.457 17.5752 160.699 17.7407 160.668 18.378C160.62 19.3869 160.656 20.4005 160.656 21.5266H154.906V28.2346H161.243C161.243 29.4887 161.266 30.6507 161.211 31.8096C161.205 31.9455 160.773 32.1672 160.535 32.1688C157.831 32.1938 155.127 32.1844 152.424 32.186C151.727 32.186 151.03 32.186 150.277 32.186V7.54677H150.275Z" fill="#161A24"/>
<path d="M117.148 7.49987C117.882 7.49987 118.476 7.49987 119.069 7.49987C121.851 7.49987 124.634 7.51549 127.415 7.48894C128.017 7.48269 128.244 7.64668 128.214 8.27609C128.166 9.30689 128.202 10.3408 128.202 11.4497H121.765C121.765 12.1869 121.765 12.8491 121.765 13.5113C121.765 14.603 121.8 15.6963 121.753 16.7864C121.725 17.4518 121.979 17.6314 122.609 17.6142C124.037 17.5767 125.469 17.6173 126.898 17.5954C127.397 17.5876 127.602 17.7485 127.585 18.2639C127.557 19.1463 127.552 20.0319 127.585 20.9143C127.605 21.4453 127.382 21.575 126.893 21.5671C125.438 21.5437 123.981 21.5796 122.526 21.5484C121.97 21.5359 121.739 21.6749 121.751 22.2809C121.787 24.0473 121.778 25.8153 121.756 27.5833C121.75 28.0909 121.925 28.2673 122.431 28.2595C124.068 28.2377 125.708 28.2845 127.344 28.2377C128.047 28.2174 128.256 28.4579 128.211 29.1326C128.158 29.9354 128.18 30.7444 128.205 31.5487C128.22 32.011 128.07 32.1969 127.586 32.1953C124.311 32.1812 121.035 32.1734 117.757 32.1984C117.023 32.2047 117.145 31.7408 117.145 31.3144C117.144 24.4518 117.145 17.5892 117.145 10.7266C117.145 9.6911 117.145 8.65405 117.145 7.49831L117.148 7.49987Z" fill="#161A24"/>
<path d="M139.658 39.3578V45.4598H145.408C145.408 46.7124 145.427 47.8947 145.379 49.0754C145.374 49.1957 144.96 49.3894 144.734 49.3941C143.305 49.4237 141.875 49.4362 140.446 49.3972C139.821 49.38 139.579 49.5346 139.594 50.2093C139.637 52.1272 139.609 54.0467 139.609 56.0505H145.945V59.9925C145.727 60.0113 145.482 60.0503 145.236 60.0519C142.092 60.0566 138.947 60.0378 135.802 60.0675C135.164 60.0738 134.961 59.8973 134.962 59.2429C134.983 51.5525 134.983 43.8605 134.962 36.1702C134.961 35.5111 135.17 35.3408 135.807 35.3471C138.952 35.3768 142.096 35.3752 145.241 35.3471C145.858 35.3408 146.072 35.5204 146.033 36.1405C145.984 36.9167 145.986 37.7007 146.033 38.477C146.07 39.1126 145.869 39.3469 145.207 39.3297C143.648 39.2875 142.089 39.3141 140.529 39.3188C140.249 39.3188 139.97 39.3438 139.659 39.3578H139.658Z" fill="#161A24"/>
<path d="M127.182 45.477H133.014C133.014 46.6905 133.037 47.8525 132.983 49.0114C132.977 49.1535 132.556 49.3862 132.324 49.3924C130.844 49.4268 129.362 49.4096 127.88 49.4112C127.543 49.4112 127.179 49.3565 127.182 49.8875C127.19 51.9101 127.185 53.9326 127.185 56.0552H133.62C133.62 57.339 133.634 58.5244 133.598 59.7098C133.595 59.8301 133.284 60.0378 133.115 60.0393C129.79 60.0596 126.462 60.0503 123.137 60.0581C122.734 60.0581 122.584 59.9003 122.592 59.5036C122.607 58.6462 122.595 57.7888 122.595 56.9313C122.595 50.0734 122.606 43.2139 122.579 36.356C122.576 35.6016 122.723 35.3236 123.555 35.3377C126.647 35.3923 129.74 35.372 132.831 35.3486C133.42 35.3439 133.684 35.4829 133.642 36.1279C133.589 36.9292 133.593 37.7397 133.642 38.5425C133.679 39.1844 133.406 39.3359 132.82 39.325C131.209 39.2969 129.598 39.3344 127.988 39.3062C127.41 39.2969 127.152 39.4218 127.17 40.0778C127.215 41.8379 127.185 43.5997 127.185 45.477H127.182Z" fill="#161A24"/>
<path d="M110.72 35.3938H121.472V39.3155C120.532 39.3155 119.608 39.3155 118.683 39.3155C117.748 39.3155 116.813 39.3296 115.878 39.3108C115.44 39.303 115.283 39.4779 115.286 39.909C115.3 41.727 115.303 43.5465 115.284 45.3644C115.28 45.8767 115.531 45.961 115.962 45.9564C117.366 45.9423 118.769 45.972 120.171 45.9407C120.727 45.9282 120.975 46.0704 120.951 46.6764C120.908 47.6619 120.924 48.6505 120.946 49.6376C120.957 50.1077 120.779 50.281 120.309 50.2732C118.958 50.2529 117.603 50.3201 116.257 50.2467C115.426 50.2014 115.264 50.5028 115.276 51.2634C115.32 53.8607 115.294 56.458 115.292 59.0569C115.292 59.7212 114.948 60.0533 114.26 60.0533C113.095 60.0533 111.932 60.0533 110.723 60.0533V35.3938H110.72Z" fill="#161A24"/>
<path d="M103.31 45.9534C105.002 45.9534 106.559 45.9784 108.114 45.9409C108.74 45.9253 109.004 46.0846 108.967 46.7577C108.915 47.6901 108.929 48.6288 108.962 49.5627C108.981 50.1031 108.79 50.2921 108.247 50.2796C106.923 50.2499 105.597 50.2702 104.272 50.2702C103.991 50.2702 103.709 50.2702 103.31 50.2702C103.31 50.6544 103.31 50.9574 103.31 51.2589C103.31 53.9342 103.291 56.6096 103.324 59.285C103.332 59.9097 103.132 60.0925 102.526 60.0675C101.488 60.0238 100.446 60.03 99.4094 60.0675C98.8488 60.0878 98.7099 59.8707 98.7114 59.3428C98.7239 51.5759 98.7239 43.809 98.7114 36.0421C98.7114 35.5517 98.8457 35.3502 99.3703 35.3533C102.54 35.3721 105.711 35.3705 108.881 35.3533C109.373 35.3502 109.588 35.4892 109.569 36.014C109.538 36.8964 109.54 37.7804 109.569 38.6628C109.587 39.1907 109.354 39.3281 108.87 39.3235C107.285 39.3047 105.7 39.3375 104.115 39.3063C103.531 39.2953 103.285 39.4281 103.297 40.0778C103.338 41.9926 103.311 43.9105 103.311 45.9534H103.31Z" fill="#161A24"/>
<path d="M166.072 32.1874V11.4918H161.733V7.57007H175V11.4309H170.711V12.4976C170.711 18.7339 170.697 24.9687 170.728 31.205C170.733 31.9891 170.538 32.2561 169.73 32.2077C168.545 32.1359 167.354 32.189 166.072 32.189V32.1874Z" fill="#161A24"/>
<path d="M102.917 7.55444H116.196V11.4231H111.866C111.866 11.8323 111.866 12.154 111.866 12.4773C111.866 18.7152 111.854 24.9531 111.882 31.1894C111.885 31.9484 111.734 32.278 110.901 32.2046C110.024 32.1265 109.136 32.1874 108.252 32.1874C107.566 32.1874 107.222 31.8553 107.221 31.191C107.221 24.9531 107.221 18.7152 107.221 12.4788V11.4762H102.918V7.55601L102.917 7.55444Z" fill="#161A24"/>
<path d="M148.358 32.1827C146.865 32.1827 145.493 32.1952 144.122 32.1624C143.986 32.1593 143.811 31.8985 143.738 31.7235C143.672 31.5689 143.72 31.3659 143.72 31.1831C143.72 23.6224 143.731 16.0616 143.703 8.50089C143.7 7.72467 143.873 7.43105 144.69 7.49508C145.619 7.57005 146.562 7.55287 147.494 7.49977C148.173 7.46072 148.376 7.67001 148.373 8.36658C148.347 14.7575 148.358 21.15 148.358 27.541C148.358 29.045 148.358 30.5506 148.358 32.1827Z" fill="#161A24"/>
<path d="M88.1676 32.1829C86.7436 32.1829 85.3977 32.1954 84.0518 32.1641C83.9082 32.161 83.7333 31.9174 83.6427 31.7471C83.5771 31.6253 83.6271 31.4426 83.6271 31.2864C83.6271 23.6772 83.6365 16.0665 83.6115 8.45734C83.6084 7.71548 83.7942 7.45465 84.5608 7.49526C85.7459 7.55773 86.9357 7.51244 88.1692 7.51244V32.1829H88.1676Z" fill="#161A24"/>
<path d="M36.0919 38.9924C32.6412 38.9908 29.4248 38.0834 26.3644 36.5309C24.4736 35.572 23.4493 34.0211 22.895 32.0064C22.4703 30.4664 23.1542 29.4137 24.1394 28.4907C25.5447 27.1757 27.3543 26.743 29.203 26.49C32.7505 26.0043 36.12 26.8133 39.4099 28.0081C40.2952 28.3298 41.1415 28.8702 41.88 29.4668C43.3103 30.6195 44.1441 32.211 44.6828 33.9368C44.9357 34.7473 43.6881 36.9105 42.8075 37.3915C40.3264 38.744 39.171 39.0205 36.0919 38.9939V38.9924ZM27.3887 27.9987C27.2919 28.0659 26.9749 28.1705 26.9468 28.3283C26.8578 28.8156 26.8781 29.3216 26.8547 29.8214C27.0624 29.7683 27.27 29.7089 27.4808 29.6636C27.5808 29.6418 27.69 29.6262 27.79 29.6402C29.7183 29.9182 31.7013 30.0916 33.2705 31.4113C34.5789 32.5108 35.8421 33.6713 37.0444 34.8832C37.95 35.7969 39.0555 35.8844 40.1984 35.8968C40.4514 35.9 40.773 35.6485 40.9541 35.4267C41.7411 34.46 41.638 33.4261 40.7027 32.6045C40.3717 32.314 40.0392 32.0095 39.6597 31.7924C35.9014 29.6465 31.8184 28.5376 27.3903 27.9972L27.3887 27.9987Z" fill="#161A24"/>
</g>
<defs>
<clipPath id="clip0_607_2636">
<rect width="175" height="63.8939" fill="white"/>
</clipPath>
</defs>
</svg>
