<?xml version="1.0" encoding="UTF-8"?><svg id="Layer_1" xmlns="http://www.w3.org/2000/svg" width="959.04" height="773.53" xmlns:xlink="http://www.w3.org/1999/xlink" viewBox="0 0 959.04 773.53"><defs><style>.cls-1{fill:none;}.cls-2{clip-path:url(#clippath);}.cls-3{fill:#f8fbfd;}.cls-4{fill:#fff;}.cls-5{clip-path:url(#clippath-1);}</style><clipPath id="clippath"><polygon class="cls-1" points="786.14 195.47 786.14 195.47 959.04 195.47 959.04 443.8 786.14 443.8 786.14 195.47"/></clipPath><clipPath id="clippath-1"><polygon class="cls-1" points="244.79 495.19 244.79 495.19 153.02 641.72 363.49 773.53 455.26 627 244.79 495.19"/></clipPath></defs><path class="cls-3" d="M34.33,102.87c-.53,.35-2.27,.87-2.44,1.7-.54,2.56-.48,5.24-.65,7.87,1.14-.26,2.27-.55,3.42-.77,.55-.1,1.14-.18,1.68-.09,10.46,1.66,21.23,2.76,29.63,9.87,7,5.93,13.76,12.17,20.17,18.69,4.83,4.9,10.84,5.47,17.05,5.65,1.38,.04,3.15-1.25,4.16-2.41,4.38-5.03,3.92-10.49-1.08-14.91-1.77-1.56-3.55-3.21-5.59-4.38-20.22-11.68-42.31-17.94-66.34-21.22Zm37.34,61.96c-18.76-.35-36.16-5.45-52.65-13.94-10.19-5.24-15.6-13.52-18.41-24.2-2.15-8.16,1.67-13.65,7.12-18.42,7.77-6.8,17.66-8.91,27.74-10.06,19.34-2.21,37.58,2.38,55.35,9,4.79,1.78,9.33,4.72,13.29,7.93,7.66,6.22,12.04,14.7,14.79,23.85,1.29,4.3-5.71,15.59-10.55,18.04-13.63,6.89-19.94,8.24-36.68,7.8Z"/><path class="cls-3" d="M160.7,105.35c-.44,0-1.62-.38-2.04,.05-1.27,1.34-2.25,2.98-3.34,4.51,.75,.3,1.51,.57,2.25,.9,.35,.16,.72,.35,1,.62,5.36,5.19,11.1,10.16,13.22,17.83,1.77,6.39,3.28,12.88,4.49,19.4,.91,4.91,4.13,7.65,7.62,10.24,.77,.58,2.27,.5,3.28,.2,4.4-1.3,6.2-4.79,5-9.47-.42-1.66-.82-3.36-1.54-4.89-7.16-15.17-17.44-27.8-29.94-39.39Zm-2.01,52.51c-10.6-7.71-18.63-17.76-24.86-29.51-3.85-7.25-3.82-14.44-1.41-22.04,1.85-5.81,6.1-7.61,11.02-8.33,7.01-1.02,13.46,1.66,19.66,4.99,11.89,6.39,20.6,16.47,28.26,27.59,2.06,2.99,3.55,6.59,4.61,10.12,2.04,6.84,1.34,13.73-.54,20.38-.88,3.12-9.14,7.17-12.83,6.72-10.39-1.27-14.51-2.98-23.92-9.94Z"/><path class="cls-3" d="M62.56,231.28c.37-.01,1.37,.25,1.71-.11,1.05-1.11,1.85-2.47,2.75-3.73-.63-.21-1.27-.41-1.89-.64-.3-.11-.61-.25-.84-.46-4.54-3.97-9.41-7.77-11.27-13.84-1.55-5.06-2.88-10.21-3.96-15.39-.81-3.9-3.54-5.99-6.49-7.95-.65-.43-1.91-.32-2.76-.05-3.68,1.19-5.15,4.05-4.1,7.76,.37,1.31,.72,2.67,1.34,3.87,6.16,11.91,14.9,21.67,25.5,30.54Zm1.16-42.13c8.97,5.82,15.8,13.6,21.14,22.79,3.3,5.68,3.35,11.44,1.4,17.61-1.49,4.72-5.04,6.3-9.16,7.04-5.87,1.05-11.3-.87-16.54-3.33-10.04-4.72-17.44-12.5-23.98-21.14-1.76-2.33-3.05-5.16-3.96-7.95-1.78-5.41-1.26-10.95,.25-16.34,.71-2.53,7.6-6.05,10.7-5.82,8.73,.66,12.2,1.89,20.16,7.15Z"/><path class="cls-3" d="M98.52,81.49c.37-.01,1.37,.25,1.71-.11,1.05-1.11,1.85-2.47,2.75-3.73-.63-.21-1.27-.41-1.89-.64-.3-.11-.61-.25-.84-.46-4.54-3.97-9.41-7.77-11.27-13.84-1.55-5.06-2.88-10.21-3.96-15.39-.81-3.9-3.54-5.99-6.49-7.95-.65-.43-1.91-.32-2.76-.05-3.68,1.19-5.15,4.05-4.1,7.76,.37,1.31,.72,2.67,1.34,3.87,6.16,11.91,14.9,21.67,25.5,30.54Zm1.16-42.13c8.97,5.82,15.8,13.6,21.14,22.79,3.3,5.68,3.35,11.44,1.4,17.61-1.49,4.72-5.04,6.3-9.16,7.04-5.87,1.05-11.3-.87-16.54-3.33-10.04-4.72-17.44-12.5-23.98-21.14-1.76-2.33-3.05-5.16-3.96-7.95-1.78-5.41-1.26-10.95,.25-16.34,.71-2.53,7.6-6.05,10.7-5.82,8.73,.66,12.2,1.89,20.16,7.15Z"/><path class="cls-3" d="M115.71,182.77c-.3,.33-1.38,.97-1.36,1.58,.07,1.87,.56,3.72,.88,5.58,.72-.37,1.44-.75,2.18-1.1,.35-.16,.74-.31,1.12-.34,7.34-.55,14.8-1.54,21.67,2.04,5.72,2.98,11.34,6.22,16.76,9.71,4.09,2.62,8.24,2.04,12.46,1.15,.94-.2,1.92-1.38,2.4-2.35,2.11-4.21,.88-7.94-3.24-10.2-1.46-.8-2.94-1.65-4.51-2.14-15.62-4.83-31.59-5.58-48.36-3.94Zm35.64,37.03c-12.73,2.82-25.33,2.11-37.9-1.11-7.76-1.99-12.81-6.86-16.5-13.84-2.83-5.33-1.17-9.77,1.71-13.98,4.11-6,10.42-9.08,17.04-11.53,12.68-4.7,25.78-4.48,38.89-2.77,3.53,.46,7.09,1.76,10.31,3.35,6.22,3.08,10.6,8.26,14,14.19,1.6,2.78-1.23,11.78-4.09,14.27-8.04,7.02-12.08,8.99-23.45,11.41Z"/><path class="cls-3" d="M146.14,415.04c-.07,.14-.38,.48-.31,.69,.22,.64,.58,1.23,.89,1.84,.21-.2,.42-.41,.64-.61,.1-.09,.22-.18,.35-.23,2.48-.96,4.95-2.07,7.7-1.55,2.29,.43,4.56,.97,6.8,1.61,1.69,.48,3.06-.15,4.43-.9,.3-.17,.52-.68,.58-1.06,.29-1.68-.52-2.83-2.18-3.19-.59-.12-1.19-.26-1.78-.27-5.9-.04-11.49,1.36-17.12,3.68Zm16.17,9.08c-4.1,2.3-8.53,3.37-13.21,3.57-2.89,.12-5.14-1.04-7.14-3.06-1.53-1.55-1.42-3.25-.87-5.01,.79-2.5,2.66-4.22,4.69-5.76,3.89-2.94,8.44-4.23,13.15-5.01,1.27-.21,2.63-.13,3.91,.09,2.47,.42,4.52,1.75,6.31,3.44,.84,.79,.8,4.2,.07,5.36-2.05,3.26-3.24,4.36-6.91,6.39Z"/><g id="AU8wsp.tif"><g><path class="cls-3" d="M211.57,202.15h-.17c-.11,.54-.18,1.09-.33,1.61-.18,.65,.06,.93,.66,1.2,1.55,.71,3.09,1.39,3.23,3.55,.07,1.11,.76,2.15,1.57,3.02,2.42,2.57,4.23,5.55,5.71,8.74,1.05,2.26,2.12,4.5,3.23,6.73,.92,1.84,2.04,3.64,2.27,5.7,.21,1.8,.06,3.65,.1,5.47,.03,1.25,0,2.52,.18,3.75,.25,1.7,1.14,3.17,2.16,4.52,1.84,2.42,3.22,5.05,4.08,7.97,.86,2.9,1.71,5.8,2.72,8.66,.74,2.11,.94,4.2,.74,6.42-.38,4.24-.5,8.5-.23,12.76,.24,3.92-.38,7.67-1.73,11.38-.92,2.54-1.41,5.24-2.15,7.85-.45,1.59-.8,3.28-1.59,4.7-2.64,4.7-5.91,8.97-9.86,12.65-3.08,2.86-5.55,6.09-7.17,9.98-.89,2.15-1.98,4.24-3.55,5.97-.89,.98-1.09,1.9-.78,3.11,.31,1.19,.25,1.23,1.48,1.4,.18,.03,.49-.11,.58-.26,2.23-3.7,4.89-7.04,7.93-10.12,2.75-2.79,4.9-6.08,7.15-9.27,1.82-2.59,3.67-5.16,5.08-8.02,1.5-3.04,3.14-6.01,4.68-9.04,.84-1.65,1.75-3.28,2.36-5.01,1.29-3.66,1.93-7.48,2.54-11.3,1.12-6.97,.73-13.85-1.07-20.67-.82-3.1-1.63-6.21-2.42-9.32-.65-2.55-1.19-5.1-2.29-7.54-1.16-2.58-1.95-5.33-2.78-8.04-1.14-3.71-2.04-7.51-3.3-11.18-1.01-2.95-2.19-5.88-3.66-8.62-1.33-2.49-3.14-4.72-4.74-7.06-1.16-1.69-2.25-3.45-3.97-4.67-.22-.16-.39-.42-.52-.67-.58-1.04-1.18-2.08-1.69-3.15-.53-1.12-1.37-1.74-2.57-1.98-.76-.15-1.45-.47-1.87-1.2Z"/><path class="cls-3" d="M192.29,369.61c-.24,.02-.49,.06-.73,.05-.6-.02-1.25-.16-1.46-.74-.87-2.42-1.52-4.82-.72-7.49,.87-2.91,1.48-5.91,2.02-8.9,.52-2.89,.78-5.82,1.21-8.73,.16-1.09,.36-2.2,.73-3.23,1.29-3.56,2.56-7.14,3.12-10.9,.3-1.98,.3-4.01,.44-6.02,.01-.2,.02-.4,.03-.75,.68,.17,1.31,.31,1.92,.5,.1,.03,.2,.26,.2,.4,.06,2.42,.15,4.85,.13,7.27-.02,2.37-.78,4.58-1.76,6.7-.66,1.42-1.05,2.88-1.17,4.44-.15,2.07-.07,4.16-.7,6.18-.44,1.41-.99,2.8-1.3,4.24-.39,1.83-.52,3.71-.9,5.54-.41,1.99-.99,3.94-1.48,5.92-.2,.82-.36,1.65-.52,2.47-.02,.12,.04,.26,.09,.47,1.24-.81,2.51-1.47,3.57-2.38,1.13-.97,2.31-.9,3.57-.64,.44,.09,.77,.03,1.07-.26,.6-.56,1.2-1.12,1.78-1.71,1.53-1.55,3.05-3.11,4.56-4.68,.68-.71,1.38-1.41,1.98-2.2,1.91-2.51,4.26-4.55,6.77-6.43,1.6-1.2,3.21-2.34,5.06-3.15,.86-.37,1.59-1.08,2.32-1.71,1.76-1.54,3.47-3.15,5.24-4.68,1.09-.94,2.01-1.99,2.79-3.18,.71-1.08,1.46-2.13,2.28-3.33,.63,.67,1.21,1.27,1.76,1.89,.08,.09,.04,.36-.05,.49-1.93,3.01-3.85,6.03-5.81,9.02-.89,1.36-2.34,2.06-3.73,2.75-2.43,1.2-4.89,2.35-7.35,3.49-.93,.43-1.63,1.08-2.18,1.93-1.14,1.76-2.33,3.49-3.44,5.26-1.14,1.82-2.67,3.19-4.46,4.35-1.77,1.15-3.49,2.39-5.22,3.59l-1.59,.68c-1.21-.6-2.41-.45-3.5,.24-.68,.43-1.32,.91-2.03,1.31-.84,.47-1.54,1.19-2.3,1.81l-.23,.1Z"/><path class="cls-3" d="M192.51,369.52c.76-.61,1.46-1.34,2.3-1.81,.71-.4,1.35-.88,2.03-1.31,1.09-.69,2.29-.84,3.5-.24l-7.83,3.35Z"/><path class="cls-3" d="M211.57,202.15c.41,.73,1.11,1.05,1.87,1.2,1.2,.24,2.04,.86,2.57,1.98,.51,1.08,1.11,2.11,1.69,3.15,.14,.25,.3,.51,.52,.67,1.72,1.23,2.8,2.98,3.97,4.67,1.61,2.34,3.42,4.57,4.74,7.06,1.47,2.74,2.65,5.67,3.66,8.62,1.25,3.67,2.16,7.47,3.3,11.18,.83,2.71,1.62,5.47,2.78,8.04,1.1,2.44,1.63,5,2.29,7.54,.8,3.11,1.61,6.21,2.42,9.32,1.8,6.82,2.19,13.7,1.07,20.67-.61,3.82-1.25,7.65-2.54,11.3-.61,1.73-1.52,3.36-2.36,5.01-1.54,3.02-3.18,6-4.68,9.04-1.41,2.86-3.26,5.43-5.08,8.02-2.25,3.19-4.4,6.48-7.15,9.27-3.04,3.08-5.7,6.42-7.93,10.12-.09,.15-.4,.29-.58,.26-1.22-.17-1.17-.21-1.48-1.4-.31-1.22-.11-2.13,.78-3.11,1.57-1.73,2.66-3.82,3.55-5.97,1.62-3.9,4.09-7.12,7.17-9.98,3.95-3.68,7.22-7.95,9.86-12.65,.8-1.42,1.14-3.11,1.59-4.7,.74-2.61,1.23-5.31,2.15-7.85,1.35-3.7,1.97-7.45,1.73-11.38-.26-4.26-.15-8.52,.23-12.76,.2-2.22,0-4.31-.74-6.42-1-2.85-1.86-5.76-2.72-8.66-.86-2.92-2.25-5.55-4.08-7.97-1.02-1.35-1.91-2.82-2.16-4.52-.18-1.23-.15-2.5-.18-3.75-.04-1.82,.11-3.67-.1-5.47-.24-2.07-1.36-3.86-2.27-5.7-1.11-2.23-2.18-4.47-3.23-6.73-1.48-3.19-3.29-6.16-5.71-8.74-.81-.87-1.5-1.91-1.57-3.02-.14-2.16-1.68-2.83-3.23-3.55-.59-.27-.84-.55-.66-1.2,.15-.52,.22-1.07,.33-1.6h.17Z"/></g></g><g id="_Owpa3.tif"><g><path d="M581.02,547.54c-.6-22.44,.03-44.9-2.2-67.3-.99-9.98-1.17-20.05-1.51-30.09-.88-25.64-1.67-51.29-2.44-76.93-.22-7.35-.23-14.71-.34-22.07-.03-1.75-1.31-3.48-2.72-3.98-5.82-2.07-11.86-2.57-17.95-2.37-15.59,.53-31.19,1.01-46.77,1.85-15.06,.81-30.11,2-45.15,3.17-1.53,.12-3.32,.85-4.44,1.89-5.44,5.04-10.74,10.23-15.99,15.47-2.14,2.13-3.45,4.78-3.42,7.9,.06,5.05-.03,10.11,.32,15.14,.87,12.77,1.51,25.53,1.17,38.34-.3,11.38-.22,22.77-.24,34.16,0,5.42,1.72,10.16,5.48,14.22,1.4,1.52,2.79,2.27,4.77,2.26,1.6,0,3.2,.11,4.79,.2,1.27,.07,3.02-.3,3.69,.38,.68,.7,.37,2.43,.39,3.71,.15,9.21,.3,18.42,.4,27.64,.03,3.07-.12,6.14-.09,9.21,.06,7.42,.19,14.83,.25,22.25,0,.53-.12,1.29-.47,1.56-1.69,1.28-3.47,2.43-5.49,3.8-.08-.45-.15-.79-.2-1.08-6.16,4.65-11.15,10.67-16.45,16.41,.22,1.96,.51,4.43,.78,6.9,.27,2.39,.86,3.2,3.15,3.31,7.83,.37,15.66,.62,23.5,.89,.69,.02,1.39-.15,2.08-.25,1.54-.23,2.51-1.11,2.44-2.69-.09-1.86,.99-2.03,2.39-2.06,4.92-.09,9.84-.29,14.76-.32,12.78-.07,25.56-.08,38.34-.1,.69,0,1.38,.09,2.27,.15-.08,1.08-.18,2-.21,2.93-.05,1.5,.49,2.37,2.21,2.4,4.54,.07,9.07,.24,13.61,.4,.82,.03,1.64,.19,2.45,.29h16.12c.42-.13,.82-.32,1.25-.39,2.65-.4,4.4-1.77,5.67-4.24,2.42-4.71,5.16-9.25,7.8-13.84,.96-1.66,1.99-3.28,3.03-4.89,.31-.48,.72-1.24,1.11-1.25,2.17-.09,1.87-1.65,1.83-2.96Z"/><path d="M572.02,354.23l.44,.38c-1.61,3.89-5.15,6.11-7.96,8.97l-.41-.35c2.64-3,5.28-6,7.93-8.99Z"/><path d="M447.78,363.81c3.73-3.68,7.41-7.41,11.24-10.99,.86-.8,2.22-1.42,3.39-1.5,21.87-1.51,43.73-3.13,65.61-4.28,11.22-.59,22.48-.36,33.72-.37,2.07,0,4.18,.5,6.22,1,1.86,.45,2.4,1.95,1.1,3.27-4.26,4.32-8.6,8.57-13.04,12.7-.79,.73-2.21,1.03-3.36,1.07-11.37,.42-22.74,.87-34.11,1.08-18.66,.35-37.31,.57-55.97,.76-4.64,.05-9.29-.22-13.94-.26-.94,0-1.89,.32-2.83,.49-.12-.22-.24-.44-.36-.66,.78-.78,1.56-1.55,2.34-2.33Z"/><path d="M563.29,364.97c-1.11,1.07-2.22,2.14-3.33,3.21-.15-.15-.3-.3-.45-.44,1.13-1.05,2.26-2.09,3.39-3.14l.39,.38Z"/><path d="M555.59,369.26c-8.86,1.32-17.79,1.65-26.73,1.91-.02-.25-.04-.5-.05-.76,4.53-.25,9.07-.44,13.59-.78,4.39-.33,8.76-.81,13.14-1.23,.02,.29,.03,.57,.05,.86Z"/><path d="M546.45,567.44c-15.28-.09-30.56-.14-45.84-.03-7.41,.05-14.82,.66-22.23,.68-10.1,.02-20.2-.29-30.3-.48-1.78-.03-3.55-.16-5.28-.24-.86-3.1-.52-5.47,3-6.87,.18-.07,.35-.17,.49-.29,4.93-3.9,10.52-6.67,16.16-9.35,.55-.26,.95-1.11,1.15-1.77,.19-.63,.04-1.37,.04-2.33,1.44-.12,2.78-.23,3.74-.31v3.37c.91-.54,2.14-.86,2.67-1.65,1.45-2.15,3.36-2.45,5.86-2.07-.64,.95-1.27,1.73-1.72,2.61-.2,.38-.21,1.09,.03,1.4,.24,.31,.91,.47,1.35,.42,2.3-.26,3.88-2.38,3.45-5.01,2.05,.18,3.99,.35,6.23,.55-1.02,1.53-2.51,2.73-.13,3.89,2.21-.79,3.04-4.86,6.56-3.04,.03,.07,.14,.21,.11,.3q-.99,2.63,1.94,2.94c.37,.04,.79,.12,1.08,.33,3.64,2.55,7.86,2.83,12.08,3.11,.44,.03,.89,.09,1.33,.17,.18,.03,.34,.16,.63,.31-.71,1.05-1.55,2.01-2.05,3.12-.28,.63,.02,1.51,.06,2.27,1.08-.08,2.66,.25,3.13-.32,1.16-1.43,1.77-3.3,2.69-4.95,.26-.47,.79-1,1.27-1.1,2.18-.43,4.38-.75,6.59-1.05,1.74-.24,3.88-2.73,4.21-5.48,4.62-.32,9.36-.88,14.1-.91,5.36-.04,10.72,.35,16.08,.65,1.23,.07,2.43,.58,3.66,.78,1.16,.19,2.35,.29,3.53,.31,.78,.01,1.56-.19,2.71-.34-.41,.94-.57,1.56-.91,2.06-3.43,5-6.88,9.99-10.36,14.96-1.71,2.44-4.08,3.39-7.09,3.37Z"/><path d="M460.44,513.82v-10.29h.52v10.29h-.52Z"/><path d="M522.51,477.91c.11-.21,.22-.42,.34-.63,2.02-.09,4.04-.26,6.05-.21,.53,.01,1.24,.63,1.53,1.15,1.67,3.02,3.14,6.14,4.87,9.13,8.43,14.61,16.93,29.2,25.4,43.79,.99,1.71,1.9,3.47,3.01,5.09,.47,.69,1.37,1.09,2.07,1.62,.21-.05,.41-.1,.62-.15-.48,1.92-.96,3.84-1.55,6.18,.06,.09,.44,.66,.76,1.14-4.16,1.69-6.12-.81-7.61-4.2l-.42,.33c.18,.46,.36,.91,.53,1.37,.2,.53,.38,1.06,.64,1.77-3.65,0-7.13,.09-10.6-.08-.62-.03-1.35-1.07-1.75-1.79-4.7-8.35-9.33-16.75-14.02-25.11-1.24-2.21-2.66-4.33-4.22-6.36,5.12,11.55,12.45,21.92,18.17,33.72-2.38-.12-4.38-.26-6.39-.31-2.74-.07-5.48-.18-8.21-.06-1.41,.06-2.27-.28-2.92-1.56-1.63-3.25-3.37-6.46-5.04-9.7-.26-.5-.53-1.09-.51-1.62,.17-3.76,.42-7.52,.67-11.63,.47,.5,.8,.75,.98,1.07,3.52,6.23,7.02,12.46,10.51,18.71,.43,.78,.66,1.67,1.1,2.44,.32,.55,.86,.98,1.29,1.46,.21-.14,.42-.28,.62-.43-.28-.71-.47-1.47-.85-2.13-3.41-6.06-6.84-12.11-10.28-18.15-.63-1.11-1.49-2.11-1.98-3.27-.65-1.54-1.49-3.2-1.45-4.79,.17-6.06,.64-12.12,1.04-18.18,.05-.74,.28-1.48,.7-2.31,7.13,8.93,11.66,19.42,17.93,28.96-.65-4.43-21.21-39.58-25.27-42.61,1.3,2.43,2.59,4.85,3.89,7.28l-.33,.38c-.68-.22-1.63-.24-2-.71-1.98-2.54-4.38-4.9-4.21-8.52,.08-1.67,1.37-2.58,3.02-2.22,1.7,.38,2.75,1.33,3.74,2.83,9.36,14.23,16.85,29.52,25.28,44.28,2.67,4.68,5.44,9.31,8.4,13.84-10.93-20.09-20.74-40.8-33.57-59.85Z"/><path d="M562.53,521.24c-4.08-6.49-8.15-12.99-12.32-19.42-4.87-7.5-9.85-14.93-14.78-22.4-.3-.46-.54-.97-.91-1.63,3.86-.93,5.06-.44,6.9,2.56,7.06,11.55,14.13,23.11,21.2,34.66,1.17,1.91,1.18,1.91,3.01,1.5,.47,6.67,1.23,13.3,.56,20.28-.51-.39-.82-.51-.97-.74-1.72-2.6-3.55-5.14-5.1-7.84-6.53-11.42-12.96-22.89-19.47-34.33-2.75-4.83-5.61-9.6-8.4-14.41-.36-.63-.62-1.32-.92-1.98l.5-.48c.62,.46,1.45,.78,1.83,1.39,9.19,14.45,18.33,28.93,27.49,43.39,.49,.77,1.13,1.45,1.69,2.17,.22-.11,.43-.22,.65-.33-.32-.8-.51-1.67-.96-2.39Z"/><path d="M563.61,506.31c-5.6-8.41-11.26-16.78-16.88-25.18-.73-1.08-1.35-2.24-2.05-3.41,3.68-1.29,5.97-.74,7.91,1.98,4.08,5.71,8.07,11.5,12.11,17.24,1.11,1.57,1.05,3.15,.18,5.39-.88-1.14-1.57-1.9-2.12-2.76-3.81-5.97-7.58-11.97-11.39-17.94-.32-.5-.8-.89-1.45-1.15,.79,1.27,1.6,2.53,2.36,3.82,4.19,7.01,8.38,14.03,12.56,21.04,.93,1.56,.68,7.92-.4,9.67-4.94-5.89-22.7-35.8-22.23-38.3,7.32,11.06,14.39,21.74,21.46,32.42,.29-.14,.58-.28,.87-.41-.31-.8-.49-1.7-.96-2.4Z"/><path d="M564.15,480.95c-.88-1.53-1.8-2.88-2.42-4.35-.17-.39,.43-1.37,.93-1.72,.72-.5,1.67-.68,2.87-1.13-.3,1.99-.98,2.54-2.45,1.73,0,1.91,2.92,2.98,1.07,5.46Z"/><path d="M564.09,485.37c.01,.34-.12,.69-.28,1.55-2.55-3.66-4.84-6.94-7.13-10.23,.09-.21,.19-.42,.28-.62,.91,.13,2.2-.07,2.67,.46,2.24,2.53,4.32,5.23,4.46,8.84Z"/><path d="M564.77,491.17c.4,.65,.32,1.6,.46,2.41l-.36,.02c-4.01-5.34-8.03-10.68-12.1-16.09,1.46-.96,2.61-.87,3.4,.31,2.93,4.41,5.8,8.85,8.6,13.34Z"/><path d="M519.93,521.98c-.19-1.38-.25-2.77-.32-4.17-.07-1.37-1.59-4.18-2.89-4.96-.15,.86-.35,1.64-.41,2.42-.28,3.83-1.11,7.73-.61,11.46,.48,3.57,.14,6.95-.26,10.4-.56,4.77-1.94,6.25-6.63,7.39-1.48,.36-2.92,.95-4.42,1.22-1.42,.25-2.89,.21-4.33,.28-.58,.03-1.17,0-2,0,1.67,1.63,5.72,2.37,11.36,2.24,4.05-.09,7.69-1.18,10.3-4.75,.17,3.01-.36,4.67-1.9,6.19-1.01,1.01-2.13,1.54-3.63,1.13-.63-.17-1.42-.15-2.03,.08-3.93,1.48-7.93,1.15-11.9,.4-2.68-.51-4.47-2.03-4.81-4.96-.17-1.44-.54-2.86-.88-4.62,2.05,.94,3.64,.96,4.95-.78,1.61-2.13,3.23-4.22,2.42-7.13-.53-1.91-1.93-3.03-3.78-3.44-1.72-.38-2.66,.88-3.54,2.09-.18,.25-.35,.51-.91,1.32-.35-1.94-.71-3.36-.86-4.8-.44-4.19-.81-8.38-1.14-12.58-.03-.4,.3-1.03,.65-1.21,.42-.22,1.21-.31,1.53-.06,.68,.53,1.09,1.41,1.74,1.98,.67,.59,1.47,1.28,2.27,1.37,.43,.05,1.27-1.03,1.43-1.71,.58-2.54,1.1-5.12,1.29-7.71,.05-.61-1.17-1.59-2-1.92-1.14-.45-2.52-.38-3.1,1.04-.4,.99-.83,1.56-1.94,1.1-1.04-.42-2.37-.31-2.35-2.15,.03-3.05-.25-6.1-.39-8.94,10.91,1.38,21.59,2.22,31.74-2.96,.78,1.83-.92,38.89-2.18,41.53-.05-.75-.17-1.5-.14-2.25,.12-3.13,.36-6.26,.38-9.39,0-1.06-.57-2.11-.72-3.18Z"/><path d="M496.95,533.65c-.17,.09-.46-.03-.87-.53,.73-.33,1.62-1.09,2.15-.88,.84,.33,1.78,1.18,2.04,2.01,.49,1.55,.29,3.17-1.6,4.36,.07-1.29,.15-2.37,.18-3.45,.04-1.32-.08-2.47-1.89-1.5Z"/><path d="M498.46,511.88c-.34,1.42-.61,2.51-.91,3.76-2.33-1.68-2.18-2.35,.91-3.76Z"/><path d="M485.68,527.18c-4.35-5.41-2-12.3,4.63-13.45-3.02,3.98-5.67,8.08-4.63,13.45Z"/><path d="M504.46,480.3l-.47,.12c-.36-.96-.86-1.9-1.06-2.9-.28-1.38-1.03-1.96-2.38-1.98-5.05-.08-10.1-.19-15.15-.28-2.61-.05-4.62-3.02-3.55-5.4,.2-.43,1-.8,1.55-.83,5.35-.31,10.71-.59,16.07-.76,1.9-.06,3.81,.2,5.75,.32,.81,6.12,1.57,11.86,2.29,17.6,.02,.15-.45,.36-.91,.69-.86-4.5-.34-9.05-1.8-13.23l-.93,.11c.19,2.18,.38,4.36,.57,6.53Z"/><path d="M504.3,486.97c-1.61-2.75-3.22-5.51-5-8.55,2.41,.28,5.82,5.92,5,8.55Z"/><path d="M497.09,478.43c1.87,.63,4.68,6.47,4.29,8.65-1.54-.74-4.49-6.56-4.29-8.65Z"/><path d="M506.56,489.5c.46,0,.92,.61,1.37,.94l-.32,.52-1.45-.29c.36,2.92-1.67,2.97-3.73,3.24-2.89,.38-5.75,1-8.63,1.52-.38,.07-.84,.3-1.11,.16-1.01-.53-2.33-1-2.79-1.87-.25-.48,.79-2.19,1.6-2.55,1.77-.79,3.75-1.32,5.68-1.49,3.11-.27,6.25-.2,9.37-.17Z"/><path d="M490.62,517.17c.23,5.63,.45,10.9,.68,16.45-4.66-3.19-5.11-12.29-.68-16.45Z"/><path d="M512.36,490.69c.23-.45,1.31-.73,1.96-.66,2.08,.21,4.15,.59,6.21,.98,.77,.15,1.49,.51,2.43,.84-2.06,2.64-4.42,3.35-6.92,2.37-.89-.35-1.78-.68-2.66-1.06-1.14-.48-1.55-1.48-1.03-2.47Z"/><path d="M522.27,541.4c.13-1.94,.39-3.87,.59-5.8l.66-.03c1.22,2.28,2.53,4.53,3.63,6.87,.84,1.79,.43,2.3-1.49,2.36-3.61,.13-3.64,.12-3.39-3.4Z"/><path d="M516.52,474.97c-.58-.03-1.13-.43-1.64-.64v11.29l.41,.09c.29-.37,.59-.73,1.11-1.38,.42,.88,.78,1.63,1.4,2.92-2.16-.18-3.67-.3-5.41-.45,0-3.29-.05-6.51,.02-9.73,.05-2.1,.22-4.21,.42-6.3,.3-3.16,.53-3.36,3.97-3.76,.43,2.15,.86,4.33,1.31,6.49,.29,1.4-.7,1.5-1.6,1.46Z"/><path d="M516.65,464.75c-2.33,1.29-4.7,2.43-7.57,2.25-3.38-.22-6.78-.05-10.16-.05l-.02-.38c-6.31,.36-12.62,.74-18.94,1.07-1.27,.07-2.57,.06-3.83-.09-.46-.05-1.22-.6-1.21-.91,.01-.51,.42-1.2,.87-1.46,.64-.36,1.46-.53,2.21-.55,7.98-.19,15.96-.35,23.95-.45,1.65-.02,3.31,.22,4.97,.34,3.1,.22,6.1,.05,8.83-1.75,.49-.33,1.35-.11,2.04-.14-.36,.73-.53,1.8-1.12,2.12Z"/><path d="M485.36,478.09c.57-.03,1.15-.03,1.73-.04,7.82-.15,9.13,.79,11.53,8.33,.11,.35,.19,.72,.29,1.11-2.42,.57-4.79,1.01-7.08,1.7-3.46,1.06-4.17,2.88-3.52,6.4,.71,3.81,1.06,7.7,1.29,11.57,.05,.87-.84,2.14-1.65,2.64-2.68,1.66-4.44,3.78-5.4,6.87-1.43,4.59-1.71,9.24-.81,13.83,.84,4.28,3.59,7.38,7.85,8.89,2.95,1.04,3.4,1.69,3.48,5.04-1.88,0-3.59-.01-5.31,0-6.57,.06-13.15,.09-19.72,.22-3.71,.07-3.86,.05-4.01-3.73-.15-3.77-.25-7.54-.35-11.31-.18-7.1-.97-14.25-.34-21.27,.74-8.18-1.04-16.2-.46-24.3,.1-1.46,.18-2.92,.27-4.51,.77-.1,1.45-.22,2.13-.26,6.69-.4,13.39-.79,20.08-1.17Z"/><path d="M557.08,572.02c-.6-.73-1.2-1.47-1.8-2.2,.54-.32,1.19-1,1.6-.87,.59,.18,1,.94,1.69,1.66-.68,.65-1.09,1.03-1.49,1.41Z"/><path d="M569.84,550.32c-3.35,4.97-6.71,9.94-9.97,14.97-.94,1.45-2.03,1.78-3.83,1.19,.55-.78,.91-1.67,1.56-2.15,3.47-2.57,5.29-6.3,7.31-9.92,.93-1.67,1.74-3.45,2.94-4.91,.92-1.13,2.36-1.83,3.57-2.73l.6,.72c-.73,.94-1.51,1.84-2.17,2.83Z"/><path d="M568.54,467.66c-2.05,2.41-4.61,3.37-7.56,3.78-2.78,.38-5.55,1.05-8.34,1.09-9.59,.14-19.18,.05-28.78,.05-.31,0-.62-.03-1.13-.06,0-3.23,.03-6.41-.02-9.58-.02-1.21-.13-2.43-.34-3.62-.55-3.08-1.98-4.65-5.13-4.71-7.4-.14-14.81-.14-22.21,.11-5.42,.18-10.84,.76-16.24,1.33-3.99,.42-5.42,1.74-6.01,5.7-.41,2.7-.37,5.48-.48,8.22-.06,1.39,0,2.79,0,4.26-.54,.09-.84,.18-1.14,.18-7.29-.07-14.58-.09-21.87-.25-3.74-.08-6.68-2.34-7.56-5.94-.54-2.2-.59-4.53-.73-6.8-.19-3-.4-6-.38-9,.08-11.13,.5-22.27,.32-33.4-.18-11.18-.91-22.36-1.43-33.54-.19-4.08-.46-8.16,.7-12.19,14.8,0,29.55,.07,44.29-.02,13.17-.08,26.35-.19,39.52-.56,10.86-.3,21.71-.95,32.55-1.6,1.4-.08,2.99-.81,4.08-1.73,2.88-2.43,5.52-5.14,8.27-7.73,.83-.78,1.7-1.51,2.86-2.55,.22,3.5,.36,6.55,.62,9.6,.68,8.02,1.67,16.02,2.07,24.05,.5,10.28,.57,20.59,.78,30.89,.17,8.83,.05,17.67,.46,26.48,.33,7.11-2.86,12.46-7.19,17.55Z"/><path d="M448.63,366.3c4.65,.05,9.29,.31,13.94,.26,18.66-.2,37.32-.41,55.97-.76,11.37-.21,22.74-.66,34.11-1.08,1.15-.04,2.58-.34,3.36-1.07,4.44-4.13,8.78-8.38,13.04-12.7,1.3-1.32,.76-2.82-1.1-3.27-2.04-.49-4.14-1-6.22-1-11.24,0-22.5-.22-33.72,.37-21.89,1.15-43.75,2.77-65.61,4.28-1.17,.08-2.53,.69-3.39,1.5-3.83,3.58-7.51,7.31-11.24,10.99-.78,.77-1.56,1.55-2.34,2.33,.12,.22,.24,.44,.36,.66,.94-.17,1.89-.5,2.83-.49Z"/><path d="M463.15,479.52c-.1,1.59-.17,3.05-.27,4.51-.58,8.1,1.2,16.13,.46,24.3-.63,7.02,.16,14.18,.34,21.27,.1,3.77,.2,7.54,.35,11.31,.15,3.77,.29,3.8,4.01,3.73,6.57-.13,13.15-.16,19.72-.22,1.72-.02,3.43,0,5.31,0-.08-3.35-.53-4-3.48-5.04-4.27-1.51-7.01-4.61-7.85-8.89-.9-4.59-.62-9.24,.81-13.83,.96-3.08,2.72-5.21,5.4-6.87,.82-.51,1.71-1.78,1.65-2.64-.23-3.87-.58-7.76-1.29-11.57-.65-3.52,.06-5.34,3.52-6.4,2.29-.7,4.65-1.13,7.08-1.7-.1-.39-.17-.76-.29-1.11-2.4-7.54-3.71-8.48-11.53-8.33-.58,.01-1.15,0-1.73,.04-6.69,.39-13.39,.77-20.08,1.17-.68,.04-1.36,.16-2.13,.26Z"/><path d="M564.82,547.05c-1.15,.16-1.93,.36-2.71,.34-1.18-.02-2.36-.12-3.53-.31-1.23-.2-2.43-.71-3.66-.78-5.36-.3-10.72-.69-16.08-.65-4.74,.03-9.48,.59-14.1,.91-.33,2.75-2.47,5.24-4.21,5.48-2.2,.3-4.41,.62-6.59,1.05-.49,.1-1.01,.63-1.27,1.1-.92,1.64-1.53,3.51-2.69,4.95-.46,.57-2.05,.24-3.13,.32-.04-.77-.33-1.65-.06-2.27,.49-1.11,1.33-2.07,2.05-3.12-.29-.15-.45-.28-.63-.31-.44-.08-.88-.14-1.33-.17-4.22-.28-8.44-.56-12.08-3.11-.29-.21-.71-.29-1.08-.33q-2.93-.32-1.94-2.94c.03-.09-.08-.23-.11-.3-3.51-1.82-4.34,2.25-6.56,3.04-2.39-1.16-.89-2.36,.13-3.89-2.25-.2-4.19-.37-6.23-.55,.44,2.63-1.15,4.76-3.45,5.01-.45,.05-1.11-.11-1.35-.42-.24-.31-.23-1.02-.03-1.4,.45-.88,1.08-1.66,1.72-2.61-2.5-.38-4.41-.08-5.86,2.07-.53,.79-1.76,1.12-2.67,1.65v-3.37c-.96,.08-2.3,.19-3.74,.31,0,.96,.15,1.7-.04,2.33-.2,.66-.6,1.51-1.15,1.77-5.64,2.68-11.22,5.45-16.16,9.35-.15,.12-.32,.22-.49,.29-3.52,1.4-3.85,3.77-3,6.87,1.73,.08,3.51,.21,5.28,.24,10.1,.19,20.2,.5,30.3,.48,7.41-.01,14.82-.63,22.23-.68,15.28-.11,30.56-.06,45.84,.03,3.01,.02,5.38-.93,7.09-3.37,3.48-4.97,6.93-9.96,10.36-14.96,.34-.5,.5-1.12,.91-2.06Z"/><path d="M522.41,479.63c-.99-1.5-2.04-2.45-3.74-2.83-1.65-.37-2.94,.55-3.02,2.22-.17,3.61,2.23,5.98,4.21,8.52,.37,.47,1.32,.48,2,.71l.33-.38c-1.3-2.43-2.59-4.85-3.89-7.28,4.06,3.03,24.62,38.18,25.27,42.61-6.27-9.54-10.8-20.03-17.93-28.96-.42,.83-.66,1.57-.7,2.31-.39,6.06-.87,12.11-1.04,18.18-.04,1.59,.8,3.25,1.45,4.79,.49,1.16,1.34,2.16,1.98,3.27,3.44,6.04,6.87,12.09,10.28,18.15,.37,.66,.57,1.41,.85,2.13-.21,.14-.42,.28-.62,.43-.44-.48-.97-.91-1.29-1.46-.45-.77-.67-1.66-1.1-2.44-3.48-6.25-6.99-12.48-10.51-18.71-.18-.33-.51-.57-.98-1.07-.25,4.11-.5,7.87-.67,11.63-.02,.53,.25,1.12,.51,1.62,1.67,3.24,3.41,6.44,5.04,9.7,.64,1.28,1.51,1.62,2.92,1.56,2.73-.12,5.48,0,8.21,.06,2.01,.05,4.01,.19,6.39,.31-5.73-11.8-13.05-22.17-18.17-33.72,1.56,2.03,2.98,4.15,4.22,6.36,4.7,8.36,9.32,16.75,14.02,25.11,.41,.72,1.13,1.76,1.75,1.79,3.47,.17,6.95,.08,10.6,.08-.26-.71-.45-1.24-.64-1.77-.17-.46-.35-.91-.53-1.37l.42-.33c1.49,3.38,3.45,5.88,7.61,4.2-.32-.48-.7-1.04-.76-1.14,.59-2.34,1.07-4.26,1.55-6.18-.21,.05-.41,.1-.62,.15-.7-.53-1.6-.93-2.07-1.62-1.11-1.62-2.02-3.38-3.01-5.09-8.47-14.59-16.96-29.17-25.4-43.79-1.72-2.98-3.19-6.11-4.87-9.13-.29-.52-1-1.14-1.53-1.15-2.01-.06-4.03,.12-6.05,.21-.11,.21-.22,.42-.34,.63,12.83,19.04,22.64,39.75,33.57,59.85-2.95-4.53-5.72-9.16-8.4-13.84-8.42-14.76-15.92-30.05-25.28-44.28Z"/><path d="M520.4,536.8c1.26-2.64,2.97-39.7,2.18-41.53-10.16,5.18-20.84,4.34-31.74,2.96,.14,2.84,.42,5.9,.39,8.94-.02,1.84,1.31,1.73,2.35,2.15,1.12,.45,1.54-.11,1.94-1.1,.58-1.42,1.96-1.49,3.1-1.04,.83,.33,2.05,1.31,2,1.92-.19,2.59-.71,5.17-1.29,7.71-.16,.68-1,1.76-1.43,1.71-.8-.09-1.61-.78-2.27-1.37-.65-.58-1.06-1.45-1.74-1.98-.32-.25-1.11-.16-1.53,.06-.34,.18-.68,.81-.65,1.21,.33,4.2,.71,8.39,1.14,12.58,.15,1.44,.5,2.86,.86,4.8,.56-.81,.73-1.07,.91-1.32,.88-1.21,1.82-2.48,3.54-2.09,1.85,.41,3.25,1.53,3.78,3.44,.81,2.91-.82,5-2.42,7.13-1.31,1.74-2.9,1.72-4.95,.78,.34,1.76,.72,3.18,.88,4.62,.34,2.92,2.12,4.45,4.81,4.96,3.98,.75,7.97,1.07,11.9-.4,.61-.23,1.4-.25,2.03-.08,1.5,.41,2.62-.12,3.63-1.13,1.54-1.53,2.07-3.19,1.9-6.19-2.61,3.57-6.25,4.66-10.3,4.75-5.64,.13-9.69-.61-11.36-2.24,.83,0,1.42,.02,2,0,1.45-.07,2.92-.03,4.33-.28,1.5-.26,2.93-.85,4.42-1.22,4.69-1.15,6.07-2.62,6.63-7.39,.4-3.45,.74-6.83,.26-10.4-.5-3.73,.33-7.63,.61-11.46,.06-.79,.26-1.56,.41-2.42,1.31,.78,2.82,3.58,2.89,4.96,.07,1.39,.13,2.79,.32,4.17,.15,1.08,.73,2.13,.72,3.18-.03,3.13-.27,6.26-.38,9.39-.03,.75,.09,1.5,.14,2.25Z"/><path d="M561.15,521.79c-9.16-14.46-18.3-28.94-27.49-43.39-.39-.61-1.21-.93-1.83-1.39l-.5,.48c.3,.66,.56,1.35,.92,1.98,2.79,4.81,5.65,9.58,8.4,14.41,6.51,11.43,12.93,22.91,19.47,34.33,1.55,2.7,3.38,5.24,5.1,7.84,.15,.23,.46,.36,.97,.74,.67-6.98-.09-13.61-.56-20.28-1.83,.4-1.84,.41-3.01-1.5-7.07-11.55-14.13-23.1-21.2-34.66-1.84-3.01-3.04-3.5-6.9-2.56,.37,.67,.6,1.17,.91,1.63,4.93,7.47,9.9,14.9,14.78,22.4,4.18,6.43,8.24,12.93,12.32,19.42,.45,.72,.65,1.59,.96,2.39-.22,.11-.43,.22-.65,.33-.57-.72-1.21-1.4-1.69-2.17Z"/><path d="M542.24,476.7c-.47,2.49,17.29,32.4,22.23,38.3,1.08-1.75,1.34-8.1,.4-9.67-4.19-7.01-8.37-14.03-12.56-21.04-.77-1.28-1.57-2.55-2.36-3.82,.65,.27,1.13,.65,1.45,1.15,3.81,5.97,7.58,11.97,11.39,17.94,.54,.85,1.23,1.61,2.12,2.76,.87-2.23,.93-3.81-.18-5.39-4.04-5.74-8.03-11.52-12.11-17.24-1.94-2.72-4.23-3.27-7.91-1.98,.7,1.17,1.32,2.33,2.05,3.41,5.62,8.39,11.27,16.77,16.88,25.18,.47,.7,.64,1.6,.96,2.4-.29,.14-.58,.28-.87,.41-7.07-10.68-14.14-21.36-21.46-32.42Z"/><path d="M506.62,486.89c.45-.34,.92-.54,.91-.69-.72-5.74-1.48-11.48-2.29-17.6-1.94-.12-3.85-.38-5.75-.32-5.36,.17-10.72,.45-16.07,.76-.55,.03-1.36,.4-1.55,.83-1.08,2.38,.94,5.35,3.55,5.4,5.05,.09,10.1,.19,15.15,.28,1.34,.02,2.1,.59,2.38,1.98,.2,1,.7,1.93,1.06,2.9l.47-.12c-.19-2.18-.38-4.36-.57-6.53l.93-.11c1.46,4.18,.94,8.74,1.8,13.23Z"/><path d="M515.73,462.76c-2.73,1.8-5.73,1.96-8.83,1.75-1.66-.12-3.31-.36-4.97-.34-7.98,.11-15.96,.27-23.95,.45-.75,.02-1.57,.19-2.21,.55-.45,.25-.86,.95-.87,1.46,0,.31,.75,.86,1.21,.91,1.26,.14,2.56,.15,3.83,.09,6.31-.33,12.62-.71,18.94-1.07l.02,.38c3.39,0,6.79-.17,10.16,.05,2.87,.19,5.24-.95,7.57-2.25,.58-.32,.76-1.4,1.12-2.12-.69,.03-1.55-.19-2.04,.14Z"/><path d="M491.51,491.16c-.81,.36-1.85,2.08-1.6,2.55,.46,.88,1.78,1.34,2.79,1.87,.27,.14,.74-.09,1.11-.16,2.87-.52,5.73-1.13,8.63-1.52,2.06-.27,4.09-.32,3.73-3.24l1.45,.29,.32-.52c-.46-.33-.91-.93-1.37-.94-3.13-.03-6.27-.1-9.37,.17-1.93,.17-3.91,.7-5.68,1.49Z"/><path d="M516.81,467.01c-3.44,.4-3.68,.6-3.97,3.76-.2,2.1-.38,4.2-.42,6.3-.07,3.22-.02,6.44-.02,9.73,1.74,.14,3.25,.27,5.41,.45-.62-1.29-.98-2.04-1.4-2.92-.52,.65-.81,1.01-1.11,1.38l-.41-.09v-11.29c.51,.21,1.06,.62,1.64,.64,.89,.04,1.89-.07,1.6-1.46-.45-2.17-.88-4.34-1.31-6.49Z"/><path d="M491.3,533.63c-.23-5.56-.45-10.82-.68-16.45-4.43,4.16-3.98,13.27,.68,16.45Z"/><path d="M567.84,549.51c-1.2,1.46-2,3.24-2.94,4.91-2.02,3.61-3.84,7.35-7.31,9.92-.65,.48-1.01,1.37-1.56,2.15,1.8,.59,2.9,.25,3.83-1.19,3.26-5.03,6.62-9.99,9.97-14.97,.66-.98,1.44-1.89,2.17-2.83l-.6-.72c-1.21,.89-2.65,1.6-3.57,2.73Z"/><path d="M552.77,477.52c4.07,5.42,8.09,10.75,12.1,16.09l.36-.02c-.14-.81-.06-1.77-.46-2.41-2.8-4.49-5.68-8.93-8.6-13.34-.78-1.18-1.94-1.27-3.4-.31Z"/><path d="M516.05,494.22c2.49,.99,4.86,.27,6.92-2.37-.94-.33-1.67-.7-2.43-.84-2.06-.39-4.13-.77-6.21-.98-.65-.07-1.73,.21-1.96,.66-.51,.99-.11,1.99,1.03,2.47,.88,.37,1.77,.7,2.66,1.06Z"/><path d="M485.68,527.18c-1.04-5.37,1.61-9.47,4.63-13.45-6.63,1.15-8.98,8.04-4.63,13.45Z"/><path d="M525.66,544.81c1.92-.07,2.33-.57,1.49-2.36-1.09-2.34-2.41-4.58-3.63-6.87l-.66,.03c-.2,1.93-.46,3.86-.59,5.8-.25,3.53-.22,3.53,3.39,3.4Z"/><path d="M556.97,476.07c-.09,.21-.19,.42-.28,.62,2.29,3.28,4.58,6.56,7.13,10.23,.16-.85,.29-1.2,.28-1.55-.14-3.62-2.22-6.32-4.46-8.84-.47-.53-1.76-.32-2.67-.46Z"/><path d="M528.81,370.41c.02,.25,.04,.5,.05,.76,8.94-.25,17.87-.58,26.73-1.91-.02-.29-.04-.57-.05-.86-4.38,.42-8.75,.9-13.14,1.23-4.52,.34-9.06,.52-13.59,.78Z"/><path d="M501.38,487.09c.39-2.18-2.42-8.02-4.29-8.65-.2,2.09,2.75,7.92,4.29,8.65Z"/><path d="M499.31,478.42c1.78,3.04,3.39,5.8,5,8.55,.82-2.63-2.59-8.27-5-8.55Z"/><path d="M565.53,473.76c-1.2,.45-2.15,.62-2.87,1.13-.5,.35-1.09,1.32-.93,1.72,.62,1.47,1.53,2.82,2.42,4.35,1.85-2.48-1.08-3.55-1.07-5.46,1.47,.81,2.15,.26,2.45-1.73Z"/><path d="M564.5,363.58c2.81-2.85,6.35-5.08,7.96-8.97l-.44-.38c-2.64,3-5.28,6-7.93,8.99l.41,.35Z"/><path d="M498.66,538.6c1.89-1.19,2.09-2.81,1.6-4.36-.26-.83-1.2-1.68-2.04-2.01-.52-.2-1.42,.56-2.15,.88,.41,.5,.7,.62,.87,.53,1.81-.97,1.94,.17,1.89,1.5-.03,1.08-.11,2.16-.18,3.45Z"/><path d="M460.44,503.53v10.29h.52v-10.3h-.52Z"/><path d="M556.88,568.95c-.41-.12-1.06,.55-1.6,.87,.6,.73,1.2,1.47,1.8,2.2,.4-.38,.81-.77,1.49-1.41-.69-.72-1.1-1.48-1.69-1.66Z"/><path d="M498.46,511.88c-3.09,1.41-3.24,2.07-.91,3.76,.3-1.25,.57-2.34,.91-3.76Z"/><path d="M559.96,368.18c1.11-1.07,2.22-2.14,3.33-3.21l-.39-.38c-1.13,1.05-2.26,2.09-3.39,3.14,.15,.15,.3,.3,.45,.44Z"/><path class="cls-3" d="M571.8,359.09c.22,3.5,.36,6.55,.62,9.6,.68,8.02,1.67,16.02,2.07,24.05,.5,10.28,.57,20.59,.78,30.89,.17,8.83,.05,17.67,.46,26.48,.33,7.11-2.86,12.46-7.19,17.55-2.05,2.41-4.61,3.37-7.56,3.78-2.78,.38-5.55,1.05-8.34,1.09-9.59,.14-19.18,.05-28.78,.05-.31,0-.62-.03-1.13-.06,0-3.23,.03-6.41-.02-9.58-.02-1.21-.13-2.43-.34-3.62-.55-3.08-1.98-4.65-5.13-4.71-7.4-.14-14.81-.14-22.21,.11-5.42,.18-10.84,.76-16.24,1.33-3.99,.42-5.42,1.74-6.01,5.7-.41,2.7-.37,5.48-.48,8.22-.06,1.39,0,2.79,0,4.26-.54,.09-.84,.18-1.14,.18-7.29-.07-14.58-.09-21.87-.25-3.74-.08-6.68-2.34-7.56-5.94-.54-2.2-.59-4.53-.73-6.8-.19-3-.4-6-.38-9,.08-11.13,.5-22.27,.32-33.4-.18-11.18-.91-22.36-1.43-33.54-.19-4.08-.46-8.16,.7-12.19,14.8,0,29.55,.07,44.29-.02,13.17-.08,26.35-.19,39.52-.56,10.86-.3,21.71-.95,32.55-1.6,1.4-.08,2.99-.81,4.08-1.73,2.88-2.43,5.52-5.14,8.27-7.73,.83-.78,1.7-1.51,2.86-2.55Zm-93.95,85.19l.03,.31c7.32-.52,14.64-1.12,21.96-1.54,8.36-.47,16.73-.76,25.09-1.17,5.71-.28,9.77-4.17,10.17-9.87,.13-1.9,.05-3.85-.23-5.73-.8-5.31-7.36-10.68-12.74-10.47-3.7,.15-7.4,.46-11.1,.7-11.54,.75-23.07,1.54-34.62,2.22-3.03,.18-6.09-.05-9.13,.02-2.65,.06-5.14,1.15-6.26,3.46-2.94,6.06-2.96,13.38,1.35,19.28,1.37,1.87,3.12,3,5.69,2.84,3.25-.21,6.52-.05,9.78-.05Zm89.39-54.04c0-3.31,.02-6.31-.01-9.31-.01-1.18-.44-2.18-1.8-2.32-1.43-.15-2.36,.65-2.68,1.95-.24,.97-.25,2.03-.21,3.04,.11,2.49,.4,4.97,.46,7.46,.18,8.7,.3,17.39,.44,26.09,.2,11.83,.43,23.66,.58,35.49,.02,1.77,1.03,2.79,2.44,2.89,1.62,.11,1.91-1.44,1.91-2.77,.03-5.49,.1-10.98-.01-16.46-.33-15.46-.75-30.91-1.12-46.06Zm-59.44,3.13c-.02-4.9-.91-6.73-4.57-9.99-3.13-2.79-6.9-3.05-10.79-3-6.87,.09-9.96,2.18-12.36,8.61-1.81,4.86-1.67,9.8,1.69,13.78,3.43,4.07,8.06,6.37,13.66,4.89,7.33-1.94,12.67-6.24,12.37-14.29Z"/><path class="cls-3" d="M445.44,366.14c.78-.78,1.56-1.55,2.34-2.33,3.73-3.68,7.41-7.41,11.24-10.99,.86-.8,2.22-1.42,3.39-1.5,21.87-1.51,43.73-3.13,65.61-4.28,11.22-.59,22.48-.36,33.72-.37,2.07,0,4.18,.5,6.22,1,1.86,.45,2.4,1.95,1.1,3.27-4.26,4.32-8.6,8.57-13.04,12.7-.79,.73-2.21,1.03-3.36,1.07-11.37,.42-22.74,.87-34.11,1.08-18.66,.35-37.31,.57-55.97,.76-4.64,.05-9.29-.22-13.94-.26-.94,0-1.89,.32-2.83,.49l-.36-.66Z"/><path class="cls-3" d="M493.06,544.43c-1.88,0-3.59-.01-5.31,0-6.57,.06-13.15,.09-19.72,.22-3.71,.07-3.86,.05-4.01-3.73-.15-3.77-.25-7.54-.35-11.31-.18-7.1-.97-14.25-.34-21.27,.74-8.18-1.04-16.2-.46-24.3,.1-1.46,.18-2.92,.27-4.51,.77-.1,1.45-.22,2.13-.26,6.69-.4,13.39-.79,20.08-1.17,.57-.03,1.15-.03,1.73-.04,7.82-.15,9.13,.79,11.53,8.33,.11,.35,.19,.72,.29,1.11-2.42,.57-4.79,1.01-7.08,1.7-3.46,1.06-4.17,2.88-3.52,6.4,.71,3.81,1.06,7.7,1.29,11.57,.05,.87-.84,2.14-1.65,2.64-2.68,1.66-4.44,3.78-5.4,6.87-1.43,4.59-1.71,9.24-.81,13.83,.84,4.28,3.59,7.38,7.85,8.89,2.95,1.04,3.4,1.69,3.48,5.04Z"/><path class="cls-3" d="M564.82,547.05c-.41,.94-.57,1.56-.91,2.06-3.43,5-6.88,9.99-10.36,14.96-1.71,2.44-4.08,3.39-7.09,3.37-15.28-.09-30.56-.14-45.84-.03-7.41,.05-14.82,.66-22.23,.68-10.1,.02-20.2-.29-30.3-.48-1.78-.03-3.55-.16-5.28-.24-.86-3.1-.52-5.47,3-6.87,.18-.07,.35-.17,.49-.29,4.93-3.9,10.52-6.67,16.16-9.35,.55-.26,.95-1.11,1.15-1.77,.19-.63,.04-1.37,.04-2.33,1.44-.12,2.78-.23,3.74-.31v3.37c.91-.54,2.14-.86,2.67-1.65,1.45-2.15,3.36-2.45,5.86-2.07-.64,.95-1.27,1.73-1.72,2.61-.2,.38-.21,1.09,.03,1.4,.24,.31,.91,.47,1.35,.42,2.3-.26,3.88-2.38,3.45-5.01,2.05,.18,3.99,.35,6.23,.55-1.02,1.53-2.51,2.73-.13,3.89,2.21-.79,3.04-4.86,6.56-3.04,.03,.07,.14,.21,.11,.3q-.99,2.63,1.94,2.94c.37,.04,.79,.12,1.08,.33,3.64,2.55,7.86,2.83,12.08,3.11,.44,.03,.89,.09,1.33,.17,.18,.03,.34,.16,.63,.31-.71,1.05-1.55,2.01-2.05,3.12-.28,.63,.02,1.51,.06,2.27,1.08-.08,2.66,.25,3.13-.32,1.16-1.43,1.77-3.3,2.69-4.95,.26-.47,.79-1,1.27-1.1,2.18-.43,4.38-.75,6.59-1.05,1.74-.24,3.88-2.73,4.21-5.48,4.62-.32,9.36-.88,14.1-.91,5.36-.04,10.72,.35,16.08,.65,1.23,.07,2.43,.58,3.66,.78,1.16,.19,2.35,.29,3.53,.31,.78,.01,1.56-.19,2.71-.34Zm-36.41,12.23c0-.94,.31-2.26-.06-2.5-.95-.61-2.45-1.29-3.3-.94-2.08,.87-3.32,3.81-2.43,4.97,.26,.35,1.07,.39,1.63,.38,1.97-.04,3.94-.3,5.91-.25,6.82,.18,13.63,.48,20.45,.68,.66,.02,1.33-.3,2.54-.59-3.95-1.95,.09-3.43-.42-5.08-2.91-1.59-4.16-1.37-5.65,1.65-.98,2-2.26,2.02-4.26,1.59l1.91-3.29c-2.92-1.2-3.57-1.09-5.44,.89-.57,.6-.98,1.38-1.61,1.88-.48,.38-1.2,.44-1.82,.64,.5-1.95,1.98-3.42-.38-4.73-2.23,.77-3.89,2.07-4.01,4.7h-3.05Zm-59.09-.48c-3.57,0-7-.02-10.42,0-3.31,.03-6.63,.06-9.93,.24-.52,.03-1,.89-1.49,1.37,.48,.37,.91,.92,1.45,1.08,.71,.21,1.52,.18,2.28,.15,8.68-.28,17.36-.56,26.04-.9,2.42-.09,4.83-.37,7.24-.56v-.64l-12.93-.62,3.74-3.58-.1-.62c-1.05-.24-2.31-.96-3.11-.61-1.87,.81-3.16,2.34-2.77,4.67Zm57.62-5.69c2.64-.09,5.9-2.22,6.51-4.39,.17-.59-.28-1.95-.51-1.96-2.07-.14-3.85,.62-5.3,2.14-1.23,1.28-1.17,2.7-.7,4.21Zm-66.74,3.48l.36,.9c1.67,0,3.53,.46,4.94-.14,1.17-.5,2.02-2.16,2.6-3.48,.39-.9-1.62-2.38-2.46-1.78-1.91,1.37-3.64,2.99-5.44,4.51Zm79.12-9.79c-1.29-.11-4.76,3.43-4.64,4.75,.02,.17,.12,.36,.24,.5,.59,.71,2.96,.89,3.63,.2,.8-.81,1.58-1.68,2.21-2.62,1.04-1.55,.43-2.67-1.44-2.83Zm-54.62,11.28c2.86,.41,4.85-.24,6.3-2.01,.58-.71,.63-1.85,.92-2.79-1.34-.05-3.12-.67-3.92-.04-1.34,1.06-2.05,2.91-3.29,4.84Zm-5.33,.86c1.39-1.41,2.77-2.72,4.06-4.12,.86-.94,.41-1.89-.55-2.31-.56-.25-1.51-.11-2.07,.23-.85,.51-1.55,1.31-2.25,2.04-1.46,1.55-1.39,2.17,.81,4.16Zm73.96-4.76c1.12-1.18,2.32-2.23,3.23-3.5,.38-.54,.14-1.52,.19-2.31-.99-.03-2.19-.42-2.93,0-.99,.55-1.72,1.67-2.37,2.67-.33,.5-.52,1.41-.28,1.89,.25,.49,1.1,.68,2.16,1.26Zm-10.51-1.87c2.79,.37,5.37-.9,6.52-3.2,.45-.9,.26-1.41-.79-1.62-3.16-.61-5.64,1.45-5.73,4.82Zm-23.07,3.81c-.12-.26-.25-1.04-.68-1.29-.36-.21-1.11,.14-1.63,.37-.75,.33-1.4,.89-2.16,1.17-1.35,.5-1.28,1.63-.9,2.48,.31,.7,1.19,1.48,1.93,1.61,1.61,.27,3.43-1.99,3.45-4.34Zm-18.45,4c1.23-1.03,2.57-1.94,3.63-3.11,.93-1.03,.39-1.82-.9-2.18-2.21-.61-3.27,.88-4.29,2.35-.32,.46-.69,1.29-.49,1.62,.3,.51,1.08,.73,2.06,1.31Zm-8.82-1.89c2.69,1.38,2.73,1.41,4.46-.96,.72-.99,1.98-1.86,1.46-3.43-4.06,.4-5.16,1.21-5.92,4.39Z"/><path class="cls-4" d="M522.85,477.28c2.02-.09,4.04-.26,6.05-.21,.53,.01,1.24,.63,1.53,1.15,1.67,3.02,3.14,6.14,4.87,9.13,8.43,14.61,16.93,29.2,25.4,43.79,.99,1.71,1.9,3.47,3.01,5.09,.47,.69,1.37,1.09,2.07,1.62l.62-.15c-.48,1.92-.96,3.84-1.55,6.18l.76,1.14c-4.16,1.69-6.12-.81-7.61-4.2l-.42,.33c.18,.46,.36,.91,.53,1.37,.2,.53,.38,1.06,.64,1.77-3.65,0-7.13,.09-10.6-.08-.62-.03-1.35-1.07-1.75-1.79-4.7-8.35-9.33-16.75-14.02-25.11-1.24-2.21-2.66-4.33-4.22-6.36,5.12,11.55,12.45,21.92,18.17,33.72-2.38-.12-4.38-.26-6.39-.31-2.74-.07-5.48-.18-8.21-.06-1.41,.06-2.27-.28-2.92-1.56-1.63-3.25-3.37-6.46-5.04-9.7-.26-.5-.53-1.09-.51-1.62,.17-3.76,.42-7.52,.67-11.63,.47,.5,.8,.75,.98,1.07,3.52,6.23,7.02,12.46,10.51,18.71,.43,.78,.66,1.67,1.1,2.44,.32,.55,.85,.98,1.29,1.46l.62-.43c-.28-.71-.47-1.47-.84-2.13-3.41-6.06-6.84-12.11-10.28-18.15-.63-1.11-1.49-2.11-1.98-3.27-.65-1.54-1.49-3.2-1.45-4.79,.17-6.06,.64-12.12,1.04-18.18,.05-.74,.28-1.48,.7-2.31,7.13,8.93,11.66,19.42,17.93,28.96-.65-4.43-21.21-39.58-25.27-42.61l3.89,7.28-.33,.38c-.68-.22-1.63-.24-2-.71-1.98-2.54-4.38-4.9-4.21-8.52,.08-1.67,1.37-2.58,3.02-2.22,1.7,.38,2.75,1.33,3.74,2.83,9.36,14.23,16.85,29.52,25.28,44.28,2.67,4.68,5.44,9.31,8.4,13.84-10.93-20.09-20.74-40.8-33.57-59.85l.34-.63Zm37.95,63.54l.84-.41c-.43-.95-.79-1.94-1.29-2.86-5.11-9.43-10.18-18.88-15.38-28.26-4.7-8.49-9.55-16.89-14.36-25.32-.4-.7-1.02-1.29-1.54-1.93l-.44,.33c10.72,19.48,21.45,38.96,32.17,58.44Zm-33.04-37.96l-.55,.39c6.08,9.85,12.16,19.7,18.24,29.55-4.96-10.55-11.03-20.43-17.69-29.94Zm-1.08,12.32l-.71,.42c5.26,9.01,10.51,18.02,15.77,27.03l.73-.42c-4.89-9.22-10.27-18.16-15.78-27.02Zm5.73,27.79l.79-.3c-.17-.76-.15-1.64-.55-2.26-1.56-2.46-3.26-4.83-4.9-7.24-.68-1.01-1.34-2.03-2.01-3.05l-.65,.41c2.47,4.13,3.86,8.89,7.31,12.45Z"/><path class="cls-3" d="M490.84,498.23c10.91,1.38,21.59,2.22,31.74-2.96,.78,1.83-.92,38.89-2.18,41.53-.05-.75-.17-1.5-.14-2.25,.12-3.13,.36-6.26,.38-9.39,0-1.06-.57-2.11-.72-3.18-.19-1.38-.25-2.77-.32-4.17-.07-1.37-1.59-4.18-2.89-4.96-.15,.86-.35,1.64-.41,2.42-.28,3.83-1.11,7.73-.61,11.46,.48,3.57,.14,6.95-.26,10.4-.56,4.77-1.94,6.25-6.63,7.39-1.48,.36-2.92,.95-4.42,1.22-1.42,.25-2.89,.21-4.33,.28-.58,.03-1.17,0-2,0,1.67,1.63,5.72,2.37,11.36,2.24,4.05-.09,7.69-1.18,10.3-4.75,.17,3.01-.36,4.67-1.9,6.19-1.01,1.01-2.13,1.54-3.63,1.13-.63-.17-1.43-.15-2.03,.08-3.93,1.48-7.93,1.15-11.9,.4-2.68-.51-4.47-2.03-4.81-4.96-.17-1.44-.54-2.86-.88-4.62,2.05,.94,3.64,.96,4.95-.78,1.61-2.13,3.23-4.22,2.42-7.13-.53-1.91-1.93-3.03-3.78-3.44-1.72-.38-2.66,.88-3.54,2.09-.18,.25-.35,.51-.91,1.32-.35-1.94-.71-3.36-.86-4.8-.44-4.19-.81-8.38-1.14-12.58-.03-.4,.3-1.03,.65-1.21,.42-.22,1.21-.31,1.53-.06,.68,.53,1.09,1.41,1.74,1.98,.67,.59,1.47,1.28,2.27,1.37,.43,.05,1.27-1.03,1.43-1.71,.58-2.54,1.1-5.12,1.29-7.71,.05-.61-1.17-1.59-2-1.92-1.14-.45-2.52-.38-3.1,1.04-.4,.99-.83,1.56-1.94,1.1-1.04-.42-2.37-.31-2.35-2.15,.03-3.05-.25-6.1-.39-8.94Z"/><path class="cls-4" d="M534.52,477.78c3.86-.93,5.06-.44,6.9,2.56,7.06,11.55,14.13,23.11,21.2,34.66,1.17,1.91,1.18,1.91,3.01,1.5,.47,6.67,1.23,13.3,.56,20.28-.51-.39-.82-.51-.97-.74-1.72-2.6-3.55-5.14-5.1-7.84-6.53-11.42-12.96-22.89-19.47-34.33-2.75-4.83-5.61-9.6-8.4-14.41-.36-.63-.62-1.32-.92-1.98l.5-.48c.62,.46,1.45,.78,1.83,1.39,9.19,14.45,18.33,28.93,27.49,43.39,.49,.77,1.13,1.45,1.69,2.17l.65-.33c-.32-.8-.51-1.67-.96-2.39-4.08-6.49-8.15-12.99-12.32-19.42-4.87-7.5-9.85-14.93-14.78-22.4-.3-.46-.54-.97-.91-1.63Z"/><path class="cls-4" d="M542.24,476.7c7.32,11.06,14.39,21.74,21.46,32.42l.87-.41c-.31-.8-.49-1.7-.96-2.4-5.6-8.41-11.26-16.78-16.88-25.18-.73-1.08-1.35-2.24-2.05-3.41,3.68-1.29,5.97-.74,7.91,1.98,4.08,5.71,8.07,11.5,12.11,17.24,1.11,1.57,1.05,3.15,.18,5.39-.88-1.14-1.57-1.9-2.12-2.76-3.81-5.97-7.58-11.97-11.39-17.94-.32-.5-.8-.89-1.45-1.15,.79,1.27,1.6,2.53,2.36,3.82,4.19,7.01,8.38,14.03,12.56,21.04,.93,1.56,.68,7.92-.4,9.67-4.94-5.89-22.7-35.8-22.23-38.3Z"/><path class="cls-4" d="M505.23,468.6c.81,6.12,1.57,11.86,2.29,17.6,.02,.15-.45,.36-.91,.69-.86-4.5-.34-9.05-1.8-13.23l-.93,.11c.19,2.18,.38,4.36,.57,6.53l-.47,.12c-.36-.96-.86-1.9-1.06-2.9-.28-1.38-1.03-1.96-2.38-1.98-5.05-.08-10.1-.19-15.15-.28-2.61-.05-4.62-3.02-3.55-5.4,.2-.43,1-.8,1.55-.83,5.35-.31,10.71-.59,16.07-.76,1.9-.06,3.81,.2,5.75,.32Z"/><path class="cls-4" d="M498.89,466.56c-6.31,.36-12.62,.74-18.94,1.07-1.27,.07-2.57,.06-3.83-.09-.46-.05-1.22-.6-1.21-.91,.01-.51,.42-1.2,.87-1.46,.64-.36,1.46-.53,2.21-.55,7.98-.19,15.96-.35,23.94-.45,1.65-.02,3.31,.22,4.97,.34,3.1,.22,6.1,.05,8.83-1.75,.49-.33,1.35-.11,2.04-.14-.36,.73-.53,1.8-1.12,2.12-2.33,1.29-4.7,2.43-7.57,2.25-3.38-.22-6.78-.05-10.16-.05l-.02-.38Z"/><path class="cls-4" d="M507.62,490.96l-1.45-.29c.36,2.92-1.67,2.97-3.73,3.24-2.89,.38-5.75,1-8.63,1.52-.38,.07-.84,.3-1.11,.16-1.01-.53-2.33-1-2.79-1.87-.25-.48,.79-2.19,1.6-2.55,1.77-.79,3.75-1.32,5.68-1.49,3.11-.27,6.25-.2,9.37-.17,.46,0,.92,.61,1.37,.94l-.32,.52Z"/><path class="cls-4" d="M517.81,487.25c-2.16-.18-3.67-.3-5.41-.45,0-3.29-.05-6.51,.02-9.73,.05-2.1,.22-4.21,.42-6.3,.3-3.16,.53-3.36,3.97-3.76,.43,2.15,.86,4.33,1.31,6.49,.29,1.4-.7,1.5-1.6,1.46-.58-.03-1.13-.43-1.64-.64v11.29l.41,.09,1.11-1.38c.42,.88,.78,1.63,1.4,2.92Z"/><path class="cls-4" d="M491.3,533.63c-4.66-3.19-5.11-12.29-.68-16.45,.23,5.63,.45,10.9,.68,16.45Z"/><path class="cls-4" d="M572.01,547.5c-.73,.94-1.51,1.84-2.17,2.83-3.35,4.97-6.71,9.94-9.97,14.97-.94,1.45-2.03,1.78-3.83,1.19,.55-.78,.91-1.67,1.56-2.15,3.47-2.57,5.29-6.3,7.31-9.92,.93-1.67,1.74-3.45,2.94-4.91,.92-1.13,2.36-1.83,3.57-2.73l.6,.72Z"/><path class="cls-4" d="M564.87,493.61c-4.01-5.34-8.03-10.68-12.1-16.09,1.46-.96,2.61-.87,3.4,.31,2.93,4.41,5.8,8.85,8.6,13.34,.4,.65,.32,1.6,.46,2.41l-.36,.02Z"/><path class="cls-4" d="M522.97,491.86c-2.06,2.64-4.42,3.35-6.92,2.37-.89-.35-1.78-.68-2.66-1.06-1.14-.48-1.55-1.48-1.03-2.47,.23-.45,1.31-.73,1.96-.66,2.08,.21,4.15,.59,6.21,.98,.77,.15,1.49,.51,2.43,.84Z"/><path class="cls-4" d="M485.68,527.18c-4.35-5.41-2-12.3,4.63-13.45-3.02,3.98-5.67,8.08-4.63,13.45Z"/><path class="cls-4" d="M523.52,535.57c1.22,2.28,2.53,4.53,3.63,6.87,.84,1.79,.43,2.3-1.49,2.36-3.61,.13-3.64,.12-3.39-3.4,.13-1.94,.39-3.87,.59-5.8l.66-.03Z"/><path class="cls-4" d="M556.97,476.07c.91,.13,2.2-.07,2.67,.46,2.24,2.53,4.32,5.23,4.46,8.84,.01,.34-.12,.69-.28,1.55-2.55-3.66-4.84-6.94-7.13-10.23l.28-.62Z"/><path class="cls-4" d="M555.59,369.26c-8.86,1.32-17.79,1.65-26.73,1.91l-.05-.76c4.53-.25,9.07-.44,13.59-.78,4.39-.33,8.76-.81,13.14-1.23l.05,.86Z"/><path class="cls-4" d="M497.09,478.43c1.87,.63,4.68,6.47,4.29,8.65-1.54-.74-4.49-6.56-4.29-8.65Z"/><path class="cls-4" d="M499.31,478.42c2.41,.28,5.82,5.92,5,8.55-1.61-2.75-3.22-5.51-5-8.55Z"/><path class="cls-4" d="M565.53,473.76c-.3,1.99-.98,2.54-2.45,1.73,0,1.91,2.92,2.98,1.07,5.46-.88-1.53-1.8-2.88-2.42-4.35-.17-.39,.43-1.37,.93-1.72,.72-.5,1.67-.68,2.87-1.13Z"/><path class="cls-4" d="M564.09,363.23c2.64-3,5.28-6,7.93-8.99l.44,.38c-1.61,3.89-5.15,6.11-7.96,8.97l-.41-.35Z"/><path class="cls-4" d="M498.66,538.6c.07-1.29,.15-2.37,.18-3.45,.04-1.32-.08-2.47-1.89-1.5-.17,.09-.46-.03-.87-.53,.73-.33,1.62-1.09,2.15-.88,.84,.33,1.78,1.18,2.04,2.01,.49,1.55,.29,3.17-1.6,4.36Z"/><path class="cls-4" d="M460.97,503.53v10.29h-.52v-10.29h.52Z"/><path class="cls-4" d="M558.57,570.61c-.68,.65-1.09,1.03-1.49,1.41l-1.8-2.2c.54-.32,1.19-1,1.6-.87,.59,.18,1,.94,1.69,1.66Z"/><path class="cls-4" d="M497.55,515.63c-2.33-1.68-2.18-2.35,.91-3.76l-.91,3.76Z"/><path class="cls-4" d="M563.29,364.97c-1.11,1.07-2.22,2.14-3.33,3.21l-.45-.44,3.39-3.14,.39,.38Z"/><path d="M477.86,444.28c-3.26,0-6.53-.16-9.78,.05-2.57,.17-4.33-.97-5.69-2.84-4.31-5.9-4.3-13.22-1.35-19.28,1.12-2.3,3.61-3.39,6.26-3.46,3.04-.07,6.09,.16,9.13-.02,11.54-.68,23.08-1.47,34.62-2.22,3.7-.24,7.39-.55,11.1-.7,5.38-.21,11.94,5.16,12.74,10.47,.28,1.88,.36,3.83,.23,5.73-.4,5.69-4.46,9.59-10.17,9.87-8.36,.41-16.73,.7-25.09,1.17-7.33,.42-14.64,1.02-21.96,1.54l-.03-.31Zm8.18-24.07c-.81-.08-1.35-.2-1.88-.16-6.12,.44-12.23,.93-18.35,1.36-2.16,.15-3.46,1.42-4.01,3.31-.57,1.95-.92,3.99-1.09,6.01-.4,4.81,3.43,9.17,8.28,9.54,4.65,.35,9.29,.71,13.95,.88,14.14,.53,28.25-.19,42.33-1.31,1.48-.12,3.43-1.11,4.16-2.31,1.42-2.33,2.65-5.03,3.02-7.7,.55-3.94-1.23-7.18-4.74-9.36-2.81-1.74-5.85-2.03-9.03-1.84-7.27,.45-14.55,.85-21.82,1.26-.95,.05-1.9,0-2.86,0v.54c1.14,.07,2.26,.17,3.39,.22,2.23,.11,4.49,.03,6.69,.37,.85,.13,1.99,1.05,2.26,1.85,1.19,3.48-.9,6.62-4.56,6.68-5.56,.1-11.12-.1-16.68-.2-1.02-.02-2.04-.13-3.06-.25-1.59-.2-2.48-1-2.61-2.73-.14-1.78,.32-3.21,1.89-4.07,1.38-.75,2.86-1.29,4.71-2.11Zm6.79,7.88c2.31,0,5.06,.1,7.8-.05,1.09-.06,2.25-.47,3.19-1.03,1.29-.78,1.73-2.28,1.06-3.51-.38-.71-1.72-1.17-2.66-1.24-2.35-.17-4.72,.01-7.08-.07-4.07-.13-8.12-.42-12.01,1.28-1.24,.54-2.17,1.23-2.13,2.6,.04,1.5,1.34,1.51,2.41,1.58,2.99,.18,5.99,.29,9.42,.44Z"/><path d="M567.25,390.23c.37,15.15,.79,30.6,1.12,46.06,.12,5.48,.04,10.97,.01,16.46,0,1.33-.3,2.88-1.91,2.77-1.41-.1-2.41-1.12-2.44-2.89-.15-11.83-.38-23.66-.58-35.49-.15-8.7-.26-17.39-.44-26.09-.05-2.49-.35-4.97-.46-7.46-.04-1.01-.03-2.07,.21-3.04,.32-1.3,1.25-2.1,2.68-1.95,1.35,.14,1.78,1.14,1.8,2.32,.03,3,.01,5.99,.01,9.31Zm-2.34,19.58c1.66-1.67,1.57-4.49,0-5.43v5.43Zm.02-13.04v6.15c1.35-1.32,1.32-4.03,0-6.15Zm.8,15.13l-.48-.03v5.23l.81-.03-.33-5.18Zm-.05,21.43l.68-5.88-.62-.06c-1.27,1.85-.3,3.93-.06,5.94Zm-1.1-37.9c1.54-1.83,1.51-2.82,0-3.69v3.69Z"/><path d="M507.81,393.36c.3,8.05-5.03,12.35-12.37,14.29-5.6,1.48-10.22-.82-13.66-4.89-3.37-3.99-3.5-8.92-1.69-13.78,2.39-6.43,5.48-8.52,12.36-8.61,3.89-.05,7.66,.21,10.79,3,3.66,3.26,4.56,5.09,4.57,9.99Zm-13.81-11.47c-3.88,.07-7.22-.02-9.16,2.56-2.79,3.71-5.15,7.7-3.99,12.87,1.13,4.99,7.21,10.02,12.25,9.03,3.11-.61,6.23-1.96,8.92-3.65,3.58-2.25,4.64-6.07,4.57-10.19-.08-4.74-3.49-9.06-8.11-10.06-1.74-.38-3.54-.45-4.48-.56Z"/><path d="M528.41,559.28h3.05c.13-2.63,1.79-3.93,4.01-4.7,2.36,1.31,.88,2.78,.38,4.73,.61-.2,1.34-.26,1.82-.64,.64-.5,1.05-1.28,1.61-1.88,1.87-1.98,2.52-2.09,5.44-.89l-1.91,3.29c2,.43,3.28,.41,4.26-1.59,1.49-3.03,2.74-3.25,5.65-1.65,.51,1.64-3.53,3.12,.42,5.08-1.2,.29-1.87,.61-2.54,.59-6.82-.2-13.63-.5-20.45-.68-1.97-.05-3.94,.2-5.91,.25-.56,.01-1.36-.03-1.63-.38-.89-1.16,.35-4.1,2.43-4.97,.85-.36,2.35,.33,3.3,.94,.37,.24,.06,1.56,.06,2.5Z"/><path d="M469.32,558.79c-.39-2.33,.9-3.86,2.77-4.67,.8-.35,2.06,.38,3.11,.61l.1,.62-3.74,3.58,12.93,.62v.64c-2.41,.19-4.82,.47-7.24,.56-8.68,.33-17.36,.61-26.04,.9-.76,.02-1.57,.06-2.28-.15-.54-.16-.97-.7-1.45-1.08,.5-.48,.97-1.34,1.49-1.37,3.3-.19,6.62-.21,9.93-.24,3.42-.03,6.85,0,10.42,0Z"/><path d="M526.94,553.1c-.47-1.51-.53-2.93,.7-4.21,1.46-1.52,3.24-2.28,5.3-2.14,.23,.02,.67,1.37,.51,1.96-.61,2.17-3.87,4.3-6.51,4.39Z"/><path d="M460.2,556.58c1.8-1.52,3.53-3.14,5.44-4.51,.84-.6,2.85,.88,2.46,1.78-.58,1.32-1.43,2.98-2.6,3.48-1.41,.6-3.27,.14-4.94,.14l-.36-.9Z"/><path d="M539.32,546.79c1.87,.16,2.48,1.28,1.44,2.83-.63,.94-1.41,1.81-2.21,2.62-.68,.69-3.05,.51-3.63-.2-.12-.14-.22-.33-.24-.5-.12-1.32,3.35-4.85,4.64-4.75Z"/><path d="M484.7,558.06c1.24-1.93,1.95-3.78,3.29-4.84,.8-.63,2.58-.02,3.92,.04-.29,.94-.34,2.08-.92,2.79-1.45,1.78-3.44,2.42-6.3,2.01Z"/><path d="M479.37,558.93c-2.2-1.99-2.28-2.61-.81-4.16,.7-.74,1.4-1.53,2.25-2.04,.56-.33,1.51-.48,2.07-.23,.96,.42,1.41,1.37,.55,2.31-1.28,1.4-2.66,2.72-4.06,4.12Z"/><path d="M553.33,554.17c-1.06-.58-1.9-.77-2.16-1.26-.24-.47-.05-1.38,.28-1.89,.66-1,1.38-2.12,2.37-2.67,.74-.42,1.93-.02,2.93,0-.04,.78,.2,1.77-.19,2.31-.91,1.27-2.11,2.33-3.23,3.5Z"/><path d="M542.81,552.3c.09-3.37,2.57-5.43,5.73-4.82,1.05,.2,1.24,.72,.79,1.62-1.15,2.3-3.73,3.57-6.52,3.2Z"/><path d="M519.74,556.12c-.02,2.35-1.84,4.62-3.45,4.34-.73-.13-1.62-.9-1.93-1.61-.38-.86-.45-1.99,.9-2.48,.76-.28,1.42-.84,2.16-1.17,.52-.23,1.27-.58,1.63-.37,.43,.25,.56,1.03,.68,1.29Z"/><path d="M501.29,560.11c-.98-.58-1.76-.8-2.06-1.31-.2-.33,.17-1.16,.49-1.62,1.03-1.47,2.09-2.96,4.29-2.35,1.29,.36,1.83,1.15,.9,2.18-1.06,1.17-2.4,2.07-3.63,3.11Z"/><path d="M492.46,558.23c.77-3.17,1.87-3.98,5.92-4.39,.52,1.57-.74,2.44-1.46,3.43-1.73,2.37-1.78,2.34-4.46,.96Z"/><path d="M560.79,540.82c-10.72-19.48-21.45-38.96-32.17-58.44l.44-.33c.52,.64,1.14,1.22,1.54,1.93,4.81,8.43,9.65,16.83,14.36,25.32,5.2,9.38,10.27,18.83,15.38,28.26,.5,.92,.86,1.9,1.29,2.86l-.84,.41Z"/><path d="M527.75,502.86c6.66,9.52,12.73,19.39,17.69,29.94-6.08-9.85-12.16-19.7-18.24-29.55l.55-.39Z"/><path d="M526.67,515.18c5.51,8.86,10.89,17.8,15.78,27.02l-.73,.42c-5.26-9.01-10.51-18.02-15.77-27.03l.71-.42Z"/><path d="M532.4,542.97c-3.45-3.56-4.85-8.32-7.31-12.45l.65-.41c.67,1.02,1.32,2.04,2.01,3.05,1.64,2.41,3.33,4.78,4.9,7.24,.39,.62,.38,1.5,.55,2.26l-.79,.3Z"/><path class="cls-4" d="M486.04,420.2c-1.85,.82-3.33,1.36-4.71,2.11-1.58,.85-2.03,2.28-1.89,4.07,.13,1.73,1.02,2.53,2.61,2.73,1.01,.12,2.04,.24,3.06,.25,5.56,.1,11.12,.29,16.68,.2,3.66-.06,5.76-3.2,4.56-6.68-.28-.81-1.41-1.72-2.26-1.85-2.2-.34-4.46-.26-6.69-.37-1.13-.05-2.25-.15-3.38-.22v-.54c.94,0,1.89,.05,2.84,0,7.27-.41,14.55-.82,21.82-1.26,3.19-.2,6.23,.09,9.03,1.84,3.51,2.18,5.29,5.42,4.74,9.36-.37,2.68-1.6,5.37-3.02,7.7-.73,1.2-2.68,2.19-4.16,2.31-14.09,1.12-28.2,1.84-42.33,1.31-4.65-.17-9.3-.53-13.95-.88-4.85-.36-8.68-4.73-8.28-9.54,.17-2.02,.52-4.07,1.09-6.01,.55-1.88,1.85-3.16,4.01-3.31,6.12-.44,12.23-.92,18.35-1.36,.53-.04,1.06,.09,1.88,.16Zm-14.74,5.16c-2.47-.42-4.42,1.23-6.13,3.21-2,2.32-1.53,5.89,1.06,7.53,1.49,.94,3.18,1.63,4.87,2.15,1.93,.6,4.22-.46,5.24-2.25,.5-.88,.89-1.84,1.22-2.8,1.61-4.74-.78-7.95-6.26-7.84Zm54.52,2.15c.14-1.99-1.22-4.34-3.52-5.71-1.94-1.15-4.18-.01-5.92,1.15-1.2,.81-2.04,2.19-2.96,3.38-2.31,2.97-2.77,4.79-.27,7.36,1.1,1.13,2.21,2.26,3.39,3.31,.24,.21,.82,.1,1.23,.06,2.09-.21,3.35-1.8,4.98-2.83,2.27-1.44,2.94-3.38,3.08-6.72Zm-42.31,6.05c0,1.15-.02,2.35,0,3.55,.04,1.45,1.14,2.4,2.77,2.33,1.5-.07,1.03-1.32,1.16-2.17,.06-.43,.01-.89,0-1.33-.12-2.54-1.31-3.3-3.93-2.38Zm22.33-2.53c-1.22,.28-2.98,.38-3.03,.73-.24,1.71-.19,3.52,.16,5.2,.07,.31,2,.24,3.31,.36-.16-2.25-.29-4.06-.45-6.3Zm-10.46,4.62c-1.29,.03-2.45,.16-2.29,1.95,.13,1.42,.36,2.8,2.17,2.69,1.89-.11,1.93-1.71,2.09-3.08,.18-1.52-.91-1.55-1.98-1.56Z"/><path class="cls-4" d="M492.83,428.08c-3.43-.16-6.43-.27-9.42-.44-1.07-.06-2.37-.07-2.41-1.58-.04-1.37,.89-2.06,2.13-2.6,3.89-1.7,7.95-1.41,12.01-1.28,2.36,.08,4.73-.1,7.08,.07,.94,.07,2.28,.54,2.66,1.24,.67,1.23,.23,2.73-1.06,3.51-.94,.56-2.1,.98-3.19,1.03-2.74,.14-5.49,.05-7.8,.05Z"/><path class="cls-4" d="M564.91,409.81v-5.43c1.57,.94,1.66,3.76,0,5.43Z"/><path class="cls-4" d="M564.93,396.77c1.32,2.12,1.35,4.82,0,6.15v-6.15Z"/><path class="cls-4" d="M565.73,411.9l.33,5.18-.81,.03v-5.23l.48,.03Z"/><path class="cls-4" d="M565.68,433.33c-.25-2.01-1.21-4.09,.06-5.94l.62,.06-.68,5.88Z"/><path class="cls-4" d="M564.58,395.43v-3.69c1.51,.88,1.54,1.86,0,3.69Z"/><path class="cls-4" d="M494,381.89c.94,.11,2.75,.18,4.48,.56,4.62,1,8.03,5.33,8.11,10.06,.07,4.12-.99,7.94-4.57,10.19-2.69,1.69-5.82,3.04-8.92,3.65-5.04,.99-11.12-4.04-12.25-9.03-1.17-5.17,1.19-9.16,3.99-12.87,1.95-2.59,5.29-2.49,9.16-2.56Zm10.61,11.84c-.09-4.61-.23-4.9-1.98-6.68-2.82-2.88-6.32-4.06-10.23-4.05-5.04,.01-10.57,6.55-10.42,12.17,.14,5.42,5.07,9.94,10.74,9.84,6.56-.12,12-5.29,11.88-11.28Z"/><path d="M471.29,425.36c5.48-.11,7.87,3.1,6.26,7.84-.33,.96-.71,1.92-1.22,2.8-1.02,1.78-3.31,2.85-5.24,2.25-1.69-.52-3.38-1.21-4.87-2.15-2.59-1.63-3.06-5.21-1.06-7.53,1.71-1.97,3.66-3.62,6.13-3.21Z"/><path d="M525.82,427.51c-.13,3.35-.8,5.28-3.08,6.72-1.63,1.03-2.89,2.62-4.98,2.83-.41,.04-.99,.16-1.23-.06-1.18-1.05-2.29-2.18-3.39-3.31-2.5-2.58-2.04-4.39,.27-7.36,.92-1.19,1.76-2.57,2.96-3.38,1.73-1.17,3.98-2.3,5.92-1.15,2.31,1.37,3.66,3.72,3.52,5.71Zm-8.03,7.43c1.71-.14,2.35-.64,2.12-2.08-.22-1.38-.18-2.79-.32-4.18-.12-1.23-.34-2.45-.51-3.67l-.57-.19c-.52,.54-1.52,1.1-1.5,1.62,.12,2.82,.49,5.63,.78,8.5Z"/><path d="M483.51,433.56c2.62-.92,3.81-.16,3.93,2.38,.02,.44,.07,.9,0,1.33-.13,.85,.34,2.09-1.16,2.17-1.63,.08-2.74-.88-2.77-2.33-.03-1.2,0-2.4,0-3.55Z"/><path d="M505.84,431.03c.16,2.23,.29,4.05,.45,6.3-1.32-.13-3.25-.05-3.31-.36-.35-1.69-.41-3.49-.16-5.2,.05-.35,1.81-.46,3.03-.73Z"/><path d="M495.38,435.65c1.06,.01,2.15,.04,1.98,1.56-.16,1.38-.2,2.98-2.09,3.08-1.82,.1-2.04-1.27-2.17-2.69-.16-1.79,1-1.92,2.29-1.95Z"/><path class="cls-4" d="M517.78,434.94c-.29-2.87-.66-5.68-.78-8.5-.02-.52,.97-1.08,1.5-1.62l.57,.19c.17,1.22,.38,2.44,.51,3.67,.14,1.39,.1,2.81,.32,4.18,.23,1.44-.4,1.94-2.12,2.08Z"/></g></g><path class="cls-3" d="M150.84,402.69c.15-.06,.62-.12,.7-.32,.26-.64,.38-1.34,.56-2.02-.3,.01-.6,.03-.9,.03-.14,0-.3,0-.43-.06-2.57-.94-5.24-1.76-7.01-4.02-1.47-1.89-2.87-3.85-4.17-5.86-.98-1.52-2.47-1.96-4.03-2.31-.35-.08-.86,.17-1.17,.42-1.36,1.1-1.52,2.55-.48,3.94,.37,.49,.74,1.01,1.2,1.42,4.53,4.04,9.81,6.75,15.73,8.78Zm-6.34-18c4.73,1.01,8.88,3.19,12.63,6.21,2.32,1.87,3.27,4.29,3.45,7.22,.13,2.24-1.11,3.48-2.73,4.46-2.31,1.4-4.92,1.46-7.53,1.27-5.01-.37-9.4-2.46-13.57-5.05-1.12-.7-2.12-1.69-2.97-2.72-1.63-2-2.31-4.42-2.54-6.95-.11-1.19,2.23-3.79,3.58-4.19,3.8-1.13,5.46-1.18,9.68-.24Z"/><path class="cls-3" d="M140.19,448.94c.15-.06,.62-.12,.7-.32,.26-.64,.38-1.34,.56-2.02-.3,.01-.6,.03-.9,.03-.14,0-.3,0-.43-.06-2.57-.94-5.24-1.76-7.01-4.02-1.47-1.89-2.87-3.85-4.17-5.86-.98-1.52-2.47-1.96-4.03-2.31-.35-.08-.86,.17-1.17,.42-1.36,1.1-1.52,2.55-.48,3.94,.37,.49,.74,1.01,1.2,1.42,4.53,4.04,9.81,6.75,15.73,8.78Zm-6.34-18c4.73,1.01,8.88,3.19,12.63,6.21,2.32,1.87,3.27,4.29,3.45,7.22,.13,2.24-1.11,3.48-2.73,4.46-2.31,1.4-4.92,1.46-7.53,1.27-5.01-.37-9.4-2.46-13.57-5.05-1.12-.7-2.12-1.69-2.97-2.72-1.63-2-2.31-4.42-2.54-6.95-.11-1.19,2.23-3.79,3.58-4.19,3.8-1.13,5.46-1.18,9.68-.24Z"/><path class="cls-3" d="M126.96,411.06c.13-.11,.56-.29,.58-.51,.07-.69-.02-1.4-.05-2.1-.29,.1-.57,.21-.86,.29-.14,.04-.29,.08-.43,.07-2.73-.16-5.52-.17-7.87-1.83-1.96-1.38-3.86-2.86-5.68-4.41-1.37-1.17-2.93-1.16-4.53-1.05-.35,.03-.77,.41-1,.75-.99,1.44-.72,2.88,.68,3.91,.5,.37,1,.75,1.55,1.01,5.51,2.56,11.34,3.63,17.6,3.86Zm-11.26-15.4c4.82-.4,9.43,.49,13.89,2.3,2.76,1.12,4.37,3.17,5.38,5.92,.77,2.1-.06,3.65-1.33,5.06-1.81,2-4.29,2.82-6.84,3.39-4.9,1.09-9.71,.36-14.45-.92-1.28-.35-2.52-1-3.62-1.75-2.13-1.44-3.49-3.57-4.44-5.92-.45-1.1,1.04-4.27,2.22-5.05,3.31-2.18,4.89-2.7,9.2-3.03Z"/><g id="D4P5bi.tif"><g><path class="cls-4" d="M43.7,504.35c-.84,1.05-1.91,2.03-.78,3.58,1.43,1.96,2.7,4.03,4.13,5.98,3.2,4.39,6.33,8.84,9.72,13.08,9.74,12.21,19.54,24.37,29.43,36.45,4.58,5.6,10.17,10.15,16.35,13.9,2.35,1.43,5.04,2.42,7.69,3.24,6.08,1.87,12.41,1.91,18.69,1.86,7.63-.06,15.25-.35,22.88-.63,9.49-.35,18.45-2.11,26.58-7.67,5.45-3.74,10.35-7.79,14.02-13.28,2.85-4.25,5.61-8.56,8.59-12.72,7.06-9.84,14.18-19.63,21.36-29.38,3.92-5.33,8.03-10.52,12-15.81,.45-.6,.62-1.44,.87-2.18,.28-.82,.28-1.82,.79-2.44,.98-1.19,.72-2.12-.35-2.83-1.39-.93-2.88-1.74-4.39-2.47-1.26-.62-2.26-1.3-2.98-2.63-.54-.99-1.72-1.89-2.81-2.25-2.04-.67-4.04-1.23-5.51-2.95-.37-.43-1.07-.6-1.64-.84-1.51-.65-3.1-1.14-4.52-1.94-1.38-.77-2.54-1.09-3.99-.14-.62,.4-1.68,.49-2.41,.27-1.11-.33-2.07-1.14-3.15-1.59-1.36-.56-3.06-1.67-4.13-1.27-1.95,.72-3.37-.05-4.96-.57-.88-.28-1.63-.95-2.51-1.19-1.02-.28-2.11-.34-3.18-.42-1.13-.09-2.45,.26-3.37-.2-2.6-1.3-5.33-.78-8.01-1.03-1.5-.14-2.96-.62-4.44-.94-1.29-.28-2.59-.77-3.88-.78-4-.02-8.01,.23-11.6-2.1-1.49-.97-3.1-.98-4.84-.36-3.38,1.19-6.78,1.42-10.23-.07-1.38-.59-3.02-.86-4.52-.8-2.34,.1-4.67,.64-7,.95-2.79,.38-5.45,.06-7.96-1.36-1.2-.68-2.49-.68-3.64,.35-1.96,1.75-4.32,1.96-6.65,1.13-2.57-.91-4.77-.98-6.97,.93-.72,.63-2.49,1.13-3.01,.71-1.89-1.48-3.41-.93-5.13,.11-.73,.44-1.64,.58-2.47,.84-3.33,1.05-7.15-.51-10.23,1.92-.04,.03-.12,0-.18,.02-1.78,.49-3.61,.88-5.34,1.52-2.39,.89-4.72,1.95-7.06,2.97-.97,.42-2.02,.77-2.84,1.41-2.62,2.05-5.59,3.23-8.8,3.96-.81,.19-1.64,.62-2.3,1.15-1.14,.91-2.07,2.1-3.25,2.96-3.64,2.64-7.39,5.13-11.03,7.78-3.2,2.32-3.16,2.37-.99,5.76Z"/><path d="M43.7,504.35c-2.16-3.39-2.2-3.44,.99-5.76,3.64-2.64,7.39-5.13,11.03-7.78,1.18-.85,2.11-2.05,3.25-2.96,.66-.52,1.48-.96,2.3-1.15,3.21-.73,6.17-1.91,8.8-3.96,.82-.64,1.87-.99,2.84-1.41,2.34-1.02,4.67-2.09,7.06-2.97,1.73-.64,3.56-1.02,5.34-1.52,.06-.02,.14,0,.18-.02,3.07-2.42,6.9-.86,10.23-1.92,.83-.26,1.75-.4,2.47-.84,1.72-1.05,3.24-1.6,5.13-.11,.53,.41,2.29-.09,3.01-.71,2.2-1.91,4.4-1.84,6.97-.93,2.33,.83,4.68,.61,6.65-1.13,1.16-1.03,2.44-1.03,3.64-.35,2.51,1.42,5.17,1.74,7.96,1.36,2.34-.32,4.66-.85,7-.95,1.5-.07,3.15,.2,4.52,.8,3.45,1.49,6.84,1.27,10.23,.07,1.74-.61,3.35-.61,4.84,.36,3.6,2.33,7.6,2.08,11.6,2.1,1.3,0,2.59,.5,3.88,.78,1.48,.32,2.94,.8,4.44,.94,2.68,.25,5.4-.27,8.01,1.03,.93,.46,2.24,.11,3.37,.2,1.07,.08,2.16,.14,3.18,.42,.88,.25,1.64,.91,2.51,1.19,1.59,.51,3.01,1.29,4.96,.57,1.08-.4,2.77,.71,4.13,1.27,1.09,.45,2.04,1.25,3.15,1.59,.73,.22,1.8,.14,2.41-.27,1.46-.95,2.61-.63,3.99,.14,1.42,.8,3.01,1.29,4.52,1.94,.57,.24,1.27,.41,1.64,.84,1.48,1.72,3.47,2.28,5.51,2.95,1.09,.36,2.27,1.26,2.81,2.25,.73,1.33,1.73,2.01,2.98,2.63,1.51,.74,3,1.54,4.39,2.47,1.07,.72,1.33,1.64,.35,2.83-.5,.61-.51,1.62-.79,2.44-.25,.74-.42,1.58-.87,2.18-3.97,5.29-8.08,10.48-12,15.81-7.18,9.75-14.3,19.54-21.36,29.38-2.98,4.16-5.74,8.47-8.59,12.72-3.67,5.49-8.56,9.54-14.02,13.28-8.13,5.57-17.1,7.33-26.58,7.67-7.62,.28-15.25,.56-22.88,.63-6.28,.05-12.61,.01-18.69-1.86-2.65-.81-5.33-1.81-7.69-3.24-6.17-3.75-11.76-8.3-16.35-13.9-9.89-12.09-19.69-24.25-29.43-36.45-3.39-4.24-6.52-8.69-9.72-13.08-1.43-1.96-2.7-4.02-4.13-5.98-1.13-1.55-.05-2.53,.78-3.58Zm29.12,15.19c8.34,17.03,17.11,33.98,26.72,50.5-2.74-4.09-5.43-8.21-7.78-12.52-5.22-9.58-10.42-19.19-15.32-28.93-2.07-4.12-4.74-8.12-4.85-13.03-.03-1.29-1.08-1.61-2.18-1.42-.85,.14-1.67,.49-2.52,.72-2.94,.8-5.42,3.12-9.36,2.22,11.29,16.78,22.23,33.04,33.17,49.29-.4-.62-.92-1.16-1.34-1.78-9.56-13.95-19.12-27.91-28.65-41.88-1.19-1.75-2.25-3.6-3.29-5.45-1.37-2.45-1.26-2.87,.73-4.86,.54-.54,.99-1.17,1.49-1.75l-.36-.5c-3.49,1.46-5.8,5.45-10.5,4.83,.47,.63,.68,.92,.91,1.2,9.15,11.65,18.24,23.34,27.46,34.93,7.23,9.09,14.31,18.36,24.36,24.68,2.1,1.32,4.24,2.99,6.56,3.44,5.51,1.06,11.12,1.95,16.71,2.06,9.37,.19,18.77-.02,28.12-.58,5.45-.33,11.18-.78,16.18-2.74,9.28-3.63,17.39-9.26,22.89-18.01,3.09-4.91,6.36-9.72,9.77-14.42,6.83-9.39,13.83-18.67,20.73-28.01,1.78-2.41,3.49-4.88,5.22-7.29-1.11,0-2.11-.03-3.11,0-2.33,.08-2.9,.83-2.8,3.07,.04,.86-.18,1.89-.66,2.58-2.71,3.89-5.5,7.72-8.32,11.53-6.41,8.7-12.85,17.38-19.28,26.06-.5,.68-1.04,1.32-1.57,1.98l-.53-.4c9.39-12.6,18.78-25.2,27.88-37.41-1.71-.59-3.36-1.1-4.97-1.74-1.04-.41-1.95-1.15-3.01-1.49-1.6-.52-2.71,.42-3.13,2.02-.59,2.21-1.17,4.47-2.17,6.5-1.68,3.41-3.7,6.64-5.57,9.96-6.24,11.09-12.48,22.19-18.73,33.28-.47,.84-1.06,1.61-1.59,2.42l-.4-.29c8.77-15.63,17.54-31.25,26.61-47.42-2.39,1.56-4.04,.78-5.61-.34-.91-.66-1.75-1.42-2.68-2.06-1.89-1.3-3.4-.77-3.8,1.44-.41,2.33-1.84,3.47-3.98,3.88-2.72,.51-4.84-.7-6.71-2.53-1.46-1.42-2.58-1.44-4,0-.52,.53-.98,1.14-1.4,1.75-1.12,1.66-2.72,2.41-4.65,2.31-2.55-.14-5.1-.34-7.29-1.98-1.33-1-2.81-.88-3.81,.5-1.69,2.32-4.05,3.12-6.7,2.94-3.29-.22-6.41-.98-8.31-4.16-.2-.34-1.12-.57-1.53-.42-.85,.32-1.72,.82-2.36,1.47-2.37,2.39-5.02,3.16-8.36,2.32-3.05-.77-3.41-.9-3.49-3.98-.05-1.95-.95-2.72-2.74-1.98-1.59,.65-2.98,1.79-4.52,2.59-1.41,.74-2.86,1.73-4.36,1.89-3.29,.35-6.67,.45-9.04-2.68-.81-1.07-1.84-.67-2.86-.13-3.75,2.02-6.7,1.26-8.77-2.31-.84-1.45-1.9-1.45-3.13-.68-.52,.32-.96,.8-1.38,1.25-3.44,3.7-9.66,4.11-13.02,.27-.61-.7-1.33-1.32-2.01-1.96-.92-.86-1.88-1.06-3.07-.44-1.2,.62-2.49,1.07-3.93,1.67Zm108.29-42.45c-.8-.05-1.68-.3-2.48-.13-2.04,.42-3.78,0-5.52-1.1-.77-.49-1.85-.74-2.78-.7-4.07,.14-8.04,.18-11.86-1.71-1.39-.69-3.35-1.01-4.8-.61-3.81,1.06-7.46,1.36-11.15-.29-1.79-.8-3.52-.51-5.45-.21-4.64,.71-9.39,1.7-13.94-.78-.67-.37-2.04-.34-2.59,.11-2.57,2.11-5.3,2.24-8.25,1.19-1.75-.62-3.25-.54-4.88,.72-1.07,.83-3.26,1.68-4.03,1.17-2.21-1.48-3.8-.56-5.66,.34-1,.48-2.13,.73-3.24,.91-2.87,.48-5.99-.5-8.59,1.56-.24,.19-.75,.02-1.1,.12-1.2,.32-2.42,.6-3.57,1.05-1.74,.68-3.46,1.44-5.14,2.26-2.62,1.27-5.18,2.67-7.81,3.93-1.57,.75-3.19,1.39-4.82,2-.93,.35-1.94,.49-2.89,.8-1.19,.39-1.31,1.04-.6,2.12,1.22,1.87,2.39,3.79,3.4,5.78,2.17,4.28,4.23,8.62,6.33,12.94,1.4,2.89,3.33,5.62,2.85,9.1-.03,.21,.15,.45,.36,.99,1.08-.46,2.13-.79,3.07-1.32,1.65-.93,3.1-.74,4.48,.48,.56,.5,1.14,.99,1.61,1.57,3.57,4.39,9.09,3.13,11.96,.38,1.38-1.32,2.69-2.64,4.92-2-3.12-13.58-6.16-26.83-9.2-40.08,1.72,5.21,3.13,10.48,4.36,15.8,1.82,7.89,3.47,15.82,5.28,23.71,.99,4.31,2.98,5.56,6.94,4.56,.65-.17,1.27-.52,1.86-.86,1.27-.71,2.33-.55,3.35,.51,3.26,3.37,8.86,3.58,12.51,.61,1.05-.85,2.27-1.54,3.51-2.11,3.5-1.62,4.95-.63,5.1,3.25,.02,.62,.53,1.68,.94,1.75,2.83,.47,5.76,1.53,8.37-.8,1.07-.95,2.24-1.81,3.47-2.53,.88-.51,2.05-.73,2.57,.52,.93,2.27,2.95,3.06,4.98,3.54,3.17,.74,6.35,.97,8.65-2.18,.41-.56,1.24-.79,1.8-1.27,.45-.38,1.06-.86,1.13-1.35,1.57-11.17,3.07-22.35,4.6-33.52,.48-3.5,1.01-6.99,1.51-10.48l.57,.08c-2.09,15.02-4.18,30.05-6.26,44.96,.72,.4,1.28,.67,1.8,1,4.51,2.93,8.65,2.34,11.95-1.7,.12-.15,.24-.29,.36-.43,1.59-1.7,3.11-1.68,4.87-.15,1.01,.88,2.14,1.8,3.38,2.23,3.22,1.13,5.46-.25,6.21-3.55,.46-2,2.15-2.79,4.2-1.76,1.21,.61,2.26,1.55,3.35,2.38,2.74,2.1,4.88,1.45,5.97-1.85,.19-.59,.3-1.2,.4-1.82,.31-2.03,2.13-3.19,4.12-2.58,.45,.14,.88,.34,1.19,.46,4.63-7.03,9.16-13.92,13.69-20.8l.56,.37c-4.51,6.94-9.02,13.88-13.57,20.88l1.29,.79c3.7-5.19,7.34-10.34,11.04-15.44,1.4-1.93,2.45-2.06,4.45-.77,.73,.47,1.37,1.11,2.12,1.54,.58,.33,1.28,.44,2.47,.83-.92-1.75-1.55-2.94-2.36-4.48h3.15l.21-.5c-1.39-.88-2.71-1.91-4.19-2.6-1.84-.86-3.49-1.73-4.46-3.7-.34-.69-1.44-1.12-2.29-1.43-1.94-.7-3.95-1.19-5.33-2.92-.28-.35-.85-.48-1.3-.67-1.61-.71-3.31-1.27-4.83-2.14-1.72-.98-3.05-.97-4.27,.63-.74,.98-1.31,2.12-1.81,3.25-3.57,8.17-7.1,16.35-10.66,24.53-.41,.95-.91,1.86-1.37,2.79l-.53-.23c4.35-10.15,8.7-20.3,12.99-30.3-.97-.49-2.12-1.09-3.28-1.66-1.06-.52-2.12-1.07-3.22-1.47-1.47-.52-2.31,.13-2.79,1.6-3.55,11.09-7.13,22.17-10.73,33.24-.51,1.58-1.2,3.1-1.81,4.65l-.32-.11c4.22-12.9,8.44-25.81,12.64-38.67l-8.68-3.41c-3.39,12.85-6.66,25.22-9.93,37.6l-.49-.13c3.09-12.22,6.17-24.43,9.22-36.49-1.39-.49-2.53-.79-3.58-1.29-2.04-.97-2.85-.72-3.31,1.5-1.79,8.67-3.46,17.36-5.26,26.02-1.02,4.92-2.22,9.8-3.34,14.7,1.84-10.99,3.93-21.93,6.05-32.85,.63-3.23,1.38-6.44,2.12-9.88Zm-138.32,24.07l.23,.32c.4-.12,.81-.24,1.21-.37,3.4-1.15,3.32-1.1,5.33,1.95,1.9,2.89,4,5.65,6.11,8.61,.74-.62,1.32-1.36,2.08-1.68,.62-.26,1.45-.03,2.19-.01-.07,.61,.03,1.31-.25,1.8-.36,.63-1.12,1.01-1.52,1.63-.38,.57-.9,1.57-.67,1.91,.42,.61,1.39,1.27,2.07,1.2,1.39-.13,2.75-.68,4.1-1.12,2.43-.8,4.83-1.65,7.25-2.48-2.01-5.54-10.27-21.32-12.2-23.27-1.87,1.29-3.68,2.61-5.57,3.82-2.26,1.45-2.3,1.55-.73,3.84,1.06,1.55,2.07,3.15,3.1,4.72l-.39,.25-4.8-6.96-7.53,5.85Zm172.67,14.53c1.31,.91,1.9,.69,2.63-.41,1.26-1.88,2.59-3.87,4.34-5.22,1.06-.81,2.13-1.49,2.96-2.59,1.24-1.65,2.63-3.17,4.12-4.94l-3.04-2.51-11.01,15.67Zm-161.71-4.42l-.44,.2-4.03-6.03c-.92,2-1.92,3.52-2.32,5.18-.61,2.55,1.57,4.44,4.05,3.58,1.41-.49,2.67-1.42,4.16-2.25l-3.97-5.5-.33,.23,2.87,4.58Zm174.1-12.34l-.47,.75c.49,.43,.95,.91,1.47,1.3,2.07,1.53,2.04,1.58,.87,3.96-.32,.65-.17,1.53-.24,2.31l.63,.13c1.29-1.71,2.58-3.41,3.81-5.04l-6.07-3.4Zm-178.33,5.27l-1.44-2.2c-1.27,.97-2.55,1.76-3.58,2.8-.56,.56-.69,1.54-1.01,2.33,.81-.25,1.66-.4,2.4-.78,.46-.24,.67-.96,1.13-1.21,.77-.42,1.65-.63,2.5-.93Zm175.33,5.16c1.64,.16,3.24,.31,3.94-1.11,.31-.63-.54-1.83-.99-3.17-1.18,1.71-2,2.91-2.94,4.27Zm-179.07,1.18l3.12-5.86-4.7,3.9,1.58,1.96Zm-1.51-6.4l2.98-2.59-.4-.56-3.64,1.3,1.06,1.85Zm173.78,12.3c2.76-.6,3.33-1.54,2.58-3.65l-2.58,3.65Z"/><path class="cls-4" d="M72.82,519.54c1.44-.6,2.73-1.05,3.93-1.67,1.19-.62,2.15-.42,3.07,.44,.68,.64,1.4,1.26,2.01,1.96,3.36,3.84,9.58,3.43,13.02-.27,.42-.45,.86-.93,1.38-1.25,1.23-.77,2.29-.77,3.13,.68,2.07,3.57,5.01,4.33,8.77,2.31,1.02-.55,2.04-.95,2.86,.13,2.37,3.13,5.75,3.03,9.04,2.68,1.51-.16,2.95-1.15,4.36-1.89,1.54-.81,2.93-1.94,4.52-2.59,1.8-.74,2.69,.03,2.74,1.98,.08,3.08,.44,3.21,3.49,3.98,3.35,.84,5.99,.07,8.36-2.32,.64-.64,1.5-1.15,2.36-1.47,.42-.16,1.33,.07,1.53,.42,1.9,3.18,5.02,3.94,8.31,4.16,2.65,.18,5.01-.63,6.7-2.94,1.01-1.38,2.48-1.5,3.81-.5,2.19,1.64,4.74,1.85,7.29,1.98,1.93,.1,3.53-.65,4.65-2.31,.42-.62,.88-1.22,1.4-1.75,1.42-1.45,2.54-1.43,4,0,1.87,1.83,3.99,3.04,6.71,2.53,2.15-.4,3.57-1.55,3.98-3.88,.39-2.21,1.91-2.74,3.8-1.44,.93,.64,1.76,1.4,2.68,2.06,1.57,1.13,3.22,1.9,5.61,.34-9.07,16.17-17.84,31.79-26.61,47.42l.4,.29c.53-.8,1.12-1.58,1.59-2.42,6.25-11.09,12.49-22.19,18.73-33.28,1.87-3.32,3.89-6.55,5.57-9.96,1-2.03,1.58-4.29,2.17-6.5,.42-1.6,1.54-2.53,3.13-2.02,1.05,.34,1.97,1.08,3.01,1.49,1.61,.64,3.26,1.15,4.97,1.74-9.1,12.21-18.49,24.81-27.88,37.41l.53,.4c.52-.66,1.06-1.31,1.57-1.98,6.43-8.68,12.87-17.36,19.28-26.06,2.81-3.81,5.61-7.64,8.32-11.53,.48-.69,.7-1.72,.66-2.58-.11-2.24,.47-2.99,2.8-3.07,1-.04,2,0,3.11,0-1.73,2.42-3.43,4.88-5.22,7.29-6.91,9.34-13.9,18.61-20.73,28.01-3.41,4.69-6.68,9.51-9.77,14.42-5.51,8.75-13.61,14.38-22.89,18.01-5,1.95-10.73,2.41-16.18,2.74-9.35,.56-18.75,.77-28.12,.58-5.59-.11-11.21-1-16.71-2.06-2.32-.45-4.47-2.12-6.56-3.44-10.05-6.32-17.13-15.59-24.36-24.68-9.22-11.59-18.31-23.28-27.46-34.93-.22-.28-.43-.57-.91-1.2,4.7,.61,7.01-3.37,10.5-4.83l.36,.5c-.49,.59-.95,1.21-1.49,1.75-1.98,1.99-2.09,2.41-.73,4.86,1.03,1.85,2.09,3.7,3.29,5.45,9.53,13.98,19.09,27.93,28.65,41.88,.42,.61,.94,1.16,1.34,1.78-10.94-16.26-21.88-32.51-33.17-49.29,3.94,.91,6.43-1.42,9.36-2.22,.84-.23,1.66-.57,2.52-.72,1.1-.19,2.15,.13,2.18,1.42,.12,4.91,2.78,8.91,4.85,13.03,4.91,9.75,10.1,19.35,15.32,28.93,2.35,4.31,5.04,8.43,7.78,12.52-9.61-16.52-18.38-33.46-26.72-50.5Zm53.78,57.73c-4.66-17.23-9.32-34.46-13.99-51.7-.31,2.63,12.55,49.94,13.99,51.7Zm-9.59-1.5l.67-.28c-6.63-18.61-13.26-37.21-19.9-55.82,4.98,19.19,13.05,37.31,19.23,56.09Zm54.12-4.17l.7,.3c7.88-16.56,15.76-33.12,23.64-49.68l-.66-.31c-7.9,16.57-15.79,33.13-23.69,49.7Zm-62.47,2.48c-2.32-6.3-24.16-49.31-27.04-51.8,8.92,17.09,17.98,34.44,27.04,51.8Zm46.05,.64l.73,.16c2.91-16.56,5.81-33.11,8.72-49.67l-.7-.12c-2.92,16.55-5.84,33.09-8.75,49.64Zm-7.32-48.23l-.63-.06c-.78,17.03-1.55,34.06-2.33,51.09l.82,.03,2.14-51.06Zm33.84-3.22l-.56-.19c-5.84,17.28-11.68,34.56-17.52,51.85l.68,.23c5.8-17.29,11.61-34.59,17.41-51.88Zm-49.47,3.51l-.7,.04c.97,16.37,1.93,32.75,2.9,49.12l.75-.05-2.96-49.12Z"/><path class="cls-4" d="M181.11,477.09c-.74,3.44-1.49,6.65-2.12,9.88-2.13,10.93-4.21,21.86-6.05,32.85,1.12-4.9,2.32-9.78,3.34-14.7,1.8-8.66,3.47-17.35,5.26-26.02,.46-2.22,1.26-2.47,3.31-1.5,1.05,.5,2.2,.8,3.58,1.29-3.05,12.06-6.13,24.28-9.22,36.49l.49,.13c3.27-12.38,6.53-24.75,9.93-37.6l8.68,3.41c-4.21,12.87-8.43,25.77-12.64,38.67l.32,.11c.61-1.55,1.3-3.07,1.81-4.65,3.6-11.07,7.18-22.15,10.73-33.24,.47-1.47,1.31-2.12,2.79-1.6,1.11,.39,2.16,.95,3.22,1.47,1.17,.57,2.32,1.17,3.28,1.66-4.29,10-8.64,20.15-12.99,30.3l.53,.23c.46-.93,.95-1.84,1.37-2.79,3.56-8.17,7.09-16.36,10.66-24.53,.5-1.13,1.07-2.27,1.81-3.25,1.22-1.6,2.55-1.61,4.27-.63,1.52,.87,3.22,1.43,4.83,2.14,.45,.2,1.02,.32,1.3,.67,1.38,1.73,3.39,2.22,5.33,2.92,.84,.31,1.95,.74,2.29,1.43,.97,1.97,2.61,2.84,4.46,3.7,1.48,.69,2.8,1.72,4.19,2.6l-.21,.5h-3.15c.81,1.53,1.43,2.72,2.36,4.48-1.19-.39-1.89-.5-2.47-.83-.76-.43-1.39-1.06-2.12-1.54-2-1.29-3.05-1.16-4.45,.77-3.7,5.1-7.33,10.25-11.04,15.44l-1.29-.79c4.55-7,9.06-13.94,13.57-20.88l-.56-.37c-4.53,6.88-9.06,13.77-13.69,20.8-.31-.12-.74-.32-1.19-.46-1.99-.61-3.82,.54-4.12,2.58-.09,.61-.2,1.23-.4,1.82-1.1,3.3-3.23,3.95-5.97,1.85-1.09-.83-2.14-1.77-3.35-2.38-2.05-1.03-3.75-.23-4.2,1.76-.75,3.3-2.99,4.68-6.21,3.55-1.24-.43-2.37-1.35-3.38-2.23-1.76-1.53-3.28-1.56-4.87,.15-.13,.14-.25,.28-.36,.43-3.3,4.04-7.44,4.63-11.95,1.7-.52-.34-1.08-.6-1.8-1,2.08-14.91,4.17-29.93,6.26-44.96l-.57-.08c-.51,3.49-1.03,6.98-1.51,10.48-1.53,11.17-3.03,22.35-4.6,33.52-.07,.5-.68,.98-1.13,1.35-.56,.47-1.4,.71-1.8,1.27-2.3,3.15-5.49,2.92-8.65,2.18-2.03-.48-4.05-1.27-4.98-3.54-.51-1.25-1.68-1.03-2.57-.52-1.23,.72-2.41,1.58-3.47,2.53-2.62,2.33-5.54,1.27-8.37,.8-.41-.07-.92-1.13-.94-1.75-.15-3.88-1.6-4.87-5.1-3.25-1.23,.57-2.46,1.26-3.51,2.11-3.65,2.97-9.25,2.76-12.51-.61-1.02-1.06-2.08-1.23-3.35-.51-.59,.33-1.21,.69-1.86,.86-3.95,1-5.94-.24-6.94-4.56-1.81-7.89-3.46-15.82-5.28-23.71-1.23-5.32-2.65-10.59-4.36-15.8,3.04,13.25,6.08,26.5,9.2,40.08-2.24-.64-3.55,.68-4.92,2-2.87,2.76-8.39,4.01-11.96-.38-.47-.58-1.05-1.07-1.61-1.57-1.37-1.22-2.83-1.41-4.48-.48-.94,.53-1.99,.86-3.07,1.32-.2-.54-.39-.78-.36-.99,.48-3.48-1.44-6.21-2.85-9.1-2.1-4.32-4.16-8.66-6.33-12.94-1.01-1.99-2.17-3.91-3.4-5.78-.71-1.08-.58-1.73,.6-2.12,.95-.31,1.95-.45,2.89-.8,1.63-.61,3.25-1.25,4.82-2,2.63-1.26,5.19-2.66,7.81-3.93,1.68-.82,3.4-1.58,5.14-2.26,1.15-.45,2.37-.73,3.57-1.05,.36-.1,.86,.07,1.1-.12,2.6-2.06,5.72-1.08,8.59-1.56,1.1-.19,2.24-.43,3.24-.91,1.87-.9,3.45-1.82,5.66-.34,.77,.52,2.96-.34,4.03-1.17,1.63-1.26,3.12-1.34,4.88-.72,2.96,1.05,5.69,.92,8.25-1.19,.55-.45,1.92-.48,2.59-.11,4.55,2.48,9.3,1.49,13.94,.78,1.92-.29,3.66-.58,5.45,.21,3.69,1.64,7.34,1.34,11.15,.29,1.45-.4,3.42-.08,4.8,.61,3.82,1.89,7.8,1.86,11.86,1.71,.93-.03,2.01,.21,2.78,.7,1.74,1.11,3.49,1.53,5.52,1.1,.8-.17,1.69,.08,2.48,.13Zm-26.32-1.64l-.62-.04c-.65,14.5-1.31,28.99-1.96,43.49l.62,.03c.65-14.49,1.31-28.99,1.96-43.48Zm-14.3-1.97h-.64l.99,42.77h.52c-.29-14.26-.58-28.52-.87-42.77Zm-18.93-.71l-.65,.08,5.01,40.85,.52-.06c-1.63-13.62-3.25-27.25-4.88-40.87Zm-9.69,1.44l-.52,.04c1.71,13.3,3.42,26.61,5.12,39.91l.65-.08-5.25-39.87Zm-2.97,39.92l.65-.13c-2.38-12.16-4.76-24.32-7.13-36.48l-.61,.12c2.36,12.16,4.73,24.33,7.09,36.49Zm-24.45-34.8l-.57,.21c2.77,11.4,5.54,22.8,8.31,34.2l.65-.16c-2.8-11.42-5.59-22.84-8.39-34.25Zm116.69,37.87l15.48-29.96c-6.28,9.4-11,19.61-15.48,29.96Zm-129.09-32.39l-.51,.17c4.03,9.55,8.05,19.1,12.08,28.66l.6-.25c-4.06-9.52-8.11-19.05-12.17-28.57Z"/><path class="cls-4" d="M42.79,501.15l7.53-5.85,4.8,6.96,.39-.25c-1.03-1.58-2.04-3.17-3.1-4.72-1.57-2.3-1.53-2.39,.73-3.84,1.89-1.21,3.7-2.53,5.57-3.82,1.93,1.95,10.19,17.73,12.2,23.27-2.42,.83-4.82,1.68-7.25,2.48-1.35,.44-2.71,.99-4.1,1.12-.68,.06-1.65-.59-2.07-1.2-.23-.34,.29-1.33,.67-1.91,.4-.61,1.16-1,1.52-1.63,.28-.49,.18-1.19,.25-1.8-.74-.01-1.56-.25-2.19,.01-.76,.32-1.34,1.05-2.08,1.68-2.11-2.95-4.2-5.72-6.11-8.61-2.01-3.05-1.93-3.1-5.33-1.95-.4,.14-.81,.25-1.21,.37l-.23-.32Z"/><path class="cls-4" d="M215.46,515.68l11.01-15.67,3.04,2.51c-1.49,1.77-2.88,3.3-4.12,4.94-.83,1.1-1.9,1.78-2.96,2.59-1.76,1.35-3.08,3.34-4.34,5.22-.73,1.1-1.32,1.32-2.63,.41Z"/><path class="cls-4" d="M53.75,511.26l-2.87-4.58,.33-.23,3.97,5.5c-1.49,.82-2.75,1.76-4.16,2.25-2.48,.86-4.65-1.03-4.05-3.58,.4-1.67,1.4-3.19,2.32-5.18l4.03,6.03,.44-.2Z"/><path class="cls-4" d="M227.85,498.92l6.07,3.4c-1.23,1.62-2.52,3.33-3.81,5.04l-.63-.13c.07-.78-.08-1.66,.24-2.31,1.17-2.38,1.2-2.43-.87-3.96-.52-.39-.98-.86-1.47-1.3l.47-.75Z"/><path class="cls-4" d="M49.53,504.19c-.85,.3-1.73,.52-2.5,.93-.46,.25-.67,.97-1.13,1.21-.74,.38-1.59,.53-2.4,.78,.32-.79,.46-1.77,1.01-2.33,1.03-1.04,2.31-1.84,3.58-2.8l1.44,2.2Z"/><path class="cls-4" d="M224.86,509.35c.94-1.37,1.77-2.57,2.94-4.27,.46,1.34,1.3,2.54,.99,3.17-.7,1.42-2.29,1.27-3.94,1.11Z"/><path class="cls-4" d="M45.79,510.52l-1.58-1.96,4.7-3.9-3.12,5.86Z"/><path class="cls-4" d="M44.28,504.12l-1.06-1.85,3.64-1.3,.4,.56-2.98,2.59Z"/><path class="cls-4" d="M218.07,516.42l2.58-3.65c.75,2.12,.18,3.06-2.58,3.65Z"/><path d="M126.6,577.27c-1.43-1.75-14.3-49.06-13.99-51.7,4.66,17.23,9.32,34.46,13.99,51.7Z"/><path d="M117.02,575.77c-6.18-18.78-14.24-36.91-19.23-56.09,6.63,18.61,13.26,37.21,19.9,55.82l-.67,.28Z"/><path d="M171.14,571.6c7.9-16.57,15.79-33.13,23.69-49.7l.66,.31c-7.88,16.56-15.76,33.12-23.64,49.68l-.7-.3Z"/><path d="M108.67,574.07c-9.06-17.35-18.12-34.71-27.04-51.8,2.88,2.49,24.72,45.5,27.04,51.8Z"/><path d="M154.72,574.72c2.92-16.55,5.84-33.09,8.75-49.64l.7,.12c-2.91,16.56-5.81,33.11-8.72,49.67l-.73-.16Z"/><path d="M147.39,526.48l-2.14,51.06-.82-.03c.78-17.03,1.55-34.06,2.33-51.09l.63,.06Z"/><path d="M181.23,523.27c-5.8,17.29-11.61,34.59-17.41,51.88l-.68-.23c5.84-17.28,11.68-34.56,17.52-51.85l.56,.19Z"/><path d="M131.77,526.78l2.96,49.12-.75,.05c-.97-16.37-1.93-32.75-2.9-49.12l.7-.04Z"/><path d="M154.79,475.45c-.65,14.49-1.31,28.99-1.96,43.48l-.62-.03c.65-14.5,1.31-28.99,1.96-43.49l.62,.04Z"/><path d="M140.49,473.48c.29,14.25,.58,28.51,.87,42.76h-.52l-.99-42.75h.64Z"/><path d="M121.56,472.77c1.63,13.62,3.25,27.25,4.88,40.87l-.52,.06-5.01-40.85,.65-.08Z"/><path d="M111.88,474.21l5.25,39.87-.65,.08c-1.71-13.3-3.42-26.61-5.12-39.91l.52-.04Z"/><path d="M108.91,514.13c-2.36-12.16-4.73-24.33-7.09-36.49l.61-.12c2.38,12.16,4.76,24.32,7.13,36.48l-.65,.13Z"/><path d="M84.46,479.33c2.8,11.42,5.59,22.84,8.39,34.25l-.65,.16c-2.77-11.4-5.54-22.8-8.31-34.2l.57-.21Z"/><path d="M201.15,517.21c4.48-10.35,9.19-20.56,15.48-29.96l-15.48,29.96Z"/><path d="M72.06,484.82c4.06,9.52,8.11,19.05,12.17,28.57l-.6,.25c-4.03-9.55-8.05-19.1-12.08-28.66l.51-.17Z"/></g></g><g id="AU8wsp.tif-2"><g><path class="cls-3" d="M435.53,339.39l.22,.04c.39-.4,.75-.81,1.18-1.18,.54-.47,.37-.75-.24-1.13-1.58-.97-3.18-1.91-2.3-3.67,.45-.9,.1-1.91-.49-2.81-1.76-2.68-2.58-5.51-2.87-8.44-.21-2.07-.46-4.13-.76-6.19-.25-1.7-.77-3.42-.07-5.13,.62-1.49,1.69-2.91,2.53-4.37,.57-1,1.22-2,1.59-3.02,.51-1.42,.12-2.82-.5-4.16-1.11-2.4-1.56-4.86-1.22-7.4,.33-2.53,.68-5.06,.81-7.59,.1-1.87,.86-3.58,2.18-5.29,2.52-3.27,4.73-6.62,6.46-10.07,1.59-3.18,4.19-5.99,7.65-8.58,2.38-1.78,4.28-3.79,6.47-5.67,1.33-1.15,2.58-2.4,4.25-3.31,5.56-3.04,11.68-5.58,18.38-7.46,5.21-1.47,9.84-3.38,13.74-6.05,2.15-1.47,4.51-2.85,7.3-3.81,1.58-.54,2.28-1.22,2.48-2.27,.19-1.02,.28-1.04-1.16-1.5-.21-.07-.66-.04-.85,.06-4.56,2.35-9.49,4.31-14.75,5.96-4.77,1.49-9.03,3.54-13.37,5.49-3.52,1.58-7.05,3.14-10.19,5.04-3.34,2.02-6.81,3.95-10.19,5.95-1.84,1.09-3.76,2.14-5.36,3.36-3.37,2.57-6.01,5.44-8.62,8.31-4.76,5.24-7.6,10.81-8.66,16.7-.48,2.68-.98,5.36-1.49,8.03-.42,2.19-.99,4.36-.8,6.59,.2,2.35-.16,4.74-.43,7.12-.38,3.25-1.09,6.5-1.31,9.74-.17,2.61-.12,5.24,.38,7.81,.45,2.32,1.62,4.57,2.48,6.85,.63,1.65,1.13,3.33,2.67,4.75,.2,.18,.28,.44,.33,.67,.22,.98,.47,1.96,.58,2.95,.12,1.03,.86,1.74,2.24,2.25,.87,.32,1.58,.75,1.74,1.44Z"/><path class="cls-3" d="M540.48,211.44c.31,.05,.64,.08,.94,.15,.74,.17,1.48,.46,1.46,.97-.09,2.15-.43,4.23-2.72,6.14-2.49,2.08-4.7,4.3-6.81,6.54-2.05,2.16-3.79,4.42-5.73,6.62-.73,.82-1.51,1.65-2.47,2.37-3.32,2.49-6.64,5-9.15,7.84-1.33,1.5-2.32,3.11-3.46,4.67-.11,.16-.22,.32-.41,.59-.76-.31-1.47-.59-2.14-.9-.11-.05-.12-.26-.06-.37,1.1-1.94,2.16-3.89,3.36-5.81,1.17-1.88,3.18-3.43,5.42-4.86,1.51-.96,2.7-2.01,3.6-3.22,1.19-1.6,2.1-3.29,3.86-4.72,1.23-1.01,2.59-1.97,3.67-3.03,1.37-1.35,2.44-2.81,3.79-4.16,1.47-1.47,3.14-2.87,4.7-4.31,.65-.6,1.24-1.21,1.84-1.83,.09-.09,.07-.22,.12-.4-1.93,.32-3.83,.51-5.59,.95-1.87,.48-3.31,.11-4.75-.43-.5-.19-.94-.23-1.46-.08-1.02,.29-2.04,.58-3.03,.89-2.65,.83-5.3,1.67-7.93,2.52-1.19,.39-2.41,.76-3.52,1.23-3.59,1.5-7.5,2.49-11.52,3.34-2.57,.54-5.12,1.02-7.82,1.17-1.25,.07-2.5,.44-3.71,.75-2.94,.76-5.83,1.6-8.78,2.34-1.81,.46-3.46,1.05-5.01,1.8-1.4,.67-2.84,1.31-4.44,2.04-.46-.7-.89-1.32-1.27-1.96-.05-.09,.13-.3,.3-.38,3.85-1.89,7.7-3.78,11.59-5.64,1.77-.84,3.9-1.02,5.97-1.21,3.6-.32,7.22-.58,10.83-.84,1.37-.1,2.55-.43,3.65-.96,2.27-1.1,4.58-2.16,6.82-3.28,2.3-1.15,4.87-1.84,7.65-2.29,2.76-.45,5.49-.98,8.23-1.48l2.3-.12c1.22,.8,2.79,.99,4.47,.73,1.05-.16,2.08-.38,3.15-.51,1.27-.15,2.49-.55,3.73-.83l.33-.02Z"/><path class="cls-3" d="M540.15,211.45c-1.24,.29-2.46,.68-3.73,.83-1.08,.13-2.1,.34-3.15,.51-1.69,.26-3.25,.07-4.47-.73l11.36-.61Z"/><path class="cls-3" d="M435.53,339.39c-.16-.69-.87-1.12-1.74-1.44-1.37-.5-2.12-1.22-2.24-2.25-.11-.99-.36-1.97-.58-2.95-.05-.23-.13-.49-.33-.67-1.54-1.42-2.05-3.1-2.67-4.75-.87-2.28-2.04-4.53-2.48-6.85-.49-2.56-.55-5.2-.38-7.81,.22-3.25,.93-6.5,1.31-9.74,.27-2.37,.63-4.77,.43-7.12-.19-2.23,.39-4.4,.8-6.59,.51-2.68,1.01-5.36,1.49-8.03,1.06-5.89,3.9-11.45,8.66-16.7,2.61-2.88,5.25-5.74,8.62-8.31,1.6-1.22,3.52-2.27,5.36-3.36,3.38-2,6.85-3.93,10.19-5.95,3.14-1.9,6.68-3.46,10.19-5.04,4.34-1.95,8.6-4,13.37-5.49,5.26-1.65,10.19-3.61,14.75-5.96,.19-.1,.63-.12,.85-.06,1.44,.46,1.35,.47,1.16,1.5-.2,1.05-.89,1.72-2.48,2.27-2.79,.96-5.15,2.33-7.3,3.81-3.89,2.67-8.53,4.58-13.74,6.05-6.69,1.88-12.82,4.42-18.38,7.46-1.68,.92-2.92,2.17-4.25,3.31-2.19,1.88-4.09,3.89-6.47,5.67-3.46,2.59-6.06,5.4-7.65,8.58-1.73,3.45-3.94,6.8-6.46,10.07-1.32,1.71-2.08,3.42-2.18,5.29-.13,2.53-.47,5.06-.81,7.59-.34,2.55,.11,5,1.22,7.4,.62,1.34,1.01,2.74,.5,4.16-.37,1.03-1.02,2.02-1.59,3.02-.84,1.46-1.91,2.88-2.53,4.37-.7,1.7-.18,3.42,.07,5.13,.3,2.06,.55,4.13,.76,6.19,.3,2.92,1.11,5.76,2.87,8.44,.59,.9,.94,1.91,.49,2.81-.87,1.75,.72,2.69,2.3,3.67,.61,.37,.78,.66,.24,1.13-.44,.38-.79,.79-1.18,1.18l-.22-.04Z"/></g></g><g><g id="_Mirror_Repeat_"><g class="cls-2"><path class="cls-3" d="M951.7,195.6l-.26-.13c-.59,.75-1.13,1.54-1.77,2.23-.79,.86-.65,1.51,0,2.44,1.69,2.43,3.4,4.78,1.86,8.28-.79,1.8-.63,4.01-.14,6.06,1.45,6.07,1.71,12.26,1.3,18.51-.29,4.42-.53,8.85-.7,13.28-.15,3.66,.04,7.42-1.27,10.86-1.15,3-2.85,5.77-4.26,8.67-.97,1.98-2.03,3.94-2.76,6.03-1.01,2.88-.9,5.93-.49,8.91,.73,5.34,.63,10.63-.46,15.94-1.08,5.27-2.17,10.55-3,15.86-.62,3.93-2.01,7.38-4.08,10.7-3.96,6.34-7.56,12.92-10.6,19.82-2.8,6.36-6.73,11.72-11.68,16.4-3.39,3.21-6.27,7.04-9.45,10.5-1.94,2.12-3.8,4.48-6.11,6.03-7.64,5.15-15.84,9.12-24.56,11.56-6.79,1.91-12.99,4.89-18.49,9.64-3.03,2.63-6.3,4.99-9.99,6.38-2.09,.79-3.12,2.06-3.65,4.23-.51,2.12-.62,2.14,1.03,3.43,.25,.19,.8,.24,1.05,.08,6.23-3.93,12.8-6.94,19.71-9.22,6.26-2.06,12.04-5.42,17.89-8.54,4.74-2.53,9.5-5.01,13.86-8.31,4.64-3.51,9.42-6.8,14.1-10.25,2.55-1.88,5.19-3.67,7.48-5.88,4.82-4.66,8.83-10.12,12.8-15.6,7.24-10,12.21-21.13,15.07-33.33,1.3-5.56,2.62-11.11,3.96-16.65,1.1-4.54,2.37-9,2.73-13.75,.38-5.02,1.45-10,2.42-14.96,1.32-6.79,3.06-13.5,4.19-20.31,.91-5.47,1.53-11.06,1.61-16.6,.07-5.02-.78-10.04-1.24-15.06-.33-3.63-.51-7.3-2.03-10.66-.2-.44-.22-.99-.23-1.49,0-2.12-.05-4.25,.07-6.37,.13-2.2-.6-3.88-2.16-5.26-.98-.87-1.74-1.96-1.76-3.45Z"/><path class="cls-3" d="M788.8,442.18c-.37-.18-.76-.32-1.11-.54-.86-.54-1.7-1.31-1.53-2.39,.69-4.53,1.65-8.84,4.97-12.35,3.61-3.83,6.91-8.02,10.11-12.27,3.09-4.1,5.83-8.48,8.8-12.68,1.11-1.57,2.29-3.15,3.66-4.45,4.75-4.51,9.48-9.05,13.33-14.47,2.03-2.86,3.67-6.04,5.48-9.08,.18-.31,.35-.62,.66-1.15,.85,.84,1.65,1.59,2.4,2.4,.12,.13,.08,.57-.03,.79-1.87,3.85-3.69,7.73-5.66,11.52-1.93,3.7-4.82,6.53-7.95,9.03-2.11,1.68-3.85,3.64-5.28,5.99-1.89,3.11-3.45,6.47-5.99,9.1-1.78,1.84-3.7,3.57-5.31,5.57-2.04,2.54-3.74,5.39-5.77,7.94-2.2,2.78-4.62,5.36-6.92,8.05-.95,1.11-1.85,2.28-2.75,3.45-.13,.17-.15,.45-.26,.82,2.46-.23,4.85-.19,7.12-.74,2.43-.58,4.09,.53,5.72,1.99,.57,.51,1.1,.69,1.77,.5,1.33-.38,2.65-.75,3.97-1.19,3.48-1.15,6.95-2.32,10.42-3.52,1.57-.54,3.16-1.06,4.65-1.79,4.81-2.34,9.88-3.55,15.05-4.41,3.3-.55,6.56-.98,9.92-.68,1.55,.14,3.19-.35,4.75-.73,3.81-.93,7.59-2.04,11.41-2.94,2.34-.55,4.53-1.43,6.64-2.65,1.9-1.1,3.84-2.12,6-3.31,.38,1.59,.75,3.01,1.04,4.45,.04,.2-.24,.6-.46,.73-5.24,3.11-10.47,6.24-15.74,9.27-2.4,1.38-5.06,1.27-7.66,1.18-4.51-.15-9.03-.43-13.53-.7-1.71-.11-3.25,.33-4.74,1.2-3.08,1.8-6.2,3.52-9.25,5.37-3.13,1.9-6.47,2.77-10.01,3.08-3.51,.32-7.01,.82-10.51,1.24l-2.86-.27c-1.29-1.97-3.16-2.73-5.3-2.57-1.34,.1-2.65,.32-4.01,.34-1.6,.03-3.2,.58-4.81,.91l-.41-.04Z"/><path class="cls-3" d="M789.21,442.22c1.6-.33,3.2-.88,4.81-.91,1.36-.02,2.67-.24,4.01-.34,2.14-.16,4.02,.6,5.3,2.57l-14.12-1.32Z"/></g></g><g id="_Mirror_Repeat_-2"><g class="cls-5"><path class="cls-3" d="M157.02,635.57l.03-.29c.94-.1,1.9-.14,2.83-.31,1.15-.21,1.62,.25,2.07,1.29,1.16,2.72,2.24,5.41,6.03,5.97,1.94,.29,3.74,1.6,5.21,3.1,4.37,4.45,9.48,7.95,15,10.92,3.9,2.1,7.78,4.25,11.63,6.45,3.18,1.82,6.26,3.97,9.88,4.68,3.16,.62,6.4,.65,9.61,.99,2.2,.23,4.42,.37,6.57,.86,2.98,.68,5.5,2.39,7.81,4.32,4.14,3.45,8.68,6.18,13.75,8.07,5.04,1.88,10.09,3.76,15.04,5.88,3.66,1.57,7.32,2.22,11.23,2.22,7.48,0,14.96,.45,22.43,1.53,6.87,1,13.5,.51,20.09-1.2,4.52-1.17,9.29-1.58,13.92-2.44,2.83-.52,5.82-.85,8.36-1.97,8.42-3.74,16.13-8.58,22.84-14.68,5.22-4.74,11.04-8.42,17.99-10.55,3.83-1.18,7.57-2.69,10.7-5.08,1.78-1.35,3.4-1.56,5.52-.85,2.07,.69,2.14,.61,2.36,2.69,.03,.31-.22,.8-.5,.93-6.63,3.2-12.68,7.17-18.27,11.81-5.07,4.21-10.98,7.33-16.74,10.63-4.66,2.67-9.29,5.39-14.4,7.34-5.44,2.07-10.76,4.38-16.17,6.51-2.94,1.16-5.87,2.45-8.95,3.22-6.51,1.62-13.26,2.11-20.02,2.57-12.32,.83-24.38-.87-36.25-4.92-5.4-1.85-10.81-3.68-16.22-5.48-4.43-1.48-8.89-2.76-13.11-4.98-4.45-2.34-9.25-4.08-13.96-5.89-6.45-2.48-13.06-4.57-19.44-7.23-5.12-2.14-10.19-4.57-14.92-7.45-4.29-2.61-8.1-5.99-12.11-9.05-2.9-2.21-5.91-4.3-7.96-7.38-.26-.4-.72-.72-1.15-.98-1.8-1.13-3.57-2.3-5.43-3.32-1.93-1.06-2.97-2.57-3.32-4.62-.22-1.29-.73-2.51-1.99-3.32Z"/><path class="cls-3" d="M452.47,628.39c.05-.41,.13-.81,.14-1.23,0-1.01-.21-2.13-1.22-2.57-4.2-1.82-8.37-3.29-13.11-2.35-5.16,1.03-10.47,1.6-15.76,2.06-5.11,.44-10.28,.44-15.42,.72-1.92,.11-3.88,.27-5.72,.74-6.34,1.63-12.7,3.23-19.34,3.61-3.51,.2-7.07-.1-10.61-.17-.36,0-.71-.03-1.33-.06,.26,1.17,.47,2.24,.76,3.3,.05,.17,.44,.37,.69,.4,4.26,.46,8.51,.98,12.77,1.32,4.16,.33,8.09-.61,11.87-1.95,2.54-.9,5.13-1.33,7.88-1.29,3.64,.05,7.32,.51,10.89-.25,2.51-.53,4.98-1.24,7.54-1.55,3.23-.39,6.55-.31,9.79-.67,3.52-.39,6.99-1.07,10.49-1.59,1.45-.22,2.91-.35,4.38-.5,.22-.02,.46,.11,.83,.22-1.5,1.96-2.74,4.01-4.4,5.64-1.78,1.75-1.72,3.75-1.35,5.91,.13,.75,0,1.3-.52,1.76-1.03,.92-2.05,1.85-3.11,2.73-2.82,2.34-5.66,4.66-8.51,6.96-1.29,1.04-2.57,2.12-3.98,3-4.54,2.83-8.25,6.48-11.72,10.41-2.21,2.5-4.31,5.04-5.84,8.04-.71,1.39-1.99,2.52-3.15,3.64-2.81,2.74-5.76,5.35-8.55,8.11-1.71,1.69-3.62,3.08-5.77,4.22-1.94,1.03-3.83,2.13-5.98,3.33,1.14,1.17,2.15,2.23,3.22,3.24,.15,.14,.64,.11,.87,0,5.42-2.79,10.84-5.56,16.21-8.42,2.44-1.3,3.76-3.62,5.07-5.87,2.27-3.91,4.43-7.87,6.59-11.84,.82-1.5,2.01-2.58,3.53-3.38,3.16-1.66,6.27-3.39,9.46-4.99,3.27-1.64,5.78-4.02,7.92-6.84,2.13-2.81,4.42-5.5,6.63-8.25l1.29-2.57c-.98-2.13-.64-4.13,.64-5.86,.79-1.08,1.68-2.08,2.42-3.22,.87-1.34,2.19-2.41,3.32-3.59l.18-.37Z"/><path class="cls-3" d="M452.28,628.76c-1.13,1.18-2.45,2.25-3.32,3.59-.74,1.14-1.63,2.14-2.42,3.22-1.27,1.73-1.62,3.73-.64,5.86l6.38-12.67Z"/></g></g></g><g id="pzupKk.tif"><g><path class="cls-3" d="M829.82,49.05c-.32,1.83-.57,3.68-.98,5.49-1.48,6.57-4.49,12.45-8.17,18.05-4.12,6.27-9.79,10.68-16.35,14.06-8.21,4.23-16.97,6.84-26.02,8.44-5.76,1.02-11.59,1.66-17.38,2.46-.09,.01-.19-.01-.41-.03,4.05-1.99,8.02-3.89,11.94-5.87,7.01-3.55,13.83-7.43,19.88-12.48,8.24-6.89,14.66-15.12,18.05-25.45,1.74-5.3,2.4-10.73,1.04-16.25-.81-3.26-2.58-6.06-4.34-8.86-.88-1.39-1.73-2.8-2.78-4.5,1.78,.11,3.3,.12,4.8,.32,4.7,.63,9.08,2.15,12.9,5.04,4.51,3.41,7.14,7.89,7.62,13.58,.02,.28,.13,.55,.2,.82v5.19Z"/><path class="cls-3" d="M670.86,276.81c-2.08-.14-4.16-.29-6.24-.42-9.74-.61-19.38-1.86-28.79-4.53-3.84-1.09-7.59-2.41-11.13-4.29-.2-.11-.39-.24-.72-.43,6.34,.92,12.51,1.89,18.7,2.69,5.45,.71,10.93,1.24,16.4,1.82,13.77,1.45,27.59,2.06,41.42,1.64,6.28-.19,12.56-.86,18.83-1.41,2.63-.23,5.25-.7,8.08-1.08-2.07,1.42-4.17,2.3-6.36,2.98-4.49,1.38-9.11,2.03-13.8,2.19-7.34,.25-14.69,.44-22.03,.66-.53,.02-1.06,.13-1.6,.2h-12.76Z"/><path class="cls-3" d="M743.64,130.99c-2.59-2.24-5.54-3.55-8.66-4.49-4.21-1.27-8.54-1.92-12.93-2.2-4.17-.26-8.33-.5-12.5-.75l-.04,.36c2.32,.35,4.63,.73,6.96,1.05,2.35,.32,4.71,.55,7.06,.89,2.38,.34,4.77,.68,7.12,1.17,2.3,.48,4.56,1.14,6.8,1.9-11.93-.34-23.83-.76-35.68-2.96,0-1.94,.88-3.44,2.08-4.81,1.27-1.45,2.75-2.08,4.77-2.13,12.35-.29,24.39,1.23,35.91,5.9,2.78,1.13,5.42,2.5,7.71,4.47,2.27,1.95,2.88,4.39,2.09,7.21-.47,1.67-1.71,2.74-3.18,3.49-1.6,.81-3.28,1.46-4.89,2.26-.99,.49-1.94,1.09-2.85,1.73-.83,.58-.76,1.23,.19,1.66,.64,.3,1.36,.44,2.05,.64,1.32,.38,1.56,.76,1.6,2.15,.15,5.29-1.26,10.31-2.5,15.37-.41,1.67-.72,3.36-1.08,5.04l.34,.17c.52-.85,1.19-1.65,1.52-2.57,.92-2.56,1.68-5.18,2.54-7.77,.44-1.32,.89-2.66,1.48-3.92,1.87-4.02,4.92-5.36,9.2-4.26,5.63,1.44,9.21,5.15,11.38,10.32,3.59,8.55,2.99,16.98-1.11,25.2-3.41,6.84-8.42,12.44-14,17.55-5,4.58-10.25,8.86-16.05,12.4-3.65,2.23-6.27,5.3-8.26,9.04-1.08,2.02-2.32,3.98-3.68,5.83-1.68,2.29-3.99,3.72-6.89,3.97-.87,.08-1.22,.35-1.33,1.34-.53,4.73-2.27,9.1-4.21,13.4-.14,.3-.52,.58-.85,.7-6.05,2.25-12.33,3.54-18.72,4.42-6.34,.87-12.7,1.14-19.08,.8-6.19-.32-12.25-1.31-18.04-3.78-5.04-2.16-7.87-5.76-8.26-11.21-1.06-14.57-5.69-28.21-10.64-41.8-4.94-13.59-9.46-27.33-14.25-40.96-1.34-3.82-2.79-7.64-4.63-11.23-1.29-2.52-3.32-4.67-5.03-6.98-.68-.93-1.44-1.8-2.08-2.76-2.78-4.13-1.52-7.71,2.5-10.25,3.09-1.94,6.65-2.93,10.23-3.54,5.13-.87,10.29-1.61,15.46-2.19,7.36-.83,14.75-1.44,22.12-2.2,1.75-.18,3.47-.58,5.21-.86,1.38-.22,2.13,.19,2.49,1.56,.32,1.25,.48,2.54,.65,3.82,.12,.89,.13,1.78,.19,2.78-1.81,.16-3.63,.38-5.45,.48-5.04,.26-10.08,.42-15.11,.7-6.41,.35-12.74,1.16-18.71,3.74-.36,.16-.75,.26-1.13,.35-1.62,.39-2.43,.06-3.41-1.3-.57-.79-1.2-1.53-1.85-2.36-1.55,2.05-1.15,4.39,.8,5.92,2.15,1.68,4.72,2.41,7.28,3.13,6.97,1.98,14.13,2.61,21.33,2.81,8.61,.25,17.22,.31,25.83,.49,8.5,.18,17,.54,25.5,.56,7.74,.01,15.46-.6,23-2.56,4.77-1.24,9.31-3,13.06-6.35,.18-.16,.36-.34,.63-.59Zm-20.41,93.56c2.04-2.96,3.93-5.89,6.01-8.68,4.07-5.44,9.12-9.66,15.58-12.05,.4-.15,.77-.49,1.06-.83,1.52-1.73,2.95-3.54,4.53-5.21,2.7-2.85,5.56-5.55,8.21-8.44,4.24-4.61,7.52-9.73,7.93-16.23,.17-2.7-.1-5.32-1.58-7.68-.94-1.51-2.14-2.67-3.98-3.07-3.7-.79-6.79,.25-9.18,3.13-1.47,1.77-2.75,3.69-4.11,5.55-1.59,2.17-3.29,4.19-6.01,5.02-.25,.08-.45,.51-.56,.82-.69,1.96-1.25,3.97-2.03,5.9-3.56,8.78-7.18,17.54-10.76,26.31-2.05,5.02-3.8,10.13-5.12,15.46Zm-1.81-76.88l-.04-.16c-.53,0-1.07-.02-1.6,0-8.49,.39-16.97,.97-25.46,1.15-16.17,.35-32.32,.07-48.37-2.28-6.08-.89-12.09-2.05-17.97-3.87-1.84-.57-3.65-1.2-5.61-1.84,.07,.29,.1,.46,.16,.61,.8,2.03,2.34,3.31,4.24,4.24,2.98,1.47,6.22,1.95,9.46,2.34,5.21,.63,10.42,1.28,15.64,1.77,6.87,.64,13.75,1.29,20.65,1.65,8.81,.47,17.64,.48,26.46-.12,5.81-.39,11.59-1.03,17.3-2.23,1.73-.36,3.44-.84,5.15-1.26Zm-24.35,96.5c-14.27-.1-28.24-.75-42.15-4.6,.24,.83,.38,1.47,.62,2.08,.2,.5,.7,.94,.73,1.42,.05,1.09,.72,1.29,1.57,1.53,4.73,1.31,9.57,1.96,14.45,2.3,6.55,.46,13.1,.49,19.62-.41,1.84-.25,3.7-.59,5.17-2.33Zm-64.81-92.93c0,.98-.03,1.99,.03,2.98,.01,.2,.35,.52,.57,.55,2.09,.32,4.19,.7,6.3,.86,5.31,.39,10.62,.73,15.94,.99,2.45,.12,4.91,.02,7.36,.02-.12-.38-.26-.48-.42-.55-.32-.16-.65-.31-.98-.45-3.76-1.6-7.77-1.97-11.77-2.35-3.11-.29-6.24-.48-9.35-.84-2.52-.3-5.01-.79-7.68-1.22Zm9.65-10.35l-.06-.36c-.25,0-.5,0-.75,0-5.1-.16-9.95-1.23-14.4-3.84-3.07-1.81-5.68-4.16-7.98-6.86-.32-.37-.81-.6-1.41-1.03-.12,.82-.25,1.28-.25,1.74,.02,3.71,2.73,7.68,6.19,8.96,4.93,1.81,10.05,2.36,15.26,2.08,1.14-.06,2.27-.45,3.4-.68Zm-9.15,16.85c0,1.01,.1,1.74-.02,2.44-.21,1.21,.42,1.59,1.43,1.88,3.63,1.05,7.35,1.27,11.08,1.36,4.21,.09,8.42,.01,12.63,0,.27,0,.53-.05,.82-.08-.64-1.7-1.46-2.36-3.1-2.47-.71-.05-1.45-.1-2.15,0-3.91,.52-7.73,.02-11.52-.93-2.98-.74-5.99-1.42-9.18-2.18Zm3.31,14.83c-.07,.09-.11,.12-.11,.14,.28,1.38,.55,2.77,.89,4.14,.03,.12,.49,.19,.75,.19,4.03,.06,8.05,.1,12.08,.17,3.88,.06,7.77,.4,11.63-.34,.74-.14,1.46-.37,2.18-.56-5.12-1.47-10.3-1.63-15.45-2.01-4.01-.3-8.01-.66-11.96-1.73Zm28.06,11.79c-.36-.2-.5-.3-.66-.37-3.39-1.68-7.06-2.09-10.75-2.34-3.69-.26-7.39-.42-11.09-.64-1.13-.07-2.25-.16-3.43-.25,0,.41-.08,.7,.01,.9,.43,.89,.82,1.84,1.42,2.6,.22,.28,1,.15,1.53,.16,2.09,.04,4.17,.05,6.26,.11,5.49,.15,10.99,.72,16.7-.18Zm-29.52-18.34c-.18,2.39-.4,1.85,1.79,2.81,2.4,1.06,5.01,1.33,7.6,1.31,5.43-.06,10.87-.26,16.3-.4,.26,0,.52,0,.78,0-2.8-1.83-5.92-2.32-9.06-2.57-5.8-.46-11.6-.77-17.41-1.15Zm16.42,45.29c-.02,.26-.12,.51-.05,.68,.46,1.03,1.02,2.01,1.44,3.06,.28,.72,.73,.8,1.4,.77,3.66-.18,7.33-.24,10.99-.49,1.85-.12,3.71-.43,5.51-.87,1.15-.28,2.21-.96,3.3-1.46l-.13-.36c-7.46-.62-15-.03-22.47-1.33Zm24.39,8.86l-.03-.39c-3.62-.08-7.23-.12-10.85-.24-3.41-.11-6.82-.28-10.23-.44-.74-.03-1.01,.33-.74,1.08,.29,.82,.59,1.63,.92,2.52,4.53,0,9.21,.13,13.86-.05,2.53-.1,5.02-.79,7.06-2.48Zm-18.87,12.6q-.19,1.9,1.31,2.63c.32,.16,.65,.31,.99,.43,4.73,1.75,9.6,2.05,14.54,1.28,1.5-.23,2.93-.86,4.4-1.31l-.08-.39c-6.87-2.15-14.07-1.56-21.15-2.64Zm-12.61-37.43l1.25,4.01c1.77,0,3.56-.03,5.36,0,2.95,.05,5.9,.23,8.84,.19,1.74-.02,3.45-.43,4.85-1.96-6.79-1.75-13.57-1.91-20.3-2.25Zm30.98,32.25c-6.43-.56-12.86-1.11-19.38-1.67,0,.86,.06,1.52-.02,2.15-.11,.86,.29,1.16,1.06,1.37,4.41,1.17,8.85,1.42,13.33,.61,1.82-.33,3.59-.88,4.99-2.46Zm-12.13-37.29c-7.45-.83-14.65-1.85-21.98-1.78,.44,.87,.9,1.63,1.21,2.45,.22,.6,.58,.72,1.14,.73,1.37,.03,2.73,.13,4.1,.18,3.52,.12,7.04,.33,10.55,.31,1.73-.01,3.45-.47,4.99-1.89Zm4.81,16.04l.14-.41c-1.03-.46-2.02-1.17-3.08-1.32-2.38-.33-4.79-.45-7.19-.51-3.55-.09-7.13,.11-10.76-1.48l1.41,4.19c6.34,.76,12.91,.51,19.48-.47Z"/><path class="cls-3" d="M724.74,242.95c2.03-1.86,4.38-2.5,6.85-2.44,2.94,.08,5.88,.43,8.81,.72,3.32,.32,6.64,.69,9.95,0l.1-.3c-1.45-.51-2.85-1.22-4.34-1.51-3.59-.69-7.22-1.23-10.84-1.75-3.48-.5-6.98-.85-10.5-2,2.36-1.55,4.86-2.03,7.45-2.11,4.03-.13,7.92,.83,11.83,1.6,4.02,.79,8.04,1.62,12.18,1.21,.49-.05,.99-.13,1.48-.2l.09-.37c-2.78-.89-5.54-1.88-8.36-2.65-3.86-1.05-7.82-1.55-11.83-1.58-.9,0-1.85-.28-2.7-.62-1.13-.45-1.49-1.37-1.21-2.56,.64-2.7,2.79-4.3,5.93-4.6,3.6-.34,7.1,.37,10.61,.93,6.42,1.02,12.8,2.26,18.97,4.32,3.05,1.02,6.12,2.17,8.9,3.75,3.18,1.81,5.34,4.67,5.4,8.55,.04,3.08-1.67,5.36-3.97,7.21-3.04,2.45-6.57,3.97-10.24,5.19-8.88,2.96-17.74,6.03-26.97,7.77-3.91,.74-7.86,1.33-11.77,2.1-1.97,.39-3.91,.94-5.81,1.58-4.17,1.4-8.49,1.84-12.84,2.05-4.43,.21-8.86,.22-13.28,.5-3.44,.22-6.86,.74-10.29,1.11-1.18,.13-2.36,.26-3.55,.32-5.1,.27-10.17,.22-15.23-.75-1.93-.37-3.94-.4-5.92-.49-4.21-.19-8.43-.26-12.64-.47-3.81-.19-7.61-.5-11.27-1.68-5.21-1.68-10.58-2.63-15.97-3.48-6.32-1-12.5-2.64-18.57-4.65-4.66-1.55-9.35-3.03-13.97-4.72-3.22-1.18-6.23-2.81-8.69-5.29-3.2-3.23-3.55-7.16-1.06-10.97,1.7-2.6,4.14-4.13,6.91-5.3,5.52-2.32,11.3-3.72,17.13-4.97,6.97-1.49,14.02-2.43,21.12-3,3.4-.27,6.83-.53,10.2,.39,3.39,.92,5.27,3.41,4.94,6.64-3,.17-6.02,.3-9.03,.51-7.97,.55-15.91,1.22-23.53,3.87-1.2,.42-2.37,.93-3.55,1.4l.04,.37c1.73,.04,3.49,.31,5.18,.07,4.41-.6,8.79-1.43,13.18-2.16,4.14-.69,8.28-1.15,12.35,.34,.72,.26,1.39,.65,2.08,.98l-.03,.43c-3.24,.54-6.47,1.12-9.71,1.59-4.82,.71-9.73,.96-14.34,2.79-.4,.16-.79,.34-1.18,.52-.09,.04-.16,.13-.36,.3,2.2,.5,4.31,.62,6.44,.41,3.51-.36,7.01-.76,10.52-1.03,2.45-.19,4.9-.04,7.13,1.2,.53,.29,1,.68,1.71,1.16-5.16,1.37-10.38,1.42-15.22,3.18l-.04,.33c1.43,.22,2.85,.58,4.28,.63,2.99,.1,5.99-.08,8.97,.09,2.02,.11,4.03,.59,6.03,.97,.47,.09,.88,.44,1.41,.72-1.44,1.32-3.14,1.48-4.8,1.45-2.37-.04-4.74-.32-7.11-.47-.7-.04-1.41,0-2.19,0,.43,1.7,1.69,2.09,3.04,2.23,1.68,.17,3.37,.22,5.08,.51-.32,.03-.64,.07-.96,.08-7.08,.13-14.08-.57-21.01-1.99-6.56-1.35-12.98-3.19-18.91-6.37-2.24-1.2-4.32-2.71-6.41-4.16-1.17-.81-1.2-1.41-.5-2.72,.44-.82,.85-1.65,1.27-2.48,.06-.12,.05-.27,.07-.43-1.93,.4-3.63,2.54-3.88,4.75-.31,2.73,.54,4.84,2.99,6.29,3.81,2.26,7.92,3.8,12.19,4.78,9.06,2.07,18.14,4.06,27.27,5.78,6.14,1.16,12.36,1.92,18.57,2.61,6.33,.7,12.69,1.11,19.04,1.61,2.33,.18,4.67,.39,7.01,.38,4.46-.02,8.92-.15,13.37-.3,3.35-.12,6.69-.28,10.03-.53,4.73-.36,9.47-.75,14.19-1.26,4.79-.51,9.58-1.03,14.33-1.8,7.33-1.2,14.66-2.47,21.92-4.01,5.71-1.22,11.35-2.8,16.96-4.42,2.89-.83,5.66-2.1,8.07-3.99,1.99-1.55,2.12-3.69,1.71-5.88-.39-2.08-1.62-3.6-3.86-4.25,.25,.61,.48,1.23,.77,1.83,.22,.45,.55,.84,.78,1.29,.45,.91,.47,1.64-.48,2.41-3.9,3.19-8.34,5.35-13.01,7.08-6.7,2.47-13.63,3.97-20.71,4.83-4.62,.56-9.24,.74-13.9,.42,1.44-.08,2.9-.07,4.33-.27,1.04-.14,2.09-.46,3.06-.87,.42-.18,.65-.79,1.12-1.41-1.15,0-2.02-.03-2.89,0-2.69,.1-5.39,.34-8.08,.3-1.11-.02-2.22-.59-3.6-.99,1.49-1.25,2.91-1.66,4.36-1.75,2.62-.17,5.25-.14,7.88-.25,2.37-.1,4.74-.25,7.1-.43,.55-.04,1.09-.3,1.91-.54-5.14-1.8-10.33-1.96-15.49-3.24Z"/><path class="cls-3" d="M787.03,0c2.13,1.34,4.36,2.57,6.38,4.06,3.29,2.43,5.9,5.48,7.45,9.34,1.8,4.47,1.84,9.11,.7,13.68-1.2,4.79-2.85,9.48-4.29,14.21-.37,1.22-.71,2.45-1.11,3.84,1.68-.67,2.51-1.88,3.19-3.2,1.46-2.83,2.17-5.91,2.8-9.01,.11-.56,.25-1.11,.41-1.81,1.81,2.03,2.77,4.31,3.01,6.79,1.34,13.93-2.81,26.03-12.36,36.26-6.01,6.43-13.31,11.06-21.15,14.91-10.55,5.19-21.7,8.7-32.97,11.88-5.14,1.45-10.31,2.81-15.47,4.21-.31,.08-.62,.14-1.21,.03,.24-.5,.36-1.15,.74-1.47,1.82-1.51,3.55-3.25,5.61-4.32,4.13-2.15,8.43-3.99,12.71-5.85,5.89-2.56,11.4-5.8,16.82-9.21,6.67-4.19,13.54-8.07,19.77-12.94,6.95-5.44,12.37-12.01,15.11-20.55,.04-.13,.07-.26,.18-.73-2.08,1.47-3.95,2.71-5.73,4.07-4.09,3.13-8.05,6.44-12.22,9.44-6.12,4.4-12.99,7.36-20.06,9.86-9.49,3.36-19.26,5.67-29.13,7.57-7.54,1.46-15.07,2.97-22.24,5.85-3.76,1.5-7.48,3.2-10.47,5.92-2.17,1.98-3.92,4.49-5.59,6.95-3.37,4.99-5.43,10.55-6.17,16.51-.65,5.26-.82,10.54,1.3,15.63,.51,1.23,.65,2.61,1.01,4.09-4.42-.93-7.09-3.46-8.66-7.27-1.65-4-1.75-8.22-1.45-12.43,.39-5.69,1.79-11.17,3.69-16.55,2.43-6.87,6.86-12.15,12.59-16.48,7.13-5.38,15.15-9.05,23.39-12.34,6.63-2.65,13.55-4.23,20.47-5.87,11.42-2.7,22.57-6.18,32.98-11.71,7.03-3.73,13.34-8.39,18.54-14.47,2.43-2.85,3.8-6.24,4.92-9.75,1.59-4.98,2.35-10.09,1.85-15.31-.33-3.46-1.16-6.79-3.26-9.69-.87-1.21-1.61-2.51-2.4-3.77l.31-.36Z"/><path class="cls-3" d="M698.97,130.8c-.44-.32-1-.55-1.31-.97-.66-.89-1.22-1.86-1.78-2.82-.13-.22-.14-.55-.12-.82,.56-8.76,3.45-16.55,9.63-22.96,4.66-4.84,10.27-8.31,16.29-11.17,7.64-3.62,15.65-6.27,23.6-9.07,7.15-2.51,14.33-4.97,20.98-8.65,2.63-1.46,5.09-3.23,7.64-4.85,.39-.25,.82-.44,1.23-.65l.29,.31c-.29,.39-.52,.84-.87,1.17-5,4.69-10.7,8.39-16.73,11.57-7.02,3.7-14.16,7.2-21.22,10.85-9.15,4.72-18.18,9.69-26.15,16.28-3.59,2.98-6.82,6.4-10.2,9.63-.17,.17-.35,.39-.4,.61-.46,2.25-.87,4.5-1.33,6.75-.32,1.58-.15,3.07,.78,4.45l-.33,.34Z"/><path class="cls-3" d="M760.98,171.23c-.35,0-.65,.1-.84-.01-1.86-1.09-3.18-.04-4.5,1.06-.19,.16-.41,.3-.61,.45-5.76,4.33-10.52,9.48-13.32,16.24-1.31,3.17-2.18,6.44-2.54,9.95,.35-.13,.62-.22,.87-.32,4.97-2,9-5.36,12.88-8.93,.15-.14,.31-.33,.34-.52,.35-2.46,1.91-3.93,4.01-4.99,.3-.15,.59-.43,.74-.72,.65-1.28,1.27-2.57,1.86-3.88,1.19-2.63,1.91-5.33,1.12-8.33Z"/><path class="cls-3" d="M760.98,171.23c.79,3,.07,5.7-1.12,8.33-.59,1.31-1.21,2.6-1.86,3.88-.15,.29-.44,.57-.74,.72-2.1,1.06-3.66,2.52-4.01,4.99-.03,.19-.19,.38-.34,.52-3.88,3.57-7.91,6.93-12.88,8.93-.26,.1-.52,.19-.87,.32,.37-3.51,1.23-6.79,2.54-9.95,2.8-6.76,7.56-11.91,13.32-16.24,.2-.15,.41-.29,.61-.45,1.32-1.1,2.65-2.16,4.5-1.06,.19,.11,.49,.01,.84,.01Z"/></g></g></svg>