<svg width="123" height="45" viewBox="0 0 123 45" fill="none" xmlns="http://www.w3.org/2000/svg">
<g clip-path="url(#clip0_543_3742)">
<path d="M24.0141 -0.000237411C26.2956 0.140272 28.5586 0.295053 30.7051 1.12165C31.7071 1.50695 32.7025 1.94714 33.6243 2.49271C37.0505 4.52352 40.1289 6.99232 42.4192 10.28C43.3488 11.6138 44.0193 13.1451 44.6723 14.6457C45.1573 15.7599 45.4218 16.9685 45.7906 18.1343C45.8619 18.3593 45.9266 18.5976 46.0506 18.7941C46.28 19.1563 46.2679 19.4889 46.2109 19.917C46.1516 20.3638 46.4106 20.8512 46.5204 21.3221C46.573 21.5472 46.6564 21.7843 46.6312 22.0049C46.4973 23.2157 46.3031 24.4199 46.1867 25.6329C46.0002 27.5693 45.4141 29.3795 44.5823 31.1249C44.4429 31.418 44.3364 31.7374 44.2772 32.0558C43.8876 34.1404 42.8999 35.8792 41.347 37.3205C40.2243 38.3622 39.1521 39.46 38.0317 40.505C37.6475 40.864 37.1943 41.1516 36.7586 41.4513C35.738 42.1527 34.7108 42.8443 33.6803 43.5315C33.5475 43.6193 33.3862 43.6786 33.2293 43.7137C31.9156 44.0112 30.6064 44.3427 29.2818 44.5809C27.0584 44.9805 24.824 45.0123 22.5797 44.6885C21.7917 44.5743 20.9818 44.6138 20.1818 44.5853C20.0907 44.582 19.9963 44.6215 19.9096 44.6051C17.6961 44.1912 15.3278 44.3471 13.4238 42.7971C13.0901 42.5259 12.6709 42.358 12.2879 42.1483C11.2684 41.5885 10.2467 41.0319 9.22605 40.4732C9.13057 40.4205 9.04058 40.3371 8.93852 40.3173C7.9168 40.1186 7.446 39.3151 6.92142 38.5456C6.76888 38.3227 6.45062 38.2173 6.22345 38.0395C5.98201 37.8518 5.73838 37.6586 5.53206 37.4358C5.3872 37.2788 5.30818 37.0625 5.19076 36.8803C3.98248 35.0109 2.65457 33.2073 1.60762 31.2522C0.972198 30.0645 0.608945 28.6682 0.411406 27.3223C0.129364 25.3947 0.0426663 23.4298 0.0031585 21.478C-0.0253749 20.0652 0.103026 18.6568 0.38836 17.2419C0.559561 16.3944 1.21473 15.9531 1.43093 15.1869C1.94124 13.3811 2.67981 11.6522 3.72458 10.0813C4.14599 9.44795 4.62887 8.83761 5.171 8.30631C6.46159 7.04282 7.75328 5.77055 9.13935 4.61573C10.8107 3.22161 12.7554 2.28854 14.8537 1.69466C16.4329 1.24789 17.9924 0.696823 19.599 0.392751C21.0433 0.119416 22.5391 0.119416 24.0119 -0.00133514L24.0141 -0.000237411ZM32.5521 23.0939C32.6432 21.9907 31.8542 21.0576 31.3241 20.0312C30.9894 19.3813 30.3188 19.2167 29.7087 18.9148C28.3237 18.2298 26.8696 17.7644 25.3859 17.412C23.9548 17.0717 22.4875 16.884 21.0356 16.6348C20.9588 16.6216 20.8699 16.6568 20.7909 16.682C20.5582 16.7556 20.3321 16.8664 20.094 16.907C19.6473 16.9828 19.1579 16.929 18.7518 17.0926C17.7916 17.4801 16.8302 17.8972 15.9413 18.4241C13.9264 19.6174 13.449 21.7239 14.6222 23.7536C15.4112 25.1181 16.7128 25.9798 17.7773 27.0743C17.8146 27.1127 17.8629 27.1456 17.9123 27.1665C18.5049 27.4277 19.0909 27.7055 19.6934 27.9426C22.5863 29.082 25.4791 29.9415 28.5926 28.6418C30.9159 27.6714 32.5499 25.5616 32.5532 23.0961L32.5521 23.0939ZM10.9468 19.5372C10.7098 19.5054 10.4255 19.4329 10.1413 19.4373C8.97583 19.4549 7.81035 19.4834 6.64596 19.5317C6.08298 19.5548 5.51341 19.5833 4.96249 19.6898C4.12405 19.8523 4.09222 19.9412 4.24586 20.7546C4.43901 20.8501 4.71337 20.8951 4.77154 21.0312C5.00529 21.5757 5.45963 21.5538 5.87995 21.4769C7.45697 21.186 8.91657 21.5581 10.3487 22.1674C10.5474 22.2519 10.7745 22.2673 10.9468 22.3057V19.5372ZM9.10642 28.004L9.23592 28.1874C10.9018 27.5792 12.5699 26.9766 14.2271 26.3454C14.3105 26.3135 14.3785 25.9765 14.3127 25.8657C13.9308 25.2268 13.5302 24.5945 13.0792 24.0039C12.9639 23.8535 12.593 23.7459 12.4185 23.8162C11.1345 24.3321 10.0568 25.1565 9.13825 26.1862C8.9473 26.4002 8.88364 26.6011 9.18325 26.8251C9.29518 26.9085 9.32262 27.1709 9.30506 27.3432C9.28201 27.5682 9.17776 27.7856 9.10862 28.0062L9.10642 28.004ZM21.4888 14.6216C21.7171 14.6787 21.9761 14.7632 22.2406 14.8016C22.358 14.8192 22.4897 14.7478 22.6126 14.7083C22.797 14.649 22.9792 14.5316 23.1602 14.5327C23.405 14.5348 23.6486 14.6271 23.9383 14.6907C24.3422 12.1122 23.0055 9.92766 22.6653 7.55546L22.4831 7.55985C22.155 9.89034 21.8258 12.2208 21.4877 14.6205L21.4888 14.6216ZM17.0431 10.1867C17.0431 10.7784 16.8456 11.4645 17.0848 11.9211C17.5831 12.874 17.8245 13.8081 17.6774 14.8631C17.6588 14.9959 17.7169 15.2034 17.8157 15.278C18.2042 15.5733 18.7847 15.4899 19.1304 15.1375C19.2149 15.0508 19.3203 14.9838 19.4059 14.9158C19.5848 15.0266 19.7329 15.1188 19.8734 15.2067C20.5933 14.4415 20.6339 14.1572 20.0797 13.3251C19.5233 12.4898 18.911 11.6906 18.3754 10.8421C18.0945 10.3964 17.7707 10.1351 17.0442 10.1867H17.0431ZM15.5352 27.9052C15.1149 28.2883 14.6255 28.6265 14.2809 29.0754C13.7749 29.7341 13.3678 30.4695 12.9277 31.1776C12.6314 31.6551 12.3329 32.1326 12.075 32.631C12.0081 32.7605 12.0311 33.0141 12.1211 33.1195C12.1847 33.1941 12.458 33.17 12.5875 33.0975C13.1768 32.7704 13.7892 32.463 14.3127 32.0481C14.7857 31.6727 15.2444 31.2182 15.5396 30.7012C15.792 30.2588 15.9555 29.8032 16.4011 29.486C16.8159 29.1907 16.7281 28.7165 16.3001 28.4761C16.0532 28.3366 15.8392 28.1369 15.5352 27.9063V27.9052ZM9.76379 15.1836C10.0524 15.401 10.3608 15.5975 10.622 15.8433C10.7679 15.9806 10.9139 16.1946 10.9271 16.3834C10.9644 16.9235 11.2146 17.3231 11.6316 17.6228C12.1496 17.9949 12.6808 18.3517 13.224 18.6854C13.3228 18.7458 13.5686 18.7205 13.6443 18.6393C13.9165 18.3484 14.1755 18.0344 14.3796 17.6941C14.5925 17.3374 14.5047 17.019 14.0811 16.8642C13.6498 16.7073 13.2866 16.5042 13.2679 15.9674C13.2646 15.8719 13.1713 15.7731 13.1044 15.6886C12.5206 14.9586 10.8162 14.5788 9.76269 15.1836H9.76379ZM32.6279 18.7721C32.7881 18.9642 32.8715 19.085 32.9757 19.1848C33.2238 19.4242 33.4981 19.6382 33.7319 19.8896C34.1785 20.3726 34.3783 20.3891 34.8524 19.9148C34.9808 19.7864 35.0905 19.6382 35.2003 19.4933C35.8434 18.6513 36.2933 17.6359 37.439 17.2693C37.8133 17.1496 37.8561 16.6908 37.6091 16.5393C37.1636 16.266 36.1144 16.3384 35.6787 16.6216C34.8403 17.1661 33.9766 17.6711 33.1382 18.2144C32.9505 18.3363 32.8243 18.5526 32.6279 18.771V18.7721ZM24.0382 31.1995L23.8889 31.2248C23.8286 31.4103 23.6837 31.6145 23.721 31.7769C23.9976 32.9647 24.295 34.148 24.6165 35.3237C24.869 36.2458 25.264 37.0911 26.1595 37.6707C26.1595 37.528 26.1848 37.4303 26.1563 37.3534C25.7228 36.1876 25.8874 34.9779 25.8698 33.7792C25.8621 33.226 25.7743 32.6738 25.714 32.0327C26.1453 31.867 25.8852 31.5069 25.7678 31.1117C25.5318 31.2039 25.3024 31.2434 25.1367 31.3664C24.7186 31.6792 24.3565 31.7407 24.0382 31.1984V31.1995ZM16.3023 15.7599C16.3495 15.7226 16.3704 15.7149 16.3759 15.7006C16.7238 14.8488 16.8873 14.0112 16.1333 13.2736C15.9841 13.1276 15.8118 13.0024 15.6406 12.8828C15.2148 12.5853 14.7209 12.3558 14.3697 11.9881C13.843 11.437 13.4446 10.7652 12.9332 10.1977C12.6731 9.9079 12.2857 9.73227 11.9477 9.49955C11.6777 9.99682 11.7491 10.3064 12.0333 10.6511C12.694 11.4546 13.2657 12.3328 13.9483 13.1155C14.7187 14.0003 15.1786 15.1649 16.3023 15.7599V15.7599ZM40.5667 21.433C39.8326 20.7513 39.0183 20.6448 38.1337 20.8556C37.7255 20.9522 37.3172 21.0477 36.9134 21.1575C36.2736 21.3309 35.637 21.5153 34.9665 21.0126C34.8557 21.6515 34.7481 22.2025 34.6768 22.758C34.6647 22.8546 34.7942 23.0511 34.8765 23.0631C35.2123 23.1081 35.5789 23.1839 35.8905 23.0939C37.1142 22.7404 38.3214 22.3288 39.5351 21.9391C39.6218 21.9116 39.725 21.8556 39.7974 21.8798C40.2265 22.0291 40.3692 21.714 40.5667 21.433V21.433ZM32.596 12.0287C32.3348 12.6929 32.078 13.3745 31.7993 14.0464C31.5579 14.6293 31.1277 15.0036 30.5416 15.2692C30.1016 15.469 29.7328 15.8258 29.3926 16.0695C29.7163 16.5141 29.9896 16.8192 30.1773 17.1705C30.3265 17.4504 30.3825 17.7589 30.8094 17.6974C31.2067 17.6403 31.4426 17.4669 31.5974 17.0618C31.9793 16.0629 32.4128 15.0826 32.8539 14.1089C33.0559 13.6621 33.3697 13.2648 33.5541 12.8125C33.6979 12.4601 33.8372 12.0375 33.4202 11.7751C33.1074 11.8717 32.8408 11.9541 32.596 12.0298V12.0287ZM31.1825 34.7968C31.1825 34.4818 31.2352 34.1568 31.1727 33.855C30.9455 32.7528 30.6876 31.6562 30.422 30.5618C30.3858 30.4136 30.2662 30.2094 30.1422 30.1721C29.7317 30.048 29.3015 29.9887 28.8691 29.9031C28.8011 30.1501 28.7495 30.3378 28.733 30.3949C28.4225 30.5091 28.1525 30.5354 28.0241 30.6836C27.9484 30.7714 28.057 31.0755 28.1514 31.2423C28.338 31.5728 28.5739 31.8746 28.7868 32.1897C29.2335 32.8516 29.7372 33.485 30.1037 34.1898C30.3265 34.6168 30.5361 34.878 31.1825 34.7968V34.7968ZM38.3927 31.4795C38.0393 31.4279 37.7639 31.418 37.506 31.3444C37.0374 31.2116 36.5523 31.0931 36.1287 30.8647C35.9301 30.7572 35.6996 30.3521 35.7621 30.1863C35.9125 29.79 35.6919 29.6825 35.4516 29.5562C34.9522 29.2928 34.4244 29.0787 33.9426 28.7878C33.373 28.442 33.2655 28.4453 32.9757 29.0447C32.8967 29.2082 32.8364 29.3806 32.7738 29.5518C32.6564 29.8702 32.7398 30.1194 33.0932 30.1567C33.9536 30.2478 34.5385 30.7901 35.1509 31.317C35.4197 31.5486 35.749 31.7297 36.0771 31.8724C36.5863 32.0942 37.1186 32.2632 37.6399 32.4586C37.8012 32.519 37.9592 32.5904 38.1754 32.6815C38.2522 32.2599 38.3159 31.9087 38.3949 31.4784L38.3927 31.4795ZM21.9223 30.7593C21.4208 30.6759 20.8567 30.5354 20.2882 30.5036C19.8701 30.4805 19.6572 30.8999 19.7077 31.3368C19.7955 32.0942 19.8943 32.8571 19.8789 33.6156C19.869 34.1283 19.8361 34.4686 20.4748 34.6311C21.0554 34.7781 21.1234 34.8451 21.254 34.2271C21.4888 33.1096 21.6886 31.9855 21.9223 30.7583V30.7593ZM27.9451 12.4283C27.7004 12.7071 27.572 12.8751 27.4205 13.02C26.9629 13.4602 26.5579 14.0046 26.0169 14.2944C25.4736 14.5853 25.365 14.9388 25.3793 15.4185C26.2243 15.5909 27.0507 15.716 27.8496 15.9388C28.2908 16.0618 28.5377 15.974 28.4806 15.5437C28.35 14.5491 28.1459 13.5645 27.9451 12.4283V12.4283ZM36.3032 26.7504C36.3306 26.8119 36.3581 26.8723 36.3855 26.9337C36.5863 26.7724 36.9781 26.5649 36.9529 26.4573C36.8826 26.1609 36.9638 25.6966 36.402 25.6637C36.1408 25.6483 35.8642 25.4727 35.6447 25.3047C35.4329 25.1422 35.287 24.8942 35.1081 24.6878C34.7558 24.2827 34.4705 24.2597 34.195 24.7163C33.9261 25.1609 33.744 25.6637 33.5739 26.1587C33.4729 26.4518 33.6177 26.6385 33.9645 26.6494C34.7448 26.6725 35.5251 26.7153 36.3054 26.7504H36.3032Z" fill="#161A24"/>
<path d="M98.5765 14.3946C99.6608 14.7228 100.045 15.5428 100.077 16.5088C100.139 18.4244 100.114 20.3421 100.134 22.2587C100.137 22.5573 99.99 22.6276 99.7266 22.6254C98.9408 22.6166 98.1551 22.6045 97.3704 22.6309C96.9644 22.6451 96.8327 22.5145 96.8381 22.1018C96.859 20.5133 96.8491 18.9249 96.8436 17.3365C96.8436 17.0818 96.8864 16.7843 96.7734 16.5835C96.6187 16.309 96.3586 15.9556 96.0963 15.9094C95.5168 15.8085 94.9077 15.8776 94.2394 15.8776C94.2394 16.1378 94.2394 16.3529 94.2394 16.567C94.2394 18.4112 94.2284 20.2554 94.2471 22.0996C94.2515 22.5068 94.1264 22.6462 93.7159 22.6298C92.9686 22.6012 92.2179 22.6078 91.4695 22.6276C91.1062 22.6375 90.9998 22.5002 91.0009 22.149C91.0085 16.6888 91.0085 11.2298 91.002 5.76969C91.002 5.43817 91.0733 5.26802 91.4541 5.27241C93.2989 5.29327 95.1437 5.29108 96.9874 5.30315C97.2058 5.30425 97.4253 5.3295 97.6415 5.36133C99.2448 5.59844 99.9702 6.28343 100.066 7.8927C100.155 9.38343 100.135 10.8862 100.073 12.3802C100.035 13.3243 99.6673 14.1366 98.5754 14.3924L98.5765 14.3946ZM94.2767 13.2189C94.9308 13.2189 95.5476 13.2321 96.1643 13.2145C96.6033 13.2024 96.8283 12.9357 96.8305 12.5076C96.8381 11.2331 96.837 9.95864 96.8327 8.68417C96.8316 8.27691 96.6165 8.01345 96.2093 7.99589C95.5772 7.96954 94.944 7.9893 94.2756 7.9893V13.22L94.2767 13.2189Z" fill="#161A24"/>
<path d="M56.1845 14.3836C57.5179 14.7689 57.8285 15.702 57.8504 16.7646C57.8878 18.5901 57.8647 20.4178 57.8801 22.2445C57.8834 22.5859 57.7056 22.6287 57.4323 22.6265C56.6466 22.6188 55.8608 22.6089 55.075 22.6309C54.7041 22.6419 54.6075 22.4926 54.6108 22.1479C54.6229 20.5584 54.6218 18.9699 54.6108 17.3804C54.6086 17.0741 54.6229 16.7174 54.478 16.4759C54.3222 16.2157 54.0083 15.9402 53.7252 15.8908C53.1951 15.7986 52.6365 15.8644 52.023 15.8644C52.011 16.1038 51.9901 16.3145 51.9901 16.5253C51.9879 18.3332 51.9627 20.1423 52.0033 21.9503C52.0165 22.5299 51.8288 22.6748 51.2889 22.6353C50.671 22.5903 50.0444 22.5914 49.4265 22.6353C48.9063 22.6715 48.745 22.5134 48.7483 21.9766C48.7702 17.9765 48.7603 13.9763 48.7603 9.97511V5.33389C48.9612 5.31303 49.1181 5.28339 49.274 5.2823C50.9179 5.279 52.563 5.26583 54.2069 5.28998C54.7875 5.29876 55.3768 5.35914 55.9453 5.4755C57.0186 5.69614 57.6979 6.40747 57.7517 7.47557C57.8406 9.22096 57.8285 10.9762 57.767 12.7238C57.7385 13.5515 57.2414 14.1498 56.1856 14.3825L56.1845 14.3836ZM52.023 13.22C52.6859 13.22 53.3038 13.2343 53.9194 13.2156C54.3606 13.2024 54.5856 12.9148 54.591 12.5021C54.6075 11.2276 54.6064 9.95315 54.5921 8.67868C54.5878 8.2824 54.3573 8.01016 53.9523 7.9937C53.3213 7.96625 52.6892 7.98601 52.023 7.98601V13.22Z" fill="#161A24"/>
<path d="M58.8469 33.5039C58.8469 31.5862 58.8327 29.6673 58.8579 27.7507C58.8634 27.3204 58.9666 26.8802 59.0939 26.4664C59.3254 25.7111 59.8577 25.2095 60.6226 25.0338C62.519 24.5969 64.4296 24.5925 66.3249 25.0338C67.227 25.2435 67.7768 25.8725 67.9524 26.7715C68.0632 27.3412 68.1214 27.9307 68.1236 28.5114C68.139 31.8551 68.1357 35.1977 68.1258 38.5414C68.1247 39.0321 68.0764 39.5261 68.0095 40.0135C67.8569 41.1277 67.2424 41.8621 66.1252 42.0893C64.4066 42.4395 62.6671 42.4515 60.9551 42.1069C59.5866 41.8324 58.96 41.041 58.881 39.5854C58.8031 38.1462 58.8283 36.7005 58.8129 35.2581C58.8063 34.673 58.8129 34.089 58.8129 33.5039H58.848H58.8469ZM64.907 33.539C64.907 31.8968 64.9136 30.2535 64.9048 28.6113C64.9004 27.72 64.6557 27.4883 63.7547 27.4675C63.6274 27.4642 63.499 27.4653 63.3717 27.4664C62.2797 27.4741 62.0701 27.6826 62.069 28.7957C62.0657 31.9528 62.0657 35.111 62.069 38.2681C62.069 39.39 62.2984 39.6117 63.4178 39.6205C63.4913 39.6205 63.5637 39.6205 63.6373 39.6205C64.6645 39.6029 64.9037 39.3713 64.907 38.3581C64.9125 36.7521 64.9081 35.1461 64.907 33.539V33.539Z" fill="#161A24"/>
<path d="M63.2575 16.7525H66.4149C66.4149 17.4155 66.4061 18.0643 66.4182 18.7131C66.4258 19.1412 66.2985 19.7493 66.7957 19.8668C67.4048 20.0106 68.0808 19.9272 68.7173 19.8547C68.8534 19.8393 69.0334 19.4496 69.0432 19.2257C69.0827 18.3695 69.0707 17.5099 69.0575 16.6515C69.0487 16.0994 68.691 15.7997 68.2169 15.6164C67.1941 15.2223 66.1723 14.8271 65.144 14.4484C63.8864 13.9862 63.2103 13.0839 63.1862 11.7589C63.1621 10.4274 63.1412 9.08704 63.263 7.76427C63.4123 6.1506 64.1256 5.42829 65.7498 5.29986C67.1074 5.19228 68.489 5.21424 69.8466 5.3284C71.2261 5.44476 71.9262 6.16707 72.0843 7.53923C72.2072 8.60513 72.1896 9.6886 72.2006 10.7644C72.2017 10.884 71.9888 11.108 71.8681 11.1124C71.0285 11.1431 70.1879 11.1222 69.3472 11.1321C69.0542 11.1354 68.9686 11.0037 68.973 10.7325C68.9818 10.1112 68.984 9.48991 68.9697 8.86969C68.9522 8.13201 68.7403 7.92125 68.0248 7.87843C66.5992 7.79281 66.416 7.96735 66.416 9.41197C66.416 9.44819 66.416 9.48552 66.416 9.52174C66.416 10.839 67.0393 11.7278 68.286 12.1881C68.9543 12.434 69.6238 12.6788 70.302 12.8984C71.5103 13.2903 72.2489 14.0971 72.284 15.3694C72.3279 16.9721 72.352 18.5879 72.2094 20.1818C72.0667 21.7779 71.3314 22.4783 69.739 22.6034C68.3804 22.7099 66.9987 22.7055 65.6412 22.5892C64.1366 22.4596 63.4298 21.745 63.2806 20.2466C63.1675 19.1126 63.2586 17.9589 63.2586 16.7536L63.2575 16.7525Z" fill="#161A24"/>
<path d="M58.1127 31.8924C57.0164 31.8924 56.0693 31.9067 55.1255 31.8727C55.018 31.8683 54.8369 31.5884 54.8325 31.4314C54.804 30.5005 54.8237 29.5685 54.816 28.6366C54.8084 27.6903 54.5955 27.484 53.6473 27.4664C52.1471 27.44 52.0022 27.5795 52.0022 29.057C52.0022 32.09 52.0022 35.1231 52.0033 38.1561C52.0033 38.3932 52.0011 38.6347 52.0428 38.8663C52.1635 39.5327 52.5498 39.6929 53.7877 39.615C54.512 39.57 54.7842 39.3636 54.8007 38.7335C54.8292 37.6193 54.8149 36.5051 54.8182 35.3898C54.8197 34.9149 55.06 34.677 55.5392 34.6763C56.2153 34.6763 56.8924 34.6906 57.5673 34.6708C57.9119 34.6609 58.0579 34.7619 58.0502 35.1319C58.0228 36.5567 58.0634 37.9838 57.9964 39.4053C57.9108 41.232 57.1777 42.03 55.3549 42.2188C53.813 42.378 52.2557 42.4406 50.7204 42.0739C49.6471 41.8182 49.0808 41.0947 48.8986 40.0519C48.8152 39.5689 48.7768 39.0716 48.7757 38.5809C48.7659 35.2186 48.7549 31.8573 48.7834 28.495C48.7889 27.81 48.8997 27.1118 49.0676 26.4477C49.2553 25.7045 49.8051 25.2204 50.547 25.0437C52.4423 24.5903 54.3529 24.5914 56.2482 25.0338C57.1986 25.2556 57.7989 25.9307 57.879 26.8846C58.0162 28.5169 58.037 30.1591 58.1117 31.8924H58.1127Z" fill="#161A24"/>
<path d="M105.622 5.30425C105.797 5.29217 105.957 5.27241 106.118 5.27241C108.348 5.27022 110.577 5.2801 112.807 5.26253C113.203 5.25924 113.363 5.35474 113.346 5.77847C113.315 6.52163 113.337 7.26699 113.337 8.06395H108.843C108.843 9.44599 108.834 10.7743 108.862 12.1014C108.864 12.1936 109.138 12.3539 109.289 12.3572C110.311 12.3802 111.335 12.3857 112.358 12.3627C112.778 12.3528 112.949 12.4692 112.927 12.917C112.893 13.6262 112.918 14.3386 112.918 15.1301H108.877V19.8448H113.33C113.33 20.7263 113.347 21.543 113.308 22.3575C113.304 22.453 113 22.6089 112.833 22.61C110.933 22.6276 109.032 22.621 107.132 22.6221C106.643 22.6221 106.152 22.6221 105.623 22.6221V5.30425H105.622Z" fill="#161A24"/>
<path d="M82.3388 5.27132C82.8545 5.27132 83.2716 5.27132 83.6886 5.27132C85.6442 5.27132 87.5999 5.28229 89.5544 5.26363C89.978 5.25924 90.1372 5.3745 90.1163 5.81689C90.0823 6.54139 90.1075 7.26809 90.1075 8.04748H85.5839C85.5839 8.56561 85.5839 9.03105 85.5839 9.49649C85.5839 10.2638 85.608 11.0322 85.5751 11.7984C85.5553 12.2661 85.7342 12.3923 86.1765 12.3802C87.1807 12.3539 88.187 12.3824 89.1912 12.3671C89.5423 12.3616 89.6861 12.4746 89.674 12.8369C89.6543 13.4571 89.651 14.0795 89.674 14.6997C89.6883 15.073 89.5314 15.1641 89.1879 15.1586C88.1651 15.1421 87.1411 15.1674 86.1183 15.1454C85.7276 15.1366 85.5652 15.2343 85.574 15.6603C85.5992 16.9018 85.5927 18.1444 85.5773 19.3871C85.5729 19.7438 85.6958 19.8679 86.0514 19.8624C87.2026 19.847 88.3549 19.8799 89.505 19.847C89.9989 19.8327 90.1459 20.0018 90.1141 20.476C90.0768 21.0403 90.0922 21.6089 90.1097 22.1742C90.1207 22.4991 90.0153 22.6298 89.6751 22.6287C87.3727 22.6188 85.0703 22.6133 82.7667 22.6309C82.251 22.6353 82.3366 22.3092 82.3366 22.0096C82.3355 17.1861 82.3366 12.3627 82.3366 7.53923C82.3366 6.81144 82.3366 6.08254 82.3366 5.27022L82.3388 5.27132Z" fill="#161A24"/>
<path d="M98.1594 27.6629V31.9517H102.201C102.201 32.8321 102.214 33.6631 102.18 34.493C102.177 34.5775 101.886 34.7136 101.727 34.7169C100.723 34.7378 99.7178 34.7466 98.7137 34.7191C98.2747 34.707 98.1046 34.8157 98.1145 35.2899C98.1452 36.638 98.1254 37.9871 98.1254 39.3955H102.579V42.1661C102.425 42.1793 102.253 42.2068 102.081 42.2078C99.8704 42.2111 97.6601 42.198 95.4499 42.2188C95.001 42.2232 94.8583 42.0992 94.8594 41.6392C94.8737 36.234 94.8737 30.8276 94.8594 25.4224C94.8583 24.9592 95.0054 24.8395 95.4532 24.8439C97.6634 24.8648 99.8736 24.8637 102.084 24.8439C102.517 24.8395 102.668 24.9658 102.64 25.4016C102.606 25.9471 102.607 26.4982 102.64 27.0438C102.667 27.4905 102.525 27.6552 102.06 27.6431C100.964 27.6135 99.8682 27.6321 98.7718 27.6354C98.5754 27.6354 98.3789 27.653 98.1605 27.6629H98.1594Z" fill="#161A24"/>
<path d="M89.3909 31.9638H93.4899C93.4899 32.8167 93.5063 33.6335 93.4679 34.448C93.4635 34.5479 93.1683 34.7114 93.0048 34.7158C91.9644 34.74 90.923 34.7279 89.8815 34.729C89.6444 34.729 89.3887 34.6906 89.3909 35.0638C89.3964 36.4854 89.3931 37.9069 89.3931 39.3987H93.9157C93.9157 40.3011 93.9256 41.1343 93.9003 41.9674C93.8981 42.052 93.6797 42.198 93.5612 42.1991C91.2236 42.2133 88.885 42.2068 86.5475 42.2122C86.2643 42.2122 86.159 42.1014 86.1645 41.8225C86.1754 41.2199 86.1666 40.6172 86.1666 40.0146C86.1666 35.1944 86.1743 30.3732 86.1557 25.553C86.1535 25.0228 86.2566 24.8274 86.8416 24.8373C89.0145 24.8757 91.1885 24.8615 93.3615 24.845C93.7752 24.8417 93.9607 24.9394 93.931 25.3928C93.8937 25.9559 93.897 26.5256 93.931 27.0899C93.9574 27.541 93.7653 27.6475 93.3538 27.6398C92.2212 27.6201 91.0887 27.6464 89.9572 27.6267C89.5512 27.6201 89.3701 27.7079 89.3822 28.1689C89.414 29.4061 89.3931 30.6443 89.3931 31.9638H89.3909Z" fill="#161A24"/>
<path d="M77.8206 24.8768H85.3775V27.6332C84.7169 27.6332 84.0672 27.6332 83.4175 27.6332C82.7601 27.6332 82.1028 27.6431 81.4454 27.6299C81.1381 27.6245 81.0273 27.7474 81.0295 28.0504C81.0393 29.3281 81.0415 30.607 81.0284 31.8848C81.0251 32.2448 81.2018 32.3041 81.5047 32.3008C82.4913 32.2909 83.4779 32.3118 84.4634 32.2898C84.8541 32.281 85.0285 32.3809 85.011 32.8069C84.9814 33.4995 84.9923 34.1944 85.0077 34.8882C85.0154 35.2186 84.8903 35.3404 84.5599 35.3349C83.6107 35.3207 82.6581 35.3679 81.7121 35.3163C81.1282 35.2844 81.0141 35.4963 81.0229 36.0309C81.0536 37.8564 81.035 39.682 81.0339 41.5086C81.0339 41.9755 80.7921 42.2089 80.3085 42.2089C79.4898 42.2089 78.6722 42.2089 77.8228 42.2089V24.8768H77.8206Z" fill="#161A24"/>
<path d="M72.6122 32.2986C73.8018 32.2986 74.8959 32.3162 75.989 32.2898C76.4291 32.2789 76.6145 32.3908 76.5882 32.8639C76.552 33.5193 76.5618 34.179 76.5849 34.8355C76.5981 35.2153 76.4642 35.3481 76.0823 35.3393C75.1516 35.3185 74.2199 35.3327 73.2882 35.3327C73.0906 35.3327 72.8931 35.3327 72.6122 35.3327C72.6122 35.6028 72.6122 35.8158 72.6122 36.0276C72.6122 37.908 72.599 39.7884 72.622 41.6689C72.6275 42.108 72.487 42.2364 72.0612 42.2188C71.3314 42.1881 70.5994 42.1925 69.8707 42.2188C69.4768 42.2331 69.3791 42.0805 69.3802 41.7095C69.389 36.2504 69.389 30.7914 69.3802 25.3324C69.3802 24.9877 69.4746 24.8461 69.8433 24.8483C72.0711 24.8615 74.3 24.8604 76.5278 24.8483C76.8735 24.8461 77.025 24.9438 77.0118 25.3126C76.9898 25.9329 76.9909 26.5542 77.0118 27.1744C77.0239 27.5454 76.8603 27.642 76.5201 27.6387C75.4062 27.6256 74.2923 27.6486 73.1784 27.6267C72.768 27.619 72.5946 27.7123 72.6034 28.1689C72.6319 29.5148 72.6133 30.8628 72.6133 32.2986H72.6122Z" fill="#161A24"/>
<path d="M116.725 22.6232V8.07713H113.675V5.32072H123V8.03431H119.985V8.78407C119.985 13.1673 119.975 17.5495 119.997 21.9327C120.001 22.4838 119.864 22.6715 119.296 22.6375C118.463 22.587 117.626 22.6243 116.725 22.6243V22.6232Z" fill="#161A24"/>
<path d="M72.3356 5.30974H81.6693V8.02882H78.6261C78.6261 8.31643 78.6261 8.54256 78.6261 8.76979C78.6261 13.1541 78.6173 17.5385 78.6371 21.9217C78.6393 22.4552 78.5328 22.6869 77.9479 22.6353C77.3311 22.5804 76.7067 22.6232 76.0855 22.6232C75.6034 22.6232 75.3619 22.3897 75.3612 21.9228C75.3612 17.5385 75.3612 13.1541 75.3612 8.77089V8.06615H72.3367V5.31084L72.3356 5.30974Z" fill="#161A24"/>
<path d="M104.274 22.6199C103.225 22.6199 102.261 22.6287 101.297 22.6056C101.202 22.6034 101.079 22.4201 101.027 22.2972C100.981 22.1885 101.015 22.0458 101.015 21.9173C101.015 16.6032 101.023 11.2891 101.003 5.97496C101.001 5.42939 101.123 5.22301 101.696 5.26802C102.349 5.32071 103.012 5.30864 103.667 5.27131C104.145 5.24387 104.288 5.39097 104.285 5.88056C104.267 10.3725 104.274 14.8655 104.274 19.3574C104.274 20.4145 104.274 21.4728 104.274 22.6199Z" fill="#161A24"/>
<path d="M61.9692 22.6199C60.9683 22.6199 60.0223 22.6287 59.0763 22.6067C58.9754 22.6045 58.8524 22.4333 58.7888 22.3136C58.7427 22.228 58.7778 22.0996 58.7778 21.9898C58.7778 16.6416 58.7844 11.2924 58.7668 5.94422C58.7646 5.4228 58.8952 5.23948 59.4341 5.26802C60.267 5.31193 61.1033 5.2801 61.9703 5.2801V22.6199H61.9692Z" fill="#161A24"/>
<path d="M25.3673 27.406C22.942 27.4049 20.6813 26.7671 18.5303 25.676C17.2013 25.002 16.4814 23.9119 16.0918 22.4958C15.7933 21.4135 16.2739 20.6736 16.9664 20.0249C17.9541 19.1006 19.2261 18.7965 20.5254 18.6187C23.0188 18.2773 25.3871 18.8459 27.6994 19.6857C28.3216 19.9118 28.9165 20.2916 29.4355 20.7109C30.4408 21.5211 31.0268 22.6397 31.4054 23.8526C31.5832 24.4224 30.7064 25.9427 30.0874 26.2808C28.3436 27.2315 27.5315 27.4258 25.3673 27.4071V27.406ZM19.2502 19.6791C19.1822 19.7263 18.9594 19.7998 18.9396 19.9107C18.8771 20.2532 18.8913 20.6088 18.8749 20.9601C19.0208 20.9228 19.1668 20.8811 19.3149 20.8492C19.3852 20.8339 19.462 20.8229 19.5322 20.8328C20.8876 21.0282 22.2813 21.15 23.3843 22.0776C24.3039 22.8504 25.1917 23.666 26.0368 24.5179C26.6733 25.1601 27.4503 25.2215 28.2536 25.2303C28.4314 25.2325 28.6575 25.0558 28.7848 24.8999C29.3379 24.2204 29.2654 23.4937 28.6081 22.9163C28.3754 22.7121 28.1417 22.498 27.875 22.3455C25.2334 20.8372 22.3636 20.0578 19.2513 19.678L19.2502 19.6791Z" fill="#161A24"/>
</g>
<defs>
<clipPath id="clip0_543_3742">
<rect width="123" height="44.9083" fill="white"/>
</clipPath>
</defs>
</svg>
