<?xml version="1.0" encoding="UTF-8"?><svg id="Layer_1" xmlns="http://www.w3.org/2000/svg" width="234.36" height="310.27" viewBox="0 0 234.36 310.27"><defs><style>.cls-1{fill:#96b58a;}.cls-2{fill:#364259;}</style></defs><g id="OOdUFm"><g><path class="cls-1" d="M59.62,188.8c1.02-.5,1.89-.71,2.46-1.25,3.37-3.21,5.6-2.52,8.09,1.39,4.1,6.45,8.93,12.43,13.14,18.81,1.34,2.04,1.7,4.73,2.63,7.5,3.9-4.33,8.5-9.08,12.64-14.19,1.82-2.26,2.72-5.26,4.33-8.53,.45,0,2.52,.65,3.57-.11,4.5-3.25,8.7-6.91,13.15-10.54-12.23-4-15.28-5.79-17.05-10.78,3.16,1.98,5.46,3.81,8.06,4.95,4.16,1.82,8.75,4.42,13.02,1.24,3.53-2.62,6.17-6.43,9.45-9.97-4.75-2.43-9.09-4.65-13.44-6.87,.35-.7,.69-1.41,1.04-2.11,3.77,1.65,7.46,3.53,11.34,4.83,1.49,.5,4.51,.25,4.95-.62,1.92-3.79,3.16-7.94,4.64-11.95-.37-.14-.74-.29-1.1-.43-1.12,2.19-2.24,4.37-3.88,7.58-.83-2.03-1.63-3.03-1.41-3.64,1.14-3.12,2.7-6.08,3.84-9.19,3.1-8.47,6.12-16.97,9.01-25.51,.38-1.14,.32-3.35-.35-3.77-5.27-3.29-3.15-7.23-1.04-11.27-1.62-.85-3.01-1.59-4.36-2.3-1.45,1.59-2.73,2.99-3.39,3.72-2.8-2.61-5.25-4.9-7.45-6.96-.93-5.09-1.89-10.32-2.97-16.17-7.88,3.62-15.31,6.86-22.58,10.43-4.26,2.09-8.02,3.49-9.94-1.8-8.56,3.47-11.46,11.36-15.91,18.09-5.88,8.9-12.33,17.41-18.46,26.15-6.77,9.66-12.68,19.69-13.71,31.88-.59,7.01-1.52,13.98-2.31,21.06,5.19,.08,9.74-7.06,14.01,.33Z"/><path class="cls-1" d="M129.88,211.92c13.35-3.11,25.39-10.18,35.04-20.42,4.38-4.65,10.34-8.04,12-14.97,.25-1.06,1.85-1.79,3.27-3.07-2.95-3.54-1.3-6.37,.79-9.19,1.23-1.65,2.12-2.84,1.07-5.6-1.06-2.81-.79-8.08,1.09-9.66,4.14-3.47,5.4-7.1,5.12-12.1-.12-2.18,.81-4.42,1.38-7.22h-10.09c.72-2.69,1.54-6.35,1.71-6.32,4.97,.89,9.95-5.54,15.04-.23l-1.93-4.22c5.07,2.95,7.87-2.02,11.05-2.84,.4-2.32,.74-4.3,1.07-6.29,.83-4.89,4.03-7.79,8.2-9.95,4.62-2.4,3.94-6.31,2.97-10.39-.95-3.97-3.74-4.48-7.21-4.53-4.98-.06-9.97-.34-14.93-.79-8.43-.76-16.29,1.58-24.26,4.04,1.46,1.09,3.1,1.46,4.4,2.35,1.14,.78,1.89,2.13,2.81,3.23-1.46,.27-3.21,1.19-4.33,.69-2.66-1.18-5.01-3.03-7.43-4.57-1.2,3.73-1.1,3.61,2.28,6.24,.97,.76,1.18,2.48,1.95,4.24h-6.17c0,3.84-.94,7.81,.28,10.95,1.06,2.73,4.56,4.52,8.19,7.83-3.78-.92-6.2-1.51-9.34-2.27-.96,5.3-1.88,10.39-2.87,15.85,2.95,3.23,2.26,9.97-1.86,12.97-.68,.5-2.07,.88-2.65,.53-4.88-2.97-5.7,1.08-6.87,4.01-1.28,3.2-1.91,6.67-3.27,9.83-1.84,4.26-4.12,8.33-6.42,12.91-3.5-2.4-6.33,.64-9.27,3.51-3.45,3.37-7.1,6.54-10.46,10-5.5,5.66-10.83,11.49-16.55,17.59,8.18,7.04,17.55,9.87,26.21,7.85Z"/><path class="cls-1" d="M180.67,61.01c-.44-1.02-3.53-.9-6.74-1.57,2.3,4.09,3.65,6.49,5,8.89,.66-.09,1.33-.18,1.99-.27,0-2.39,.61-5.03-.25-7.05Z"/><path class="cls-1" d="M176.59,260.07c14.47-23.29,27.15-47.63,38.3-72.93-5.15-9.65-9.73-19.62-14.51-29.48-.49-1-1.28-2.6-.88-3.18,3.12-4.44,5.82-9.56,9.96-12.81,7.62-5.98,16.13-10.83,24.65-16.39-2.74-3.99-5.23-7.6-7.66-11.15-5.11,2.35-8.34,9.26-13.69,4.5-5.17,3.49-9.4,7.65-14.47,9.45-6.27,2.22-7.56,6.3-7.43,11.78,.09,4.11-.99,7.53-4.49,9.97-.53,.37-1.33,.97-1.3,1.42,.37,6.31,1.2,12.67-3.45,18.02,2.94,4.8-.76,7.46-3.27,10.61-.88,1.11-1.03,2.77-1.8,4-.97,1.54-2.1,3.03-3.41,4.29-1.17,1.13-2.91,1.71-3.97,2.91-6.62,7.47-13.56,14.47-24.5,17.83,5.75,9.65,10.49,19.24,16.76,27.71,5.62,7.59,11.02,15.17,15.17,23.46Z"/><path class="cls-1" d="M167.21,249.73c-7.49-10.79-15.84-20.98-21.09-33.2-.96-2.23-2.3-4.29-3.55-6.58-14.51,8.95-27.65,4.96-40.76-2.81-3.86,5.57-7.83,11.12-11.61,16.79-4.97,7.46-10.87,14.54-14.48,22.62-9.14,20.48-17.48,41.32-25.95,62.09,.11,.15,.22,.3,.32,.45,33.33,3.65,66.83-1.59,99.84-10.1,8.84-11.72,17.13-23.75,24.91-36.09-2.13-4.61-4.77-9.05-7.63-13.17Z"/><path class="cls-1" d="M47.75,303.98c-.28-.46-.55-.91-.83-1.37-.22,.35-.43,.67-.65,.96,.29,.43,.58,.86,.87,1.29,.2-.29,.4-.59,.61-.88Z"/><path class="cls-1" d="M233.7,136.7c-7.72,6.23-15.22,12.16-22.51,18.33-.93,.79-1.56,3.31-1,4.25,3.2,5.42,6.37,10.88,9.68,16.25,5.16-12.34,9.98-24.89,14.5-37.66-.21-.39-.43-.79-.66-1.18Z"/><path class="cls-1" d="M225.02,197.5c.05-.02,.09-.04,.14-.06-.07,0-.14,0-.21,0,.02,.02,.05,.04,.07,.06Z"/><path class="cls-1" d="M53.88,285.06c.6-.82,.69-3.17,.27-3.4-3.07-1.62-6.24-3.28-9.57-4.01-1.23-.27-2.97,2.01-4.54,3.02-.97,.63-2.07,1.07-4.49,2.31,1.22-3.57,1.92-5.64,2.71-7.94-1.01-.51-1.97-.8-2.69-1.39-1.32-1.09-2.5-2.35-3.74-3.54,1.75-.03,3.65-.51,5.23-.01,5.97,1.88,11.84,4.07,18.11,6.27,3.11-8.63,7.07-16.31,8.93-25.36-4.15,.84-7.21,1.47-10.27,2.09-.22-.69-.44-1.37-.67-2.06,1.9-.76,3.74-1.97,5.7-2.2,6.78-.82,10.22-4.66,10.99-11.52-1.01,.09-2.04,.18-3.9,.34,.36-2.01,.09-4.27,1.09-5.4,2.91-3.3,6.18-6.35,9.58-9.15,7.12-5.86,7.67-9.08,2.33-16.59-2.51-3.53-5.05-7.03-7.54-10.57q-4.97-7.07-12.97-3.19c-.92-1.41-1.99-3.07-3.18-4.89-7.18,4.03-13.84,7.91-21.48,2.06-.37,2.93-.61,4.81-.77,6.14-3.44,.32-6.67-.18-9.07,1-6.52,3.21-12.48,7.38-19.04,10.63,3.93,17.29,9.84,34.17,16.27,49.91,6.07,14.25,13.47,28.05,21.98,41.25,3.75-4.45,7.3-9.07,10.72-13.78Z"/><path class="cls-1" d="M73.25,113.21c-5.47-5.12-10.57-10.14-15.97-14.81-2.4-2.08-3.29-4.2-3.07-7.32,.76-11.04,1.3-22.1,1.92-33.15-1.83,2.04-2.54,4.43-3.72,6.55-.73,1.31-2.33,3.23-3.27,3.08-1.13-.17-2.35-.78-3.35-1.59-8.81,10.59-17.26,21.74-25.6,33.61-6.2,8.94-10.77,18.25-13.98,27.79,.95,1.14,1.88,2.3,2.76,3.5,6.07,8.23,14.43,11.26,24.18,11.72,2.3,.11,4.69,.15,6.87,.79,4.36,1.28,5.31,3.97,3.2,8.02-.78,1.49-1.58,2.97-2.55,4.79,4.62,1.1,6.64-.79,8.2-3.97,6.19-12.68,12.31-25.41,22.07-35.9,.84-.91,1.49-1.99,2.32-3.11Z"/><path class="cls-1" d="M30.28,191.43l.52-5.1c4.12,1.4,7.54,2.56,11.63,3.94,1.24-10.25,2.45-20.22,3.65-30.2-2.88-.48-5.55-.93-8.58-1.43,.62-2.39,.84-4.24,1.57-5.86,2.81-6.28,2.27-7.51-4.95-7.5-7.95,.01-15.32-1.75-21.55-6.54-2.87-2.2-4.93-5.41-7.4-8.16-7.26,23.95-6.2,49.25-.98,73.83,5.11-2.72,10.23-5.43,15.39-8.05,3.33-1.7,6.79-3.14,10.7-4.93Z"/><path class="cls-1" d="M51.59,59.15c-1.38,1.59-2.75,3.2-4.11,4.81,.25,.58,.52,1.19,.78,1.88,1.28-2.51,2.32-4.7,3.32-6.69Z"/><path class="cls-1" d="M167.21,249.73c-7.49-10.79-15.84-20.98-21.09-33.2-.96-2.23-2.3-4.29-3.55-6.58-14.51,8.95-27.65,4.96-40.76-2.81-3.86,5.57-7.83,11.12-11.61,16.79-4.97,7.46-10.87,14.54-14.48,22.62-9.14,20.48-17.48,41.32-25.95,62.09,.11,.15,.22,.3,.32,.45,33.33,3.65,66.83-1.59,99.84-10.1,8.84-11.72,17.13-23.75,24.91-36.09-2.13-4.61-4.77-9.05-7.63-13.17Z"/><path class="cls-1" d="M48.27,65.84c1.28-2.51,2.32-4.7,3.32-6.69-1.38,1.59-2.75,3.2-4.11,4.81,.25,.58,.52,1.19,.78,1.88Z"/><path class="cls-1" d="M120.57,16.73c-8.56-.32-14.17-5.22-12.99-10.35,6.3-1.63,12.51-3.23,18.72-4.83l-.4-1.55c-4.09,.18-8.11-.26-11.89,2.85-1.15,.95-2.93,1.48-4.64,1.6-.06,.05-.12,.09-.18,.14-4.85,3.77-9.54,7.59-14.09,11.45,7.83,1.67,15.56,3.76,23.19,6.24,.44-1.81,1.27-3.68,2.28-5.55Z"/><path class="cls-1" d="M156.34,40.31c-2.42-2.09-5-4.2-7.87-5.5-4.5-2.03-9.31-3.39-13.93-5.02,.05-.55,.11-1.05,.2-1.52-3.99-1.61-8.03-3.12-12.09-4.53-.21,.52-.41,1.04-.62,1.57,2.23,2.53,4.39,4.98,6.55,7.43l-.8,1.63c-1.76-.52-3.77-.65-5.23-1.61-4.43-2.93-5.24-6.58-4.28-10.49-7.63-2.48-15.37-4.57-23.19-6.24-13.54,11.5-25.8,23.44-37.3,36.13,.27-.12,.54-.25,.79-.38,.32,1.52,1,3.05,.91,4.55-.69,11.78-1.59,23.55-2.25,35.33-.07,1.31,.56,3.05,1.49,3.96,5.31,5.22,10.81,10.25,16.95,16,5.31-10.68,11.44-19.95,22.09-25.99,.82,2.15,1.61,4.21,2.59,6.77,10.01-4.55,20.03-9.12,30.08-13.69,1.47,6.04,2.41,11.43,4.22,16.51,.71,2,4.59,4.93,4.97,4.64,2.69-1.97,8.34,.36,8.43-5.12,.17-10.5,.05-21,.05-31.5l-1.49-.1c-.27,2.18-.69,4.35-.77,6.54-.26,7.16-.28,14.32-.69,21.47-.07,1.2-1.61,2.32-2.48,3.48-.29-1.29-.82-2.58-.83-3.87-.02-2.59,.23-5.17,.38-7.76l-1.16-.03c-.83,3.94-1.66,7.87-2.49,11.81-.66,.03-1.32,.06-1.98,.09-.34-1.59-1.07-3.21-.93-4.76,.42-4.79,1.24-9.54,1.73-14.33,.12-1.23-.18-2.64-.72-3.77-1.17-2.49-2.62-4.84-4.6-8.42,13.63,.53,10.08-9.55,12.28-16.09,2.19,.77,3.97,1.19,5.57,2,3.16,1.6,5.03,.49,7.02-2.2,2.07-2.8,1.65-5.04-.61-6.98Z"/><path class="cls-1" d="M176.59,260.07c14.47-23.29,27.15-47.63,38.3-72.93-5.15-9.65-9.73-19.62-14.51-29.48-.49-1-1.28-2.6-.88-3.18,3.12-4.44,5.82-9.56,9.96-12.81,7.62-5.98,16.13-10.83,24.65-16.39-2.74-3.99-5.23-7.6-7.66-11.15-5.11,2.35-8.34,9.26-13.69,4.5-5.17,3.49-9.4,7.65-14.47,9.45-6.27,2.22-7.56,6.3-7.43,11.78,.09,4.11-.99,7.53-4.49,9.97-.53,.37-1.33,.97-1.3,1.42,.37,6.31,1.2,12.67-3.45,18.02,2.94,4.8-.76,7.46-3.27,10.61-.88,1.11-1.03,2.77-1.8,4-.97,1.54-2.1,3.03-3.41,4.29-1.17,1.13-2.91,1.71-3.97,2.91-6.62,7.47-13.56,14.47-24.5,17.83,5.75,9.65,10.49,19.24,16.76,27.71,5.62,7.59,11.02,15.17,15.17,23.46Z"/><path class="cls-1" d="M30.28,191.43l.52-5.1c4.12,1.4,7.54,2.56,11.63,3.94,1.24-10.25,2.45-20.22,3.65-30.2-2.88-.48-5.55-.93-8.58-1.43,.62-2.39,.84-4.24,1.57-5.86,2.81-6.28,2.27-7.51-4.95-7.5-7.95,.01-15.32-1.75-21.55-6.54-2.87-2.2-4.93-5.41-7.4-8.16-7.26,23.95-6.2,49.25-.98,73.83,5.11-2.72,10.23-5.43,15.39-8.05,3.33-1.7,6.79-3.14,10.7-4.93Z"/><path class="cls-1" d="M53.88,285.06c.6-.82,.69-3.17,.27-3.4-3.07-1.62-6.24-3.28-9.57-4.01-1.23-.27-2.97,2.01-4.54,3.02-.97,.63-2.07,1.07-4.49,2.31,1.22-3.57,1.92-5.64,2.71-7.94-1.01-.51-1.97-.8-2.69-1.39-1.32-1.09-2.5-2.35-3.74-3.54,1.75-.03,3.65-.51,5.23-.01,5.97,1.88,11.84,4.07,18.11,6.27,3.11-8.63,7.07-16.31,8.93-25.36-4.15,.84-7.21,1.47-10.27,2.09-.22-.69-.44-1.37-.67-2.06,1.9-.76,3.74-1.97,5.7-2.2,6.78-.82,10.22-4.66,10.99-11.52-1.01,.09-2.04,.18-3.9,.34,.36-2.01,.09-4.27,1.09-5.4,2.91-3.3,6.18-6.35,9.58-9.15,7.12-5.86,7.67-9.08,2.33-16.59-2.51-3.53-5.05-7.03-7.54-10.57q-4.97-7.07-12.97-3.19c-.92-1.41-1.99-3.07-3.18-4.89-7.18,4.03-13.84,7.91-21.48,2.06-.37,2.93-.61,4.81-.77,6.14-3.44,.32-6.67-.18-9.07,1-6.52,3.21-12.48,7.38-19.04,10.63,3.93,17.29,9.84,34.17,16.27,49.91,6.07,14.25,13.47,28.05,21.98,41.25,3.75-4.45,7.3-9.07,10.72-13.78Z"/><path class="cls-1" d="M47.75,303.98c-.28-.46-.55-.91-.83-1.37-.22,.35-.43,.67-.65,.96,.29,.43,.58,.86,.87,1.29,.2-.29,.4-.59,.61-.88Z"/><path class="cls-1" d="M59.62,188.8c1.02-.5,1.89-.71,2.46-1.25,3.37-3.21,5.6-2.52,8.09,1.39,4.1,6.45,8.93,12.43,13.14,18.81,1.34,2.04,1.7,4.73,2.63,7.5,3.9-4.33,8.5-9.08,12.64-14.19,1.82-2.26,2.72-5.26,4.33-8.53,.45,0,2.52,.65,3.57-.11,4.5-3.25,8.7-6.91,13.15-10.54-12.23-4-15.28-5.79-17.05-10.78,3.16,1.98,5.46,3.81,8.06,4.95,4.16,1.82,8.75,4.42,13.02,1.24,3.53-2.62,6.17-6.43,9.45-9.97-4.75-2.43-9.09-4.65-13.44-6.87,.35-.7,.69-1.41,1.04-2.11,3.77,1.65,7.46,3.53,11.34,4.83,1.49,.5,4.51,.25,4.95-.62,1.92-3.79,3.16-7.94,4.64-11.95-.37-.14-.74-.29-1.1-.43-1.12,2.19-2.24,4.37-3.88,7.58-.83-2.03-1.63-3.03-1.41-3.64,1.14-3.12,2.7-6.08,3.84-9.19,3.1-8.47,6.12-16.97,9.01-25.51,.38-1.14,.32-3.35-.35-3.77-5.27-3.29-3.15-7.23-1.04-11.27-1.62-.85-3.01-1.59-4.36-2.3-1.45,1.59-2.73,2.99-3.39,3.72-2.8-2.61-5.25-4.9-7.45-6.96-.93-5.09-1.89-10.32-2.97-16.17-7.88,3.62-15.31,6.86-22.58,10.43-4.26,2.09-8.02,3.49-9.94-1.8-8.56,3.47-11.46,11.36-15.91,18.09-5.88,8.9-12.33,17.41-18.46,26.15-6.77,9.66-12.68,19.69-13.71,31.88-.59,7.01-1.52,13.98-2.31,21.06,5.19,.08,9.74-7.06,14.01,.33Z"/><path class="cls-1" d="M73.25,113.21c-5.47-5.12-10.57-10.14-15.97-14.81-2.4-2.08-3.29-4.2-3.07-7.32,.76-11.04,1.3-22.1,1.92-33.15-1.83,2.04-2.54,4.43-3.72,6.55-.73,1.31-2.33,3.23-3.27,3.08-1.13-.17-2.35-.78-3.35-1.59-8.81,10.59-17.26,21.74-25.6,33.61-6.2,8.94-10.77,18.25-13.98,27.79,.95,1.14,1.88,2.3,2.76,3.5,6.07,8.23,14.43,11.26,24.18,11.72,2.3,.11,4.69,.15,6.87,.79,4.36,1.28,5.31,3.97,3.2,8.02-.78,1.49-1.58,2.97-2.55,4.79,4.62,1.1,6.64-.79,8.2-3.97,6.19-12.68,12.31-25.41,22.07-35.9,.84-.91,1.49-1.99,2.32-3.11Z"/><path class="cls-1" d="M129.88,211.92c13.35-3.11,25.39-10.18,35.04-20.42,4.38-4.65,10.34-8.04,12-14.97,.25-1.06,1.85-1.79,3.27-3.07-2.95-3.54-1.3-6.37,.79-9.19,1.23-1.65,2.12-2.84,1.07-5.6-1.06-2.81-.79-8.08,1.09-9.66,4.14-3.47,5.4-7.1,5.12-12.1-.12-2.18,.81-4.42,1.38-7.22h-10.09c.72-2.69,1.54-6.35,1.71-6.32,4.97,.89,9.95-5.54,15.04-.23l-1.93-4.22c5.07,2.95,7.87-2.02,11.05-2.84,.4-2.32,.74-4.3,1.07-6.29,.83-4.89,4.03-7.79,8.2-9.95,4.62-2.4,3.94-6.31,2.97-10.39-.95-3.97-3.74-4.48-7.21-4.53-4.98-.06-9.97-.34-14.93-.79-8.43-.76-16.29,1.58-24.26,4.04,1.46,1.09,3.1,1.46,4.4,2.35,1.14,.78,1.89,2.13,2.81,3.23-1.46,.27-3.21,1.19-4.33,.69-2.66-1.18-5.01-3.03-7.43-4.57-1.2,3.73-1.1,3.61,2.28,6.24,.97,.76,1.18,2.48,1.95,4.24h-6.17c0,3.84-.94,7.81,.28,10.95,1.06,2.73,4.56,4.52,8.19,7.83-3.78-.92-6.2-1.51-9.34-2.27-.96,5.3-1.88,10.39-2.87,15.85,2.95,3.23,2.26,9.97-1.86,12.97-.68,.5-2.07,.88-2.65,.53-4.88-2.97-5.7,1.08-6.87,4.01-1.28,3.2-1.91,6.67-3.27,9.83-1.84,4.26-4.12,8.33-6.42,12.91-3.5-2.4-6.33,.64-9.27,3.51-3.45,3.37-7.1,6.54-10.46,10-5.5,5.66-10.83,11.49-16.55,17.59,8.18,7.04,17.55,9.87,26.21,7.85Z"/><path class="cls-1" d="M225.02,197.5c.06-.02,.11-.05,.17-.07-.09,0-.17,0-.26,0-.02-.01,.09,.07,.09,.07Z"/><path class="cls-1" d="M233.7,136.7c-7.72,6.23-15.22,12.16-22.51,18.33-.93,.79-1.56,3.31-1,4.25,3.2,5.42,6.37,10.88,9.68,16.25,5.16-12.34,9.98-24.89,14.5-37.66-.21-.39-.43-.79-.66-1.18Z"/><path class="cls-1" d="M173.93,59.44c2.3,4.09,3.65,6.49,5,8.89,.66-.09,1.33-.18,1.99-.27,0-2.39,.61-5.03-.25-7.05-.44-1.02-3.53-.9-6.74-1.57Z"/></g></g><g><g id="nErwX3.tif"><path class="cls-2" d="M63.92,204.93c.15,.27,.31,.52,.64,.58,.35,.07,.63-.11,.89-.58,2.2-3.98,4.4-7.95,6.59-11.93,1.07-1.94,2.16-3.88,3.2-5.84,.77-1.44,1.16-2.99,1.26-4.62,0-.13,.03-.25,.05-.37v-.63c-.07-.57-.12-1.15-.21-1.72-.34-2.13-1.23-4.01-2.61-5.66-1.44-1.71-3.22-2.95-5.36-3.62-.86-.27-1.78-.38-2.67-.56-.11-.02-.23-.04-.34-.06h-1.39c-.76,.13-1.53,.22-2.28,.4-2.09,.5-3.87,1.56-5.38,3.07-1.7,1.69-2.8,3.73-3.25,6.09-.55,2.84-.13,5.55,1.27,8.09,3.19,5.78,6.38,11.56,9.57,17.34Zm.8-29.06c3.31,.07,5.93,2.74,5.88,6-.06,3.3-2.74,5.92-6.01,5.86-3.27-.06-5.89-2.77-5.83-6.01,.07-3.27,2.75-5.91,5.95-5.85Z"/></g><g><path d="M16.24,225.05v-13.34h1.26v6.91l6.83-6.91h1.43l-5.26,5.32,6.19,8.02h-1.54l-5.56-7.24-2.09,2.09v5.15h-1.26Z"/><path d="M27.3,225.05l5.24-13.34h1.43l5.11,13.34h-1.3l-1.54-4.19h-6.08l-1.57,4.19h-1.3Zm3.3-5.26h5.22l-2.61-7-2.61,7Z"/><path d="M40.75,225.05v-13.34h8.59v1.07h-7.33v4.82h6.67v1.07h-6.67v6.37h-1.26Z"/><path d="M51.05,225.05v-13.34h8.59v1.07h-7.33v4.82h6.67v1.07h-6.67v6.37h-1.26Z"/><path d="M61.48,225.05v-13.34h8.87v1.07h-7.61v4.82h6.87v1.07h-6.87v5.3h7.8v1.07h-9.06Z"/><path d="M72.79,225.05v-13.34h4.82c.78,0,1.44,.08,2,.24,.56,.16,1.01,.39,1.36,.69s.61,.65,.77,1.06c.16,.41,.24,.87,.24,1.36s-.06,.87-.19,1.21c-.12,.34-.28,.62-.48,.85-.2,.23-.42,.41-.68,.54-.25,.13-.52,.22-.79,.27v.04c.93,.14,1.61,.5,2.07,1.09,.45,.59,.68,1.33,.68,2.22,0,.69-.11,1.28-.32,1.76s-.52,.87-.9,1.17-.84,.51-1.38,.64c-.54,.13-1.12,.19-1.75,.19h-5.45Zm1.26-7.45h3.19c.65,0,1.2-.06,1.65-.17,.44-.11,.8-.27,1.07-.49,.27-.22,.47-.48,.58-.8,.12-.31,.18-.68,.18-1.08s-.07-.77-.2-1.06-.35-.52-.65-.7c-.3-.18-.68-.31-1.16-.39-.48-.08-1.06-.12-1.75-.12h-2.91v4.82Zm0,6.37h3.2c.69,0,1.29-.03,1.81-.09,.51-.06,.94-.19,1.27-.38,.33-.19,.58-.46,.75-.81,.17-.35,.25-.82,.25-1.4s-.09-1-.28-1.34c-.19-.34-.45-.6-.8-.79-.35-.19-.76-.31-1.24-.38-.48-.07-1.02-.1-1.61-.1h-3.35v5.3Z"/><path d="M83.93,225.05l5.24-13.34h1.43l5.11,13.34h-1.3l-1.54-4.19h-6.08l-1.57,4.19h-1.3Zm3.3-5.26h5.22l-2.61-7-2.61,7Z"/><path d="M98.74,219v6.06l-1.26-.02v-13.32h5.22c1.47,0,2.59,.27,3.37,.82,.78,.55,1.17,1.44,1.17,2.68,0,.84-.17,1.51-.51,2-.34,.49-.89,.91-1.66,1.26,.4,.14,.7,.33,.93,.59s.39,.56,.5,.89,.18,.69,.21,1.06c.03,.37,.05,.73,.06,1.07,.01,.51,.03,.93,.06,1.26,.03,.33,.07,.6,.11,.81s.1,.37,.16,.49c.06,.12,.14,.21,.22,.27v.11l-1.39,.02c-.14-.22-.23-.53-.29-.93-.06-.4-.1-.81-.13-1.24s-.06-.85-.07-1.26c-.02-.41-.05-.74-.1-1-.07-.36-.19-.65-.36-.86-.17-.22-.37-.38-.6-.49-.23-.11-.5-.19-.79-.22s-.59-.06-.9-.06h-3.96Zm3.93-1.07c.47,0,.9-.05,1.31-.15,.4-.1,.75-.26,1.05-.47,.3-.22,.53-.49,.7-.82,.17-.33,.26-.73,.26-1.2,0-.49-.09-.9-.27-1.22-.18-.32-.42-.57-.72-.76-.3-.19-.65-.31-1.04-.39s-.79-.11-1.21-.11h-4v5.13h3.93Z"/></g></g><g><g id="ll4dAx"><g><path class="cls-2" d="M103.74,184.84h0Z"/><path class="cls-2" d="M96.93,186.92c0,.2,0,.4,0,.61,0,.04,.07,.08,.11,.12,.04-.04,.08-.08,.11-.12,.01-.02,0-.05,0-.07,0-1.04,0-2.08,0-3.12,0-.1-.05-.21-.07-.31l.16-.04s0,.06,0,.09c0,1.12,0,2.24,0,3.37,0,.16,.05,.23,.21,.22,.29-.01,.58,0,.87,0,.14,0,.2-.04,.19-.19,0-1.12,0-2.23-.01-3.35,0-.03,.01-.06,.02-.09h.04v3.62h.21v-3.6c.16-.14,.55-.13,1.01,.04-.17,.02-.13,.15-.13,.25,0,.98,0,1.95,0,2.93v.39c.82,.03,1.63,.04,2.44,0,0-.06,.01-.09,.01-.12,0-1.03,0-2.07,0-3.1,0-.56-.06-.46,.47-.47,.25,0,.26,0,.26,.27,0,1.07,0,2.14,0,3.22,0,.13,.02,.21,.18,.21,.77,0,1.55,0,2.32,0,.1,0,.13-.04,.13-.14,0-.62-.01-1.25-.01-1.87,0-.48,0-.96,0-1.44,0-.16,.04-.27,.24-.25,.11,.01,.21,0,.32,0v-.07s-.05-.05-.09-.05c-3.02,0-6.04,0-9.05,0,.03,.16,.07,.26,.07,.37,0,.91,0,1.82,0,2.72Zm6.17-2.12l.02-.04,.33,.09-.31-.17,.22-.11v-.05l.12-.19,.14,.11c-.03-.06-.06-.12-.1-.18l.05-.03c.07,.09,.14,.17,.2,.26l-.14-.31,.04-.03,.12,.11-.02-.15c.16-.01,.32-.03,.49-.04,0,.12-.02,.22-.02,.31h.02c.02-.1,.05-.21,.07-.32,0,.14,.32-.08,.2,.17,.04-.01,.08-.04,.12-.04,.04,0,.08,.03,.13,.05l-.09,.17,.14-.11,.15,.14s-.1,.1-.16,.16l.21-.1,.03,.03-.09,.13,.13-.04,.03,.05-.18,.11c.07-.01,.14-.03,.23-.04l.04,.31-.57-.03,.06-.16-.08-.05,.08-.09c-.13,.01-.16-.05-.11-.16l-.14,.06v-.18c-.05,.09-.06,.25-.23,.13-.04-.03-.05-.11-.07-.15-.03,.21-.06,.23-.22,.12h-.11v.07h-.06s-.02,.07-.03,.11v.09l-.04,.03,.06,.02h-.26l.22,.18-.55,.04-.05-.16h.2l-.18-.11Z"/><polygon class="cls-2" points="85.81 184.89 85.81 184.89 85.81 184.89 85.81 184.89"/><path class="cls-2" d="M83.84,183.95c.22,0,.25,.03,.25,.25,0,1.1,0,2.19-.01,3.29,0,.12,.03,.16,.15,.16,.34,0,.68,.02,1.02,.02,.42,0,.84-.02,1.26-.02,.18,0,.2-.08,.2-.23,0-1,0-2,0-3.01,0-.55-.05-.45,.46-.46,.26,0,.27,0,.27,.26,0,1.08,0,2.16,0,3.23,0,.14,.03,.21,.18,.21,.67,0,1.33,.01,2,.02,.09,0,.18-.02,.27-.04v-.37c0-.97,0-1.94,0-2.91,0-.08,0-.16,0-.25,0-.1,.04-.16,.16-.15,.13,.01,.26,0,.39,0,.29,0,.29,0,.29,.3,0,1.02,0,2.04,0,3.06v.34l.22-.02v-.19c0-1.03,0-2.07,0-3.1,0-.09,0-.18,0-.26,.01-.15,.08-.15,.14-.09-.04,.08-.08,.14-.08,.19,0,.11,0,.23,0,.34,0,.97,0,1.94-.01,2.91,0,.17,.04,.24,.22,.23,.27-.01,.54-.01,.81,0,.19,0,.25-.05,.25-.24,0-1.08,0-2.17,0-3.25,0-.05,0-.09,0-.09l.39-.15v-.06c-.06,0-.11-.02-.17-.02-.48,0-.96,0-1.43,0-1.18,0-2.37,0-3.55,0-1.27,0-2.55,0-3.82,0-.07,0-.14,.02-.21,.03v.09c.11,0,.21,0,.31,0Zm2.3,.35l-.11,.21,.18-.13c.03,.11,.16,.22-.02,.29l.17-.05,.03,.05-.27,.15,.31-.07,.02,.04-.17,.1h.17c-.03,.17-.03,.17-.17,.16-.13,0-.26-.02-.41-.03,.08-.07,.14-.13,.21-.19l-.27,.05h0v-.09c-.1-.08-.08-.33,.07-.41,.06-.04,.14-.05,.27-.09Zm-1.77,.46l.31,.02-.22-.21,.05-.06,.21,.11-.15-.16c.08-.07,.14-.17,.21-.18,.08-.01,.13-.24,.24-.05-.03-.07-.07-.14,.07-.11,.03,0,.08-.02,.14-.04,.02,.1,.04,.21,.07,.32h.01l-.02-.32,.49,.04c-.03,.14-.06,.28-.11,.41-.02,.05-.1,.08-.16,.12-.03-.05-.08-.1-.09-.16-.01-.09,0-.18-.03-.28,0,.08,.01,.17,0,.25-.01,.06-.07,.1-.1,.15-.04-.03-.09-.06-.12-.1-.03-.05-.05-.12-.07-.17,0,.06,.03,.11,.03,.17,0,.19-.07,.24-.26,.19l.06,.1-.09,.04s.04,.06,.05,.1c0,.03,0,.06,0,.1l-.53,.03c0-.1,.01-.2,.02-.31Z"/><path class="cls-2" d="M92.38,180.13c.02,.07,0,.15,0,.23v1.36c.47-1.13,1.31-1.64,2.46-1.61,1.09,.03,1.88,.53,2.29,1.56,0-.01,.02-.02,.02-.03,0-.61,0-1.22,0-1.83,0-.07-.06-.16-.12-.21-.15-.11-.32-.19-.47-.28l.09-.12s.07,.08,.11,.08c.03,0,.07-.05,.06-.05l.37,.1c-.07-.32-.1-.58-.19-.83-.24-.68-.73-1.15-1.31-1.54-.11-.08-.25-.13-.17-.32l-.31-.03c0-.08,.01-.15,0-.21-.03-.13-.1-.15-.16-.02-.02,.05,0,.11,0,.19l.1-.13v.16h-.27l.09-.23-.05-.02-.04,.18s-.05-.05-.05-.08c0-.03,0-.06,0-.09-.03-.1-.14-.1-.15,0-.01,.07,.02,.15,.03,.23l-.27,.03c.04-.11-.05-.26,.18-.24l-.04-.07h-.27c-.01,.11-.02,.2-.03,.29l-.3,.03,.04,.19c-.45,.26-.84,.59-1.16,1.01-.32,.43-.48,.91-.5,1.48l.32-.09s.03,.06,.04,.05c.05-.02,.1-.05,.14-.07l.1,.12c-.05,.02-.1,.05-.15,.07-.33,.13-.54,.33-.46,.72Zm.69-.74c.27-.13,.31-.36,.07-.6,.06-.03,.12-.08,.18-.09,.35-.09,.7-.17,1.06-.25,.13-.03,.21,.02,.19,.17-.01,.15,.07,.17,.2,.18,.14,0,.2-.05,.19-.19,0-.12,.04-.19,.17-.16,.39,.09,.78,.18,1.17,.28,.03,0,.06,.04,.07,.05-.05,.09-.1,.16-.12,.24-.04,.18,.04,.29,.22,.37,.61,.26,.61,.27,.61,.92,0,.31,0,.61-.02,.92-.55-.82-1.32-1.22-2.28-1.23-.96,0-1.74,.39-2.3,1.27,0-.11-.02-.17-.02-.23,0-.38,0-.76,0-1.13,0-.14,.04-.23,.16-.29,.15-.08,.3-.17,.45-.24Z"/><path class="cls-2" d="M91.17,183.13c-.11,.04-.2,.34-.12,.36l.1-.15c0,.09,0,.14,0,.2,.3,0,.59,.01,.89,0,.22-.01,.3-.15,.24-.42-.08,.1-.15,.19-.25,.31l.12-.35,.53-.07h0l-.43-.04c.01-.06,.04-.12,.04-.18,0-.98,0-1.97,0-2.95,0-.19-.03-.21-.23-.14,0,.01,0,.02,0,.04,0,.85,0,1.7,0,2.55,0,.06-.03,.11-.04,.17l-.06-.02s0-.09,0-.13c0-.71,0-1.43,0-2.14,0-.52,0-.51-.52-.52-.17,0-.21,.05-.21,.22,0,.91,0,1.83,0,2.74,0,.09-.02,.21,.03,.28,.04,.06,.16,.06,.24,.09v.02h-.76v.05h.6c-.06,.06-.13,.06-.19,.08Zm.81-.56h.09l-.03,.33h-.08c0-.12,.02-.22,.03-.33Z"/><path class="cls-2" d="M98.89,183.54c.36,0,.72,.01,1.09,.01,1.93,0,3.87,0,5.8,0,.07,0,.15-.01,.23-.02v-.41h-7.42c-.02,.25,.1,.41,.3,.42Z"/><path class="cls-2" d="M84.83,183.55c1.37,0,2.75-.01,4.12-.01,.56,0,1.13,0,1.69,0,.07,0,.18-.02,.22-.06,.06-.09,.08-.22,.14-.37h-7.45v.42c.08,0,.14,.01,.21,.01,.36,0,.72,0,1.08,0Z"/><path class="cls-2" d="M97.29,183.53c.19,0,.38,.02,.58,.03,.17,0,.35,0,.52-.01,.04,0,.09-.06,.1-.1,0-.05-.02-.1-.05-.19l.04-.11c-.05,0-.1-.02-.16-.02-.04,0-.08,0-.13,.01v-.09h.59v-.06h-.78v-.03h.27c0-.07,.02-.12,.02-.17,0-.88,0-1.75,0-2.63,0-.51,0-.5-.52-.5-.16,0-.21,.05-.2,.21,0,.69,0,1.37,0,2.06,0,.18,.02,.37,.03,.56-.22-.02-.07-.41-.39-.29l.21,.11-.04,.05h-.14v.33h.04l.09-.19c.24,.11,.26,.17,.13,.45l-.06-.33c-.04,.15-.26,.18-.15,.38h-.39v.04l.54,.03c-.23,.06-.27,.19-.17,.46Z"/><path class="cls-2" d="M92.67,183h.01l.06-.04c-.06-.08-.12-.14-.13-.2-.03-.14-.01-.28,.13-.28-.03-.06-.1-.13-.09-.19,.02-.13,0-.32,.28-.25l-.19-.14,.2-.38,.23,.07-.14-.16c.17-.29,.2-.3,.33-.23,.04-.08,.05-.18,.11-.24,.08-.09,.19-.18,.29-.07,.05-.06,.07-.15,.13-.17,.12-.05,.24-.19,.38,.01,.01-.24,.19-.19,.31-.2,.07,0,.14,.05,.2,.07,.08-.02,.16-.07,.23-.07,.11,0,.28-.03,.24,.14,.08-.02,.16-.06,.22-.04,.12,.05,.32,.04,.24,.31,.16-.2,.27-.06,.36,.01,.05,.04,.06,.14,.09,.22,.11-.04,.35,.1,.34,.25l-.12,.14,.2-.06c.22,.32,.23,.34,.05,.52,.07,0,.13,0,.2,0,.06,0,.11,.01,.17,.02,0-.06,.02-.12,0-.17-.25-.68-.72-1.15-1.39-1.4-1.52-.57-3.12,.5-3.19,2.13q-.01,.31,.27,.43Z"/><polygon class="cls-2" points="92.69 183.01 92.69 183.01 92.69 183.01 92.69 183.01"/><path class="cls-2" d="M97,183.75c1.13,0,2.25,0,3.38,0,1.78,0,3.57,0,5.35,0,.09,0,.26-.06,.26-.08-.02-.17-.16-.09-.25-.09-2.51,0-5.03,0-7.54,0-.45,0-.9,0-1.36,.02-.05,0-.1,.05-.14,.08l.04,.06c.09,0,.17,.01,.26,.01Z"/><path class="cls-2" d="M83.76,183.76c1.14,0,2.28,0,3.42,0,1.41,0,2.82,0,4.23,0,.47,0,.94,0,1.41,0l.03-.07s-.06-.08-.1-.08c-.11-.02-.23-.02-.34-.02-.92,0-1.85,0-2.77,0-1.97,0-3.93,0-5.9,0-.04,0-.09,0-.13,0-.03,0-.07,.05-.07,.07,0,.03,.03,.08,.06,.09,.04,.02,.1,0,.15,0Z"/><path class="cls-2" d="M92.4,187.5s.07,.09,.1,.14c.04-.04,.08-.09,.11-.14,.01-.02,0-.06,0-.09,0-.94,0-1.88,0-2.81v-.5c-.19-.05-.22,.03-.22,.17,0,.57,0,1.15,0,1.72,0,.5,0,1.01,0,1.51Z"/><path class="cls-2" d="M98.41,182.95l.23-.02v-3.25c-.2-.06-.24,.02-.24,.18,0,.93,0,1.86,0,2.8v.29Z"/><path class="cls-2" d="M91.12,182.91s0-.02,0-.04c0-1.02,0-2.04,0-3.06,0-.17-.1-.16-.24-.14,0,.05,0,.08,0,.12,0,.99,0,1.98,0,2.97,0,.2,.02,.22,.22,.15Z"/><path class="cls-2" d="M91.99,179.31c.07,0,.13-.02,.24-.04-.12-.11-.2-.18-.27-.26-.06-.08-.14-.18-.15-.28-.02-.24-.01-.49,0-.73,0-.15-.06-.24-.21-.25-.15,0-.23,.09-.23,.24,0,.09,0,.18,0,.26,.03,.34,0,.65-.27,.9-.04,.03-.07,.08-.1,.12,.06,.01,.13,.04,.19,.04,.26,0,.53,0,.79,0Zm-.37-1.36c.09,0,.17,0,.17,.12,0,.25,0,.51,0,.77h-.37c0-.16-.01-.32-.02-.47,0-.06,0-.12,0-.18-.02-.21,0-.23,.22-.23Z"/><path class="cls-2" d="M97.39,179.29c.36,0,.73,.01,1.09,.01,.02,0,.06-.08,.05-.09-.04-.06-.08-.14-.14-.17-.19-.11-.24-.28-.23-.48,0-.19,0-.39,0-.58,0-.15-.09-.24-.24-.23-.13,.01-.22,.07-.2,.24,.02,.19,.01,.38,0,.56,0,.12-.04,.25-.07,.41l.47,.03v.04h-.65v.06l.16,.05-.3,.05s.04,.08,.06,.08Zm.36-.45c0-.27,0-.53,0-.79,0-.04,.1-.1,.15-.1,.08,0,.21,.05,.22,.09,.02,.26,.01,.52,.01,.79h-.39Z"/><path class="cls-2" d="M97.46,182.05v-2.37c-.18-.05-.22,.01-.22,.17,0,.64,0,1.28,0,1.93,0,.16,.05,.25,.22,.27Z"/><path class="cls-2" d="M90.99,179.61c.2,.02,.4,0,.6,0h0c.21,0,.42,0,.62,0,.07,0,.12-.09,.19-.13-.06-.04-.13-.12-.19-.13-.41-.01-.82,0-1.23,0-.1,0-.19,.03-.18,.14,.01,.06,.12,.12,.18,.13Z"/><path class="cls-2" d="M97.34,179.62c.2,0,.39,0,.58,0,.21,0,.43,0,.64,0,.06,0,.16-.08,.17-.13,.02-.1-.07-.14-.17-.14-.41,0-.82,0-1.23,0-.1,0-.19,.03-.19,.13,0,.13,.1,.14,.2,.14Z"/><path class="cls-2" d="M94.77,175.48l.37,.17c.02-.2-.09-.32-.37-.42v.89h0v-.65Z"/><path class="cls-2" d="M92.49,183.53s.09-.05,.18-.1c-.08-.06-.13-.12-.17-.11-.04,0-.09,.07-.1,.12,0,.02,.06,.09,.09,.09Z"/><path class="cls-2" d="M97.13,183.09c-.13,.19-.12,.35,0,.42v-.42Z"/><path class="cls-2" d="M97.1,182.14c-.27,0-.16,.24-.28,.31l.04,.03c.07-.1,.14-.21,.23-.34Z"/><path class="cls-2" d="M103.44,184.58l-.09-.06v.05l.09,.02Z"/><path class="cls-2" d="M103.7,184.8l-.03,.02h.03v-.02Z"/><path class="cls-2" d="M103.66,184.83h0Z"/><path class="cls-2" d="M103.74,184.84h0Z"/><path class="cls-2" d="M85.81,184.89h0Z"/><path class="cls-2" d="M95.13,179.62c.42,.04,.82,.16,1.17,.38,.2,.13,.37,.29,.57,.45,.05-.23-.02-.4-.19-.54-.48-.4-1.05-.58-1.67-.61-.04,0-.12,.06-.12,.1,0,.06,.03,.14,.07,.18,.03,.03,.11,.03,.16,.04Z"/><path class="cls-2" d="M94.5,179.61c.13,0,.17-.08,.16-.2,0-.14-.1-.11-.19-.11-.06,0-.13,0-.19,.02-.54,.07-1.03,.26-1.45,.62-.16,.14-.2,.31-.16,.5,.22-.16,.41-.34,.63-.47,.37-.22,.77-.33,1.2-.36Z"/><path class="cls-2" d="M92.08,182.58h-.09c0,.09-.02,.2-.03,.31h.08l.03-.31Z"/><path class="cls-2" d="M103.57,184.61h-.1l.16,.12-.06-.12Z"/><path class="cls-2" d="M103.7,184.81l-.04-.04v.06l.04-.02Z"/><path class="cls-2" d="M103.62,184.73l.04,.04-.04-.04Z"/><path class="cls-2" d="M103.43,184.57l.04,.04-.04-.04Z"/><path class="cls-2" d="M85.86,184.84l.02-.07-.06,.04,.04,.03h0Z"/><path class="cls-2" d="M85.88,184.71v.06h.06l-.06-.06Z"/><path class="cls-2" d="M85.86,184.84h0Z"/><path class="cls-2" d="M94.5,179.61c.13,0,.17-.08,.16-.2,0-.14-.1-.11-.19-.11-.06,0-.13,0-.19,.02-.54,.07-1.03,.26-1.45,.62-.16,.14-.2,.31-.16,.5,.22-.16,.41-.34,.63-.47,.37-.22,.77-.33,1.2-.36Z"/><path class="cls-2" d="M95.13,179.62c.42,.04,.82,.16,1.17,.38,.2,.13,.37,.29,.57,.45,.05-.23-.02-.4-.19-.54-.48-.4-1.05-.58-1.67-.61-.04,0-.12,.06-.12,.1,0,.06,.03,.14,.07,.18,.03,.03,.11,.03,.16,.04Z"/></g></g><g><path d="M85.88,189.15h3.14v.35h-1.37v3.97h-.41v-3.97h-1.37v-.35Z"/><path d="M89.75,193.47v-4.32h.41v4.32h-.41Z"/><path d="M90.89,189.15h.43l1.3,3.84,1.3-3.84h.43l-1.5,4.32h-.45l-1.5-4.32Z"/><path d="M94.77,191.32c0-.32,.04-.61,.13-.89s.21-.52,.38-.72,.38-.37,.62-.49,.53-.18,.86-.18,.63,.06,.89,.18c.25,.12,.47,.28,.64,.49s.3,.45,.38,.73,.13,.58,.13,.89-.04,.6-.13,.88-.21,.51-.38,.72c-.17,.21-.38,.37-.63,.49s-.54,.18-.88,.18-.62-.06-.88-.18-.46-.28-.63-.49c-.17-.21-.29-.45-.38-.72s-.13-.57-.13-.88Zm2.02,1.92c.28,0,.52-.05,.72-.16s.37-.25,.5-.42c.13-.18,.23-.38,.29-.61,.06-.23,.09-.47,.09-.73,0-.3-.04-.57-.11-.81s-.18-.44-.32-.61-.31-.3-.51-.38-.42-.13-.67-.13c-.28,0-.52,.05-.72,.16-.2,.11-.37,.25-.5,.43-.13,.18-.23,.38-.29,.62-.06,.23-.09,.47-.09,.73s.03,.5,.09,.73c.06,.23,.16,.44,.29,.61,.13,.18,.3,.32,.5,.42,.2,.1,.44,.16,.73,.16Z"/><path d="M99.6,193.47v-4.32h.41v3.97h2.32v.35h-2.72Z"/><path d="M103.08,193.47v-4.32h.41v4.32h-.41Z"/></g></g><g><g id="S8KFdt"><g><path class="cls-2" d="M91.42,124.72c0,4.77,0,9.54,0,14.3v.47h6.33v-.5c0-4.77,0-9.54,0-14.3,0-.23,.05-.5,.17-.7,.22-.37,.2-.74,.16-1.17h-2.15c0-.39,.01-.75,0-1.1-.03-.81-.59-1.35-1.37-1.34-.78,0-1.32,.58-1.33,1.38,0,.34,0,.69,0,1.06h-2.25c.11,.45,.21,.82,.29,1.19,.06,.24,.14,.47,.14,.71Zm1.78,2.06c0,4.02,0,8.05,0,12.07q0,.48-.49,.48c-.2,0-.4,0-.59,0q-.5,0-.5-.52c0-2.22,0-4.44,0-6.67v-.3c0-2.32,0-4.64,0-6.96,0-.48,0-.48,.49-.48,.21,0,.42,.02,.63,0,.35-.04,.48,.07,.46,.45-.03,.64,0,1.28,0,1.93Zm2.54,12.26c0,.2-.07,.29-.28,.29-.57,0-1.13,0-1.7,0-.22,0-.31-.09-.31-.31,0-.35,0-.69,0-1.04h.01c0-.33-.02-.67,0-1,.03-.57,.52-1.01,1.11-1.02,.59,0,1.13,.45,1.15,1.03,.02,.68,0,1.36,.01,2.03Zm0-4.27c0,.48,0,.95,0,1.46-.97-.78-1.61-.57-2.26,0-.01-.15-.03-.26-.03-.38,0-3.65,0-7.31,0-10.96,0-.49,0-.49,.49-.49,.47,0,.94,.02,1.41,0,.36-.02,.39,.16,.39,.45,0,3.31,0,6.62,0,9.92Zm1.84-2.86c0,2.32,0,4.64,0,6.96,0,.34-.07,.51-.45,.46-.36-.04-.85,.08-1.06-.11-.18-.17-.08-.67-.08-1.02,0-4.43,0-8.86,0-13.3,0-.49,0-.5,.48-.49,.35,0,.82-.08,1.02,.1,.18,.16,.08,.65,.08,.99,0,2.14,0,4.27,0,6.41Zm-.24-7.76c-1.83,0-3.66,0-5.48,0-.25,0-.4-.08-.42-.39h6.33c-.03,.3-.18,.39-.43,.39Zm-2.78-3.63c.66-.01,1.12,.38,1.2,1.04h-2.34c.05-.61,.52-1.03,1.13-1.04Zm-1.15,1.23h2.36v1.05h-2.36v-1.05Zm-2.16,1.26h6.71v.47h-6.71v-.47Z"/><path class="cls-2" d="M94.84,134.91s.06,0,.07-.01c.07-.07,.18-.15,.19-.23,.02-.29,.03-.59,0-.89-.03-.27-.23-.45-.51-.44-.29,.01-.48,.18-.5,.49,0,.14,0,.27,0,.41,0,.69,.09,.77,.76,.67Zm-.53-1.02c.06-.11,.18-.19,.28-.28,.09,.1,.21,.18,.25,.29,.04,.13,0,.29,.02,.44,.01,.22-.05,.34-.31,.34-.26,0-.26-.16-.25-.34,0-.05,0-.1,0-.15h0c0-.1-.03-.22,0-.29Z"/><path class="cls-2" d="M94.58,132.71c.09,0,.19,.03,.25-.01,.11-.06,.22-.16,.26-.27,.04-.1,0-.24,0-.37,0-.14,0-.27,0-.41-.02-.32-.21-.49-.52-.52-.26-.02-.48,.22-.5,.53,0,.18,0,.37,0,.56,0,.49,0,.49,.5,.49Zm-.27-1c.04-.12,.18-.21,.28-.32,.09,.11,.18,.22,.25,.34,.03,.06,0,.14,0,.22h0c0,.11,.02,.24-.03,.33-.05,.08-.18,.16-.27,.16-.09,0-.23-.1-.25-.18-.04-.18-.05-.38,0-.55Z"/><path class="cls-2" d="M94.85,130.49s.06,0,.07,0c.06-.06,.17-.13,.17-.2,.02-.31,.03-.62,0-.92-.03-.28-.23-.43-.52-.42-.28,0-.45,.17-.48,.46-.01,.13,0,.27,0,.41,0,.73,.05,.78,.77,.68Zm-.55-.94c.05-.14,.18-.25,.27-.38,.09,.12,.19,.24,.27,.37,.03,.06,0,.14,0,.22h0c0,.1,.03,.22-.02,.29-.07,.09-.19,.17-.3,.17-.08,0-.21-.11-.23-.2-.04-.15-.05-.33,0-.47Z"/><path class="cls-2" d="M94.75,128.27s.11,.02,.14,0c.08-.06,.19-.13,.2-.2,.02-.29,.03-.59,0-.88-.04-.29-.23-.46-.54-.44-.31,.02-.46,.2-.47,.51,0,.12,0,.25,0,.48,.01,.62-.12,.55,.67,.55Zm-.45-.95c.05-.13,.2-.23,.3-.35,.08,.12,.17,.23,.24,.36,.03,.06,0,.14,0,.22h0c0,.07,0,.15,0,.22,.01,.18-.06,.27-.26,.26-.18-.01-.31-.05-.3-.27,0-.15-.04-.31,.01-.44Z"/><path class="cls-2" d="M92.86,136.81c0-.11,0-.22-.02-.33-.03-.28-.17-.48-.47-.47-.29,.02-.42,.23-.43,.51,0,.07,0,.15,0,.22l-.06,.02c.07,.17,.08,.42,.21,.5,.39,.23,.76,0,.76-.45Zm-.46-.53c.09,.11,.18,.21,.31,.38-.12,.15-.21,.27-.3,.38-.07-.1-.2-.21-.19-.31,.01-.15,.11-.3,.18-.45Z"/><path class="cls-2" d="M92.86,133.44c0-.1,0-.2-.02-.29-.03-.27-.16-.48-.46-.47-.3,.02-.42,.23-.43,.5,0,.07,0,.15,0,.22l-.07,.03c.07,.18,.1,.45,.23,.52,.44,.23,.75,0,.75-.51Zm-.44-.49c.08,.11,.16,.23,.29,.41l-.31,.36c-.06-.12-.18-.25-.18-.37,0-.13,.13-.26,.2-.4Z"/><path class="cls-2" d="M92.15,132.29c.47,.19,.71,0,.71-.51,0-.52-.15-.74-.46-.74-.32,0-.45,.22-.53,.79,.09,.16,.15,.41,.28,.47Zm.06-.56c.03-.15,.11-.28,.17-.42,.1,.11,.19,.22,.32,.37-.13,.17-.19,.35-.29,.37-.25,.05-.23-.17-.21-.32Z"/><path class="cls-2" d="M92.14,128.97c.46,.2,.72,0,.71-.51,0-.51-.15-.75-.46-.75-.31,0-.45,.24-.53,.78,.09,.17,.14,.42,.28,.48Zm.25-.99c.09,.12,.18,.23,.31,.4l-.3,.36c-.07-.12-.19-.23-.19-.35,0-.14,.12-.27,.18-.41Z"/><path class="cls-2" d="M92.32,135.65c.46,.03,.54-.04,.53-.51,0-.13-.02-.27-.04-.4-.04-.24-.18-.37-.42-.37-.27,0-.4,.16-.44,.4-.02,.11,0,.22,0,.33,0,.49,.01,.52,.37,.55Zm-.11-.62c.02-.15,.11-.29,.17-.43,.1,.12,.2,.25,.33,.42-.12,.17-.19,.35-.28,.37-.27,.04-.23-.2-.21-.35Z"/><path class="cls-2" d="M92.42,130.65c.51,.04,.38-.31,.4-.56,0-.1,0-.17,0-.24,.02-.29-.1-.5-.4-.51-.32-.01-.45,.2-.47,.5,0,.11,0,.22,0,.33,0,.46,.02,.45,.47,.48Zm0-1.04l.29,.44c-.13,.14-.22,.24-.31,.34-.06-.12-.18-.25-.18-.37,0-.14,.12-.27,.19-.4Z"/><path class="cls-2" d="M92.11,127.28c.47,.21,.76,0,.75-.51,0-.12,.01-.27-.05-.36-.1-.14-.27-.35-.39-.34-.16,.01-.33,.2-.45,.34-.06,.08-.02,.24-.03,.36l-.05,.03c.07,.16,.1,.42,.23,.48Zm.1-.57c.02-.14,.12-.28,.18-.42,.09,.13,.18,.27,.31,.45-.13,.15-.2,.33-.3,.34-.28,.03-.21-.22-.19-.37Z"/><path class="cls-2" d="M96.71,133.96c.48,0,.53-.03,.53-.52,0-.11,0-.22-.01-.33-.04-.26-.15-.45-.45-.44-.29,0-.41,.19-.44,.45-.01,.1,0,.2,0,.24-.01,.33-.05,.61,.38,.61Zm-.11-.65c.01-.14,.11-.26,.17-.39,.1,.12,.19,.25,.33,.42-.13,.16-.21,.34-.31,.35-.28,.02-.2-.23-.19-.37Z"/><path class="cls-2" d="M96.54,135.6c.53,.13,.7,0,.7-.65,0-.04,0-.19-.05-.33-.1-.31-.44-.41-.68-.21-.18,.15-.27,.94-.13,1.11,.04,.04,.1,.07,.16,.08Zm.25-1.02c.06,.14,.17,.27,.18,.41,0,.11-.12,.23-.19,.35l-.3-.37c.13-.16,.22-.27,.31-.39Z"/><path class="cls-2" d="M97.23,130.11c0-.53-.15-.78-.47-.77-.3,0-.45,.25-.5,.78,.07,.17,.09,.42,.22,.49,.41,.23,.75-.01,.75-.49Zm-.64-.13c.02-.13,.12-.25,.18-.37,.09,.12,.18,.23,.31,.4-.13,.16-.21,.34-.3,.35-.28,.02-.21-.23-.19-.37Z"/><path class="cls-2" d="M96.77,129c.36,.02,.5-.13,.46-.47-.01-.12,0-.25-.01-.37-.03-.27-.15-.48-.46-.47-.3,.01-.42,.22-.44,.49,0,.09,0,.17,0,.26,0,.51,.03,.53,.45,.56Zm-.18-.7c.01-.13,.13-.24,.2-.36,.08,.14,.16,.29,.27,.48-.12,.13-.2,.3-.28,.3-.31,0-.2-.26-.19-.41Z"/><path class="cls-2" d="M97.23,131.76c0-.07,0-.15,0-.22-.02-.28-.12-.51-.44-.54-.26-.02-.45,.21-.47,.55,0,.06,0,.12,0,.18l-.06,.02c.07,.17,.09,.43,.21,.49,.42,.23,.76-.01,.76-.49Zm-.64-.3c.01-.08,.1-.14,.16-.21,.07,.07,.19,.13,.2,.21,.03,.16,0,.34,0,.55h-.38c0-.2-.02-.38,0-.55Z"/><path class="cls-2" d="M96.46,127.29c.42,.19,.77-.03,.79-.49-.02-.16-.02-.32-.07-.47-.08-.24-.26-.36-.52-.28-.3,.09-.49,.99-.26,1.2,.02,.02,.04,.03,.06,.04Zm.13-.59c.02-.14,.12-.28,.18-.42,.09,.13,.18,.27,.31,.45-.12,.15-.2,.34-.3,.34-.28,.02-.21-.23-.19-.38Z"/><path class="cls-2" d="M96.46,137.23c.42,.2,.77-.03,.79-.49-.02-.16-.02-.32-.07-.47-.09-.26-.28-.37-.56-.27-.28,.1-.44,.99-.22,1.19,.02,.02,.04,.03,.06,.04Zm.31-.99c.29,.03,.21,.29,.2,.46-.01,.11-.12,.22-.18,.32l-.3-.42c.12-.17,.21-.38,.28-.37Z"/></g></g><g><path d="M77.31,143.83v1.96h-.41v-4.32h1.69c.48,0,.84,.09,1.09,.27,.25,.18,.38,.47,.38,.87,0,.27-.05,.49-.17,.65-.11,.16-.29,.3-.54,.41,.13,.04,.23,.11,.3,.19,.07,.08,.13,.18,.16,.29s.06,.22,.07,.34,.02,.24,.02,.35c0,.16,.01,.3,.02,.41,0,.11,.02,.2,.04,.26,.01,.07,.03,.12,.05,.16,.02,.04,.04,.07,.07,.09v.04h-.45c-.04-.07-.07-.17-.09-.29-.02-.13-.03-.26-.04-.4,0-.14-.02-.28-.02-.41,0-.13-.02-.24-.03-.32-.02-.12-.06-.21-.12-.28s-.12-.12-.2-.16-.16-.06-.25-.07c-.09-.01-.19-.02-.29-.02h-1.28Zm1.27-.35c.15,0,.29-.02,.42-.05,.13-.03,.24-.08,.34-.15,.1-.07,.17-.16,.23-.27,.06-.11,.08-.24,.08-.39,0-.16-.03-.29-.09-.4-.06-.1-.14-.19-.23-.25-.1-.06-.21-.1-.34-.13s-.26-.04-.39-.04h-1.3v1.66h1.27Z"/><path d="M80.92,141.47h.41v2.57c0,.54,.1,.92,.3,1.16s.52,.35,.97,.35c.23,0,.43-.03,.59-.09s.29-.16,.39-.28c.1-.13,.17-.28,.22-.47s.07-.41,.07-.67v-2.57h.41v2.69c0,.56-.14,1-.42,1.29s-.7,.45-1.26,.45-.98-.15-1.26-.46c-.28-.3-.41-.73-.41-1.28v-2.69Z"/><path d="M85.65,142.02h-.01v3.77h-.41v-4.32h.46l2.5,3.77h.01v-3.77h.41v4.32h-.47l-2.48-3.77Z"/><path d="M89.57,145.79v-4.32h1.48c.12,0,.24,0,.35,0,.12,0,.23,.02,.34,.04,.11,.02,.22,.06,.33,.1,.11,.04,.21,.1,.31,.17,.14,.1,.26,.23,.35,.38,.09,.15,.17,.31,.22,.47s.09,.33,.11,.5c.02,.17,.03,.33,.03,.47s0,.29-.03,.44c-.02,.15-.05,.29-.09,.44-.04,.14-.09,.28-.16,.41-.07,.13-.15,.25-.25,.36-.1,.11-.21,.2-.33,.27-.12,.07-.24,.12-.37,.16s-.26,.06-.41,.08c-.14,.01-.28,.02-.43,.02h-1.48Zm.41-.35h.98c.18,0,.36-.01,.52-.03s.33-.08,.5-.17c.14-.07,.26-.17,.35-.29,.09-.12,.17-.26,.22-.41s.09-.3,.11-.46c.02-.16,.03-.31,.03-.46,0-.16-.01-.31-.03-.48-.02-.16-.06-.32-.11-.46s-.13-.28-.23-.4c-.1-.12-.22-.22-.37-.3-.13-.07-.28-.11-.46-.13-.18-.02-.35-.03-.53-.03h-.98v3.62Z"/><path d="M93.91,145.79v-4.32h2.87v.35h-2.47v1.56h2.23v.35h-2.23v1.72h2.53v.35h-2.93Z"/><path d="M97.18,141.47h3.14v.35h-1.37v3.97h-.41v-3.97h-1.37v-.35Z"/><path d="M100.51,145.79l1.7-4.32h.46l1.66,4.32h-.42l-.5-1.36h-1.97l-.51,1.36h-.42Zm1.07-1.7h1.69l-.85-2.27-.85,2.27Z"/><path d="M104.51,145.79l1.7-4.32h.46l1.66,4.32h-.42l-.5-1.36h-1.97l-.51,1.36h-.42Zm1.07-1.7h1.69l-.85-2.27-.85,2.27Z"/><path d="M109.31,143.83v1.96h-.41v-4.32h1.69c.48,0,.84,.09,1.09,.27,.25,.18,.38,.47,.38,.87,0,.27-.05,.49-.17,.65-.11,.16-.29,.3-.54,.41,.13,.04,.23,.11,.3,.19,.07,.08,.13,.18,.16,.29s.06,.22,.07,.34,.02,.24,.02,.35c0,.16,.01,.3,.02,.41,0,.11,.02,.2,.04,.26,.01,.07,.03,.12,.05,.16,.02,.04,.04,.07,.07,.09v.04h-.45c-.04-.07-.07-.17-.09-.29-.02-.13-.03-.26-.04-.4,0-.14-.02-.28-.02-.41,0-.13-.02-.24-.03-.32-.02-.12-.06-.21-.12-.28s-.12-.12-.2-.16-.16-.06-.25-.07c-.09-.01-.19-.02-.29-.02h-1.28Zm1.27-.35c.15,0,.29-.02,.42-.05,.13-.03,.24-.08,.34-.15,.1-.07,.17-.16,.23-.27,.06-.11,.08-.24,.08-.39,0-.16-.03-.29-.09-.4-.06-.1-.14-.19-.23-.25-.1-.06-.21-.1-.34-.13s-.26-.04-.39-.04h-1.3v1.66h1.27Z"/><path d="M113.32,142.02h-.01v3.77h-.41v-4.32h.46l2.5,3.77h.01v-3.77h.41v4.32h-.47l-2.48-3.77Z"/></g></g><g><g><path class="cls-2" d="M16.13,172.33c.11,.27,.41,.36,.66,.2,.16-.1,.32-.21,.52-.34l2.72-1.35c.11-.16,.4-.19,.62-.26,1.84-.63,3.73-.88,5.67-.74,.29,.02,.45-.11,.47-.33,.02-.24-.14-.4-.44-.4-.82,0-1.65-.02-2.47,.04-2.04,.16-3.95,.77-5.76,1.73-.49,.26-.97,.55-1.46,.83l-1.49-3.52c6.77-4.62,14.8-3.97,20.61,.26-.51,1.16-1.02,2.32-1.54,3.48-.07-.05-.12-.08-.17-.11-1.36-.91-2.82-1.62-4.39-2.09-.53-.16-1.08-.28-1.62-.4-.3-.07-.51,.08-.51,.34,0,.21,.13,.33,.39,.38,.94,.17,1.84,.45,2.73,.79l2.94,1.55c.19,.13,.34,.24,.49,.34,.25,.17,.55,.09,.67-.19,.6-1.35,1.19-2.69,1.78-4.04,.01-.03,.04-.06,.05-.09v-.22c-.1-.1-.19-.21-.31-.3-2.33-1.64-4.87-2.79-7.68-3.32-2.57-.49-5.13-.41-7.67,.22-2.3,.57-4.41,1.57-6.36,2.9-.09,.06-.16,.16-.24,.24v.22c.38,.88,.76,1.76,1.13,2.65,.22,.51,.43,1.02,.65,1.53Z"/><path class="cls-2" d="M31.67,171.29c.21,.11,.41,.24,.62,.31l-.62-.31Z"/><path class="cls-2" d="M28.41,168.92c1.17,.3,2.22-.74,1.94-1.91-.13-.52-.54-.95-1.05-1.12-1.21-.38-2.36,.75-1.99,1.97,.16,.52,.58,.93,1.11,1.06Zm-.41-1.78c.09-.29,.34-.52,.63-.58,.61-.13,1.13,.39,1.01,1-.06,.29-.28,.54-.57,.63-.66,.21-1.27-.4-1.07-1.05Z"/><path class="cls-2" d="M24.97,168.52c1.04,.28,1.99-.51,1.99-1.51,0-.87-.69-1.58-1.56-1.59-.99,0-1.77,.89-1.56,1.91,.12,.57,.56,1.04,1.12,1.19Zm.42-2.37c.47,0,.84,.37,.85,.83,0,.47-.38,.86-.85,.86-.46,0-.84-.38-.85-.84,0-.47,.38-.85,.85-.85Z"/><path class="cls-2" d="M21.04,166.81c.35-.05,.7-.11,1.08-.18-.06,.1-.09,.16-.13,.22-.34,.54-.67,1.08-1.01,1.62-.09,.14-.12,.31,0,.42,.1,.09,.27,.16,.39,.14,.62-.09,1.24-.22,1.86-.33,.28-.05,.42-.21,.38-.43-.04-.23-.22-.33-.52-.29-.04,0-.07,.02-.11,.02-.31,.06-.62,.11-.97,.17,.07-.11,.11-.19,.15-.26,.32-.52,.65-1.04,.97-1.56,.09-.14,.1-.29,0-.43-.13-.19-.34-.19-.57-.1-.46,.18-.96,.25-1.45,.25-.44,0-.65,.17-.6,.44,.04,.23,.21,.33,.49,.29Z"/></g><g><path d="M3.93,178.85v-4.32h2.78v.35h-2.38v1.56h2.16v.35h-2.16v2.06h-.41Z"/><path d="M7.71,176.88v1.96h-.41v-4.32h1.69c.48,0,.84,.09,1.09,.27,.25,.18,.38,.47,.38,.87,0,.27-.05,.49-.17,.65-.11,.16-.29,.3-.54,.41,.13,.04,.23,.11,.3,.19,.07,.08,.13,.18,.16,.29s.06,.22,.07,.34,.02,.24,.02,.35c0,.16,.01,.3,.02,.41,0,.11,.02,.2,.04,.26,.01,.07,.03,.12,.05,.16,.02,.04,.04,.07,.07,.09v.04h-.45c-.04-.07-.07-.17-.09-.29-.02-.13-.03-.26-.04-.4,0-.14-.02-.28-.02-.41,0-.13-.02-.24-.03-.32-.02-.12-.06-.21-.12-.28s-.12-.12-.2-.16-.16-.06-.25-.07c-.09-.01-.19-.02-.29-.02h-1.28Zm1.27-.35c.15,0,.29-.02,.42-.05,.13-.03,.24-.08,.34-.15,.1-.07,.17-.16,.23-.27,.06-.11,.08-.24,.08-.39,0-.16-.03-.29-.09-.4-.06-.1-.14-.19-.23-.25-.1-.06-.21-.1-.34-.13s-.26-.04-.39-.04h-1.3v1.66h1.27Z"/><path d="M11.31,178.85v-4.32h2.87v.35h-2.47v1.56h2.23v.35h-2.23v1.72h2.53v.35h-2.93Z"/><path d="M14.98,178.85v-4.32h1.48c.12,0,.24,0,.35,0,.12,0,.23,.02,.34,.04,.11,.02,.22,.06,.33,.1,.11,.04,.21,.1,.31,.17,.14,.1,.26,.23,.35,.38,.09,.15,.17,.31,.22,.47s.09,.33,.11,.5c.02,.17,.03,.33,.03,.47s0,.29-.03,.44c-.02,.15-.05,.29-.09,.44-.04,.14-.09,.28-.16,.41-.07,.13-.15,.25-.25,.36-.1,.11-.21,.2-.33,.27-.12,.07-.24,.12-.37,.16s-.26,.06-.41,.08c-.14,.01-.28,.02-.43,.02h-1.48Zm.41-.35h.98c.18,0,.36-.01,.52-.03s.33-.08,.5-.17c.14-.07,.26-.17,.35-.29,.09-.12,.17-.26,.22-.41s.09-.3,.11-.46c.02-.16,.03-.31,.03-.46,0-.16-.01-.31-.03-.48-.02-.16-.06-.32-.11-.46s-.13-.28-.23-.4c-.1-.12-.22-.22-.37-.3-.13-.07-.28-.11-.46-.13-.18-.02-.35-.03-.53-.03h-.98v3.62Z"/><path d="M19.71,176.88v1.96h-.41v-4.32h1.69c.48,0,.84,.09,1.09,.27,.25,.18,.38,.47,.38,.87,0,.27-.05,.49-.17,.65-.11,.16-.29,.3-.54,.41,.13,.04,.23,.11,.3,.19,.07,.08,.13,.18,.16,.29s.06,.22,.07,.34,.02,.24,.02,.35c0,.16,.01,.3,.02,.41,0,.11,.02,.2,.04,.26,.01,.07,.03,.12,.05,.16,.02,.04,.04,.07,.07,.09v.04h-.45c-.04-.07-.07-.17-.09-.29-.02-.13-.03-.26-.04-.4,0-.14-.02-.28-.02-.41,0-.13-.02-.24-.03-.32-.02-.12-.06-.21-.12-.28s-.12-.12-.2-.16-.16-.06-.25-.07c-.09-.01-.19-.02-.29-.02h-1.28Zm1.27-.35c.15,0,.29-.02,.42-.05,.13-.03,.24-.08,.34-.15,.1-.07,.17-.16,.23-.27,.06-.11,.08-.24,.08-.39,0-.16-.03-.29-.09-.4-.06-.1-.14-.19-.23-.25-.1-.06-.21-.1-.34-.13s-.26-.04-.39-.04h-1.3v1.66h1.27Z"/><path d="M23.45,178.85v-4.32h.41v4.32h-.41Z"/><path d="M25,178.85v-4.32h.41v2.24l2.21-2.24h.46l-1.7,1.72,2,2.6h-.5l-1.8-2.35-.68,.68v1.67h-.41Z"/><path d="M29.15,177.56c.02,.19,.06,.35,.13,.49,.07,.13,.16,.24,.27,.33,.11,.08,.24,.15,.38,.18,.14,.04,.3,.06,.46,.06,.19,0,.36-.02,.5-.07,.14-.05,.25-.11,.34-.19s.15-.18,.19-.29,.06-.22,.06-.34c0-.17-.04-.3-.11-.41s-.17-.19-.3-.25-.26-.12-.42-.16c-.16-.04-.32-.08-.49-.12s-.33-.08-.49-.14c-.16-.05-.3-.12-.42-.21-.12-.09-.22-.2-.3-.34-.08-.14-.11-.31-.11-.52,0-.15,.03-.29,.09-.43,.06-.14,.15-.26,.28-.37,.12-.11,.28-.19,.46-.26,.18-.06,.4-.1,.64-.1s.46,.03,.64,.1,.33,.16,.45,.28c.12,.12,.21,.26,.27,.41,.06,.16,.09,.32,.09,.5h-.39c0-.16-.03-.31-.09-.43-.06-.12-.14-.22-.24-.29-.1-.08-.21-.13-.34-.17-.13-.04-.26-.05-.4-.05-.21,0-.38,.03-.53,.09-.14,.06-.25,.13-.34,.23-.08,.09-.14,.19-.17,.31-.03,.11-.04,.22-.02,.34,.02,.14,.08,.25,.17,.34,.09,.08,.2,.15,.32,.21,.13,.05,.27,.1,.42,.13,.15,.03,.31,.07,.47,.11,.16,.04,.31,.08,.46,.14,.15,.05,.28,.12,.4,.21,.12,.09,.21,.2,.28,.34s.11,.31,.11,.52c0,.4-.14,.71-.41,.93-.28,.22-.66,.33-1.16,.33-.22,0-.43-.03-.62-.09-.19-.06-.36-.15-.5-.26-.14-.12-.25-.26-.33-.44-.08-.17-.12-.38-.12-.62h.4Z"/><path d="M32.65,178.85v-4.32h1.56c.25,0,.47,.03,.65,.08,.18,.05,.33,.13,.44,.22,.11,.1,.2,.21,.25,.35,.05,.13,.08,.28,.08,.44,0,.15-.02,.28-.06,.39-.04,.11-.09,.2-.16,.28-.06,.07-.14,.13-.22,.17s-.17,.07-.25,.09h0c.3,.06,.52,.17,.67,.37,.15,.19,.22,.43,.22,.72,0,.22-.04,.41-.11,.57-.07,.16-.17,.28-.29,.38s-.27,.17-.45,.21c-.17,.04-.36,.06-.57,.06h-1.76Zm.41-2.41h1.03c.21,0,.39-.02,.53-.05,.14-.04,.26-.09,.35-.16s.15-.16,.19-.26,.06-.22,.06-.35-.02-.25-.07-.35c-.04-.09-.11-.17-.21-.23-.1-.06-.22-.1-.38-.13-.15-.03-.34-.04-.57-.04h-.94v1.56Zm0,2.06h1.04c.22,0,.42,0,.58-.03s.3-.06,.41-.12c.11-.06,.19-.15,.24-.26,.05-.11,.08-.26,.08-.45s-.03-.33-.09-.44c-.06-.11-.15-.2-.26-.26-.11-.06-.25-.1-.4-.12s-.33-.03-.52-.03h-1.09v1.72Z"/><path d="M36.65,178.85v-4.32h2.87v.35h-2.47v1.56h2.23v.35h-2.23v1.72h2.53v.35h-2.93Z"/><path d="M40.72,176.88v1.96h-.41v-4.32h1.69c.48,0,.84,.09,1.09,.27,.25,.18,.38,.47,.38,.87,0,.27-.05,.49-.17,.65-.11,.16-.29,.3-.54,.41,.13,.04,.23,.11,.3,.19,.07,.08,.13,.18,.16,.29s.06,.22,.07,.34,.02,.24,.02,.35c0,.16,.01,.3,.02,.41,0,.11,.02,.2,.04,.26,.01,.07,.03,.12,.05,.16,.02,.04,.04,.07,.07,.09v.04h-.45c-.04-.07-.07-.17-.09-.29-.02-.13-.03-.26-.04-.4,0-.14-.02-.28-.02-.41,0-.13-.02-.24-.03-.32-.02-.12-.06-.21-.12-.28s-.12-.12-.2-.16-.16-.06-.25-.07c-.09-.01-.19-.02-.29-.02h-1.28Zm1.27-.35c.15,0,.29-.02,.42-.05,.13-.03,.24-.08,.34-.15,.1-.07,.17-.16,.23-.27,.06-.11,.08-.24,.08-.39,0-.16-.03-.29-.09-.4-.06-.1-.14-.19-.23-.25-.1-.06-.21-.1-.34-.13s-.26-.04-.39-.04h-1.3v1.66h1.27Z"/><path d="M46.15,176.96v-.35h1.85v2.23h-.35v-.74c-.08,.13-.16,.24-.26,.35-.1,.11-.21,.2-.34,.27-.13,.07-.28,.13-.44,.17-.17,.04-.36,.06-.57,.06-.27,0-.52-.05-.76-.14-.23-.1-.43-.24-.6-.43s-.3-.43-.39-.72c-.09-.29-.14-.62-.14-1.01,0-.32,.04-.61,.12-.88,.08-.27,.2-.51,.37-.71,.17-.2,.37-.36,.62-.48,.25-.12,.54-.17,.89-.17,.23,0,.44,.03,.64,.08,.2,.06,.38,.14,.53,.25,.16,.11,.29,.26,.4,.43,.11,.17,.19,.37,.23,.6h-.42c-.04-.16-.1-.3-.18-.43s-.19-.23-.31-.32-.25-.15-.4-.2c-.15-.05-.3-.07-.46-.07-.28,0-.53,.05-.73,.15s-.37,.24-.5,.42c-.13,.18-.23,.4-.29,.65-.06,.25-.09,.53-.09,.84,0,.24,.04,.47,.11,.68,.07,.22,.17,.41,.31,.57s.3,.29,.49,.39c.19,.1,.42,.14,.66,.14,.12,0,.24-.01,.36-.04s.24-.07,.36-.13,.22-.14,.32-.23c.1-.1,.19-.21,.26-.35,.07-.14,.12-.28,.14-.43,.03-.15,.04-.3,.04-.47h-1.46Z"/></g></g></svg>