<svg width="32" height="32" viewBox="0 0 32 32" fill="none" xmlns="http://www.w3.org/2000/svg">
<path d="M6.16 24.16C7.52 23.12 9.04 22.2997 10.72 21.6992C12.4 21.0997 14.16 20.8 16 20.8C17.84 20.8 19.6 21.0997 21.28 21.6992C22.96 22.2997 24.48 23.12 25.84 24.16C26.7733 23.0667 27.5003 21.8267 28.0208 20.44C28.5403 19.0533 28.8 17.5733 28.8 16C28.8 12.4533 27.5536 9.43307 25.0608 6.9392C22.5669 4.4464 19.5467 3.2 16 3.2C12.4533 3.2 9.4336 4.4464 6.9408 6.9392C4.44693 9.43307 3.2 12.4533 3.2 16C3.2 17.5733 3.46027 19.0533 3.9808 20.44C4.50027 21.8267 5.22667 23.0667 6.16 24.16ZM16 17.6C14.4267 17.6 13.0997 17.0603 12.0192 15.9808C10.9397 14.9003 10.4 13.5733 10.4 12C10.4 10.4267 10.9397 9.09973 12.0192 8.0192C13.0997 6.93973 14.4267 6.4 16 6.4C17.5733 6.4 18.9003 6.93973 19.9808 8.0192C21.0603 9.09973 21.6 10.4267 21.6 12C21.6 13.5733 21.0603 14.9003 19.9808 15.9808C18.9003 17.0603 17.5733 17.6 16 17.6ZM16 32C13.7867 32 11.7067 31.5797 9.76 30.7392C7.81333 29.8997 6.12 28.76 4.68 27.32C3.24 25.88 2.10027 24.1867 1.2608 22.24C0.420267 20.2933 0 18.2133 0 16C0 13.7867 0.420267 11.7067 1.2608 9.76C2.10027 7.81333 3.24 6.12 4.68 4.68C6.12 3.24 7.81333 2.09973 9.76 1.2592C11.7067 0.419733 13.7867 0 16 0C18.2133 0 20.2933 0.419733 22.24 1.2592C24.1867 2.09973 25.88 3.24 27.32 4.68C28.76 6.12 29.8997 7.81333 30.7392 9.76C31.5797 11.7067 32 13.7867 32 16C32 18.2133 31.5797 20.2933 30.7392 22.24C29.8997 24.1867 28.76 25.88 27.32 27.32C25.88 28.76 24.1867 29.8997 22.24 30.7392C20.2933 31.5797 18.2133 32 16 32Z" fill="#161A24"/>
</svg>
