<svg width="32" height="32" viewBox="0 0 32 32" fill="none" xmlns="http://www.w3.org/2000/svg">
<path d="M28.4444 31.3566L18.3775 21.319C17.5493 21.9768 16.5712 22.4915 15.4431 22.8633C14.315 23.235 13.0942 23.4209 11.7805 23.4209C8.49621 23.4209 5.71174 22.277 3.42704 19.9893C1.14235 17.7015 0 14.9419 0 11.7105C0 8.479 1.14235 5.71939 3.42704 3.43164C5.71174 1.14388 8.48193 0 11.7376 0C14.9647 0 17.7135 1.14388 19.9839 3.43164C22.2543 5.71939 23.3896 8.479 23.3896 11.7105C23.3896 12.9973 23.2111 14.1912 22.8541 15.2922C22.4971 16.3932 21.9616 17.4298 21.2477 18.4021L31.4003 28.4826C31.8001 28.8829 32 29.3619 32 29.9196C32 30.4772 31.7858 30.9562 31.3574 31.3566C30.9576 31.7855 30.4721 32 29.9009 32C29.3298 32 28.8443 31.7855 28.4444 31.3566ZM11.7376 19.3887C13.8795 19.3887 15.6859 18.6381 17.1566 17.1367C18.6274 15.6354 19.3628 13.8266 19.3628 11.7105C19.3628 9.56568 18.6274 7.74978 17.1566 6.26273C15.6859 4.77569 13.8795 4.03217 11.7376 4.03217C9.59571 4.03217 7.7751 4.77569 6.27577 6.26273C4.77644 7.74978 4.02677 9.56568 4.02677 11.7105C4.02677 13.8266 4.77644 15.6354 6.27577 17.1367C7.7751 18.6381 9.59571 19.3887 11.7376 19.3887Z" fill="#161A24"/>
</svg>
