<svg width="240" height="46" viewBox="0 0 240 46" fill="none" xmlns="http://www.w3.org/2000/svg">
<path d="M8.5337 22.4409C8.50636 22.6638 8.28062 23.2454 8.43345 23.4921C8.90334 24.2564 9.52078 24.8941 10.081 25.5813C10.2475 25.2207 10.4071 24.8555 10.5841 24.4998C10.6695 24.3313 10.7693 24.1594 10.897 24.038C13.3473 21.7117 15.7322 19.1695 19.0027 18.714C21.7282 18.333 24.4779 18.0913 27.2209 18.0059C29.2862 17.9403 30.6053 16.5127 31.8793 14.9362C32.1625 14.587 32.2226 13.8088 32.1625 13.2647C31.8967 10.894 30.5738 9.68092 28.585 9.91017C27.8798 9.99177 27.1576 10.0554 26.488 10.3003C19.8357 12.7259 14.0414 16.9696 8.5337 22.4409ZM29.9242 27.8121C26.1236 32.6236 21.5211 35.9235 16.3338 38.1554C13.1283 39.5367 10.1859 38.9296 7.21971 37.058C4.95056 35.6256 4.46993 33.2925 4.47464 30.7033C4.48219 27.0144 5.96891 23.9189 7.70891 21.0063C11.0456 15.4161 15.7018 11.7762 20.7224 8.75208C22.0737 7.93893 23.6376 7.46946 25.1477 7.21917C28.0712 6.73806 30.8524 7.66376 33.4644 9.17873C34.6916 9.89007 35.85 14.473 35.4432 16.3339C34.2942 21.5736 33.3459 23.5495 29.9261 27.8101L29.9242 27.8121Z" fill="#161A24"/>
<path d="M48.5337 22.4409C48.5064 22.6638 48.2806 23.2454 48.4335 23.4921C48.9033 24.2564 49.5208 24.8941 50.081 25.5813C50.2475 25.2207 50.4071 24.8555 50.5841 24.4998C50.6695 24.3313 50.7693 24.1594 50.897 24.038C53.3473 21.7117 55.7322 19.1695 59.0027 18.714C61.7282 18.333 64.4779 18.0913 67.2209 18.0059C69.2862 17.9403 70.6053 16.5127 71.8793 14.9362C72.1625 14.587 72.2226 13.8088 72.1625 13.2647C71.8967 10.894 70.5738 9.68092 68.585 9.91017C67.8798 9.99177 67.1576 10.0554 66.488 10.3003C59.8357 12.7259 54.0414 16.9696 48.5337 22.4409ZM69.9242 27.8121C66.1236 32.6236 61.5211 35.9235 56.3338 38.1554C53.1283 39.5367 50.1859 38.9296 47.2197 37.058C44.9506 35.6256 44.4699 33.2925 44.4746 30.7033C44.4822 27.0144 45.9689 23.9189 47.7089 21.0063C51.0456 15.4161 55.7018 11.7762 60.7224 8.75208C62.0737 7.93893 63.6376 7.46946 65.1477 7.21917C68.0712 6.73806 70.8524 7.66376 73.4644 9.17873C74.6916 9.89007 75.85 14.473 75.4432 16.3339C74.2942 21.5736 73.3459 23.5495 69.9261 27.8101L69.9242 27.8121Z" fill="#748097"/>
<path d="M88.5337 22.4409C88.5064 22.6638 88.2806 23.2454 88.4335 23.4921C88.9033 24.2564 89.5208 24.8941 90.081 25.5813C90.2475 25.2207 90.4071 24.8555 90.5841 24.4998C90.6695 24.3313 90.7693 24.1594 90.897 24.038C93.3473 21.7117 95.7322 19.1695 99.0027 18.714C101.728 18.333 104.478 18.0913 107.221 18.0059C109.286 17.9403 110.605 16.5127 111.879 14.9362C112.162 14.587 112.223 13.8088 112.162 13.2647C111.897 10.894 110.574 9.68092 108.585 9.91017C107.88 9.99177 107.158 10.0554 106.488 10.3003C99.8357 12.7259 94.0414 16.9696 88.5337 22.4409ZM109.924 27.8121C106.124 32.6236 101.521 35.9235 96.3338 38.1554C93.1283 39.5367 90.1859 38.9296 87.2197 37.058C84.9506 35.6256 84.4699 33.2925 84.4746 30.7033C84.4822 27.0144 85.9689 23.9189 87.7089 21.0063C91.0456 15.4161 95.7018 11.7762 100.722 8.75208C102.074 7.93893 103.638 7.46946 105.148 7.21917C108.071 6.73806 110.852 7.66376 113.464 9.17873C114.692 9.89007 115.85 14.473 115.443 16.3339C114.294 21.5736 113.346 23.5495 109.926 27.8101L109.924 27.8121Z" fill="#748097"/>
<path d="M128.534 22.4409C128.506 22.6638 128.281 23.2454 128.433 23.4921C128.903 24.2564 129.521 24.8941 130.081 25.5813C130.247 25.2207 130.407 24.8555 130.584 24.4998C130.669 24.3313 130.769 24.1594 130.897 24.038C133.347 21.7117 135.732 19.1695 139.003 18.714C141.728 18.333 144.478 18.0913 147.221 18.0059C149.286 17.9403 150.605 16.5127 151.879 14.9362C152.162 14.587 152.223 13.8088 152.162 13.2647C151.897 10.894 150.574 9.68092 148.585 9.91017C147.88 9.99177 147.158 10.0554 146.488 10.3003C139.836 12.7259 134.041 16.9696 128.534 22.4409ZM149.924 27.8121C146.124 32.6236 141.521 35.9235 136.334 38.1554C133.128 39.5367 130.186 38.9296 127.22 37.058C124.951 35.6256 124.47 33.2925 124.475 30.7033C124.482 27.0144 125.969 23.9189 127.709 21.0063C131.046 15.4161 135.702 11.7762 140.722 8.75208C142.074 7.93893 143.638 7.46946 145.148 7.21917C148.071 6.73806 150.852 7.66376 153.464 9.17873C154.692 9.89007 155.85 14.473 155.443 16.3339C154.294 21.5736 153.346 23.5495 149.926 27.8101L149.924 27.8121Z" fill="#748097"/>
<path d="M168.534 22.4409C168.506 22.6638 168.281 23.2454 168.433 23.4921C168.903 24.2564 169.521 24.8941 170.081 25.5813C170.247 25.2207 170.407 24.8555 170.584 24.4998C170.669 24.3313 170.769 24.1594 170.897 24.038C173.347 21.7117 175.732 19.1695 179.003 18.714C181.728 18.333 184.478 18.0913 187.221 18.0059C189.286 17.9403 190.605 16.5127 191.879 14.9362C192.162 14.587 192.223 13.8088 192.162 13.2647C191.897 10.894 190.574 9.68092 188.585 9.91017C187.88 9.99177 187.158 10.0554 186.488 10.3003C179.836 12.7259 174.041 16.9696 168.534 22.4409ZM189.924 27.8121C186.124 32.6236 181.521 35.9235 176.334 38.1554C173.128 39.5367 170.186 38.9296 167.22 37.058C164.951 35.6256 164.47 33.2925 164.475 30.7033C164.482 27.0144 165.969 23.9189 167.709 21.0063C171.046 15.4161 175.702 11.7762 180.722 8.75208C182.074 7.93893 183.638 7.46946 185.148 7.21917C188.071 6.73806 190.852 7.66376 193.464 9.17873C194.692 9.89007 195.85 14.473 195.443 16.3339C194.294 21.5736 193.346 23.5495 189.926 27.8101L189.924 27.8121Z" fill="#748097"/>
<path d="M208.534 22.4409C208.506 22.6638 208.281 23.2454 208.433 23.4921C208.903 24.2564 209.521 24.8941 210.081 25.5813C210.247 25.2207 210.407 24.8555 210.584 24.4998C210.669 24.3313 210.769 24.1594 210.897 24.038C213.347 21.7117 215.732 19.1695 219.003 18.714C221.728 18.333 224.478 18.0913 227.221 18.0059C229.286 17.9403 230.605 16.5127 231.879 14.9362C232.162 14.587 232.223 13.8088 232.162 13.2647C231.897 10.894 230.574 9.68092 228.585 9.91017C227.88 9.99177 227.158 10.0554 226.488 10.3003C219.836 12.7259 214.041 16.9696 208.534 22.4409ZM229.924 27.8121C226.124 32.6236 221.521 35.9235 216.334 38.1554C213.128 39.5367 210.186 38.9296 207.22 37.058C204.951 35.6256 204.47 33.2925 204.475 30.7033C204.482 27.0144 205.969 23.9189 207.709 21.0063C211.046 15.4161 215.702 11.7762 220.722 8.75208C222.074 7.93893 223.638 7.46946 225.148 7.21917C228.071 6.73806 230.852 7.66376 233.464 9.17873C234.692 9.89007 235.85 14.473 235.443 16.3339C234.294 21.5736 233.346 23.5495 229.926 27.8101L229.924 27.8121Z" fill="#748097"/>
</svg>
