<svg width="85" height="85" fill="none" xmlns="http://www.w3.org/2000/svg"><path d="M63.75 21.25v-7.083h7.083V7.083H21.25c-3.896 0-7.083 3.188-7.083 7.084v56.666c0 3.896 3.187 7.084 7.083 7.084h49.583v-7.084H56.56a17.588 17.588 0 0 0 7.19-14.166V38.958H28.333v17.709c0 5.808 2.87 10.943 7.19 14.166H21.25V14.167h7.083v7.083a3.552 3.552 0 0 0 3.542 3.542h28.333a3.552 3.552 0 0 0 3.542-3.542Zm-17.708 7.083a3.552 3.552 0 0 1 3.541 3.542 3.552 3.552 0 0 1-3.541 3.542 3.552 3.552 0 0 1-3.542-3.542 3.552 3.552 0 0 1 3.542-3.542Z" fill="#364259"/></svg>