<svg width="32" height="32" fill="none" xmlns="http://www.w3.org/2000/svg"><path d="M28.444 31.357 18.378 21.319c-.829.658-1.807 1.172-2.935 1.544-1.128.372-2.349.558-3.662.558-3.285 0-6.07-1.144-8.354-3.432C1.142 17.701 0 14.942 0 11.71 0 8.48 1.142 5.72 3.427 3.432 5.712 1.144 8.482 0 11.737 0c3.228 0 5.976 1.144 8.247 3.432 2.27 2.287 3.406 5.047 3.406 8.278 0 1.287-.179 2.481-.536 3.582a10.926 10.926 0 0 1-1.606 3.11L31.4 28.482c.4.4.6.88.6 1.438 0 .557-.214 1.036-.643 1.437-.4.428-.885.643-1.456.643a1.918 1.918 0 0 1-1.457-.643ZM11.738 19.389c2.142 0 3.948-.75 5.419-2.252 1.47-1.502 2.206-3.31 2.206-5.427 0-2.144-.736-3.96-2.206-5.447-1.471-1.487-3.277-2.23-5.42-2.23-2.141 0-3.962.743-5.461 2.23-1.5 1.487-2.25 3.303-2.25 5.447 0 2.117.75 3.925 2.25 5.427 1.5 1.501 3.32 2.252 5.462 2.252Z" fill="#161A24"/></svg>